<svg width="25" height="25" viewBox="0 0 25 25" fill="none" xmlns="http://www.w3.org/2000/svg">
<g clip-path="url(#clip0_562_11864)">
<path d="M10.8426 13.82C10.8426 13.6897 10.8426 13.6245 10.8426 13.5593C10.8426 11.1473 10.8426 8.70269 10.8426 6.2907C10.8426 4.79135 10.8426 3.292 10.8426 1.79265C10.8426 1.01038 11.3287 0.293305 12.0273 0.0977378C12.726 -0.130424 13.4854 0.195521 13.8803 0.847412C14.0626 1.17336 14.1537 1.4993 14.1537 1.85784C14.1537 5.76919 14.1537 9.68053 14.1537 13.6245C14.1537 13.6897 14.1537 13.7548 14.1537 13.8526C14.2145 13.82 14.2145 13.7874 14.2448 13.7874C14.7916 13.2007 15.3688 12.614 15.9156 12.0273C16.7357 11.1473 17.5559 10.2346 18.4064 9.35458C19.0747 8.6375 20.1379 8.83307 20.5936 9.68053C20.8973 10.2346 20.8062 11.0169 20.3505 11.4732C19.743 12.1251 19.1051 12.8096 18.4976 13.4615C16.8268 15.2542 15.1561 17.0469 13.455 18.8722C12.8779 19.4915 12.0881 19.4915 11.5109 18.8722C9.96172 17.2099 8.41251 15.5475 6.8633 13.8852C6.31652 13.2985 5.73937 12.6792 5.19259 12.0925C5.01033 11.8644 4.76731 11.6688 4.58505 11.4732C4.22053 11.0169 4.09903 10.4954 4.31166 9.94129C4.5243 9.38718 4.9192 9.06123 5.49635 8.99604C5.92163 8.96345 6.31652 9.09383 6.62029 9.45237C7.37971 10.2998 8.1695 11.1147 8.95929 11.9621C9.53645 12.5814 10.144 13.2333 10.7211 13.8526C10.7515 13.7548 10.7819 13.7548 10.8426 13.82Z" fill="#FAFAFA"/>
<path d="M12.4839 25C9.2336 25 6.01367 25 2.76337 25C1.73056 25 0.880012 24.5437 0.333232 23.5659C0.120595 23.2073 -0.000911779 22.7836 -0.000911779 22.3273C-0.000911779 21.6428 0.0294649 20.9257 -0.000911779 20.2412C-0.0312884 19.4264 0.606622 18.7745 1.42679 18.7745C1.91282 18.7745 2.30772 19.0026 2.58111 19.4264C2.79374 19.7523 2.76337 20.1108 2.76337 20.4694C2.76337 20.8279 2.76337 21.1539 2.91525 21.4798C3.18864 22.0013 3.61391 22.2947 4.16069 22.2947C9.68925 22.2947 15.2178 22.2947 20.7464 22.2947C21.5361 22.2947 22.1437 21.6428 22.1741 20.7627C22.1741 20.5346 22.1741 20.3064 22.1741 20.0783C22.1741 19.5241 22.569 18.97 23.1157 18.8071C23.6018 18.6441 24.0574 18.7093 24.4827 19.0352C24.8168 19.296 24.9687 19.6219 24.9687 20.0457C24.9687 20.7301 24.9687 21.4146 24.9687 22.1317C24.9991 23.3051 24.3004 24.2829 23.3284 24.7067C22.9639 24.8696 22.5993 24.9348 22.2044 24.9348C18.9541 25 15.7342 25 12.4839 25Z" fill="#FAFAFA"/>
</g>
<defs>
<clipPath id="clip0_562_11864">
<rect width="25" height="25" fill="white"/>
</clipPath>
</defs>
</svg>
