<svg width="70" height="70" viewBox="0 0 70 70" fill="none" xmlns="http://www.w3.org/2000/svg">
<g filter="url(#filter0_d_662_9257)">
<circle cx="35" cy="31" r="31" fill="white"/>
</g>
<path fill-rule="evenodd" clip-rule="evenodd" d="M46.5 31.7841C46.5 30.8977 46.4205 30.0455 46.2727 29.2273H34.5V34.0625H41.2273C40.9375 35.625 40.0568 36.9489 38.733 37.8352V40.9716H42.7727C45.1364 38.7955 46.5 35.5909 46.5 31.7841Z" fill="#4285F4"/>
<path fill-rule="evenodd" clip-rule="evenodd" d="M34.5 43.9998C37.875 43.9998 40.7046 42.8804 42.7728 40.9713L38.733 37.835C37.6137 38.585 36.1819 39.0282 34.5 39.0282C31.2444 39.0282 28.4887 36.8293 27.5057 33.8748H23.3296V37.1134C25.3864 41.1986 29.6137 43.9998 34.5 43.9998Z" fill="#34A853"/>
<path fill-rule="evenodd" clip-rule="evenodd" d="M27.5057 33.8751C27.2557 33.1251 27.1136 32.324 27.1136 31.5001C27.1136 30.6762 27.2557 29.8751 27.5057 29.1251V25.8865H23.3295C22.483 27.574 22 29.4831 22 31.5001C22 33.5172 22.483 35.4262 23.3295 37.1137L27.5057 33.8751Z" fill="#FBBC05"/>
<path fill-rule="evenodd" clip-rule="evenodd" d="M34.5 23.9716C36.3353 23.9716 37.983 24.6023 39.2785 25.8409L42.8637 22.2557C40.6989 20.2386 37.8694 19 34.5 19C29.6137 19 25.3864 21.8011 23.3296 25.8864L27.5057 29.125C28.4887 26.1705 31.2444 23.9716 34.5 23.9716Z" fill="#EA4335"/>
<defs>
<filter id="filter0_d_662_9257" x="0" y="0" width="70" height="70" filterUnits="userSpaceOnUse" color-interpolation-filters="sRGB">
<feFlood flood-opacity="0" result="BackgroundImageFix"/>
<feColorMatrix in="SourceAlpha" type="matrix" values="0 0 0 0 0 0 0 0 0 0 0 0 0 0 0 0 0 0 127 0" result="hardAlpha"/>
<feOffset dy="4"/>
<feGaussianBlur stdDeviation="2"/>
<feComposite in2="hardAlpha" operator="out"/>
<feColorMatrix type="matrix" values="0 0 0 0 0 0 0 0 0 0 0 0 0 0 0 0 0 0 0.25 0"/>
<feBlend mode="normal" in2="BackgroundImageFix" result="effect1_dropShadow_662_9257"/>
<feBlend mode="normal" in="SourceGraphic" in2="effect1_dropShadow_662_9257" result="shape"/>
</filter>
</defs>
</svg>
