<svg width="21" height="20" viewBox="0 0 21 20" fill="none" xmlns="http://www.w3.org/2000/svg">
<path d="M10.5 0C16.299 0 21 3.79711 21 8.48235C21 13.1665 16.299 16.9637 10.5 16.9637C9.92257 16.964 9.34572 16.9259 8.773 16.8497L4.365 19.8374C3.864 20.112 3.687 20.082 3.893 19.4094L4.785 15.5978C1.905 14.0847 0 11.4628 0 8.48235C0 3.79814 4.701 0 10.5 0ZM16.407 8.35281L17.877 6.87707C17.9618 6.78578 18.0091 6.66394 18.009 6.5372C18.0088 6.41047 17.9612 6.28874 17.8762 6.19767C17.7912 6.10659 17.6753 6.05327 17.5531 6.04893C17.4309 6.0446 17.3118 6.0896 17.221 6.17444L15.293 8.10823V6.51021C15.293 6.38048 15.2433 6.25607 15.1548 6.16434C15.0662 6.0726 14.9462 6.02107 14.821 6.02107C14.6958 6.02107 14.5758 6.0726 14.4872 6.16434C14.3987 6.25607 14.349 6.38048 14.349 6.51021V9.1601C14.3313 9.2357 14.3313 9.31458 14.349 9.39017V10.8814C14.349 11.0112 14.3987 11.1356 14.4872 11.2273C14.5758 11.3191 14.6958 11.3706 14.821 11.3706C14.9462 11.3706 15.0662 11.3191 15.1548 11.2273C15.2433 11.1356 15.293 11.0112 15.293 10.8814V9.46893L15.72 9.04093L17.148 11.1478C17.1837 11.2004 17.229 11.2452 17.2813 11.2796C17.3337 11.3141 17.3921 11.3375 17.4532 11.3486C17.5143 11.3597 17.5769 11.3582 17.6374 11.3441C17.698 11.3301 17.7552 11.3039 17.806 11.267C17.8568 11.23 17.9 11.1831 17.9332 11.1288C17.9665 11.0745 17.9891 11.014 17.9998 10.9507C18.0105 10.8874 18.009 10.8225 17.9955 10.7598C17.982 10.697 17.9567 10.6377 17.921 10.5851L16.407 8.35177V8.35281ZM13.449 10.3467H11.989V6.52576C11.9834 6.40006 11.9313 6.28143 11.8435 6.19452C11.7557 6.10761 11.6389 6.05912 11.5175 6.05912C11.3961 6.05912 11.2793 6.10761 11.1915 6.19452C11.1037 6.28143 11.0516 6.40006 11.046 6.52576V10.8358C11.046 11.1053 11.256 11.325 11.517 11.325H13.449C13.5742 11.325 13.6942 11.2735 13.7828 11.1817C13.8713 11.09 13.921 10.9656 13.921 10.8358C13.921 10.7061 13.8713 10.5817 13.7828 10.49C13.6942 10.3982 13.5742 10.3467 13.449 10.3467ZM7.592 9.21503L8.288 7.44602L8.926 9.21503H7.592ZM10.115 9.72076L10.117 9.70418C10.1168 9.58095 10.0714 9.46241 9.99 9.37255L8.944 6.47083C8.90015 6.33255 8.81663 6.21143 8.70459 6.12366C8.59255 6.03588 8.45733 5.98563 8.317 5.97961C8.17564 5.97897 8.03744 6.02295 7.92079 6.1057C7.80414 6.18845 7.71457 6.30605 7.664 6.44285L6.003 10.6659C5.97956 10.7254 5.96765 10.789 5.96796 10.8533C5.96826 10.9175 5.98077 10.9811 6.00478 11.0403C6.02878 11.0995 6.06381 11.1533 6.10785 11.1985C6.1519 11.2437 6.20411 11.2795 6.2615 11.3038C6.31889 11.328 6.38033 11.3404 6.44232 11.3401C6.50431 11.3398 6.56563 11.3268 6.62279 11.3019C6.67994 11.277 6.73181 11.2407 6.77543 11.1951C6.81904 11.1494 6.85356 11.0953 6.877 11.0359L7.207 10.1933H9.277L9.576 11.0224C9.59633 11.0844 9.62845 11.1415 9.67047 11.1903C9.71248 11.2392 9.76353 11.2788 9.8206 11.3069C9.87766 11.335 9.93958 11.3508 10.0027 11.3536C10.0658 11.3565 10.1288 11.3461 10.188 11.3232C10.2471 11.3003 10.3013 11.2654 10.3472 11.2204C10.3931 11.1754 10.4298 11.1214 10.4551 11.0614C10.4805 11.0015 10.494 10.9369 10.4948 10.8714C10.4957 10.806 10.4838 10.741 10.46 10.6804L10.115 9.72076ZM6.793 6.53094C6.793 6.40139 6.74341 6.27713 6.65511 6.18543C6.56681 6.09372 6.44701 6.04207 6.322 6.04179H3.077C2.95182 6.04179 2.83176 6.09333 2.74325 6.18506C2.65473 6.27679 2.605 6.40121 2.605 6.53094C2.605 6.66067 2.65473 6.78509 2.74325 6.87682C2.83176 6.96855 2.95182 7.02009 3.077 7.02009H4.237V10.8918C4.237 11.0215 4.28673 11.146 4.37525 11.2377C4.46376 11.3294 4.58382 11.381 4.709 11.381C4.83418 11.381 4.95424 11.3294 5.04275 11.2377C5.13127 11.146 5.181 11.0215 5.181 10.8918V7.02009H6.321C6.44618 7.02009 6.56624 6.96855 6.65475 6.87682C6.74327 6.78509 6.793 6.66067 6.793 6.53094Z" fill="#3A1D1D"/>
</svg>
