<svg width="70" height="70" viewBox="0 0 70 70" fill="none" xmlns="http://www.w3.org/2000/svg">
<g filter="url(#filter0_d_662_9258)">
<circle cx="35" cy="31" r="31" fill="#F7E600"/>
</g>
<path d="M34.5 19C41.4036 19 47 23.7464 47 29.6029C47 35.4582 41.4036 40.2046 34.5 40.2046C33.8126 40.205 33.1259 40.1574 32.444 40.0621L27.1964 43.7967C26.6 44.14 26.3893 44.1025 26.6345 43.2617L27.6964 38.4972C24.2679 36.6059 22 33.3285 22 29.6029C22 23.7477 27.5964 19 34.5 19ZM41.5321 29.441L43.2821 27.5963C43.3831 27.4822 43.4395 27.3299 43.4393 27.1715C43.4391 27.0131 43.3824 26.8609 43.2812 26.7471C43.18 26.6332 43.0421 26.5666 42.8966 26.5612C42.7511 26.5558 42.6093 26.612 42.5012 26.7181L40.206 29.1353V27.1378C40.206 26.9756 40.1468 26.8201 40.0414 26.7054C39.936 26.5908 39.7931 26.5263 39.644 26.5263C39.495 26.5263 39.3521 26.5908 39.2467 26.7054C39.1413 26.8201 39.0821 26.9756 39.0821 27.1378V30.4501C39.0611 30.5446 39.0611 30.6432 39.0821 30.7377V32.6018C39.0821 32.764 39.1413 32.9195 39.2467 33.0342C39.3521 33.1488 39.495 33.2132 39.644 33.2132C39.7931 33.2132 39.936 33.1488 40.0414 33.0342C40.1468 32.9195 40.206 32.764 40.206 32.6018V30.8362L40.7143 30.3012L42.4143 32.9347C42.4567 33.0005 42.5107 33.0565 42.573 33.0996C42.6353 33.1426 42.7049 33.1719 42.7776 33.1857C42.8503 33.1996 42.9249 33.1977 42.9969 33.1802C43.069 33.1627 43.1372 33.1299 43.1976 33.0837C43.258 33.0375 43.3095 32.9788 43.3491 32.911C43.3887 32.8432 43.4156 32.7675 43.4283 32.6884C43.441 32.6092 43.4393 32.5281 43.4232 32.4497C43.4071 32.3713 43.377 32.2971 43.3345 32.2313L41.5321 29.4397V29.441ZM38.0107 31.9334H36.2726V27.1572C36.266 27.0001 36.2039 26.8518 36.0994 26.7431C35.9948 26.6345 35.8559 26.5739 35.7113 26.5739C35.5668 26.5739 35.4278 26.6345 35.3232 26.7431C35.2187 26.8518 35.1567 27.0001 35.15 27.1572V32.5448C35.15 32.8816 35.4 33.1562 35.7107 33.1562H38.0107C38.1597 33.1562 38.3027 33.0918 38.408 32.9772C38.5134 32.8625 38.5726 32.707 38.5726 32.5448C38.5726 32.3826 38.5134 32.2271 38.408 32.1125C38.3027 31.9978 38.1597 31.9334 38.0107 31.9334ZM31.0381 30.5188L31.8667 28.3075L32.6262 30.5188H31.0381ZM34.0417 31.1509L34.044 31.1302C34.0438 30.9762 33.9897 30.828 33.8929 30.7157L32.6476 27.0885C32.5954 26.9157 32.496 26.7643 32.3626 26.6546C32.2292 26.5449 32.0683 26.482 31.9012 26.4745C31.7329 26.4737 31.5684 26.5287 31.4295 26.6321C31.2906 26.7356 31.184 26.8826 31.1238 27.0536L29.1464 32.3324C29.1185 32.4067 29.1043 32.4863 29.1047 32.5666C29.1051 32.6469 29.12 32.7263 29.1485 32.8004C29.1771 32.8744 29.2188 32.9416 29.2713 32.9981C29.3237 33.0546 29.3858 33.0993 29.4542 33.1297C29.5225 33.1601 29.5956 33.1755 29.6694 33.1751C29.7432 33.1747 29.8162 33.1585 29.8843 33.1274C29.9523 33.0963 30.0141 33.0509 30.066 32.9939C30.1179 32.9368 30.159 32.8692 30.1869 32.7948L30.5798 31.7417H33.044L33.4 32.778C33.4242 32.8554 33.4624 32.9268 33.5125 32.9879C33.5625 33.049 33.6233 33.0986 33.6912 33.1336C33.7591 33.1687 33.8328 33.1886 33.908 33.1921C33.9831 33.1956 34.0581 33.1826 34.1285 33.154C34.199 33.1254 34.2634 33.0817 34.318 33.0255C34.3727 32.9693 34.4164 32.9017 34.4466 32.8268C34.4768 32.7518 34.4929 32.6711 34.4939 32.5893C34.4949 32.5075 34.4807 32.4263 34.4524 32.3505L34.0417 31.1509ZM30.0869 27.1637C30.0869 27.0017 30.0279 26.8464 29.9227 26.7318C29.8176 26.6172 29.675 26.5526 29.5262 26.5522H25.6631C25.5141 26.5522 25.3711 26.6167 25.2658 26.7313C25.1604 26.846 25.1012 27.0015 25.1012 27.1637C25.1012 27.3258 25.1604 27.4814 25.2658 27.596C25.3711 27.7107 25.5141 27.7751 25.6631 27.7751H27.044V32.6148C27.044 32.7769 27.1032 32.9324 27.2086 33.0471C27.314 33.1618 27.4569 33.2262 27.606 33.2262C27.755 33.2262 27.8979 33.1618 28.0033 33.0471C28.1087 32.9324 28.1679 32.7769 28.1679 32.6148V27.7751H29.525C29.674 27.7751 29.8169 27.7107 29.9223 27.596C30.0277 27.4814 30.0869 27.3258 30.0869 27.1637Z" fill="#3A1D1D"/>
<defs>
<filter id="filter0_d_662_9258" x="0" y="0" width="70" height="70" filterUnits="userSpaceOnUse" color-interpolation-filters="sRGB">
<feFlood flood-opacity="0" result="BackgroundImageFix"/>
<feColorMatrix in="SourceAlpha" type="matrix" values="0 0 0 0 0 0 0 0 0 0 0 0 0 0 0 0 0 0 127 0" result="hardAlpha"/>
<feOffset dy="4"/>
<feGaussianBlur stdDeviation="2"/>
<feComposite in2="hardAlpha" operator="out"/>
<feColorMatrix type="matrix" values="0 0 0 0 0 0 0 0 0 0 0 0 0 0 0 0 0 0 0.25 0"/>
<feBlend mode="normal" in2="BackgroundImageFix" result="effect1_dropShadow_662_9258"/>
<feBlend mode="normal" in="SourceGraphic" in2="effect1_dropShadow_662_9258" result="shape"/>
</filter>
</defs>
</svg>
