<svg width="106" height="23" viewBox="0 0 106 23" fill="none" xmlns="http://www.w3.org/2000/svg">
<path d="M0.233516 22.2522H6.17352C12.7735 22.2522 16.6135 18.3222 16.6135 11.1222C16.6135 3.92223 12.7735 0.172226 5.99352 0.172226H0.233516V22.2522ZM3.74352 19.4022V2.99223H5.72352C10.4635 2.99223 13.0435 5.63223 13.0435 11.1222C13.0435 16.6122 10.4635 19.4022 5.72352 19.4022H3.74352Z" fill="#2BBF1E"/>
<path d="M21.2101 22.2522H24.7201V0.172226H21.2101V22.2522ZM30.4679 22.2522H33.9779V15.6222L37.3679 11.4522L43.6079 22.2522H47.4479L39.4979 8.69223L46.3379 0.172226H42.4379L34.0379 10.6122H33.9779V0.172226H30.4679V22.2522ZM50.3898 22.2522H53.8998V15.6222L57.2898 11.4522L63.5298 22.2522H67.3698L59.4198 8.69223L66.2598 0.172226H62.3598L53.9598 10.6122H53.8998V0.172226H50.3898V22.2522ZM66.9629 22.2522H70.5029L74.0729 10.2822C74.8229 7.88223 75.4829 5.42223 76.1429 2.93223H76.2629C76.9529 5.39223 77.6129 7.88223 78.3629 10.2822L81.9029 22.2522H85.5929L78.3029 0.172226H74.2529L66.9629 22.2522ZM71.0729 15.9822H81.3929V13.2522H71.0729V15.9822ZM88.505 22.2522H92.015V15.6222L95.405 11.4522L101.645 22.2522H105.485L97.535 8.69223L104.375 0.172226H100.475L92.075 10.6122H92.015V0.172226H88.505V22.2522Z" fill="#905DFB"/>
</svg>
