<svg width="15" height="15" viewBox="0 0 15 15" fill="none" xmlns="http://www.w3.org/2000/svg">
<g clip-path="url(#clip0_536_5652)">
<path d="M6.47096 5.27783C7.2823 5.31751 8.01449 5.57545 8.62795 6.13101C8.84563 6.32942 8.96436 6.56751 8.74669 6.80561C8.5488 7.06355 8.29154 6.98418 8.05407 6.80561C6.86674 5.85323 5.6794 5.93259 4.59101 7.00402C3.60157 8.03577 2.57254 9.04767 1.5831 10.0794C0.316604 11.4088 0.850905 13.512 2.57254 14.0278C3.48283 14.3056 4.29418 14.0675 4.967 13.3929C5.77835 12.5794 6.58969 11.7659 7.40104 10.9524C7.48019 10.8731 7.55935 10.7342 7.65829 10.7143C7.83639 10.6945 8.11344 10.6548 8.21238 10.754C8.31133 10.8532 8.25196 11.1112 8.25196 11.3096C8.25196 11.3294 8.21238 11.3691 8.17281 11.3889C7.24273 12.3215 6.33244 13.2937 5.36278 14.1667C3.52241 15.8135 0.653016 14.881 0.079137 12.4802C-0.178119 11.3889 0.0593481 10.377 0.831116 9.56355C1.95908 8.41275 3.10684 7.2818 4.2546 6.15085C4.84827 5.57545 5.62004 5.29767 6.47096 5.27783Z" fill="#717171"/>
<path d="M12.0514 0C13.0606 0.0396825 14.0698 0.615079 14.6437 1.84524C15.2176 3.05556 15.1187 4.28571 14.2281 5.29762C13.0804 6.5873 11.8535 7.79762 10.587 8.96825C9.41944 10.0397 7.61865 9.96032 6.43131 8.92857C6.19385 8.73016 6.01575 8.49206 6.23342 8.19444C6.39174 7.97619 6.66878 7.99603 6.9854 8.25397C7.95506 9.06746 9.26113 9.06746 10.1912 8.19444C11.3192 7.12302 12.4076 6.0119 13.4762 4.88095C14.3667 3.92857 14.3271 2.5 13.4366 1.5873C12.5263 0.674603 11.0817 0.634921 10.1318 1.54762C9.28092 2.36111 8.44978 3.23413 7.59886 4.06746C7.5197 4.14683 7.44055 4.28571 7.3416 4.30556C7.1635 4.34524 6.88646 4.36508 6.78751 4.26587C6.68857 4.16667 6.72815 3.90873 6.74794 3.71032C6.74794 3.65079 6.84688 3.59127 6.90625 3.53175C7.73738 2.69841 8.56852 1.86508 9.39965 1.03175C10.0131 0.357143 10.8047 0 12.0514 0Z" fill="#717171"/>
</g>
<defs>
<clipPath id="clip0_536_5652">
<rect width="15" height="15" fill="white"/>
</clipPath>
</defs>
</svg>
