<svg width="20" height="20" viewBox="0 0 20 20" fill="none" xmlns="http://www.w3.org/2000/svg">
<g clip-path="url(#clip0_562_11676)">
<path d="M8.62795 7.03711C9.70974 7.09002 10.686 7.43393 11.5039 8.17468C11.7942 8.43923 11.9525 8.75669 11.6622 9.07415C11.3984 9.41806 11.0554 9.31224 10.7388 9.07415C9.15565 7.8043 7.57254 7.91012 6.12135 9.3387C4.80209 10.7144 3.43005 12.0636 2.11079 13.4392C0.422139 15.2117 1.13454 18.0159 3.43005 18.7038C4.64378 19.0741 5.72557 18.7567 6.62267 17.8572C7.70446 16.7726 8.78626 15.6879 9.86805 14.6032C9.97359 14.4974 10.0791 14.3122 10.2111 14.2858C10.4485 14.2593 10.8179 14.2064 10.9498 14.3387C11.0818 14.471 11.0026 14.8149 11.0026 15.0794C11.0026 15.1059 10.9498 15.1588 10.8971 15.1853C9.65697 16.4286 8.44325 17.7249 7.15037 18.889C4.69655 21.0847 0.870688 19.8413 0.105516 16.6403C-0.237492 15.1853 0.0791307 13.8361 1.10815 12.7514C2.61211 11.217 4.14246 9.70907 5.6728 8.20113C6.46436 7.43393 7.49338 7.06356 8.62795 7.03711Z" fill="white"/>
<path d="M16.0682 0C17.4138 0.0529101 18.7595 0.820106 19.5246 2.46032C20.2898 4.07407 20.1579 5.71429 18.9705 7.06349C17.4402 8.78307 15.8043 10.3968 14.1157 11.9577C12.5589 13.3862 10.1579 13.2804 8.57476 11.9048C8.25814 11.6402 8.02067 11.3228 8.31091 10.9259C8.52199 10.6349 8.89138 10.6614 9.31355 11.0053C10.6064 12.0899 12.3478 12.0899 13.588 10.9259C15.0919 9.49735 16.5431 8.01587 17.9679 6.50794C19.1552 5.2381 19.1025 3.33333 17.9151 2.1164C16.7014 0.899471 14.7753 0.846561 13.5088 2.06349C12.3742 3.14815 11.2661 4.31217 10.1315 5.42328C10.0259 5.5291 9.92041 5.71429 9.78848 5.74074C9.55101 5.79365 9.18162 5.82011 9.04969 5.68783C8.91777 5.55556 8.97054 5.21164 8.99692 4.94709C8.99692 4.86773 9.12885 4.78836 9.20801 4.70899C10.3162 3.59788 11.4244 2.48677 12.5325 1.37566C13.3505 0.47619 14.4059 0 16.0682 0Z" fill="white"/>
</g>
<defs>
<clipPath id="clip0_562_11676">
<rect width="20" height="20" fill="white"/>
</clipPath>
</defs>
</svg>
