<svg width="20" height="18" viewBox="0 0 20 18" fill="none" xmlns="http://www.w3.org/2000/svg">
<path d="M1.92578 13.1486C1.58348 13.8709 1.1825 14.5737 0.918441 15.3253C0.693502 15.9501 0.97712 16.282 1.64216 16.321C1.83776 16.3308 2.05291 16.2722 2.21917 16.3308C2.41477 16.4089 2.56147 16.5943 2.72773 16.731C2.57125 16.8774 2.41477 17.1312 2.23873 17.1507C1.85732 17.1898 1.45634 17.1605 1.0847 17.0726C0.312084 16.8872 -0.0791139 16.2527 0.0186856 15.4522C0.165385 14.3492 0.752182 13.4512 1.39766 12.6019C1.6226 12.3091 1.64216 12.065 1.5248 11.7234C-0.225813 6.35463 3.41233 0.72231 9.05536 0.068297C11.4221 -0.205022 13.5541 0.400184 15.471 1.7863C15.7253 1.97177 15.9209 1.98153 16.2143 1.92296C16.9869 1.7863 17.7889 1.60083 18.5615 1.63988C19.9796 1.72773 20.3121 3.05528 19.7057 4.22665C19.647 4.34378 19.3439 4.43164 19.2265 4.37307C19.0994 4.32426 18.982 4.08999 18.9722 3.92404C18.9527 3.73858 19.07 3.55311 19.1091 3.36765C19.2069 2.84053 19.0211 2.49888 18.493 2.47936C17.8769 2.45007 17.251 2.55745 16.4979 2.61602C18.7277 5.08565 19.5786 7.79931 18.9233 10.9034C18.4343 13.2364 17.1434 15.0813 15.1678 16.4381C10.9135 19.3568 4.75218 18.1269 1.92578 13.1486ZM6.26807 9.44899C6.31697 10.8937 6.62993 12.2212 7.23629 13.4707C7.29497 13.5878 7.51013 13.6952 7.64705 13.6952C9.29008 13.7147 10.9233 13.7147 12.5664 13.6952C12.7228 13.6952 12.9576 13.5292 13.0065 13.3828C13.2803 12.641 13.5444 11.8893 13.74 11.1279C13.8769 10.5911 13.8867 10.0249 13.9649 9.45875C11.3536 9.44899 8.84998 9.44899 6.26807 9.44899ZM13.9356 8.53142C13.8573 7.0184 13.5346 5.63229 12.85 4.28522C10.6299 5.48587 8.60548 6.88174 6.59081 8.53142C9.12382 8.53142 11.5101 8.53142 13.9356 8.53142ZM18.2387 8.52166C18.1703 7.31124 17.828 6.21797 17.3096 5.16374C16.9967 4.51949 16.6153 4.12903 15.8329 4.27545C15.471 4.34378 15.0896 4.28522 14.7179 4.28522C14.4343 4.28522 14.1605 4.28522 13.9551 4.28522C14.2974 5.73966 14.6104 7.13554 14.9429 8.53142C15.9893 8.52166 17.1043 8.52166 18.2387 8.52166ZM18.2387 9.44899C17.0945 9.44899 15.9698 9.44899 14.9429 9.44899C14.6104 10.8937 14.2779 12.2896 13.9551 13.705C14.7864 13.705 15.6568 13.7147 16.5272 13.6952C16.6642 13.6952 16.8402 13.5585 16.9282 13.4316C17.7106 12.2505 18.1409 10.9425 18.2387 9.44899ZM6.35609 4.27545C5.65194 4.27545 4.97712 4.33402 4.3023 4.25593C3.60793 4.17784 3.25585 4.46092 2.96245 5.0466C2.41477 6.13988 2.02358 7.26244 1.98446 8.55094C3.06025 8.55094 4.08714 8.5607 5.12382 8.53142C5.2314 8.53142 5.38788 8.28738 5.41722 8.14096C5.53458 7.54552 5.58348 6.92079 5.7204 6.32535C5.88665 5.64205 6.13115 4.97827 6.35609 4.27545ZM5.27052 9.58565C4.61526 10.2592 3.96 10.923 3.32431 11.6063C2.61037 12.3774 2.61037 12.3872 3.19717 13.295C3.30475 13.4609 3.48079 13.6757 3.62749 13.6854C4.52724 13.7245 5.43678 13.705 6.27785 13.705C5.93555 12.3481 5.61282 11.0206 5.27052 9.58565ZM11.0113 4.27545C9.80841 4.27545 8.67394 4.27545 7.54925 4.28522C7.46123 4.28522 7.31453 4.36331 7.28519 4.4414C6.81575 5.41754 6.48323 6.43272 6.36587 7.53576C7.9111 6.44248 9.41722 5.38825 11.0113 4.27545ZM12.3708 14.7104C12.3316 14.6713 12.2925 14.6323 12.2534 14.5932C10.806 14.5932 9.36832 14.5932 7.92088 14.5932C7.89154 14.6323 7.85242 14.6811 7.82308 14.7201C8.55658 15.4913 9.29008 16.2624 10.1018 17.1117C10.9331 16.2429 11.6568 15.4815 12.3708 14.7104ZM12.2241 3.39693C12.2632 3.34812 12.3023 3.29932 12.3512 3.26027C11.6275 2.49888 10.9038 1.73749 10.1801 0.976106C9.21184 1.68869 8.48812 2.44031 7.87198 3.40669C9.38788 3.39693 10.806 3.39693 12.2241 3.39693ZM16.048 14.564C15.1385 14.564 14.3561 14.564 13.5835 14.5737C13.4857 14.5737 13.3488 14.6225 13.2999 14.6909C12.7326 15.4522 12.1752 16.2136 11.6177 16.9848C13.2803 16.6724 14.7277 15.8915 16.048 14.564ZM4.16538 14.564C5.4759 15.9013 6.92333 16.6724 8.5957 16.9848C8.03824 16.2332 7.49057 15.4815 6.93311 14.7299C6.86465 14.642 6.72773 14.564 6.62015 14.564C5.85731 14.5542 5.0847 14.564 4.16538 14.564ZM4.33164 3.41645C5.09448 3.41645 5.84753 3.42621 6.61037 3.40669C6.71795 3.40669 6.87443 3.34812 6.93311 3.26027C7.48079 2.52817 8.01868 1.79606 8.58592 1.01515C6.89399 1.33728 5.4759 2.10843 4.33164 3.41645ZM11.559 1.01515C12.1556 1.75702 12.6837 2.42079 13.2412 3.11385C13.7497 2.87958 14.2681 2.6453 14.8353 2.38175C13.8084 1.67893 12.7717 1.22014 11.559 1.01515ZM2.21917 11.1865C2.86465 10.6204 3.51013 10.0444 4.19472 9.44899C3.43189 9.44899 2.72773 9.44899 1.92578 9.44899C2.04313 10.1128 2.15071 10.7375 2.21917 11.1865ZM15.9307 3.39693C15.5884 2.96743 15.3928 2.96743 14.894 3.39693C15.2363 3.39693 15.559 3.39693 15.9307 3.39693Z" fill="#717171"/>
</svg>
