<svg width="30" height="30" viewBox="0 0 30 30" fill="none" xmlns="http://www.w3.org/2000/svg">
<rect width="30" height="30" rx="10" fill="#C4C4C4"/>
<path d="M14.5267 6.33325C15.0724 6.38155 15.6211 6.42078 16.1668 6.47512C16.9035 6.54756 17.5977 6.77997 18.2676 7.07577C18.9376 7.37157 19.5803 7.72774 20.1411 8.20465C20.5382 8.54271 20.9293 8.88982 21.2961 9.25806C21.8206 9.78326 22.2329 10.39 22.5906 11.0389C22.8998 11.6003 23.1393 12.1859 23.3151 12.8047C23.497 13.4446 23.6061 14.0905 23.6486 14.7515C23.691 15.4427 23.6607 16.1339 23.5516 16.81C23.4364 17.5254 23.2393 18.2287 22.9331 18.8988C22.6876 19.436 22.4087 19.9492 22.0722 20.4351C21.6599 21.0328 21.1749 21.561 20.6383 22.0409C20.2533 22.388 19.838 22.711 19.4014 22.9887C18.7375 23.4143 18.019 23.7493 17.2581 23.9696C16.6822 24.1356 16.0971 24.2654 15.4908 24.2715C15.2816 24.2745 15.0724 24.3439 14.8663 24.3318C14.3024 24.2956 13.7416 24.2262 13.1777 24.1839C12.5472 24.1356 11.956 23.9364 11.374 23.7191C10.9314 23.5531 10.5009 23.3418 10.0916 23.1064C9.7127 22.886 9.35195 22.6204 9.00939 22.3457C8.68198 22.0832 8.3758 21.7934 8.08477 21.4915C7.58154 20.9754 7.16016 20.3959 6.79941 19.7711C6.53264 19.3093 6.28708 18.8414 6.14157 18.3223C6.06578 18.0446 5.94149 17.7759 5.89299 17.4952C5.79901 16.9519 5.71716 16.4026 5.67775 15.8532C5.64743 15.4156 5.68988 14.9719 5.69897 14.5312C5.70807 13.9818 5.82933 13.4506 5.97181 12.9224C6.11126 12.4062 6.30831 11.9203 6.53264 11.4343C6.84488 10.7612 7.26626 10.1636 7.73615 9.59612C8.26363 8.95924 8.87903 8.41593 9.549 7.93903C10.0462 7.58588 10.5736 7.26593 11.1527 7.05163C11.6013 6.88562 12.0439 6.68338 12.5078 6.56869C12.9807 6.45097 13.4687 6.35136 13.9689 6.37551C14.1569 6.38456 14.3449 6.37853 14.5298 6.37853C14.5237 6.36947 14.5237 6.35136 14.5267 6.33325ZM14.6147 23.0279C16.6518 23.0581 18.6739 22.3186 20.226 20.6705C21.7145 19.0889 22.5208 17.2447 22.3905 15.0352C22.2692 12.9948 21.5023 11.2562 20.0229 9.84363C18.3616 8.25898 16.3608 7.48024 14.069 7.64625C12.241 7.77906 10.6312 8.49743 9.31254 9.80741C7.79678 11.3136 6.95099 13.0974 6.94189 15.2586C6.9328 17.3141 7.62701 19.0799 9.03667 20.5649C10.5464 22.1616 12.3956 23.0188 14.6147 23.0279Z" fill="#717171"/>
<path d="M14.9296 20.9934C13.999 20.9904 13.2987 20.8666 12.6499 20.5406C12.0618 20.2448 11.5677 19.8223 11.1827 19.285C10.9856 19.0103 10.7977 18.7296 10.5976 18.4549C10.537 18.3734 10.534 18.301 10.6037 18.2467C10.8068 18.0867 11.016 17.9267 11.2312 17.7849C11.3282 17.7215 11.4192 17.7637 11.4919 17.8633C11.7162 18.1652 11.9163 18.4912 12.1831 18.7507C12.4438 19.0013 12.7561 19.2095 13.0774 19.3786C13.3775 19.5385 13.717 19.6231 14.0414 19.7378C14.0778 19.7498 14.1202 19.7528 14.1596 19.7528C14.4113 19.7528 14.6629 19.7498 14.9145 19.7528C15.5693 19.7559 16.1422 19.5174 16.6728 19.1612C17.1608 18.8322 17.5428 18.4097 17.846 17.9086C17.9217 17.7849 18.0097 17.7154 18.1643 17.8301C18.3219 17.9448 18.5038 18.0294 18.6766 18.129C18.7948 18.1984 18.8342 18.304 18.7645 18.4157C18.5735 18.7206 18.3765 19.0254 18.1643 19.3182C18.0491 19.4782 17.9066 19.617 17.7671 19.7559C17.2821 20.2479 16.7182 20.6282 16.0483 20.8032C15.6208 20.9179 15.1722 20.9542 14.9296 20.9934Z" fill="#717171"/>
<path d="M16.9819 13.4445C16.9425 12.7352 17.5701 12.2825 18.0794 12.3006C18.7978 12.3247 19.2829 12.7563 19.292 13.4958C19.3011 14.0784 18.8251 14.6157 18.1127 14.6126C17.5185 14.6096 16.9001 14.0603 16.9819 13.4445Z" fill="#717171"/>
<path d="M12.2958 13.5109C12.314 14.0512 11.8471 14.6428 11.165 14.6217C10.5648 14.6036 9.97363 14.0814 10.0009 13.4566C10.0282 12.8227 10.5132 12.3821 11.159 12.3579C11.8077 12.3338 12.3413 12.9012 12.2958 13.5109Z" fill="#717171"/>
</svg>
