<svg width="30" height="30" viewBox="0 0 30 30" fill="none" xmlns="http://www.w3.org/2000/svg">
<rect width="30" height="30" rx="10" fill="#C4C4C4"/>
<path d="M10.0123 24.3333C9.71245 24.2671 9.40686 24.2183 9.1127 24.132C8.38159 23.9164 7.77613 23.4966 7.29634 22.9044C6.55665 21.993 6.25964 20.9351 6.34817 19.765C6.4367 18.6035 6.88223 17.5743 7.61906 16.6974C8.19595 16.0132 8.83568 15.3807 9.46398 14.7425C10.9119 13.2705 12.3713 11.8071 13.825 10.3409C14.8902 9.26857 15.9498 8.19046 17.0236 7.12674C17.4577 6.69549 17.9946 6.45112 18.6001 6.362C18.6401 6.35625 18.6829 6.34188 18.7229 6.33325C18.9028 6.33325 19.0856 6.33325 19.2655 6.33325C19.5254 6.39938 19.791 6.454 20.0452 6.53162C20.5364 6.68112 20.9534 6.95999 21.3275 7.30786C21.7702 7.72185 22.1072 8.21634 22.2785 8.79995C22.5927 9.8608 22.3956 10.8268 21.6616 11.6548C21.2447 12.1263 20.7877 12.5604 20.345 13.0089C19.851 13.512 19.3512 14.0093 18.8543 14.5096C18.3602 15.0069 17.869 15.5072 17.3749 16.0045C16.9322 16.453 16.4896 16.8987 16.0469 17.3443C15.41 17.9883 14.7703 18.6294 14.1306 19.2734C13.6193 19.788 13.1196 20.3141 12.5912 20.8114C12.0343 21.3376 11.3746 21.6624 10.5892 21.5618C9.82668 21.4641 9.26407 20.9494 9.12413 20.1675C8.99847 19.4602 9.22408 18.8364 9.66104 18.3016C9.99518 17.8934 10.3779 17.5225 10.7463 17.1459C11.3289 16.5508 11.9201 15.9614 12.5084 15.3692C13.2509 14.6217 13.9935 13.8742 14.736 13.1267C15.0245 12.8364 15.3129 12.5431 15.5985 12.2499C15.8984 11.9423 16.3325 11.925 16.6266 12.2154C16.9065 12.4914 16.8837 12.9399 16.5838 13.2417C15.767 14.064 14.9531 14.8891 14.1363 15.7113C13.488 16.3639 12.8368 17.0165 12.1885 17.6691C11.7373 18.1263 11.2803 18.5805 10.8405 19.0491C10.6492 19.2532 10.4921 19.4919 10.4835 19.7937C10.475 20.064 10.6263 20.202 10.8919 20.1732C11.1804 20.1445 11.4117 19.9921 11.6173 19.8052C11.8401 19.604 12.0457 19.3855 12.2571 19.1727C13.0881 18.3361 13.9164 17.4995 14.7474 16.6629C15.9326 15.4669 17.1179 14.271 18.3059 13.075C19.0427 12.3333 19.7796 11.5944 20.5107 10.8469C20.8591 10.4933 21.079 10.0707 21.0219 9.55893C20.9648 9.06732 20.7277 8.65333 20.365 8.32271C19.9395 7.93459 19.454 7.68447 18.8571 7.73335C18.4801 7.76497 18.166 7.93459 17.9032 8.19621C16.9351 9.16507 15.9726 10.1397 15.0102 11.1114C14.1391 11.9883 13.2681 12.8622 12.3999 13.7391C11.7516 14.3917 11.109 15.0501 10.4607 15.7027C10.0437 16.1224 9.6182 16.5307 9.2098 16.959C8.55009 17.649 8.00746 18.4137 7.79898 19.3711C7.60192 20.2738 7.71901 21.1306 8.27306 21.8838C8.74715 22.5278 9.3983 22.8757 10.2037 22.9159C10.9633 22.9562 11.6373 22.706 12.2771 22.315C12.9482 21.9068 13.488 21.3519 14.0363 20.7999C15.3129 19.512 16.5895 18.2269 17.8661 16.9389C18.7572 16.0419 19.6425 15.1421 20.5335 14.2451C20.9562 13.8196 21.376 13.3912 21.8044 12.9715C22.23 12.5546 22.8069 12.7961 22.9696 13.2964C23.0525 13.5522 22.9554 13.7707 22.784 13.949C22.3071 14.4435 21.8216 14.9264 21.3389 15.4152C20.3222 16.4588 19.2998 17.4909 18.2745 18.523C17.4863 19.3194 16.6952 20.1128 15.9041 20.9063C15.4129 21.4008 14.9274 21.901 14.4333 22.3898C13.8507 22.9677 13.2024 23.4535 12.4627 23.81C11.9029 24.0803 11.3175 24.2642 10.692 24.3074C10.6549 24.3102 10.6178 24.3217 10.5835 24.3304C10.395 24.3333 10.2037 24.3333 10.0123 24.3333Z" fill="#717171"/>
</svg>
