<svg width="20" height="20" viewBox="0 0 20 20" fill="none" xmlns="http://www.w3.org/2000/svg">
<path d="M5.0133 19.3332C4.71342 19.2671 4.40784 19.2183 4.11368 19.132C3.38256 18.9164 2.77711 18.4966 2.29731 17.9044C1.55763 16.993 1.26061 15.9351 1.34915 14.765C1.43768 13.6035 1.8832 12.5743 2.62003 11.6974C3.19693 11.0132 3.83666 10.3807 4.46496 9.74245C5.91291 8.27048 7.37229 6.80714 8.82595 5.34092C9.89121 4.26857 10.9508 3.19046 12.0246 2.12674C12.4587 1.69549 12.9956 1.45112 13.6011 1.362C13.641 1.35625 13.6839 1.34188 13.7239 1.33325C13.9038 1.33325 14.0866 1.33325 14.2665 1.33325C14.5264 1.39938 14.792 1.454 15.0462 1.53162C15.5374 1.68112 15.9543 1.95999 16.3285 2.30786C16.7711 2.72185 17.1081 3.21634 17.2795 3.79995C17.5936 4.8608 17.3966 5.82678 16.6626 6.65477C16.2456 7.12626 15.7887 7.56037 15.346 8.00886C14.852 8.51198 14.3522 9.00934 13.8552 9.50958C13.3612 10.0069 12.8699 10.5072 12.3759 11.0045C11.9332 11.453 11.4905 11.8987 11.0479 12.3443C10.411 12.9883 9.77126 13.6294 9.13154 14.2734C8.62033 14.788 8.12054 15.3141 7.59219 15.8114C7.03529 16.3376 6.37557 16.6624 5.59019 16.5618C4.82766 16.4641 4.26504 15.9494 4.1251 15.1675C3.99944 14.4602 4.22506 13.8364 4.66202 13.3016C4.99616 12.8934 5.37885 12.5225 5.74727 12.1459C6.32988 11.5508 6.92105 10.9614 7.50937 10.3692C8.25191 9.6217 8.99445 8.87422 9.73699 8.12673C10.0254 7.83637 10.3139 7.54312 10.5995 7.24988C10.8994 6.94226 11.3335 6.92501 11.6276 7.21538C11.9075 7.49137 11.8846 7.93986 11.5848 8.24173C10.768 9.06397 9.95404 9.88907 9.13725 10.7113C8.48895 11.3639 7.8378 12.0165 7.18951 12.6691C6.73827 13.1263 6.28133 13.5805 5.84151 14.0491C5.65017 14.2532 5.49309 14.4919 5.48452 14.7937C5.47595 15.064 5.62732 15.202 5.89292 15.1732C6.18137 15.1445 6.4127 14.9921 6.61832 14.8052C6.84109 14.604 7.04671 14.3855 7.25805 14.1727C8.08912 13.3361 8.91734 12.4995 9.74842 11.6629C10.9336 10.4669 12.1188 9.27096 13.3069 8.07499C14.0437 7.33325 14.7806 6.59439 15.5117 5.84691C15.8601 5.49329 16.08 5.07067 16.0229 4.55893C15.9658 4.06732 15.7287 3.65333 15.366 3.32271C14.9405 2.93459 14.455 2.68447 13.8581 2.73335C13.4811 2.76497 13.167 2.93459 12.9042 3.19621C11.9361 4.16507 10.9736 5.13967 10.0112 6.1114C9.1401 6.98826 8.26905 7.86224 7.40085 8.7391C6.75255 9.39171 6.10997 10.0501 5.46168 10.7027C5.04471 11.1224 4.61918 11.5307 4.21078 11.959C3.55106 12.649 3.00844 13.4137 2.79996 14.3711C2.6029 15.2738 2.71999 16.1306 3.27404 16.8838C3.74812 17.5278 4.39927 17.8757 5.20464 17.9159C5.96432 17.9562 6.63832 17.706 7.27804 17.315C7.94918 16.9068 8.48895 16.3519 9.03729 15.8C10.3139 14.512 11.5905 13.2269 12.8671 11.9389C13.7581 11.0419 14.6435 10.1421 15.5345 9.24509C15.9572 8.8196 16.377 8.39123 16.8054 7.97149C17.2309 7.55462 17.8078 7.79612 17.9706 8.29636C18.0534 8.55223 17.9563 8.77072 17.785 8.94897C17.308 9.44346 16.8225 9.92645 16.3399 10.4152C15.3232 11.4588 14.3008 12.4909 13.2755 13.523C12.4872 14.3194 11.6962 15.1128 10.9051 15.9063C10.4138 16.4008 9.92834 16.901 9.43426 17.3898C8.85166 17.9677 8.20336 18.4535 7.46368 18.81C6.90392 19.0803 6.31845 19.2642 5.69301 19.3074C5.65588 19.3102 5.61875 19.3217 5.58448 19.3304C5.39599 19.3332 5.20464 19.3332 5.0133 19.3332Z" fill="#717171"/>
</svg>
