<svg width="21" height="21" viewBox="0 0 21 21" fill="none" xmlns="http://www.w3.org/2000/svg">
<path fill-rule="evenodd" clip-rule="evenodd" d="M10.9832 2.77248C11.1833 2.58218 11.1912 2.2657 11.0009 2.06559C10.8106 1.86549 10.4942 1.85754 10.2941 2.04784L1.78825 10.1368C1.68482 10.2352 1.63273 10.3672 1.63281 10.4995C1.63273 10.6318 1.68482 10.7639 1.78825 10.8622L10.2941 18.9512C10.4942 19.1415 10.8106 19.1335 11.0009 18.9334C11.1912 18.7333 11.1833 18.4168 10.9832 18.2265L2.85795 10.4995L10.9832 2.77248Z" fill="white"/>
<path d="M10.9832 2.77248L11.6723 3.49712L11.6723 3.49712L10.9832 2.77248ZM10.2941 2.04784L10.9832 2.77248V2.77248L10.2941 2.04784ZM1.78825 10.1368L2.47738 10.8614L2.47738 10.8614L1.78825 10.1368ZM1.63281 10.4995L2.63281 10.5002L2.63281 10.4989L1.63281 10.4995ZM1.78825 10.8622L1.09912 11.5869L1.09912 11.5869L1.78825 10.8622ZM10.2941 18.9512L10.9832 18.2266L10.9832 18.2265L10.2941 18.9512ZM11.0009 18.9334L11.7256 19.6226L11.7256 19.6226L11.0009 18.9334ZM10.9832 18.2265L10.2941 18.9512L10.2941 18.9512L10.9832 18.2265ZM2.85795 10.4995L2.16882 9.77487L1.40683 10.4995L2.16882 11.2242L2.85795 10.4995ZM10.2763 2.75472C10.086 2.55462 10.094 2.23813 10.2941 2.04784L11.6723 3.49712C12.2726 2.92623 12.2965 1.97678 11.7256 1.37647L10.2763 2.75472ZM10.9832 2.77248C10.7831 2.96277 10.4666 2.95482 10.2763 2.75472L11.7256 1.37647C11.1547 0.776155 10.2052 0.752305 9.60493 1.3232L10.9832 2.77248ZM2.47738 10.8614L10.9832 2.77248L9.60493 1.3232L1.09912 9.41215L2.47738 10.8614ZM2.63281 10.4989C2.63289 10.6293 2.58073 10.7631 2.47738 10.8614L1.09912 9.41215C0.788914 9.70716 0.632563 10.1051 0.632813 10.5001L2.63281 10.4989ZM0.632813 10.4989C0.632559 10.8939 0.788902 11.2919 1.09912 11.5869L2.47738 10.1376C2.58074 10.2359 2.6329 10.3697 2.63281 10.5002L0.632813 10.4989ZM1.09912 11.5869L9.60493 19.6758L10.9832 18.2265L2.47738 10.1376L1.09912 11.5869ZM9.60493 19.6758C10.2052 20.2467 11.1547 20.2229 11.7256 19.6226L10.2763 18.2443C10.4666 18.0442 10.7831 18.0363 10.9832 18.2266L9.60493 19.6758ZM11.7256 19.6226C12.2965 19.0222 12.2726 18.0728 11.6723 17.5019L10.2941 18.9512C10.094 18.7609 10.086 18.4444 10.2763 18.2443L11.7256 19.6226ZM11.6723 17.5019L3.54707 9.77487L2.16882 11.2242L10.2941 18.9512L11.6723 17.5019ZM10.2941 2.04784L2.16882 9.77487L3.54707 11.2242L11.6723 3.49712L10.2941 2.04784Z" fill="white"/>
<path d="M3.44678 10.5H19.3676" stroke="white" stroke-width="3" stroke-linecap="round"/>
</svg>
