<svg width="34" height="26" viewBox="0 0 34 26" fill="none" xmlns="http://www.w3.org/2000/svg">
<mask id="path-1-inside-1_2286_9268" fill="white">
<path fill-rule="evenodd" clip-rule="evenodd" d="M16.1207 25.3718C16.4986 26.0714 17.5024 26.0714 17.8803 25.3718L20.2422 21L30.0005 21C32.2096 21 34.0005 19.2091 34.0005 17L34.0005 4C34.0005 1.79086 32.2096 3.65255e-06 30.0005 3.45942e-06L4.00049 1.18643e-06C1.79135 9.93297e-07 0.000490389 1.79086 0.000490196 4L0.000489059 17C0.000488866 19.2091 1.79135 21 4.00049 21L13.7588 21L16.1207 25.3718Z"/>
</mask>
<path d="M17.8803 25.3718L16.1207 24.4212L16.1207 24.4212L17.8803 25.3718ZM16.1207 25.3718L14.361 26.3224L14.361 26.3224L16.1207 25.3718ZM20.2422 21L20.2422 19L19.0494 19L18.4825 20.0494L20.2422 21ZM13.7588 21L15.5184 20.0494L14.9515 19L13.7588 19L13.7588 21ZM16.1207 24.4212C16.4986 23.7216 17.5024 23.7216 17.8803 24.4212L14.361 26.3224C15.4949 28.4212 18.5061 28.4212 19.6399 26.3224L16.1207 24.4212ZM18.4825 20.0494L16.1207 24.4212L19.6399 26.3224L22.0018 21.9506L18.4825 20.0494ZM30.0005 19L20.2422 19L20.2422 23L30.0005 23L30.0005 19ZM32.0005 17C32.0005 18.1046 31.1051 19 30.0005 19L30.0005 23C33.3142 23 36.0005 20.3137 36.0005 17L32.0005 17ZM32.0005 4L32.0005 17L36.0005 17L36.0005 4L32.0005 4ZM30.0005 2C31.1051 2 32.0005 2.89544 32.0005 4L36.0005 4C36.0005 0.686295 33.3142 -2 30.0005 -2L30.0005 2ZM4.00049 2L30.0005 2L30.0005 -2L4.00049 -2L4.00049 2ZM2.00049 4C2.00049 2.89543 2.89592 2 4.00049 2L4.00049 -2C0.686781 -2 -1.99951 0.686289 -1.99951 4L2.00049 4ZM2.00049 17L2.00049 4L-1.99951 4L-1.99951 17L2.00049 17ZM4.00049 19C2.89592 19 2.00049 18.1046 2.00049 17L-1.99951 17C-1.99951 20.3137 0.686779 23 4.00049 23L4.00049 19ZM13.7588 19L4.00049 19L4.00049 23L13.7588 23L13.7588 19ZM17.8803 24.4212L15.5184 20.0494L11.9992 21.9506L14.361 26.3224L17.8803 24.4212Z" fill="white" mask="url(#path-1-inside-1_2286_9268)"/>
<ellipse cx="25.0005" cy="11" rx="2" ry="2" transform="rotate(-180 25.0005 11)" fill="white"/>
<ellipse cx="17.0005" cy="11" rx="2" ry="2" transform="rotate(-180 17.0005 11)" fill="white"/>
<ellipse cx="9.00049" cy="11" rx="2" ry="2" transform="rotate(-180 9.00049 11)" fill="white"/>
</svg>
