<svg width="28" height="28" viewBox="0 0 28 28" fill="none" xmlns="http://www.w3.org/2000/svg">
<path d="M6.18173 28C5.67795 27.8971 5.16457 27.8211 4.67038 27.6869C3.4421 27.3515 2.42494 26.6986 1.61888 25.7773C0.376211 24.3597 -0.122776 22.7139 0.0259606 20.8938C0.174697 19.087 0.923177 17.486 2.16105 16.122C3.13023 15.0577 4.20498 14.0738 5.26052 13.081C7.69309 10.7912 10.1448 8.51493 12.587 6.23415C14.3766 4.56604 16.1567 2.889 17.9607 1.23431C18.69 0.563488 19.592 0.183357 20.6092 0.0447213C20.6763 0.035777 20.7483 0.0134164 20.8155 0C21.1178 0 21.4248 0 21.7271 0C22.1637 0.102859 22.6099 0.187829 23.0369 0.308577C23.8622 0.541128 24.5627 0.974924 25.1912 1.51605C25.9349 2.16004 26.5011 2.92924 26.7889 3.83709C27.3167 5.4873 26.9856 6.98994 25.7526 8.27791C25.0521 9.01134 24.2844 9.68663 23.5407 10.3843C22.7107 11.1669 21.871 11.9406 21.0362 12.7187C20.2061 13.4924 19.3809 14.2706 18.5508 15.0442C17.8072 15.7419 17.0635 16.4351 16.3198 17.1283C15.2499 18.13 14.1751 19.1273 13.1004 20.1291C12.2415 20.9296 11.4019 21.748 10.5143 22.5216C9.57868 23.34 8.47035 23.8454 7.15092 23.6889C5.86986 23.5368 4.92467 22.7363 4.68957 21.5199C4.47846 20.4197 4.8575 19.4493 5.59158 18.6175C6.15294 17.9824 6.79587 17.4055 7.4148 16.8197C8.39359 15.8939 9.38676 14.9772 10.3751 14.0559C11.6226 12.8931 12.8701 11.7304 14.1175 10.5676C14.6021 10.116 15.0867 9.6598 15.5665 9.20364C16.0703 8.72512 16.7996 8.69829 17.2938 9.14998C17.764 9.5793 17.7256 10.277 17.2218 10.7465C15.8496 12.0256 14.4822 13.3091 13.11 14.5881C12.0208 15.6033 10.9269 16.6184 9.83777 17.6336C9.07969 18.3447 8.31202 19.0513 7.57314 19.7802C7.25167 20.0977 6.98779 20.4689 6.97339 20.9385C6.959 21.3589 7.21329 21.5736 7.6595 21.5288C8.14409 21.4841 8.53273 21.2471 8.87818 20.9564C9.25242 20.6433 9.59787 20.3035 9.95292 19.9725C11.3491 18.6711 12.7405 17.3698 14.1367 16.0684C16.1279 14.208 18.119 12.3475 20.115 10.4871C21.3529 9.33333 22.5907 8.184 23.819 7.02124C24.4043 6.47117 24.7738 5.81377 24.6778 5.01773C24.5819 4.25299 24.1836 3.60901 23.5743 3.09471C22.8594 2.49098 22.0438 2.1019 21.041 2.17793C20.4077 2.22712 19.8799 2.49098 19.4385 2.89794C17.812 4.40505 16.1951 5.9211 14.5781 7.43268C13.1148 8.79668 11.6514 10.1562 10.1928 11.5202C9.10368 12.5354 8.02414 13.5595 6.93501 14.5747C6.23451 15.2276 5.51961 15.8626 4.83351 16.529C3.72518 17.6023 2.81357 18.7919 2.46332 20.2811C2.13226 21.6854 2.32898 23.018 3.25978 24.1897C4.05624 25.1915 5.15017 25.7326 6.50319 25.7952C7.77945 25.8578 8.91177 25.4688 9.98651 24.8606C11.114 24.2255 12.0208 23.3624 12.942 22.5038C15.0867 20.5002 17.2314 18.5012 19.3761 16.4977C20.8731 15.1024 22.3604 13.7026 23.8574 12.3073C24.5675 11.6454 25.2728 10.9791 25.9925 10.3261C26.7074 9.67769 27.6765 10.0533 27.95 10.8315C28.0892 11.2295 27.926 11.5694 27.6382 11.8467C26.8369 12.6159 26.0213 13.3672 25.2104 14.1275C23.5023 15.7508 21.7847 17.3563 20.0622 18.9618C18.738 20.2006 17.4089 21.4349 16.0799 22.6692C15.2547 23.4384 14.439 24.2166 13.609 24.9768C12.6302 25.8757 11.541 26.6315 10.2984 27.1861C9.35798 27.6065 8.3744 27.8927 7.32364 27.9597C7.26127 27.9642 7.1989 27.9821 7.14132 27.9955C6.82466 28 6.50319 28 6.18173 28Z" fill="#C4C4C4"/>
</svg>
