<svg width="28" height="28" viewBox="0 0 28 28" fill="none" xmlns="http://www.w3.org/2000/svg">
<path d="M6.18124 28C5.67746 27.8971 5.16408 27.8211 4.66989 27.6869C3.44161 27.3515 2.42445 26.6986 1.61839 25.7773C0.375723 24.3597 -0.123264 22.7139 0.0254723 20.8938C0.174209 19.087 0.922689 17.486 2.16056 16.122C3.12975 15.0577 4.20449 14.0738 5.26004 13.081C7.6926 10.7912 10.1444 8.51493 12.5865 6.23415C14.3761 4.56604 16.1562 2.889 17.9602 1.23431C18.6895 0.563488 19.5915 0.183357 20.6087 0.0447213C20.6759 0.035777 20.7478 0.0134164 20.815 0C21.1173 0 21.4243 0 21.7266 0C22.1632 0.102859 22.6094 0.187829 23.0364 0.308577C23.8617 0.541128 24.5622 0.974924 25.1907 1.51605C25.9344 2.16004 26.5006 2.92924 26.7884 3.83709C27.3162 5.4873 26.9852 6.98994 25.7521 8.27791C25.0516 9.01134 24.2839 9.68663 23.5402 10.3843C22.7102 11.1669 21.8705 11.9406 21.0357 12.7187C20.2057 13.4924 19.3804 14.2706 18.5504 15.0442C17.8067 15.7419 17.063 16.4351 16.3193 17.1283C15.2494 18.13 14.1746 19.1273 13.0999 20.1291C12.2411 20.9296 11.4014 21.748 10.5138 22.5216C9.57819 23.34 8.46987 23.8454 7.15043 23.6889C5.86938 23.5368 4.92418 22.7363 4.68908 21.5199C4.47797 20.4197 4.85701 19.4493 5.59109 18.6175C6.15245 17.9824 6.79538 17.4055 7.41432 16.8197C8.3931 15.8939 9.38627 14.9772 10.3747 14.0559C11.6221 12.8931 12.8696 11.7304 14.1171 10.5676C14.6016 10.116 15.0862 9.6598 15.566 9.20364C16.0698 8.72512 16.7991 8.69829 17.2933 9.14998C17.7635 9.5793 17.7251 10.277 17.2213 10.7465C15.8491 12.0256 14.4817 13.3091 13.1095 14.5881C12.0204 15.6033 10.9264 16.6184 9.83728 17.6336C9.07921 18.3447 8.31153 19.0513 7.57265 19.7802C7.25119 20.0977 6.9873 20.4689 6.9729 20.9385C6.95851 21.3589 7.2128 21.5736 7.65901 21.5288C8.1436 21.4841 8.53224 21.2471 8.87769 20.9564C9.25193 20.6433 9.59738 20.3035 9.95243 19.9725C11.3486 18.6711 12.74 17.3698 14.1362 16.0684C16.1274 14.208 18.1185 12.3475 20.1145 10.4871C21.3524 9.33333 22.5902 8.184 23.8185 7.02124C24.4039 6.47117 24.7733 5.81377 24.6773 5.01773C24.5814 4.25299 24.1832 3.60901 23.5738 3.09471C22.8589 2.49098 22.0433 2.1019 21.0405 2.17793C20.4072 2.22712 19.8794 2.49098 19.438 2.89794C17.8115 4.40505 16.1946 5.9211 14.5777 7.43268C13.1143 8.79668 11.6509 10.1562 10.1923 11.5202C9.10319 12.5354 8.02366 13.5595 6.93452 14.5747C6.23402 15.2276 5.51913 15.8626 4.83302 16.529C3.72469 17.6023 2.81308 18.7919 2.46283 20.2811C2.13177 21.6854 2.32849 23.018 3.25929 24.1897C4.05575 25.1915 5.14968 25.7326 6.50271 25.7952C7.77896 25.8578 8.91128 25.4688 9.98602 24.8606C11.1135 24.2255 12.0204 23.3624 12.9416 22.5038C15.0862 20.5002 17.2309 18.5012 19.3756 16.4977C20.8726 15.1024 22.3599 13.7026 23.8569 12.3073C24.567 11.6454 25.2723 10.9791 25.992 10.3261C26.7069 9.67769 27.6761 10.0533 27.9495 10.8315C28.0887 11.2295 27.9256 11.5694 27.6377 11.8467C26.8364 12.6159 26.0208 13.3672 25.2099 14.1275C23.5018 15.7508 21.7842 17.3563 20.0617 18.9618C18.7375 20.2006 17.4084 21.4349 16.0794 22.6692C15.2542 23.4384 14.4385 24.2166 13.6085 24.9768C12.6297 25.8757 11.5406 26.6315 10.2979 27.1861C9.35749 27.6065 8.37391 27.8927 7.32316 27.9597C7.26078 27.9642 7.19841 27.9821 7.14083 27.9955C6.82417 28 6.50271 28 6.18124 28Z" fill="white"/>
</svg>
