<svg width="105" height="39" viewBox="0 0 105 39" fill="none" xmlns="http://www.w3.org/2000/svg">
<rect width="105" height="39" rx="19.5" fill="white"/>
<circle cx="19.5" cy="19.5" r="19.5" fill="#FFE100"/>
<path d="M46.0574 20.2783V21.8533H58.6274V20.2783H46.0574ZM51.3374 18.6433V20.6983H53.3324V18.6433H51.3374ZM47.4674 22.6783V24.2533H55.1024V26.8033H57.0974V22.6783H47.4674ZM47.6174 17.7733V19.2883H57.2924V17.7733H47.6174ZM47.6174 13.2283V18.5383H49.5974V14.7433H57.1874V13.2283H47.6174ZM49.0424 15.5083V16.9633H56.8724V15.5083H49.0424ZM62.9162 13.6633V14.8933C62.9162 16.7833 61.9712 18.6433 59.6462 19.4233L60.7112 20.9983C63.3512 20.0833 64.5512 17.6533 64.5512 14.8933V13.6633H62.9162ZM63.3212 13.6633V15.0883C63.3212 17.5933 64.5062 19.7533 67.0112 20.5933L68.0462 19.0483C65.8712 18.3733 64.9412 16.7533 64.9412 15.0883V13.6633H63.3212ZM68.8112 12.9133V21.1183H70.8062V12.9133H68.8112ZM70.2512 16.1233V17.7733H72.6512V16.1233H70.2512ZM66.2762 21.4333C63.3812 21.4333 61.5662 22.4383 61.5662 24.1183C61.5662 25.8133 63.3812 26.8033 66.2762 26.8033C69.1562 26.8033 70.9712 25.8133 70.9712 24.1183C70.9712 22.4383 69.1562 21.4333 66.2762 21.4333ZM66.2762 22.9783C68.0462 22.9783 68.9912 23.3533 68.9912 24.1183C68.9912 24.8983 68.0462 25.2583 66.2762 25.2583C64.5062 25.2583 63.5462 24.8983 63.5462 24.1183C63.5462 23.3533 64.5062 22.9783 66.2762 22.9783ZM82.6101 12.9133V20.6983H84.6051V12.9133H82.6101ZM84.0501 16.0333V17.6533H86.4501V16.0333H84.0501ZM74.1951 18.6133V20.2183H75.3501C78.4401 20.2183 80.0301 20.1433 81.7251 19.7683L81.5301 18.1933C79.8651 18.5383 78.3651 18.6133 75.3501 18.6133H74.1951ZM74.1951 13.7683V19.5433H76.1751V15.3583H80.3601V13.7683H74.1951ZM75.5751 21.2983V26.6533H84.6051V21.2983H75.5751ZM82.6551 22.8733V25.0783H77.5401V22.8733H82.6551Z" fill="black"/>
<path d="M19.5 7C26.4036 7 32 11.7464 32 17.6029C32 23.4582 26.4036 28.2046 19.5 28.2046C18.8126 28.205 18.1259 28.1574 17.444 28.0621L12.1964 31.7967C11.6 32.14 11.3893 32.1025 11.6345 31.2617L12.6964 26.4972C9.26786 24.6059 7 21.3285 7 17.6029C7 11.7477 12.5964 7 19.5 7ZM26.5321 17.441L28.2821 15.5963C28.3831 15.4822 28.4395 15.3299 28.4393 15.1715C28.4391 15.0131 28.3824 14.8609 28.2812 14.7471C28.18 14.6332 28.0421 14.5666 27.8966 14.5612C27.7511 14.5558 27.6093 14.612 27.5012 14.7181L25.206 17.1353V15.1378C25.206 14.9756 25.1468 14.8201 25.0414 14.7054C24.936 14.5908 24.7931 14.5263 24.644 14.5263C24.495 14.5263 24.3521 14.5908 24.2467 14.7054C24.1413 14.8201 24.0821 14.9756 24.0821 15.1378V18.4501C24.0611 18.5446 24.0611 18.6432 24.0821 18.7377V20.6018C24.0821 20.764 24.1413 20.9195 24.2467 21.0342C24.3521 21.1488 24.495 21.2132 24.644 21.2132C24.7931 21.2132 24.936 21.1488 25.0414 21.0342C25.1468 20.9195 25.206 20.764 25.206 20.6018V18.8362L25.7143 18.3012L27.4143 20.9347C27.4567 21.0005 27.5107 21.0565 27.573 21.0996C27.6353 21.1426 27.7049 21.1719 27.7776 21.1857C27.8503 21.1996 27.9249 21.1977 27.9969 21.1802C28.069 21.1627 28.1372 21.1299 28.1976 21.0837C28.258 21.0375 28.3095 20.9788 28.3491 20.911C28.3887 20.8432 28.4156 20.7675 28.4283 20.6884C28.441 20.6092 28.4393 20.5281 28.4232 20.4497C28.4071 20.3713 28.377 20.2971 28.3345 20.2313L26.5321 17.4397V17.441ZM23.0107 19.9334H21.2726V15.1572C21.266 15.0001 21.2039 14.8518 21.0994 14.7431C20.9948 14.6345 20.8559 14.5739 20.7113 14.5739C20.5668 14.5739 20.4278 14.6345 20.3232 14.7431C20.2187 14.8518 20.1567 15.0001 20.15 15.1572V20.5448C20.15 20.8816 20.4 21.1562 20.7107 21.1562H23.0107C23.1597 21.1562 23.3027 21.0918 23.408 20.9772C23.5134 20.8625 23.5726 20.707 23.5726 20.5448C23.5726 20.3826 23.5134 20.2271 23.408 20.1125C23.3027 19.9978 23.1597 19.9334 23.0107 19.9334ZM16.0381 18.5188L16.8667 16.3075L17.6262 18.5188H16.0381ZM19.0417 19.1509L19.044 19.1302C19.0438 18.9762 18.9897 18.828 18.8929 18.7157L17.6476 15.0885C17.5954 14.9157 17.496 14.7643 17.3626 14.6546C17.2292 14.5449 17.0683 14.482 16.9012 14.4745C16.7329 14.4737 16.5684 14.5287 16.4295 14.6321C16.2906 14.7356 16.184 14.8826 16.1238 15.0536L14.1464 20.3324C14.1185 20.4067 14.1043 20.4863 14.1047 20.5666C14.1051 20.6469 14.12 20.7263 14.1485 20.8004C14.1771 20.8744 14.2188 20.9416 14.2713 20.9981C14.3237 21.0546 14.3858 21.0993 14.4542 21.1297C14.5225 21.1601 14.5956 21.1755 14.6694 21.1751C14.7432 21.1747 14.8162 21.1585 14.8843 21.1274C14.9523 21.0963 15.0141 21.0509 15.066 20.9939C15.1179 20.9368 15.159 20.8692 15.1869 20.7948L15.5798 19.7417H18.044L18.4 20.778C18.4242 20.8554 18.4624 20.9268 18.5125 20.9879C18.5625 21.049 18.6233 21.0986 18.6912 21.1336C18.7591 21.1687 18.8328 21.1886 18.908 21.1921C18.9831 21.1956 19.0581 21.1826 19.1285 21.154C19.199 21.1254 19.2634 21.0817 19.318 21.0255C19.3727 20.9693 19.4164 20.9017 19.4466 20.8268C19.4768 20.7518 19.4929 20.6711 19.4939 20.5893C19.4949 20.5075 19.4808 20.4263 19.4524 20.3505L19.0417 19.1509ZM15.0869 15.1637C15.0869 15.0017 15.0279 14.8464 14.9227 14.7318C14.8176 14.6172 14.675 14.5526 14.5262 14.5522H10.6631C10.5141 14.5522 10.3711 14.6167 10.2658 14.7313C10.1604 14.846 10.1012 15.0015 10.1012 15.1637C10.1012 15.3258 10.1604 15.4814 10.2658 15.596C10.3711 15.7107 10.5141 15.7751 10.6631 15.7751H12.044V20.6148C12.044 20.7769 12.1032 20.9324 12.2086 21.0471C12.314 21.1618 12.4569 21.2262 12.606 21.2262C12.755 21.2262 12.8979 21.1618 13.0033 21.0471C13.1087 20.9324 13.1679 20.7769 13.1679 20.6148V15.7751H14.525C14.674 15.7751 14.8169 15.7107 14.9223 15.596C15.0277 15.4814 15.0869 15.3258 15.0869 15.1637Z" fill="#3A1D1D"/>
</svg>
