<svg width="55" height="55" viewBox="0 0 55 55" fill="none" xmlns="http://www.w3.org/2000/svg">
<g filter="url(#filter0_d_2295_28089)">
<circle cx="27.4995" cy="23.5" r="23.5" fill="url(#paint0_radial_2295_28089)"/>
<path fill-rule="evenodd" clip-rule="evenodd" d="M27.9825 14.7725C28.1826 14.5822 28.1905 14.2657 28.0002 14.0656C27.8099 13.8655 27.4934 13.8575 27.2933 14.0478L18.7875 22.1368C18.6841 22.2352 18.632 22.3672 18.6321 22.4995C18.632 22.6318 18.6841 22.7639 18.7875 22.8622L27.2933 30.9512C27.4934 31.1415 27.8099 31.1335 28.0002 30.9334C28.1905 30.7333 28.1826 30.4168 27.9825 30.2265L19.8572 22.4995L27.9825 14.7725Z" fill="white"/>
<path d="M27.9825 14.7725L28.6716 15.4971L28.6716 15.4971L27.9825 14.7725ZM27.2933 14.0478L27.9825 14.7725L27.9825 14.7725L27.2933 14.0478ZM18.7875 22.1368L19.4766 22.8614L19.4766 22.8614L18.7875 22.1368ZM18.6321 22.4995L19.6321 22.5002L19.6321 22.4989L18.6321 22.4995ZM18.7875 22.8622L18.0984 23.5869L18.0984 23.5869L18.7875 22.8622ZM27.2933 30.9512L27.9825 30.2266L27.9825 30.2265L27.2933 30.9512ZM28.0002 30.9334L28.7249 31.6226L28.7249 31.6226L28.0002 30.9334ZM27.9825 30.2265L27.2933 30.9512L27.2933 30.9512L27.9825 30.2265ZM19.8572 22.4995L19.1681 21.7749L18.4061 22.4995L19.1681 23.2242L19.8572 22.4995ZM27.2756 14.7547C27.0853 14.5546 27.0932 14.2381 27.2933 14.0478L28.6716 15.4971C29.2719 14.9262 29.2957 13.9768 28.7249 13.3765L27.2756 14.7547ZM27.9825 14.7725C27.7824 14.9628 27.4659 14.9548 27.2756 14.7547L28.7249 13.3765C28.154 12.7762 27.2045 12.7523 26.6042 13.3232L27.9825 14.7725ZM19.4766 22.8614L27.9825 14.7725L26.6042 13.3232L18.0984 21.4122L19.4766 22.8614ZM19.6321 22.4989C19.6322 22.6293 19.58 22.7631 19.4766 22.8614L18.0984 21.4121C17.7882 21.7072 17.6318 22.1051 17.6321 22.5001L19.6321 22.4989ZM17.6321 22.4989C17.6318 22.8939 17.7882 23.2919 18.0984 23.5869L19.4766 22.1376C19.58 22.2359 19.6322 22.3697 19.6321 22.5002L17.6321 22.4989ZM18.0984 23.5869L26.6042 31.6758L27.9825 30.2265L19.4766 22.1376L18.0984 23.5869ZM26.6042 31.6758C27.2045 32.2467 28.154 32.2229 28.7249 31.6226L27.2756 30.2443C27.4659 30.0442 27.7824 30.0363 27.9825 30.2266L26.6042 31.6758ZM28.7249 31.6226C29.2957 31.0222 29.2719 30.0728 28.6716 29.5019L27.2933 30.9512C27.0932 30.7609 27.0853 30.4444 27.2756 30.2443L28.7249 31.6226ZM28.6716 29.5019L20.5463 21.7749L19.1681 23.2242L27.2933 30.9512L28.6716 29.5019ZM27.2933 14.0478L19.1681 21.7749L20.5463 23.2242L28.6716 15.4971L27.2933 14.0478Z" fill="white"/>
<path d="M20.4463 22.5H36.3672" stroke="white" stroke-width="3" stroke-linecap="round"/>
</g>
<defs>
<filter id="filter0_d_2295_28089" x="-0.000488281" y="0" width="55" height="55" filterUnits="userSpaceOnUse" color-interpolation-filters="sRGB">
<feFlood flood-opacity="0" result="BackgroundImageFix"/>
<feColorMatrix in="SourceAlpha" type="matrix" values="0 0 0 0 0 0 0 0 0 0 0 0 0 0 0 0 0 0 127 0" result="hardAlpha"/>
<feOffset dy="4"/>
<feGaussianBlur stdDeviation="2"/>
<feComposite in2="hardAlpha" operator="out"/>
<feColorMatrix type="matrix" values="0 0 0 0 0 0 0 0 0 0 0 0 0 0 0 0 0 0 0.25 0"/>
<feBlend mode="normal" in2="BackgroundImageFix" result="effect1_dropShadow_2295_28089"/>
<feBlend mode="normal" in="SourceGraphic" in2="effect1_dropShadow_2295_28089" result="shape"/>
</filter>
<radialGradient id="paint0_radial_2295_28089" cx="0" cy="0" r="1" gradientUnits="userSpaceOnUse" gradientTransform="translate(27.4995 23.5) rotate(90) scale(23.5)">
<stop stop-color="#A9A9A9"/>
<stop offset="1" stop-color="#8B8B8B"/>
</radialGradient>
</defs>
</svg>
