<svg width="36" height="35" viewBox="0 0 36 35" fill="none" xmlns="http://www.w3.org/2000/svg">
<path d="M10.4195 32C9.91574 31.8971 9.40236 31.8211 8.90817 31.6869C7.67989 31.3515 6.66273 30.6986 5.85667 29.7773C4.614 28.3597 4.11502 26.7139 4.26375 24.8938C4.41249 23.087 5.16097 21.486 6.39884 20.122C7.36803 19.0577 8.44277 18.0738 9.49832 17.081C11.9309 14.7912 14.3826 12.5149 16.8248 10.2341C18.6144 8.56604 20.3945 6.889 22.1985 5.23431C22.9278 4.56349 23.8298 4.18336 24.847 4.04472C24.9141 4.03578 24.9861 4.01342 25.0533 4C25.3555 4 25.6626 4 25.9649 4C26.4015 4.10286 26.8477 4.18783 27.2747 4.30858C28.1 4.54113 28.8005 4.97492 29.429 5.51605C30.1727 6.16004 30.7388 6.92924 31.0267 7.83709C31.5545 9.4873 31.2234 10.9899 29.9904 12.2779C29.2899 13.0113 28.5222 13.6866 27.7785 14.3843C26.9485 15.1669 26.1088 15.9406 25.274 16.7187C24.4439 17.4924 23.6187 18.2706 22.7886 19.0442C22.045 19.7419 21.3013 20.4351 20.5576 21.1283C19.4877 22.13 18.4129 23.1273 17.3382 24.1291C16.4793 24.9296 15.6397 25.748 14.7521 26.5216C13.8165 27.34 12.7081 27.8454 11.3887 27.6889C10.1077 27.5368 9.16246 26.7363 8.92736 25.5199C8.71625 24.4197 9.09529 23.4493 9.82938 22.6175C10.3907 21.9824 11.0337 21.4055 11.6526 20.8197C12.6314 19.8939 13.6246 18.9772 14.6129 18.0559C15.8604 16.8931 17.1079 15.7304 18.3553 14.5676C18.8399 14.116 19.3245 13.6598 19.8043 13.2036C20.3081 12.7251 21.0374 12.6983 21.5316 13.15C22.0018 13.5793 21.9634 14.277 21.4596 14.7465C20.0874 16.0256 18.72 17.3091 17.3478 18.5881C16.2586 19.6033 15.1647 20.6184 14.0756 21.6336C13.3175 22.3447 12.5498 23.0513 11.8109 23.7802C11.4895 24.0977 11.2256 24.4689 11.2112 24.9385C11.1968 25.3589 11.4511 25.5736 11.8973 25.5288C12.3819 25.4841 12.7705 25.2471 13.116 24.9564C13.4902 24.6433 13.8357 24.3035 14.1907 23.9725C15.5869 22.6711 16.9783 21.3698 18.3745 20.0684C20.3657 18.208 22.3568 16.3475 24.3528 14.4871C25.5906 13.3333 26.8285 12.184 28.0568 11.0212C28.6421 10.4712 29.0116 9.81377 28.9156 9.01773C28.8197 8.25299 28.4214 7.60901 27.8121 7.09471C27.0972 6.49098 26.2815 6.1019 25.2788 6.17793C24.6454 6.22712 24.1177 6.49098 23.6763 6.89794C22.0498 8.40505 20.4328 9.9211 18.8159 11.4327C17.3526 12.7967 15.8892 14.1562 14.4306 15.5202C13.3415 16.5354 12.2619 17.5595 11.1728 18.5747C10.4723 19.2276 9.75741 19.8626 9.0713 20.529C7.96297 21.6023 7.05136 22.7919 6.70111 24.2811C6.37005 25.6854 6.56677 27.018 7.49757 28.1897C8.29403 29.1915 9.38796 29.7326 10.741 29.7952C12.0172 29.8578 13.1496 29.4688 14.2243 28.8606C15.3518 28.2255 16.2586 27.3624 17.1798 26.5038C19.3245 24.5002 21.4692 22.5012 23.6139 20.4977C25.1108 19.1024 26.5982 17.7026 28.0952 16.3073C28.8053 15.6454 29.5106 14.9791 30.2303 14.3261C30.9452 13.6777 31.9143 14.0533 32.1878 14.8315C32.327 15.2295 32.1638 15.5694 31.876 15.8467C31.0747 16.6159 30.259 17.3672 29.4482 18.1275C27.7401 19.7508 26.0225 21.3563 24.3 22.9618C22.9758 24.2006 21.6467 25.4349 20.3177 26.6692C19.4924 27.4384 18.6768 28.2166 17.8468 28.9768C16.868 29.8757 15.7788 30.6315 14.5362 31.1861C13.5958 31.6065 12.6122 31.8927 11.5614 31.9597C11.4991 31.9642 11.4367 31.9821 11.3791 31.9955C11.0624 32 10.741 32 10.4195 32Z" fill="#905DFB"/>
</svg>
