<svg width="35" height="35" viewBox="0 0 35 35" fill="none" xmlns="http://www.w3.org/2000/svg">
<path d="M10.1812 32C9.67746 31.8971 9.16408 31.8211 8.66989 31.6869C7.44161 31.3515 6.42445 30.6986 5.61839 29.7773C4.37572 28.3597 3.87674 26.7139 4.02547 24.8938C4.17421 23.087 4.92269 21.486 6.16056 20.122C7.12975 19.0577 8.20449 18.0738 9.26004 17.081C11.6926 14.7912 14.1443 12.5149 16.5865 10.2341C18.3761 8.56604 20.1562 6.889 21.9602 5.23431C22.6895 4.56349 23.5915 4.18336 24.6087 4.04472C24.6759 4.03578 24.7478 4.01342 24.815 4C25.1173 4 25.4243 4 25.7266 4C26.1632 4.10286 26.6094 4.18783 27.0364 4.30858C27.8617 4.54113 28.5622 4.97492 29.1907 5.51605C29.9344 6.16004 30.5006 6.92924 30.7884 7.83709C31.3162 9.4873 30.9852 10.9899 29.7521 12.2779C29.0516 13.0113 28.2839 13.6866 27.5402 14.3843C26.7102 15.1669 25.8705 15.9406 25.0357 16.7187C24.2057 17.4924 23.3804 18.2706 22.5504 19.0442C21.8067 19.7419 21.063 20.4351 20.3193 21.1283C19.2494 22.13 18.1746 23.1273 17.0999 24.1291C16.2411 24.9296 15.4014 25.748 14.5138 26.5216C13.5782 27.34 12.4699 27.8454 11.1504 27.6889C9.86938 27.5368 8.92418 26.7363 8.68908 25.5199C8.47797 24.4197 8.85701 23.4493 9.59109 22.6175C10.1525 21.9824 10.7954 21.4055 11.4143 20.8197C12.3931 19.8939 13.3863 18.9772 14.3747 18.0559C15.6221 16.8931 16.8696 15.7304 18.1171 14.5676C18.6016 14.116 19.0862 13.6598 19.566 13.2036C20.0698 12.7251 20.7991 12.6983 21.2933 13.15C21.7635 13.5793 21.7251 14.277 21.2213 14.7465C19.8491 16.0256 18.4817 17.3091 17.1095 18.5881C16.0204 19.6033 14.9264 20.6184 13.8373 21.6336C13.0792 22.3447 12.3115 23.0513 11.5726 23.7802C11.2512 24.0977 10.9873 24.4689 10.9729 24.9385C10.9585 25.3589 11.2128 25.5736 11.659 25.5288C12.1436 25.4841 12.5322 25.2471 12.8777 24.9564C13.2519 24.6433 13.5974 24.3035 13.9524 23.9725C15.3486 22.6711 16.74 21.3698 18.1362 20.0684C20.1274 18.208 22.1185 16.3475 24.1145 14.4871C25.3524 13.3333 26.5902 12.184 27.8185 11.0212C28.4039 10.4712 28.7733 9.81377 28.6773 9.01773C28.5814 8.25299 28.1832 7.60901 27.5738 7.09471C26.8589 6.49098 26.0433 6.1019 25.0405 6.17793C24.4072 6.22712 23.8794 6.49098 23.438 6.89794C21.8115 8.40505 20.1946 9.9211 18.5777 11.4327C17.1143 12.7967 15.6509 14.1562 14.1923 15.5202C13.1032 16.5354 12.0237 17.5595 10.9345 18.5747C10.234 19.2276 9.51913 19.8626 8.83302 20.529C7.72469 21.6023 6.81308 22.7919 6.46283 24.2811C6.13177 25.6854 6.32849 27.018 7.25929 28.1897C8.05575 29.1915 9.14968 29.7326 10.5027 29.7952C11.779 29.8578 12.9113 29.4688 13.986 28.8606C15.1135 28.2255 16.0204 27.3624 16.9416 26.5038C19.0862 24.5002 21.2309 22.5012 23.3756 20.4977C24.8726 19.1024 26.3599 17.7026 27.8569 16.3073C28.567 15.6454 29.2723 14.9791 29.992 14.3261C30.7069 13.6777 31.6761 14.0533 31.9495 14.8315C32.0887 15.2295 31.9256 15.5694 31.6377 15.8467C30.8364 16.6159 30.0208 17.3672 29.2099 18.1275C27.5018 19.7508 25.7842 21.3563 24.0617 22.9618C22.7375 24.2006 21.4084 25.4349 20.0794 26.6692C19.2542 27.4384 18.4385 28.2166 17.6085 28.9768C16.6297 29.8757 15.5406 30.6315 14.2979 31.1861C13.3575 31.6065 12.3739 31.8927 11.3232 31.9597C11.2608 31.9642 11.1984 31.9821 11.1408 31.9955C10.8242 32 10.5027 32 10.1812 32Z" fill="white"/>
</svg>
