<svg width="23" height="18" viewBox="0 0 23 18" fill="none" xmlns="http://www.w3.org/2000/svg">
<path fill-rule="evenodd" clip-rule="evenodd" d="M20.8361 2.86996C21.0425 2.6866 21.0613 2.37057 20.8779 2.16409C20.6945 1.95762 20.3785 1.93888 20.172 2.12224L12.3086 9.10536C12.2869 9.12278 12.2663 9.14225 12.2472 9.16376C12.1625 9.25914 12.121 9.37789 12.1211 9.49615C12.121 9.6144 12.1625 9.73316 12.2472 9.82854C12.2663 9.85004 12.2869 9.86951 12.3086 9.88693L20.172 16.8701C20.3785 17.0534 20.6945 17.0347 20.8779 16.8282C21.0613 16.6217 21.0425 16.3057 20.8361 16.1223L13.3745 9.49615L20.8361 2.86996Z" fill="#C4C4C4"/>
<path d="M20.8361 2.86996L20.172 2.12224L20.172 2.12224L20.8361 2.86996ZM20.172 2.12224L20.8361 2.86996L20.8361 2.86996L20.172 2.12224ZM12.3086 9.10536L12.9345 9.88529L12.9539 9.86966L12.9726 9.85309L12.3086 9.10536ZM12.2472 9.16376L12.995 9.82777L12.995 9.82777L12.2472 9.16376ZM12.1211 9.49615L13.1211 9.49727L13.1211 9.49502L12.1211 9.49615ZM12.2472 9.82854L12.995 9.16453L12.995 9.16452L12.2472 9.82854ZM12.3086 9.88693L12.9726 9.13921L12.9539 9.12263L12.9344 9.107L12.3086 9.88693ZM20.172 16.8701L19.508 17.6178L19.508 17.6178L20.172 16.8701ZM20.8779 16.8282L21.6256 17.4922L21.6256 17.4922L20.8779 16.8282ZM20.8361 16.1223L20.172 16.8701V16.8701L20.8361 16.1223ZM13.3745 9.49615L12.7105 8.74842L11.8685 9.49615L12.7105 10.2439L13.3745 9.49615ZM20.1302 2.82811C19.9468 2.62163 19.9656 2.3056 20.172 2.12224L21.5001 3.61768C22.1195 3.0676 22.1757 2.11951 21.6256 1.50008L20.1302 2.82811ZM20.8361 2.86996C20.6296 3.05332 20.3135 3.03458 20.1302 2.82811L21.6256 1.50008C21.0755 0.880649 20.1275 0.82443 19.508 1.37452L20.8361 2.86996ZM12.9726 9.85309L20.8361 2.86996L19.508 1.37452L11.6446 8.35764L12.9726 9.85309ZM11.6827 8.32544C11.6174 8.37785 11.5561 8.43607 11.4995 8.49975L12.995 9.82777C12.9766 9.84843 12.9564 9.86771 12.9345 9.88529L11.6827 8.32544ZM11.4995 8.49975C11.2459 8.78539 11.1207 9.14336 11.1211 9.49727L13.1211 9.49502C13.1212 9.61242 13.0792 9.73288 12.995 9.82777L11.4995 8.49975ZM12.995 9.16452C13.0792 9.25941 13.1212 9.37987 13.1211 9.49727L11.1211 9.49502C11.1207 9.84893 11.2459 10.2069 11.4995 10.4925L12.995 9.16452ZM12.9344 9.107C12.9564 9.12459 12.9766 9.14387 12.995 9.16453L11.4995 10.4925C11.5561 10.5562 11.6174 10.6144 11.6827 10.6669L12.9344 9.107ZM11.6446 10.6347L19.508 17.6178L20.8361 16.1223L12.9726 9.13921L11.6446 10.6347ZM19.508 17.6178C20.1275 18.1679 21.0755 18.1116 21.6256 17.4922L20.1302 16.1642C20.3135 15.9577 20.6296 15.939 20.8361 16.1223L19.508 17.6178ZM21.6256 17.4922C22.1757 16.8728 22.1195 15.9247 21.5001 15.3746L20.172 16.8701C19.9656 16.6867 19.9468 16.3707 20.1302 16.1642L21.6256 17.4922ZM21.5001 15.3746L14.0385 8.74842L12.7105 10.2439L20.172 16.8701L21.5001 15.3746ZM20.172 2.12224L12.7105 8.74842L14.0385 10.2439L21.5001 3.61768L20.172 2.12224Z" fill="#C4C4C4"/>
<path fill-rule="evenodd" clip-rule="evenodd" d="M9.71496 2.86996C9.92144 2.6866 9.94018 2.37057 9.75681 2.16409C9.57345 1.95762 9.25743 1.93888 9.05095 2.12224L1.18749 9.10536C1.16578 9.12278 1.14524 9.14225 1.12614 9.16376C1.04144 9.25914 0.999868 9.37789 1 9.49615C0.999868 9.6144 1.04144 9.73316 1.12614 9.82854C1.14524 9.85004 1.16578 9.86951 1.18749 9.88693L9.05095 16.8701C9.25743 17.0534 9.57345 17.0347 9.75681 16.8282C9.94018 16.6217 9.92144 16.3057 9.71496 16.1223L2.25344 9.49615L9.71496 2.86996Z" fill="#C4C4C4"/>
<path d="M9.71496 2.86996L9.05095 2.12224L9.05095 2.12224L9.71496 2.86996ZM9.05095 2.12224L9.71496 2.86996L9.71496 2.86996L9.05095 2.12224ZM1.18749 9.10536L1.81336 9.88529L1.83283 9.86966L1.8515 9.85309L1.18749 9.10536ZM1.12614 9.16376L1.87387 9.82777L1.87387 9.82777L1.12614 9.16376ZM1 9.49615L2 9.49727L2 9.49502L1 9.49615ZM1.12614 9.82854L1.87387 9.16453L1.87387 9.16452L1.12614 9.82854ZM1.18749 9.88693L1.8515 9.13921L1.83283 9.12263L1.81335 9.107L1.18749 9.88693ZM9.05095 16.8701L8.38694 17.6178L8.38694 17.6178L9.05095 16.8701ZM9.75681 16.8282L10.5045 17.4922L10.5045 17.4922L9.75681 16.8282ZM9.71496 16.1223L9.05095 16.8701V16.8701L9.71496 16.1223ZM2.25344 9.49615L1.58942 8.74842L0.747439 9.49615L1.58942 10.2439L2.25344 9.49615ZM9.00909 2.82811C8.82573 2.62163 8.84447 2.3056 9.05095 2.12224L10.379 3.61768C10.9984 3.0676 11.0546 2.11951 10.5045 1.50008L9.00909 2.82811ZM9.71496 2.86996C9.50848 3.05332 9.19245 3.03458 9.00909 2.82811L10.5045 1.50008C9.95445 0.880649 9.00637 0.82443 8.38694 1.37452L9.71496 2.86996ZM1.8515 9.85309L9.71496 2.86996L8.38694 1.37452L0.523473 8.35764L1.8515 9.85309ZM0.561609 8.32544C0.496298 8.37785 0.434971 8.43607 0.37842 8.49975L1.87387 9.82777C1.85552 9.84843 1.83527 9.86771 1.81336 9.88529L0.561609 8.32544ZM0.378422 8.49975C0.124757 8.78539 -0.000396371 9.14336 9.53674e-07 9.49727L2 9.49502C2.00013 9.61242 1.95813 9.73288 1.87387 9.82777L0.378422 8.49975ZM1.87387 9.16452C1.95813 9.25941 2.00013 9.37987 2 9.49727L9.53674e-07 9.49502C-0.000396371 9.84893 0.124758 10.2069 0.378422 10.4925L1.87387 9.16452ZM1.81335 9.107C1.83527 9.12459 1.85552 9.14387 1.87387 9.16453L0.378419 10.4925C0.434965 10.5562 0.496294 10.6144 0.561619 10.6669L1.81335 9.107ZM0.523475 10.6347L8.38694 17.6178L9.71496 16.1223L1.8515 9.13921L0.523475 10.6347ZM8.38694 17.6178C9.00637 18.1679 9.95445 18.1116 10.5045 17.4922L9.00909 16.1642C9.19246 15.9577 9.50848 15.939 9.71496 16.1223L8.38694 17.6178ZM10.5045 17.4922C11.0546 16.8728 10.9984 15.9247 10.379 15.3746L9.05095 16.8701C8.84447 16.6867 8.82573 16.3707 9.00909 16.1642L10.5045 17.4922ZM10.379 15.3746L2.91745 8.74842L1.58942 10.2439L9.05095 16.8701L10.379 15.3746ZM9.05095 2.12224L1.58942 8.74842L2.91745 10.2439L10.379 3.61768L9.05095 2.12224Z" fill="#C4C4C4"/>
</svg>
