<svg width="23" height="17" viewBox="0 0 23 17" fill="none" xmlns="http://www.w3.org/2000/svg">
<path fill-rule="evenodd" clip-rule="evenodd" d="M1.16785 15.1261C0.961374 15.3095 0.942636 15.6255 1.126 15.832C1.30936 16.0385 1.62539 16.0572 1.83186 15.8739L9.69533 8.89073C9.71703 8.87331 9.73757 8.85384 9.75667 8.83234C9.84137 8.73696 9.88294 8.6182 9.88281 8.49995C9.88294 8.38169 9.84137 8.26294 9.75667 8.16756C9.73757 8.14605 9.71703 8.12658 9.69533 8.10916L1.83186 1.12604C1.62539 0.942679 1.30936 0.961418 1.126 1.1679C0.942634 1.37437 0.961373 1.6904 1.16785 1.87376L8.62938 8.49995L1.16785 15.1261Z" fill="#C4C4C4"/>
<path d="M1.16785 15.1261L1.83186 15.8739L1.83186 15.8739L1.16785 15.1261ZM1.83186 15.8739L1.16785 15.1261L1.16785 15.1261L1.83186 15.8739ZM9.69533 8.89073L9.06945 8.11081L9.04998 8.12643L9.03131 8.14301L9.69533 8.89073ZM9.75667 8.83234L9.00895 8.16833L9.00894 8.16833L9.75667 8.83234ZM9.88281 8.49995L8.88281 8.49883L8.88281 8.50107L9.88281 8.49995ZM9.75667 8.16756L9.00894 8.83157L9.00895 8.83157L9.75667 8.16756ZM9.69533 8.10916L9.03131 8.85689L9.04998 8.87347L9.06946 8.88909L9.69533 8.10916ZM1.83186 1.12604L2.49587 0.378318L2.49587 0.378318L1.83186 1.12604ZM1.126 1.1679L0.378275 0.503882L0.378274 0.503883L1.126 1.1679ZM1.16785 1.87376L1.83186 1.12604L1.83186 1.12604L1.16785 1.87376ZM8.62938 8.49995L9.29339 9.24767L10.1354 8.49995L9.29339 7.75223L8.62938 8.49995ZM1.87372 15.168C2.05708 15.3745 2.03834 15.6905 1.83186 15.8739L0.503841 14.3784C-0.115594 14.9285 -0.171809 15.8766 0.378276 16.496L1.87372 15.168ZM1.16785 15.1261C1.37433 14.9428 1.69036 14.9615 1.87372 15.168L0.378276 16.496C0.928361 17.1154 1.87644 17.1717 2.49588 16.6216L1.16785 15.1261ZM9.03131 8.14301L1.16785 15.1261L2.49588 16.6216L10.3593 9.63845L9.03131 8.14301ZM10.3212 9.67065C10.3865 9.61824 10.4478 9.56003 10.5044 9.49635L9.00894 8.16833C9.0273 8.14766 9.04755 8.12838 9.06945 8.11081L10.3212 9.67065ZM10.5044 9.49635C10.7581 9.2107 10.8832 8.85273 10.8828 8.49882L8.88281 8.50107C8.88268 8.38367 8.92468 8.26321 9.00895 8.16833L10.5044 9.49635ZM9.00895 8.83157C8.92468 8.73668 8.88268 8.61622 8.88281 8.49883L10.8828 8.50107C10.8832 8.14716 10.7581 7.78919 10.5044 7.50355L9.00895 8.83157ZM9.06946 8.88909C9.04754 8.87151 9.02729 8.85223 9.00894 8.83157L10.5044 7.50355C10.4478 7.43988 10.3865 7.38166 10.3212 7.32924L9.06946 8.88909ZM10.3593 7.36144L2.49587 0.378318L1.16785 1.87376L9.03131 8.85689L10.3593 7.36144ZM2.49587 0.378318C1.87644 -0.171766 0.928361 -0.11555 0.378275 0.503882L1.87372 1.83191C1.69036 2.03839 1.37433 2.05712 1.16785 1.87376L2.49587 0.378318ZM0.378274 0.503883C-0.17181 1.12332 -0.115596 2.0714 0.503839 2.62149L1.83186 1.12604C2.03834 1.3094 2.05708 1.62543 1.87372 1.83191L0.378274 0.503883ZM0.503839 2.62148L7.96536 9.24767L9.29339 7.75223L1.83186 1.12604L0.503839 2.62148ZM1.83186 15.8739L9.29339 9.24767L7.96536 7.75223L0.50384 14.3784L1.83186 15.8739Z" fill="#C4C4C4"/>
<path fill-rule="evenodd" clip-rule="evenodd" d="M12.2889 15.1261C12.0825 15.3095 12.0637 15.6255 12.2471 15.832C12.4305 16.0385 12.7465 16.0572 12.953 15.8739L20.8164 8.89073C20.8381 8.87331 20.8587 8.85384 20.8778 8.83234C20.9625 8.73696 21.004 8.6182 21.0039 8.49995C21.004 8.38169 20.9625 8.26294 20.8778 8.16756C20.8587 8.14605 20.8381 8.12658 20.8164 8.10916L12.953 1.12604C12.7465 0.942679 12.4305 0.961418 12.2471 1.1679C12.0637 1.37437 12.0825 1.6904 12.2889 1.87376L19.7505 8.49995L12.2889 15.1261Z" fill="#C4C4C4"/>
<path d="M12.2889 15.1261L12.953 15.8739L12.953 15.8739L12.2889 15.1261ZM12.953 15.8739L12.2889 15.1261L12.2889 15.1261L12.953 15.8739ZM20.8164 8.89073L20.1905 8.11081L20.1711 8.12643L20.1524 8.14301L20.8164 8.89073ZM20.8778 8.83234L20.13 8.16833L20.13 8.16833L20.8778 8.83234ZM21.0039 8.49995L20.0039 8.49883L20.0039 8.50107L21.0039 8.49995ZM20.8778 8.16756L20.13 8.83157L20.13 8.83157L20.8778 8.16756ZM20.8164 8.10916L20.1524 8.85689L20.1711 8.87347L20.1906 8.88909L20.8164 8.10916ZM12.953 1.12604L13.617 0.378318L13.617 0.378318L12.953 1.12604ZM12.2471 1.1679L11.4994 0.503882L11.4994 0.503883L12.2471 1.1679ZM12.2889 1.87376L12.953 1.12604L12.953 1.12604L12.2889 1.87376ZM19.7505 8.49995L20.4145 9.24767L21.2565 8.49995L20.4145 7.75223L19.7505 8.49995ZM12.9948 15.168C13.1782 15.3745 13.1594 15.6905 12.953 15.8739L11.6249 14.3784C11.0055 14.9285 10.9493 15.8766 11.4994 16.496L12.9948 15.168ZM12.2889 15.1261C12.4954 14.9428 12.8115 14.9615 12.9948 15.168L11.4994 16.496C12.0495 17.1154 12.9975 17.1717 13.617 16.6216L12.2889 15.1261ZM20.1524 8.14301L12.2889 15.1261L13.617 16.6216L21.4804 9.63845L20.1524 8.14301ZM21.4423 9.67065C21.5076 9.61824 21.5689 9.56003 21.6255 9.49635L20.13 8.16833C20.1484 8.14766 20.1686 8.12838 20.1905 8.11081L21.4423 9.67065ZM21.6255 9.49635C21.8791 9.2107 22.0043 8.85273 22.0039 8.49882L20.0039 8.50107C20.0038 8.38367 20.0458 8.26321 20.13 8.16833L21.6255 9.49635ZM20.13 8.83157C20.0458 8.73668 20.0038 8.61622 20.0039 8.49883L22.0039 8.50107C22.0043 8.14716 21.8791 7.78919 21.6255 7.50355L20.13 8.83157ZM20.1906 8.88909C20.1686 8.87151 20.1484 8.85223 20.13 8.83157L21.6255 7.50355C21.5689 7.43988 21.5076 7.38166 21.4423 7.32924L20.1906 8.88909ZM21.4804 7.36144L13.617 0.378318L12.2889 1.87376L20.1524 8.85689L21.4804 7.36144ZM13.617 0.378318C12.9975 -0.171766 12.0495 -0.11555 11.4994 0.503882L12.9948 1.83191C12.8114 2.03839 12.4954 2.05712 12.2889 1.87376L13.617 0.378318ZM11.4994 0.503883C10.9493 1.12332 11.0055 2.0714 11.6249 2.62149L12.953 1.12604C13.1594 1.3094 13.1782 1.62543 12.9948 1.83191L11.4994 0.503883ZM11.6249 2.62148L19.0865 9.24767L20.4145 7.75223L12.953 1.12604L11.6249 2.62148ZM12.953 15.8739L20.4145 9.24767L19.0865 7.75223L11.6249 14.3784L12.953 15.8739Z" fill="#C4C4C4"/>
</svg>
