<svg width="456" height="333" viewBox="0 0 456 333" fill="none" xmlns="http://www.w3.org/2000/svg">
<path d="M7.28613 153.668C7.28613 148.638 11.3639 144.561 16.394 144.561H71.0413C76.0714 144.561 80.1491 148.638 80.1491 153.668V208.316C80.1491 213.346 76.0714 217.424 71.0413 217.424H16.394C11.3639 217.424 7.28613 213.346 7.28613 208.316V153.668Z" fill="white"/>
<path fill-rule="evenodd" clip-rule="evenodd" d="M71.0413 145.471H16.394C11.8669 145.471 8.19692 149.141 8.19692 153.668V208.316C8.19692 212.843 11.8669 216.513 16.394 216.513H71.0413C75.5684 216.513 79.2384 212.843 79.2384 208.316V153.668C79.2384 149.141 75.5684 145.471 71.0413 145.471ZM16.394 144.561C11.3639 144.561 7.28613 148.638 7.28613 153.668V208.316C7.28613 213.346 11.3639 217.424 16.394 217.424H71.0413C76.0714 217.424 80.1491 213.346 80.1491 208.316V153.668C80.1491 148.638 76.0714 144.561 71.0413 144.561H16.394Z" fill="#905DFB"/>
<path d="M38.1175 171.237V169.133H41.9701V168H34.579V166.278H41.6968V162.371H33.1719V163.505H40.3033V165.158H33.1992V169.133H36.7103V171.237H31.8467V172.399H43.022V171.237H38.1175Z" fill="#C4C4C4"/>
<path d="M52.9395 163.874C52.9395 165.349 52.9395 167.098 52.4613 169.516L53.8821 169.666C54.3603 167.112 54.3603 165.404 54.3603 163.874V162.658H45.5757V163.805H52.9395V163.874ZM49.9885 171.073V166.729H48.5677V171.073H44.4145V172.235H55.5625V171.073H49.9885Z" fill="#C4C4C4"/>
<path d="M40.9209 186.634C42.7789 186.634 44.4593 185.2 44.4593 182.713C44.4593 180.2 42.7789 178.751 40.9209 178.751C39.0629 178.751 37.3825 180.2 37.3825 182.713C37.3825 185.2 39.0629 186.634 40.9209 186.634ZM40.9209 185.35C39.746 185.35 39.0082 184.298 39.0082 182.713C39.0082 181.115 39.746 180.049 40.9209 180.049C42.1095 180.049 42.8472 181.115 42.8472 182.713C42.8472 184.298 42.1095 185.35 40.9209 185.35Z" fill="#C4C4C4"/>
<path d="M46.3072 186.457H47.8646V181.771C48.3428 180.582 49.0805 180.159 49.6953 180.159C49.9959 180.159 50.1871 180.2 50.4467 180.281L50.7336 178.915C50.5014 178.806 50.2554 178.751 49.8866 178.751C49.0805 178.751 48.2881 179.325 47.7553 180.295H47.7143L47.5914 178.943H46.3072V186.457Z" fill="#C4C4C4"/>
<path d="M36.7239 194.189H33.7593V190.869H36.7239V194.189ZM40.6586 191.88V193.178H38.0901V191.88H40.6586ZM38.0901 194.326H40.6586V196.102H42.0657V188.834H40.6586V190.733H38.0901V189.749H32.3795V195.309H38.0901V194.326ZM37.9535 200.077C36.2048 200.077 35.2075 199.627 35.2075 198.807C35.2075 198.001 36.2048 197.55 37.9535 197.55C39.7022 197.55 40.7132 198.001 40.7132 198.807C40.7132 199.627 39.7022 200.077 37.9535 200.077ZM37.9535 196.443C35.3851 196.443 33.8003 197.318 33.8003 198.807C33.8003 200.296 35.3851 201.17 37.9535 201.17C40.5356 201.17 42.1204 200.296 42.1204 198.807C42.1204 197.318 40.5356 196.443 37.9535 196.443Z" fill="#C4C4C4"/>
<path d="M51.7099 190.05H48.7726V188.738H47.3654V190.05H44.4281V191.17H51.7099V190.05ZM46.4228 193.889C46.4228 193.178 47.0785 192.741 48.0622 192.741C49.0458 192.741 49.7153 193.178 49.7153 193.889C49.7153 194.613 49.0458 195.05 48.0622 195.05C47.0785 195.05 46.4228 194.613 46.4228 193.889ZM51.0541 193.889C51.0541 192.563 49.8519 191.675 48.0622 191.675C46.2862 191.675 45.0703 192.563 45.0703 193.889C45.0703 195.228 46.2862 196.102 48.0622 196.102C49.8519 196.102 51.0541 195.228 51.0541 193.889ZM47.5567 198.001H52.6662V199.9H47.5567V198.001ZM46.1632 201.02H54.0461V196.894H46.1632V201.02ZM55.7948 192.003H54.0461V188.834H52.6389V196.266H54.0461V193.165H55.7948V192.003Z" fill="#C4C4C4"/>
<path d="M239.537 153.668C239.537 148.638 243.614 144.561 248.644 144.561H303.292C308.322 144.561 312.4 148.638 312.4 153.668V208.316C312.4 213.346 308.322 217.424 303.292 217.424H248.644C243.614 217.424 239.537 213.346 239.537 208.316V153.668Z" fill="white"/>
<path fill-rule="evenodd" clip-rule="evenodd" d="M303.292 145.471H248.644C244.117 145.471 240.447 149.141 240.447 153.668V208.316C240.447 212.843 244.117 216.513 248.644 216.513H303.292C307.819 216.513 311.489 212.843 311.489 208.316V153.668C311.489 149.141 307.819 145.471 303.292 145.471ZM248.644 144.561C243.614 144.561 239.537 148.638 239.537 153.668V208.316C239.537 213.346 243.614 217.424 248.644 217.424H303.292C308.322 217.424 312.4 213.346 312.4 208.316V153.668C312.4 148.638 308.322 144.561 303.292 144.561H248.644Z" fill="#905DFB"/>
<path d="M265.6 171.561C265.6 170.481 266.392 169.771 267.485 169.771C268.551 169.771 269.343 170.481 269.343 171.561C269.343 172.626 268.551 173.337 267.485 173.337C266.392 173.337 265.6 172.626 265.6 171.561ZM272.909 170.727V172.394H270.559C270.641 172.134 270.682 171.861 270.682 171.561C270.682 171.26 270.641 170.987 270.573 170.727H272.909ZM272.909 173.528V175.154H274.316V167.872H272.909V169.58H269.931C269.357 168.965 268.496 168.582 267.485 168.582C265.641 168.582 264.261 169.812 264.261 171.561C264.261 173.296 265.641 174.525 267.485 174.525C268.483 174.525 269.357 174.156 269.931 173.528H272.909ZM270.204 179.116C268.455 179.116 267.431 178.665 267.431 177.818C267.431 176.998 268.455 176.533 270.204 176.533C271.966 176.533 272.977 176.998 272.977 177.818C272.977 178.665 271.966 179.116 270.204 179.116ZM270.204 175.427C267.636 175.427 266.051 176.315 266.051 177.818C266.051 179.334 267.636 180.222 270.204 180.222C272.772 180.222 274.371 179.334 274.371 177.818C274.371 176.315 272.772 175.427 270.204 175.427Z" fill="#C4C4C4"/>
<path d="M283.837 173.528C282.007 172.927 280.955 171.424 280.955 169.839V168.514H279.534V169.73C279.534 171.506 278.482 173.186 276.542 173.856L277.293 174.976C278.714 174.457 279.725 173.391 280.272 172.052C280.791 173.214 281.774 174.156 283.1 174.634L283.837 173.528ZM282.321 179.116C280.6 179.116 279.602 178.692 279.602 177.9C279.602 177.135 280.6 176.697 282.321 176.697C284.042 176.697 285.04 177.135 285.04 177.9C285.04 178.692 284.042 179.116 282.321 179.116ZM282.321 175.591C279.78 175.591 278.209 176.451 278.209 177.9C278.209 179.361 279.78 180.222 282.321 180.222C284.876 180.222 286.433 179.361 286.433 177.9C286.433 176.451 284.876 175.591 282.321 175.591ZM286.297 170.932V167.872H284.889V175.29H286.297V172.093H288.045V170.932H286.297Z" fill="#C4C4C4"/>
<path d="M272.909 190.687H274.316V181.547H272.909V183.815H271.092V184.949H272.909V186.22H271.092V187.354H272.909V190.687ZM266.898 183.638H268.469V187.75C267.936 187.777 267.417 187.791 266.898 187.804V183.638ZM271.215 187.531C270.778 187.586 270.3 187.627 269.821 187.654V183.638H270.928V182.49H264.425V183.638H265.545V187.832C265.04 187.832 264.548 187.832 264.097 187.832L264.261 188.993C266.242 188.993 268.974 188.952 271.297 188.569L271.215 187.531ZM267.718 192.504V189.963H266.31V193.652H274.63V192.504H267.718Z" fill="#C4C4C4"/>
<path d="M284.275 186.971C282.376 186.397 281.255 184.976 281.255 183.474V183.419H283.892V182.285H277.143V183.419H279.821V183.474C279.821 185.058 278.701 186.575 276.761 187.176L277.471 188.283C278.946 187.804 279.998 186.807 280.559 185.55C281.119 186.711 282.171 187.627 283.592 188.064L284.275 186.971ZM285.436 192.6H280.162V191.234H285.436V192.6ZM285.436 190.127H280.162V188.802H278.769V193.734H286.829V188.802H285.436V190.127ZM285.422 181.534V188.242H286.829V181.534H285.422Z" fill="#C4C4C4"/>
<path d="M84.7031 153.668C84.7031 148.638 88.7809 144.561 93.811 144.561H148.458C153.488 144.561 157.566 148.638 157.566 153.668V208.316C157.566 213.346 153.488 217.424 148.458 217.424H93.811C88.7809 217.424 84.7031 213.346 84.7031 208.316V153.668Z" fill="white"/>
<path fill-rule="evenodd" clip-rule="evenodd" d="M148.458 145.471H93.811C89.2839 145.471 85.6139 149.141 85.6139 153.668V208.316C85.6139 212.843 89.2839 216.513 93.811 216.513H148.458C152.985 216.513 156.655 212.843 156.655 208.316V153.668C156.655 149.141 152.985 145.471 148.458 145.471ZM93.811 144.561C88.7809 144.561 84.7031 148.638 84.7031 153.668V208.316C84.7031 213.346 88.7809 217.424 93.811 217.424H148.458C153.488 217.424 157.566 213.346 157.566 208.316V153.668C157.566 148.638 153.488 144.561 148.458 144.561H93.811Z" fill="#905DFB"/>
<path d="M105.288 177.781H106.545V183.328C106.122 183.342 105.712 183.369 105.288 183.383V177.781ZM107.829 177.781H108.745V176.647H103.089V177.781H104.018V183.41C103.594 183.41 103.184 183.41 102.856 183.41L103.007 184.571C104.564 184.571 107.092 184.517 109.018 184.134L108.909 183.109C108.567 183.164 108.212 183.205 107.829 183.246V177.781ZM112.174 175.158V180.035H110.849V175.418H109.523V186.894H110.849V181.183H112.174V187.508H113.513V175.158H112.174Z" fill="#C4C4C4"/>
<path d="M116.422 176.401V177.549H120.752C120.698 178.232 120.588 178.874 120.411 179.475L115.793 179.762L115.984 180.978L119.974 180.609C119.222 182.126 117.883 183.41 115.711 184.489L116.476 185.596C120.985 183.342 122.16 180.076 122.16 176.401H116.422ZM124.318 175.172V187.508H125.725V175.172H124.318Z" fill="#C4C4C4"/>
<path d="M132.664 177.563H135.41V176.401H128.498V177.563H131.244V178.738C131.244 180.855 129.973 183.15 128.06 184.038L128.866 185.159C130.315 184.462 131.421 183 131.968 181.279C132.541 182.877 133.648 184.216 135.083 184.844L135.861 183.738C133.935 182.918 132.664 180.787 132.664 178.738V177.563ZM136.845 175.172V187.508H138.266V175.172H136.845Z" fill="#C4C4C4"/>
<path d="M7.28613 231.085C7.28613 226.055 11.3639 221.978 16.394 221.978H71.0413C76.0714 221.978 80.1491 226.055 80.1491 231.085V285.733C80.1491 290.763 76.0714 294.841 71.0413 294.841H16.394C11.3639 294.841 7.28613 290.763 7.28613 285.733V231.085Z" fill="white"/>
<path fill-rule="evenodd" clip-rule="evenodd" d="M71.0413 222.888H16.394C11.8669 222.888 8.19692 226.558 8.19692 231.085V285.733C8.19692 290.26 11.8669 293.93 16.394 293.93H71.0413C75.5684 293.93 79.2384 290.26 79.2384 285.733V231.085C79.2384 226.558 75.5684 222.888 71.0413 222.888ZM16.394 221.978C11.3639 221.978 7.28613 226.055 7.28613 231.085V285.733C7.28613 290.763 11.3639 294.841 16.394 294.841H71.0413C76.0714 294.841 80.1491 290.763 80.1491 285.733V231.085C80.1491 226.055 76.0714 221.978 71.0413 221.978H16.394Z" fill="#905DFB"/>
<path d="M35.5901 248.459H37.6257V247.298H32.0516V248.459H34.2239V249.347C34.2239 251.547 33.4042 253.774 31.6555 254.866L32.5025 255.905C33.6911 255.153 34.4835 253.828 34.9206 252.271C35.3578 253.705 36.1229 254.921 37.2841 255.604L38.1038 254.58C36.3824 253.582 35.5901 251.451 35.5901 249.347V248.459ZM38.541 250.29H36.724V251.437H38.541V257.694H39.8662V246.191H38.541V250.29ZM41.0275 245.945V258.282H42.3663V245.945H41.0275Z" fill="#C4C4C4"/>
<path d="M51.3957 249.716H48.5541V247.448H51.3957V249.716ZM47.1469 249.716H45.4665V250.85H54.4696V249.716H52.8029V247.448H54.5379V246.314H45.3982V247.448H47.1469V249.716ZM52.8302 257.025H47.1332V255.345H52.8302V257.025ZM55.5626 252.967V251.834H44.4009V252.967H49.2781V254.224H45.7397V258.145H54.21V254.224H50.6853V252.967H55.5626Z" fill="#C4C4C4"/>
<path d="M33.4272 273.624L34.4109 273.187C33.236 271.233 32.6895 268.924 32.6895 266.629C32.6895 264.348 33.236 262.039 34.4109 260.072L33.4272 259.648C32.1567 261.711 31.4053 263.938 31.4053 266.629C31.4053 269.348 32.1567 271.548 33.4272 273.624Z" fill="#C4C4C4"/>
<path d="M38.7071 271.083C40.5514 271.083 42.0679 270.017 42.0679 268.2C42.0679 266.848 41.1526 265.974 39.9913 265.687V265.618C41.0569 265.222 41.7263 264.416 41.7263 263.255C41.7263 261.588 40.4558 260.659 38.6524 260.659C37.4912 260.659 36.5622 261.165 35.7698 261.875L36.5895 262.859C37.1633 262.299 37.8191 261.916 38.5978 261.902C39.5541 261.916 40.1416 262.476 40.1416 263.364C40.1416 264.375 39.4858 265.127 37.5048 265.127V266.288C39.7727 266.288 40.4831 267.012 40.4831 268.132C40.4831 269.17 39.7044 269.799 38.5705 269.799C37.5322 269.799 36.7808 269.293 36.1933 268.692L35.4283 269.703C36.0977 270.455 37.1223 271.083 38.7071 271.083Z" fill="#C4C4C4"/>
<path d="M44.1624 270.905H46.8538C49.8594 270.905 51.6218 269.102 51.6218 265.837C51.6218 262.558 49.8594 260.85 46.7718 260.85H44.1624V270.905ZM45.7472 269.608V262.135H46.6625C48.8211 262.135 49.9824 263.323 49.9824 265.837C49.9824 268.337 48.8211 269.608 46.6625 269.608H45.7472Z" fill="#C4C4C4"/>
<path d="M54.0019 273.624C55.2861 271.548 56.0375 269.348 56.0375 266.629C56.0375 263.938 55.2861 261.711 54.0019 259.648L53.0183 260.072C54.1932 262.039 54.7397 264.348 54.7397 266.629C54.7397 268.924 54.1932 271.233 53.0183 273.187L54.0019 273.624Z" fill="#C4C4C4"/>
<path d="M162.12 231.085C162.12 226.055 166.198 221.978 171.228 221.978H225.875C230.905 221.978 234.983 226.055 234.983 231.085V285.733C234.983 290.763 230.905 294.841 225.875 294.841H171.228C166.198 294.841 162.12 290.763 162.12 285.733V231.085Z" fill="white"/>
<path fill-rule="evenodd" clip-rule="evenodd" d="M225.875 222.888H171.228C166.701 222.888 163.031 226.558 163.031 231.085V285.733C163.031 290.26 166.701 293.93 171.228 293.93H225.875C230.402 293.93 234.072 290.26 234.072 285.733V231.085C234.072 226.558 230.402 222.888 225.875 222.888ZM171.228 221.978C166.198 221.978 162.12 226.055 162.12 231.085V285.733C162.12 290.763 166.198 294.841 171.228 294.841H225.875C230.905 294.841 234.983 290.763 234.983 285.733V231.085C234.983 226.055 230.905 221.978 225.875 221.978H171.228Z" fill="#905DFB"/>
<path d="M197.119 245.959H195.78V255.235H197.119V245.959ZM193.348 254.935H194.673V246.178H193.348V249.238H192.009V250.385H193.348V254.935ZM192.419 251.97C191.148 252.216 190.028 252.284 188.566 252.298V250.645H191.545V246.929H187.173V248.036H190.178V249.607H187.2V253.418H188.034C189.81 253.418 191.066 253.364 192.556 253.09L192.419 251.97ZM190.383 256.916V254.32H188.963V258.063H197.46V256.916H190.383Z" fill="#C4C4C4"/>
<path d="M209.413 245.959H208.006V253.446H209.413V245.959ZM206.899 250.891C205.274 251.219 203.839 251.287 201.38 251.301V248.049H205.793V246.902H199.973V252.448H201.011C203.744 252.448 205.301 252.38 207.036 252.025L206.899 250.891ZM205.287 257.203C203.539 257.203 202.514 256.738 202.514 255.905C202.514 255.085 203.539 254.621 205.287 254.621C207.036 254.621 208.061 255.085 208.061 255.905C208.061 256.738 207.036 257.203 205.287 257.203ZM205.287 253.514C202.705 253.514 201.107 254.402 201.107 255.905C201.107 257.421 202.705 258.309 205.287 258.309C207.856 258.309 209.468 257.421 209.468 255.905C209.468 254.402 207.856 253.514 205.287 253.514Z" fill="#C4C4C4"/>
<path d="M182.679 262.244H183.922V267.777C183.498 267.804 183.088 267.818 182.679 267.832V262.244ZM185.206 262.244H186.121V261.11H180.506V262.244H181.394V267.859C180.985 267.859 180.602 267.859 180.26 267.859L180.424 269.02C181.982 269.02 184.523 268.965 186.449 268.583L186.354 267.558C185.998 267.613 185.602 267.654 185.206 267.695V262.244ZM187.242 264.225H185.78V265.468H187.242V271.343H188.567V259.894H187.242V264.225ZM189.66 259.621V271.957H191.012V259.621H189.66Z" fill="#C4C4C4"/>
<path d="M201.695 259.607V271.985H203.116V259.607H201.695ZM196.544 260.522C194.714 260.522 193.375 262.217 193.375 264.867C193.375 267.545 194.714 269.225 196.544 269.225C198.389 269.225 199.728 267.545 199.728 264.867C199.728 262.217 198.389 260.522 196.544 260.522ZM196.544 261.793C197.624 261.793 198.375 262.954 198.375 264.867C198.375 266.807 197.624 267.968 196.544 267.968C195.479 267.968 194.727 266.807 194.727 264.867C194.727 262.954 195.479 261.793 196.544 261.793Z" fill="#C4C4C4"/>
<path d="M210.082 262.012H212.828V260.85H205.915V262.012H208.661V263.187C208.661 265.304 207.391 267.599 205.478 268.487L206.284 269.608C207.732 268.911 208.839 267.449 209.385 265.728C209.959 267.326 211.066 268.665 212.5 269.293L213.279 268.187C211.353 267.367 210.082 265.236 210.082 263.187V262.012ZM214.263 259.621V271.957H215.683V259.621H214.263Z" fill="#C4C4C4"/>
<path d="M162.12 153.668C162.12 148.638 166.198 144.561 171.228 144.561H225.875C230.905 144.561 234.983 148.638 234.983 153.668V208.316C234.983 213.346 230.905 217.424 225.875 217.424H171.228C166.198 217.424 162.12 213.346 162.12 208.316V153.668Z" fill="white"/>
<path fill-rule="evenodd" clip-rule="evenodd" d="M225.875 145.471H171.228C166.701 145.471 163.031 149.141 163.031 153.668V208.316C163.031 212.843 166.701 216.513 171.228 216.513H225.875C230.402 216.513 234.072 212.843 234.072 208.316V153.668C234.072 149.141 230.402 145.471 225.875 145.471ZM171.228 144.561C166.198 144.561 162.12 148.638 162.12 153.668V208.316C162.12 213.346 166.198 217.424 171.228 217.424H225.875C230.905 217.424 234.983 213.346 234.983 208.316V153.668C234.983 148.638 230.905 144.561 225.875 144.561H171.228Z" fill="#905DFB"/>
<path d="M193.853 173.528C192.023 172.927 190.971 171.424 190.971 169.839V168.514H189.55V169.73C189.55 171.506 188.498 173.186 186.558 173.856L187.309 174.976C188.73 174.457 189.741 173.391 190.288 172.052C190.807 173.214 191.791 174.156 193.116 174.634L193.853 173.528ZM192.337 179.116C190.616 179.116 189.618 178.692 189.618 177.9C189.618 177.135 190.616 176.697 192.337 176.697C194.058 176.697 195.056 177.135 195.056 177.9C195.056 178.692 194.058 179.116 192.337 179.116ZM192.337 175.591C189.796 175.591 188.225 176.451 188.225 177.9C188.225 179.361 189.796 180.222 192.337 180.222C194.892 180.222 196.449 179.361 196.449 177.9C196.449 176.451 194.892 175.591 192.337 175.591ZM196.313 170.932V167.872H194.905V175.29H196.313V172.093H198.061V170.932H196.313Z" fill="#C4C4C4"/>
<path d="M203.033 169.019H201.667V171.246C201.667 173.35 200.82 175.563 199.071 176.602L199.932 177.667C201.12 176.943 201.927 175.645 202.364 174.129C202.787 175.509 203.525 176.711 204.645 177.394L205.438 176.301C203.785 175.263 203.033 173.173 203.033 171.178V169.019ZM205.929 172.203H204.112V173.35H205.929V179.648H207.255V168.118H205.929V172.203ZM208.443 167.885V180.222H209.782V167.885H208.443Z" fill="#C4C4C4"/>
<path d="M182.679 184.17H183.922V189.703C183.498 189.731 183.088 189.744 182.679 189.758V184.17ZM185.206 184.17H186.121V183.036H180.506V184.17H181.394V189.785C180.985 189.785 180.602 189.785 180.26 189.785L180.424 190.947C181.982 190.947 184.523 190.892 186.449 190.509L186.354 189.485C185.998 189.539 185.602 189.58 185.206 189.621V184.17ZM187.242 186.151H185.78V187.395H187.242V193.269H188.567V181.821H187.242V186.151ZM189.66 181.547V193.884H191.012V181.547H189.66Z" fill="#C4C4C4"/>
<path d="M201.695 181.534V193.911H203.116V181.534H201.695ZM196.544 182.449C194.714 182.449 193.375 184.143 193.375 186.793C193.375 189.471 194.714 191.152 196.544 191.152C198.389 191.152 199.728 189.471 199.728 186.793C199.728 184.143 198.389 182.449 196.544 182.449ZM196.544 183.72C197.624 183.72 198.375 184.881 198.375 186.793C198.375 188.733 197.624 189.895 196.544 189.895C195.479 189.895 194.727 188.733 194.727 186.793C194.727 184.881 195.479 183.72 196.544 183.72Z" fill="#C4C4C4"/>
<path d="M210.082 183.938H212.828V182.777H205.915V183.938H208.661V185.113C208.661 187.231 207.391 189.526 205.478 190.414L206.284 191.534C207.732 190.837 208.839 189.376 209.385 187.654C209.959 189.253 211.066 190.591 212.5 191.22L213.279 190.113C211.353 189.294 210.082 187.162 210.082 185.113V183.938ZM214.263 181.547V193.884H215.683V181.547H214.263Z" fill="#C4C4C4"/>
<path d="M84.7031 231.085C84.7031 226.055 88.7809 221.978 93.811 221.978H148.458C153.488 221.978 157.566 226.055 157.566 231.085V285.733C157.566 290.763 153.488 294.841 148.458 294.841H93.811C88.7809 294.841 84.7031 290.763 84.7031 285.733V231.085Z" fill="white"/>
<path fill-rule="evenodd" clip-rule="evenodd" d="M148.458 222.888H93.811C89.2839 222.888 85.6139 226.558 85.6139 231.085V285.733C85.6139 290.26 89.2839 293.93 93.811 293.93H148.458C152.985 293.93 156.655 290.26 156.655 285.733V231.085C156.655 226.558 152.985 222.888 148.458 222.888ZM93.811 221.978C88.7809 221.978 84.7031 226.055 84.7031 231.085V285.733C84.7031 290.763 88.7809 294.841 93.811 294.841H148.458C153.488 294.841 157.566 290.763 157.566 285.733V231.085C157.566 226.055 153.488 221.978 148.458 221.978H93.811Z" fill="#905DFB"/>
<path d="M107.119 240.815H109.961V244.613H107.119V240.815ZM109.237 248.288V245.747H113.144V244.613H111.354V240.815H113.171V239.681H103.895V240.815H105.712V244.613H103.936V245.747H107.829V248.288H102.966V249.449H114.169V248.288H109.237Z" fill="#C4C4C4"/>
<path d="M126.244 244.6C123.813 244.162 121.832 242.263 121.832 240.296V239.367H120.343V240.296C120.343 242.25 118.362 244.149 115.93 244.6L116.531 245.761C118.539 245.351 120.274 244.067 121.08 242.373C121.886 244.067 123.621 245.351 125.63 245.761L126.244 244.6ZM115.547 248.165V249.327H126.723V248.165H115.547Z" fill="#C4C4C4"/>
<path d="M130.069 244.231H133.88V243.11H130.069V240.802H134.386V239.64H128.662V248.042H129.632C131.872 248.042 133.416 247.988 135.178 247.673L135.055 246.54C133.443 246.813 132.036 246.881 130.069 246.895V244.231ZM136.941 238.547V243.083H134.577V244.244H136.941V250.925H138.361V238.547H136.941Z" fill="#C4C4C4"/>
<path d="M118.338 263.699C120.196 263.699 121.876 262.264 121.876 259.778C121.876 257.264 120.196 255.816 118.338 255.816C116.48 255.816 114.799 257.264 114.799 259.778C114.799 262.264 116.48 263.699 118.338 263.699ZM118.338 262.415C117.163 262.415 116.425 261.363 116.425 259.778C116.425 258.179 117.163 257.114 118.338 257.114C119.526 257.114 120.264 258.179 120.264 259.778C120.264 261.363 119.526 262.415 118.338 262.415Z" fill="#C4C4C4"/>
<path d="M123.724 263.521H125.281V258.835C125.759 257.647 126.497 257.223 127.112 257.223C127.413 257.223 127.604 257.264 127.863 257.346L128.15 255.98C127.918 255.871 127.672 255.816 127.303 255.816C126.497 255.816 125.705 256.39 125.172 257.36H125.131L125.008 256.007H123.724V263.521Z" fill="#C4C4C4"/>
<path d="M105.097 271.568H109.401V266.991H103.649V268.139H107.98V270.434H103.676V275.325H104.728C106.9 275.325 108.745 275.257 110.862 274.888L110.712 273.74C108.758 274.054 107.051 274.15 105.097 274.164V271.568ZM111.737 265.871V278.262H113.158V265.871H111.737Z" fill="#C4C4C4"/>
<path d="M122.528 269.327H119.687V267.333H122.528V269.327ZM118.28 269.327H116.599V270.393H125.602V269.327H123.936V267.333H125.671V266.254H116.531V267.333H118.28V269.327ZM118.28 276.145H125.302V273.276H116.859V274.314H123.922V275.175H116.886V278.126H125.657V277.074H118.28V276.145ZM115.534 271.254V272.374H126.709V271.254H115.534Z" fill="#C4C4C4"/>
<path d="M138.553 265.898H137.214V274.314H138.553V265.898ZM134.782 273.289H136.107V266.158H134.782V268.89H133.43V270.038H134.782V273.289ZM133.853 271.636C132.569 271.869 131.449 271.937 130 271.951V270.407H132.979V266.814H128.607V267.934H131.613V269.355H128.634V273.084H129.468C131.244 273.084 132.501 273.03 133.99 272.743L133.853 271.636ZM135.096 273.74H133.689V274.013C133.689 275.462 131.995 276.773 129.618 277.115L130.164 278.194C132.077 277.893 133.634 277.019 134.4 275.776C135.165 277.019 136.708 277.893 138.621 278.194L139.154 277.115C136.79 276.773 135.096 275.462 135.096 274.013V273.74Z" fill="#C4C4C4"/>
<path d="M239.537 231.085C239.537 226.055 243.614 221.978 248.644 221.978H303.292C308.322 221.978 312.4 226.055 312.4 231.085V285.733C312.4 290.763 308.322 294.841 303.292 294.841H248.644C243.614 294.841 239.537 290.763 239.537 285.733V231.085Z" fill="url(#paint0_linear_2911_34089)"/>
<path fill-rule="evenodd" clip-rule="evenodd" d="M303.292 222.888H248.644C244.117 222.888 240.447 226.558 240.447 231.085V285.733C240.447 290.26 244.117 293.93 248.644 293.93H303.292C307.819 293.93 311.489 290.26 311.489 285.733V231.085C311.489 226.558 307.819 222.888 303.292 222.888ZM248.644 221.978C243.614 221.978 239.537 226.055 239.537 231.085V285.733C239.537 290.763 243.614 294.841 248.644 294.841H303.292C308.322 294.841 312.4 290.763 312.4 285.733V231.085C312.4 226.055 308.322 221.978 303.292 221.978H248.644Z" fill="#905DFB"/>
<path d="M252.645 263.551H255.337C258.342 263.551 260.105 261.747 260.105 258.482C260.105 255.203 258.342 253.496 255.255 253.496H252.645V263.551ZM254.23 262.253V254.78H255.145C257.304 254.78 258.465 255.968 258.465 258.482C258.465 260.982 257.304 262.253 255.145 262.253H254.23Z" fill="#FAFAFA"/>
<path d="M262.198 263.551H263.783V253.496H262.198V263.551Z" fill="#FAFAFA"/>
<path d="M266.414 263.551H267.999V260.518L269.542 258.632L272.384 263.551H274.146L270.512 257.376L273.627 253.496H271.865L268.04 258.25H267.999V253.496H266.414V263.551Z" fill="#FAFAFA"/>
<path d="M275.473 263.551H277.058V260.518L278.601 258.632L281.443 263.551H283.205L279.571 257.376L282.686 253.496H280.924L277.099 258.25H277.058V253.496H275.473V263.551Z" fill="#FAFAFA"/>
<path d="M285.901 259.438L286.311 258.086C286.639 256.993 286.953 255.886 287.24 254.739H287.295C287.609 255.873 287.91 256.993 288.251 258.086L288.647 259.438H285.901ZM289.877 263.551H291.557L288.224 253.496H286.393L283.06 263.551H284.672L285.533 260.682H289.03L289.877 263.551Z" fill="#FAFAFA"/>
<path d="M292.884 263.551H294.468V260.518L296.012 258.632L298.854 263.551H300.616L296.982 257.376L300.097 253.496H298.335L294.509 258.25H294.468V253.496H292.884V263.551Z" fill="#FAFAFA"/>
<path d="M7.28613 112.683C7.28613 107.653 11.3639 103.575 16.394 103.575H261.396C266.426 103.575 270.504 107.653 270.504 112.683V126.345C270.504 131.375 266.426 135.453 261.396 135.453H16.394C11.3639 135.453 7.28613 131.375 7.28613 126.345V112.683Z" fill="#905DFB"/>
<path d="M7.28613 9.10788C7.28613 4.07774 11.3639 0 16.394 0H225.875C230.905 0 234.983 4.07774 234.983 9.10788V22.7697C234.983 27.7998 230.905 31.8776 225.875 31.8776H16.394C11.3639 31.8776 7.28613 27.7998 7.28613 22.7697V9.10788Z" fill="#905DFB"/>
<path d="M26.467 119.054H23.4614V116.117H26.467V119.054ZM27.8468 114.996H22.0679V120.174H27.8468V114.996ZM24.8139 124.3H31.2213V123.33H24.8139V122.374H31.3579V121.363H23.4067V126.336H31.6175V125.325H24.8139V124.3ZM31.2759 116.868V114.149H29.8688V120.762H31.2759V118.029H33.0246V116.868H31.2759Z" fill="white"/>
<path d="M34.9089 115.447V116.595H39.308C39.0621 119.437 37.532 121.609 34.2941 123.166L35.0455 124.286C39.2807 122.237 40.7562 119.122 40.7562 115.447H34.9089ZM42.983 114.149V126.486H44.3902V114.149H42.983Z" fill="white"/>
<path d="M55.3049 116.513C55.3049 117.988 55.3049 119.737 54.8268 122.155L56.2476 122.306C56.7258 119.751 56.7258 118.043 56.7258 116.513V115.297H47.9412V116.445H55.3049V116.513ZM52.354 123.713V119.368H50.9332V123.713H46.78V124.874H57.928V123.713H52.354Z" fill="white"/>
<path d="M63.6649 116.54H66.2743V115.379H59.5664V116.54H62.2577V117.729C62.2577 119.778 61.0008 122.114 59.1155 123.016L59.9216 124.136C61.3424 123.439 62.4353 121.964 62.9818 120.243C63.5419 121.8 64.5939 123.166 65.9737 123.822L66.7525 122.715C64.8808 121.827 63.6649 119.641 63.6649 117.729V116.54ZM70.8237 119.013H68.8974V114.149H67.4902V126.486H68.8974V120.174H70.8237V119.013Z" fill="white"/>
<path d="M78.5772 122.674C77.5799 122.674 76.8558 121.991 76.8558 120.953C76.8558 119.915 77.5799 119.232 78.5772 119.232C79.5745 119.232 80.2986 119.915 80.2986 120.953C80.2986 121.991 79.5745 122.674 78.5772 122.674ZM78.5772 118.07C76.8012 118.07 75.517 119.273 75.517 120.953C75.517 122.647 76.8012 123.836 78.5772 123.836C80.3396 123.836 81.6374 122.647 81.6374 120.953C81.6374 119.273 80.3396 118.07 78.5772 118.07ZM79.2603 114.341H77.8531V116.048H74.9158V117.196H82.1429V116.048H79.2603V114.341ZM86.4601 119.109H84.5611V114.149H83.1402V126.5H84.5611V120.284H86.4601V119.109Z" fill="white"/>
<path d="M97.4568 117.688H90.3936V114.587H88.9864V118.835H97.4568V117.688ZM90.3116 122.579H88.9045V126.213H97.5251V125.079H90.3116V122.579ZM87.5383 120.311V121.445H98.741V120.311H87.5383Z" fill="white"/>
<path d="M105.347 116.445H109.828V115.283H103.953V123.494H104.978C107.533 123.494 109.131 123.426 110.921 123.098L110.771 121.923C109.118 122.237 107.642 122.306 105.347 122.319V116.445ZM111.918 114.136V126.513H113.339V114.136H111.918Z" fill="white"/>
<path d="M120.073 116.54H122.683V115.379H115.975V116.54H118.666V117.729C118.666 119.778 117.409 122.114 115.524 123.016L116.33 124.136C117.751 123.439 118.844 121.964 119.39 120.243C119.95 121.8 121.002 123.166 122.382 123.822L123.161 122.715C121.289 121.827 120.073 119.641 120.073 117.729V116.54ZM127.232 119.013H125.306V114.149H123.899V126.486H125.306V120.174H127.232V119.013Z" fill="white"/>
<path d="M138.488 114.149H137.081V123.112H138.488V114.149ZM129.936 118.057C129.936 116.923 130.742 116.185 131.835 116.185C132.914 116.185 133.734 116.923 133.734 118.057C133.734 119.177 132.914 119.928 131.835 119.928C130.742 119.928 129.936 119.177 129.936 118.057ZM135.1 118.057C135.1 116.253 133.693 114.969 131.835 114.969C129.977 114.969 128.556 116.253 128.556 118.057C128.556 119.846 129.977 121.144 131.835 121.144C133.693 121.144 135.1 119.846 135.1 118.057ZM131.849 125.106V122.21H130.428V126.254H138.844V125.106H131.849Z" fill="white"/>
<path d="M149.212 118.426H143.72V117.046H149.212V118.426ZM150.605 114.546H149.212V115.966H143.72V114.546H142.326V119.532H150.605V114.546ZM143.651 122.879H142.244V126.254H150.824V125.106H143.651V122.879ZM140.878 120.57V121.704H145.878V123.904H147.285V121.704H152.067V120.57H140.878Z" fill="white"/>
<path d="M156.738 122.497C155.659 122.497 154.921 121.336 154.921 119.396C154.921 117.483 155.659 116.322 156.738 116.322C157.804 116.322 158.555 117.483 158.555 119.396C158.555 121.336 157.804 122.497 156.738 122.497ZM156.738 115.051C154.894 115.051 153.569 116.745 153.569 119.396C153.569 122.073 154.894 123.754 156.738 123.754C158.583 123.754 159.908 122.073 159.908 119.396C159.908 116.745 158.583 115.051 156.738 115.051ZM164.867 118.316V117.155H163.009V114.149H161.602V126.5H163.009V121.964H164.867V120.803H163.009V118.316H164.867Z" fill="white"/>
<path d="M174.402 116.253H167.448V119.027H176.014V118.043H168.828V117.169H175.796V114.45H167.421V115.42H174.402V116.253ZM168.732 124.437H175.837V121.677H167.312V122.647H174.443V123.521H167.339V126.349H176.205V125.379H168.732V124.437ZM166.014 119.805V120.844H177.203V119.805H166.014Z" fill="white"/>
<path d="M190.476 123.33H191.883V114.149H190.476V116.923H187.975V118.084H190.476V123.33ZM188.945 120.297C187.101 119.628 186.063 118.029 186.063 116.363V114.901H184.628V116.335C184.628 118.166 183.563 119.901 181.636 120.584L182.388 121.677C183.809 121.131 184.833 120.038 185.38 118.658C185.899 119.901 186.869 120.898 188.194 121.39L188.945 120.297ZM185.27 125.106V122.36H183.85V126.254H192.17V125.106H185.27Z" fill="white"/>
<path d="M199.888 119.628C198.672 119.86 197.62 119.915 196.062 119.928V118.549H199.368V117.456H196.062V116.158H199.505V115.024H194.696V121.076H195.529C197.442 121.076 198.617 121.035 200.038 120.775L199.888 119.628ZM196.294 123.385H203.262V126.5H204.669V122.251H196.294V123.385ZM203.33 114.149V117.278H201.964V114.382H200.653V121.568H201.964V118.426H203.33V121.65H204.669V114.149H203.33Z" fill="white"/>
<path d="M209.805 122.551C208.972 122.551 208.384 121.882 208.384 120.857C208.384 119.833 208.972 119.15 209.805 119.15C210.638 119.15 211.226 119.833 211.226 120.857C211.226 121.882 210.638 122.551 209.805 122.551ZM209.805 117.988C208.247 117.988 207.127 119.15 207.127 120.857C207.127 122.551 208.247 123.726 209.805 123.726C211.362 123.726 212.483 122.551 212.483 120.857C212.483 119.15 211.362 117.988 209.805 117.988ZM210.502 114.505H209.108V116.158H206.772V117.292H212.811V116.158H210.502V114.505ZM215.966 114.149V119.259H214.655V114.409H213.343V125.912H214.655V120.42H215.966V126.486H217.305V114.149H215.966Z" fill="white"/>
<path d="M220.487 120.188C222.523 119.887 224.19 118.876 224.941 117.51C225.693 118.876 227.373 119.887 229.409 120.188L229.914 119.081C227.564 118.767 225.829 117.415 225.747 115.98H229.477V114.846H220.392V115.98H224.149C224.067 117.415 222.332 118.767 219.982 119.081L220.487 120.188ZM230.529 121.09H219.367V122.224H224.203V126.5H225.611V122.224H230.515L230.529 121.09Z" fill="white"/>
<path d="M235.719 115.283H234.353V117.51C234.353 119.614 233.506 121.827 231.757 122.866L232.618 123.931C233.807 123.207 234.613 121.909 235.05 120.393C235.473 121.773 236.211 122.975 237.331 123.658L238.124 122.565C236.471 121.527 235.719 119.437 235.719 117.442V115.283ZM238.616 118.467H236.799V119.614H238.616V125.912H239.941V114.382H238.616V118.467ZM241.129 114.149V126.486H242.468V114.149H241.129Z" fill="white"/>
<path d="M248.519 121.144C248.997 121.254 249.53 121.308 250.077 121.308C250.623 121.308 251.156 121.254 251.634 121.131V123.822H248.519V121.144ZM250.077 115.966C251.935 115.966 253.233 116.786 253.233 118.084C253.233 119.396 251.935 120.215 250.077 120.215C248.205 120.215 246.907 119.396 246.907 118.084C246.907 116.786 248.205 115.966 250.077 115.966ZM253.041 123.822V120.611C254.025 120.051 254.612 119.177 254.612 118.084C254.612 116.117 252.7 114.86 250.077 114.86C247.44 114.86 245.541 116.117 245.541 118.084C245.541 119.177 246.128 120.065 247.112 120.611V123.822H244.503V124.97H255.678V123.822H253.041Z" fill="white"/>
<path d="M23.6531 14.3041C23.6531 13.2248 24.4865 12.5417 25.6204 12.5417C26.768 12.5417 27.6014 13.2248 27.6014 14.3041C27.6014 15.3697 26.768 16.0528 25.6204 16.0528C24.4865 16.0528 23.6531 15.3697 23.6531 14.3041ZM26.3308 17.2141C27.8883 16.9545 28.9812 15.8206 28.9812 14.3041C28.9812 12.5554 27.5467 11.3395 25.6204 11.3395C23.6941 11.3395 22.2733 12.5554 22.2733 14.3041C22.2733 15.8206 23.3525 16.9545 24.91 17.2141V19.1404C23.7624 19.1814 22.6421 19.1814 21.6995 19.1814L21.8771 20.3426C24.063 20.3426 27.0139 20.3153 29.7326 19.7962L29.637 18.7715C28.5714 18.9355 27.4374 19.0174 26.3308 19.0858V17.2141ZM30.3747 10.5608V22.9247H31.7955V10.5608H30.3747Z" fill="white"/>
<path d="M35.3329 16.613C37.3685 16.3124 39.0352 15.3014 39.7866 13.9353C40.538 15.3014 42.2184 16.3124 44.2541 16.613L44.7595 15.5064C42.4097 15.1921 40.6747 13.8396 40.5927 12.4051H44.3224V11.2712H35.2373V12.4051H38.9943C38.9123 13.8396 37.1772 15.1921 34.8274 15.5064L35.3329 16.613ZM45.3743 17.5146H34.2126V18.6486H39.0489V22.9247H40.4561V18.6486H45.3607L45.3743 17.5146Z" fill="white"/>
<path d="M53.5923 13.0746H55.6279V11.9133H50.0539V13.0746H52.2262V13.9626C52.2262 16.1621 51.4064 18.389 49.6577 19.4819L50.5048 20.5202C51.6933 19.7688 52.4857 18.4437 52.9229 16.8862C53.3601 18.3207 54.1251 19.5366 55.2864 20.2197L56.1061 19.1951C54.3847 18.1977 53.5923 16.0665 53.5923 13.9626V13.0746ZM56.5433 14.9052H54.7263V16.0528H56.5433V22.3099H57.8685V10.8067H56.5433V14.9052ZM59.0297 10.5608V22.8974H60.3686V10.5608H59.0297Z" fill="white"/>
<path d="M63.9469 14.4817C63.9469 13.3615 64.7666 12.6237 65.8459 12.6237C66.9252 12.6237 67.7586 13.3615 67.7586 14.4817C67.7586 15.6157 66.9252 16.3534 65.8459 16.3534C64.7666 16.3534 63.9469 15.6157 63.9469 14.4817ZM69.1384 14.4817C69.1384 12.6784 67.7176 11.4078 65.8459 11.4078C63.9879 11.4078 62.5671 12.6784 62.5671 14.4817C62.5671 16.2851 63.9879 17.5693 65.8459 17.5693C67.7176 17.5693 69.1384 16.2851 69.1384 14.4817ZM65.6547 18.6896H64.2338V22.6788H72.5402V21.5312H65.6547V18.6896ZM72.0484 14.2358V10.5744H70.6412V19.6186H72.0484V15.3971H73.7971V14.2358H72.0484Z" fill="white"/>
<path d="M79.452 11.5718H78.0312V13.6074C78.0312 15.9162 76.829 18.2934 74.9026 19.236L75.7907 20.3563C77.1978 19.6322 78.2088 18.1977 78.7553 16.449C79.2881 18.1021 80.2854 19.4546 81.6789 20.1514L82.5123 19.0174C80.6269 18.1431 79.452 15.9026 79.452 13.6074V11.5718ZM83.8101 10.5471V14.6047H81.1734V15.7523H83.8101V22.9247H85.231V10.5471H83.8101Z" fill="white"/>
<path d="M91.528 11.4351C89.6017 11.4351 88.1809 12.651 88.1809 14.3998C88.1809 16.1485 89.6017 17.3644 91.528 17.3644C93.4543 17.3644 94.8888 16.1485 94.8888 14.3998C94.8888 12.651 93.4543 11.4351 91.528 11.4351ZM91.528 12.6374C92.6756 12.6374 93.509 13.3205 93.509 14.3998C93.509 15.4654 92.6756 16.1621 91.528 16.1621C90.3941 16.1621 89.5607 15.4654 89.5607 14.3998C89.5607 13.3205 90.3941 12.6374 91.528 12.6374ZM96.2823 10.5608V22.9247H97.7031V10.5608H96.2823ZM87.7847 20.3153C89.9706 20.3153 92.9215 20.288 95.6402 19.7688L95.5446 18.7442C92.8942 19.1404 89.8203 19.1541 87.6071 19.1541L87.7847 20.3153Z" fill="white"/>
<path d="M106.932 13.0746H108.968V11.9133H103.394V13.0746H105.566V13.9626C105.566 16.1621 104.746 18.389 102.998 19.4819L103.845 20.5202C105.033 19.7688 105.826 18.4437 106.263 16.8862C106.7 18.3207 107.465 19.5366 108.626 20.2197L109.446 19.1951C107.725 18.1977 106.932 16.0665 106.932 13.9626V13.0746ZM109.883 14.9052H108.066V16.0528H109.883V22.3099H111.208V10.8067H109.883V14.9052ZM112.37 10.5608V22.8974H113.708V10.5608H112.37Z" fill="white"/>
<path d="M117 20.0831H124.131V22.9111H125.538V18.9491H117V20.0831ZM118.544 12.1865H124.104V14.2221H118.544V12.1865ZM122.027 16.7223V15.3424H125.484V11.0663H117.164V15.3424H120.607V16.7223H115.743V17.8562H126.918V16.7223H122.027Z" fill="white"/>
<path d="M133.898 11.8177C135.811 11.8177 136.836 12.1865 136.836 12.897C136.836 13.5937 135.811 13.9626 133.898 13.9626C131.986 13.9626 130.961 13.5937 130.961 12.897C130.961 12.1865 131.986 11.8177 133.898 11.8177ZM133.898 15.0145C136.658 15.0145 138.298 14.2631 138.298 12.897C138.298 11.5171 136.658 10.7657 133.898 10.7657C131.125 10.7657 129.499 11.5171 129.499 12.897C129.499 14.2631 131.125 15.0145 133.898 15.0145ZM131.057 20.6979H138.079V17.7469H129.636V18.8125H136.699V19.7005H129.663V22.8018H138.434V21.7225H131.057V20.6979ZM128.311 15.7386V16.8589H139.486V15.7386H128.311Z" fill="white"/>
<path d="M145.477 13.744C145.477 12.7603 146.27 12.1182 147.363 12.1182C148.442 12.1182 149.221 12.7603 149.221 13.744C149.221 14.7276 148.442 15.3834 147.363 15.3834C146.27 15.3834 145.477 14.7276 145.477 13.744ZM150.587 13.744C150.587 12.1182 149.221 10.9706 147.363 10.9706C145.491 10.9706 144.111 12.1182 144.111 13.744C144.111 15.3697 145.491 16.5173 147.363 16.5173C149.221 16.5173 150.587 15.3697 150.587 13.744ZM147.035 20.5202H153.592V17.337H145.628V18.4437H152.199V19.4956H145.655V22.7608H154.002V21.6405H147.035V20.5202ZM153.592 13.1019V10.5608H152.185V16.8042H153.592V14.2631H155.327V13.1019H153.592Z" fill="white"/>
<path d="M158.346 16.2304H162.376V11.6401H156.938V12.774H160.996V15.0965H156.966V20.1104H157.908C159.821 20.1104 161.406 20.0694 163.278 19.7688L163.168 18.6076C161.474 18.8672 160.026 18.9355 158.346 18.9491V16.2304ZM165.34 10.5471V13.2931H163.086V14.4407H165.34V16.654H163.018V17.8015H165.34V22.9247H166.748V10.5471H165.34Z" fill="white"/>
<path d="M170.217 16.613C172.252 16.3124 173.919 15.3014 174.67 13.9353C175.422 15.3014 177.102 16.3124 179.138 16.613L179.643 15.5064C177.293 15.1921 175.558 13.8396 175.476 12.4051H179.206V11.2712H170.121V12.4051H173.878C173.796 13.8396 172.061 15.1921 169.711 15.5064L170.217 16.613ZM180.258 17.5146H169.096V18.6486H173.933V22.9247H175.34V18.6486H180.244L180.258 17.5146Z" fill="white"/>
<path d="M185.449 11.7084H184.082V13.9353C184.082 16.0392 183.235 18.2524 181.487 19.2907L182.347 20.3563C183.536 19.6322 184.342 18.3344 184.779 16.8179C185.203 18.1977 185.94 19.4 187.061 20.0831L187.853 18.9901C186.2 17.9518 185.449 15.8616 185.449 13.8669V11.7084ZM188.345 14.8916H186.528V16.0392H188.345V22.3373H189.67V10.8067H188.345V14.8916ZM190.859 10.5744V22.9111H192.197V10.5744H190.859Z" fill="white"/>
<path d="M198.249 17.5693C198.727 17.6786 199.26 17.7332 199.806 17.7332C200.352 17.7332 200.885 17.6786 201.363 17.5556V20.247H198.249V17.5693ZM199.806 12.3915C201.664 12.3915 202.962 13.2112 202.962 14.509C202.962 15.8206 201.664 16.6403 199.806 16.6403C197.934 16.6403 196.636 15.8206 196.636 14.509C196.636 13.2112 197.934 12.3915 199.806 12.3915ZM202.771 20.247V17.0365C203.754 16.4763 204.342 15.602 204.342 14.509C204.342 12.5417 202.429 11.2849 199.806 11.2849C197.169 11.2849 195.27 12.5417 195.27 14.509C195.27 15.602 195.858 16.49 196.841 17.0365V20.247H194.232V21.3946H205.407V20.247H202.771Z" fill="white"/>
<path d="M7.2863 125.434L0 119.52L7.2863 113.594" fill="#905DFB"/>
<path d="M7.2863 21.8588L0 15.9449L7.2863 10.0186" fill="#905DFB"/>
<path fill-rule="evenodd" clip-rule="evenodd" d="M439.509 73.8742C444.539 73.8742 448.617 69.7965 448.617 64.7663V63.856L455.903 57.9299L448.617 52.0162V51.1045C448.617 46.0743 444.539 41.9966 439.509 41.9966L178.004 41.9966C172.974 41.9966 168.896 46.0743 168.896 51.1045L168.896 64.7664C168.896 69.7965 172.974 73.8742 178.004 73.8742L439.509 73.8742Z" fill="white"/>
<path fill-rule="evenodd" clip-rule="evenodd" d="M447.706 63.4228L454.459 57.9306L447.706 52.45V51.1045C447.706 46.5773 444.036 42.9074 439.509 42.9074L178.004 42.9074C173.477 42.9074 169.807 46.5774 169.807 51.1045L169.807 64.7664C169.807 69.2935 173.477 72.9634 178.004 72.9634L439.509 72.9634C444.036 72.9634 447.706 69.2935 447.706 64.7663V63.4228ZM455.903 57.9299L448.617 63.856V64.7663C448.617 69.7965 444.539 73.8742 439.509 73.8742L178.004 73.8742C172.974 73.8742 168.896 69.7965 168.896 64.7664L168.896 51.1045C168.896 46.0743 172.974 41.9966 178.004 41.9966L439.509 41.9966C444.539 41.9966 448.617 46.0743 448.617 51.1045V52.0162L455.903 57.9299Z" fill="#905DFB"/>
<path d="M279.416 57.9353C279.416 60.4504 277.377 62.4892 274.862 62.4892C272.347 62.4892 270.308 60.4504 270.308 57.9353C270.308 55.4202 272.347 53.3813 274.862 53.3813C277.377 53.3813 279.416 55.4202 279.416 57.9353Z" fill="url(#paint1_linear_2911_34089)"/>
<path d="M328.864 57.9353C328.864 60.4504 326.825 62.4892 324.31 62.4892C321.795 62.4892 319.756 60.4504 319.756 57.9353C319.756 55.4202 321.795 53.3813 324.31 53.3813C326.825 53.3813 328.864 55.4202 328.864 57.9353Z" fill="url(#paint2_linear_2911_34089)"/>
<path d="M304.139 57.9353C304.139 60.4504 302.101 62.4892 299.585 62.4892C297.07 62.4892 295.031 60.4504 295.031 57.9353C295.031 55.4202 297.07 53.3813 299.585 53.3813C302.101 53.3813 304.139 55.4202 304.139 57.9353Z" fill="url(#paint3_linear_2911_34089)"/>
<path d="M353.588 57.9353C353.588 60.4504 351.549 62.4892 349.034 62.4892C346.519 62.4892 344.48 60.4504 344.48 57.9353C344.48 55.4202 346.519 53.3813 349.034 53.3813C351.549 53.3813 353.588 55.4202 353.588 57.9353Z" fill="url(#paint4_linear_2911_34089)"/>
<g filter="url(#filter0_d_2911_34089)">
<path fill-rule="evenodd" clip-rule="evenodd" d="M287.848 280.694L292.542 308.091L309.229 298.457L287.848 280.694ZM289.162 282.969L293.218 306.648L307.641 298.322L289.162 282.969Z" fill="white"/>
</g>
<g filter="url(#filter1_d_2911_34089)">
<path d="M287.848 280.694L309.229 298.457L292.542 308.091L287.848 280.694Z" fill="black"/>
</g>
<defs>
<filter id="filter0_d_2911_34089" x="267.848" y="264.694" width="61.3801" height="67.3972" filterUnits="userSpaceOnUse" color-interpolation-filters="sRGB">
<feFlood flood-opacity="0" result="BackgroundImageFix"/>
<feColorMatrix in="SourceAlpha" type="matrix" values="0 0 0 0 0 0 0 0 0 0 0 0 0 0 0 0 0 0 127 0" result="hardAlpha"/>
<feOffset dy="4"/>
<feGaussianBlur stdDeviation="10"/>
<feComposite in2="hardAlpha" operator="out"/>
<feColorMatrix type="matrix" values="0 0 0 0 0 0 0 0 0 0 0 0 0 0 0 0 0 0 0.25 0"/>
<feBlend mode="normal" in2="BackgroundImageFix" result="effect1_dropShadow_2911_34089"/>
<feBlend mode="normal" in="SourceGraphic" in2="effect1_dropShadow_2911_34089" result="shape"/>
</filter>
<filter id="filter1_d_2911_34089" x="267.848" y="264.694" width="61.3801" height="67.3972" filterUnits="userSpaceOnUse" color-interpolation-filters="sRGB">
<feFlood flood-opacity="0" result="BackgroundImageFix"/>
<feColorMatrix in="SourceAlpha" type="matrix" values="0 0 0 0 0 0 0 0 0 0 0 0 0 0 0 0 0 0 127 0" result="hardAlpha"/>
<feOffset dy="4"/>
<feGaussianBlur stdDeviation="10"/>
<feComposite in2="hardAlpha" operator="out"/>
<feColorMatrix type="matrix" values="0 0 0 0 0 0 0 0 0 0 0 0 0 0 0 0 0 0 0.25 0"/>
<feBlend mode="normal" in2="BackgroundImageFix" result="effect1_dropShadow_2911_34089"/>
<feBlend mode="normal" in="SourceGraphic" in2="effect1_dropShadow_2911_34089" result="shape"/>
</filter>
<linearGradient id="paint0_linear_2911_34089" x1="216.29" y1="217.739" x2="216.29" y2="331.852" gradientUnits="userSpaceOnUse">
<stop stop-color="#905DFB"/>
<stop offset="1" stop-color="#905DFB" stop-opacity="0.7"/>
</linearGradient>
<linearGradient id="paint1_linear_2911_34089" x1="274.862" y1="53.3813" x2="274.862" y2="62.4892" gradientUnits="userSpaceOnUse">
<stop stop-color="#FF51E3"/>
<stop offset="1" stop-color="#905DFB"/>
</linearGradient>
<linearGradient id="paint2_linear_2911_34089" x1="324.31" y1="53.3813" x2="324.31" y2="62.4892" gradientUnits="userSpaceOnUse">
<stop stop-color="#6F40D3"/>
<stop offset="1" stop-color="#905DFB"/>
</linearGradient>
<linearGradient id="paint3_linear_2911_34089" x1="299.585" y1="53.3813" x2="299.585" y2="62.4892" gradientUnits="userSpaceOnUse">
<stop stop-color="#FF746D"/>
<stop offset="1" stop-color="#FFE100"/>
</linearGradient>
<linearGradient id="paint4_linear_2911_34089" x1="353.77" y1="58.3616" x2="343.956" y2="57.527" gradientUnits="userSpaceOnUse">
<stop stop-color="#329A29"/>
<stop offset="1" stop-color="#329A29"/>
</linearGradient>
</defs>
</svg>
