<svg width="1116" height="485" viewBox="0 0 1116 485" fill="none" xmlns="http://www.w3.org/2000/svg">
<g filter="url(#filter0_d_540_11482)">
<circle cx="918.407" cy="181.552" r="60.6287" transform="rotate(-150 918.407 181.552)" fill="url(#paint0_linear_540_11482)"/>
</g>
<g filter="url(#filter1_d_540_11482)">
<circle cx="186.669" cy="272.278" r="103.187" transform="rotate(30 186.669 272.278)" fill="url(#paint1_linear_540_11482)"/>
</g>
<g filter="url(#filter2_d_540_11482)">
<circle cx="629.957" cy="323.956" r="71.1978" transform="rotate(30 629.957 323.956)" fill="url(#paint2_linear_540_11482)"/>
</g>
<g filter="url(#filter3_d_540_11482)">
<circle cx="378.963" cy="58.8107" r="48.0186" transform="rotate(-15 378.963 58.8107)" fill="url(#paint3_linear_540_11482)"/>
</g>
<g clip-path="url(#clip0_540_11482)">
<path d="M21.0779 449.796C19.9238 449.796 18.8298 449.796 17.7258 449.796C17.6255 449.796 17.5151 449.796 17.4248 449.757C17.0936 449.62 16.7122 449.443 16.8326 449.041C16.9531 448.649 17.3244 448.737 17.7058 448.757C18.6291 448.825 19.5625 448.816 20.4858 448.757C21.5496 448.698 22.6034 448.531 23.6672 448.472C23.868 448.463 24.0888 448.708 24.3397 448.865C24.4099 448.718 24.5605 448.463 24.6608 448.198C25.1325 447.001 26.0157 446.354 27.3204 446.266C27.6014 446.246 27.8924 446.197 28.1634 446.237C29.1369 446.344 29.6187 446.903 29.6588 448.168C29.7291 450.12 29.0968 451.895 27.7821 453.346C27.0996 454.091 26.2064 454.67 25.0322 454.395C23.9382 454.15 23.2156 453.121 23.4364 452.042C23.607 451.199 23.7977 450.365 23.9784 449.512C23.597 449.531 23.1654 449.541 22.7439 449.61C22.6134 449.63 22.4328 449.826 22.4027 449.963C22.202 450.953 22.0012 451.944 21.8808 452.944C21.7604 453.954 21.6098 454.984 22.0113 455.984C22.1217 456.268 21.4191 456.651 21.0277 456.523C20.5861 456.376 20.4055 456.013 20.3654 455.621C20.3051 455.043 20.3152 454.454 20.3051 453.866C20.3051 453.679 20.3252 453.483 20.3453 453.228C19.7933 453.523 19.3015 453.778 18.7997 454.042C17.2441 454.856 15.6082 454.905 13.9322 454.513C12.5773 454.189 11.5135 452.738 11.5436 451.14C11.5737 448.865 12.3666 446.835 13.7315 445.011C14.7451 443.648 16.0599 442.755 17.6556 442.275C18.4384 442.04 19.2513 441.951 20.0743 442.157C20.9575 442.373 21.4191 442.912 21.3991 443.805C21.389 444.373 21.3288 444.942 21.2686 445.511C21.2385 445.756 21.1783 446.001 20.817 445.962C20.4657 445.933 20.4958 445.678 20.4958 445.462C20.5059 445.148 20.536 444.844 20.5661 444.53C20.6965 443.354 20.0743 442.814 18.89 443.05C17.7258 443.275 16.7122 443.805 15.8892 444.619C14.0827 446.393 13.1996 448.59 13.0791 451.071C13.049 451.757 13.3401 452.365 13.7616 452.915C14.143 453.415 14.6949 453.474 15.267 453.572C16.933 453.856 19.7531 452.679 20.5159 451.316C20.7668 450.845 20.8973 450.296 21.0779 449.796ZM28.5348 448.551C28.5348 448.384 28.5448 448.227 28.5348 448.061C28.5047 447.433 28.1935 447.168 27.5914 447.374C26.8788 447.629 26.1763 447.962 25.8752 448.757C25.7046 449.198 25.4637 449.62 25.3533 450.081C25.1626 450.885 24.992 451.699 24.9117 452.522C24.8615 453.121 25.3834 453.503 25.8752 453.268C26.3168 453.062 26.7885 452.797 27.0795 452.424C27.9928 451.306 28.5147 450.012 28.5348 448.551Z" fill="#C4C4C4"/>
<path d="M36.9852 474.41C36.9852 473.204 36.9852 472.047 36.9852 470.899C36.4032 471.497 35.8813 472.105 35.2791 472.625C34.4361 473.351 33.4224 473.302 32.4489 472.919C31.6561 472.615 31.3048 471.86 31.4453 470.831C31.6561 469.311 32.2783 467.997 33.6231 467.134C34.5164 466.565 35.5099 466.222 36.6139 466.555C37.4369 466.81 37.9487 467.33 38.1695 468.173C38.872 470.87 38.6512 473.625 38.6312 476.351C38.6211 477.764 38.4505 479.185 37.7781 480.48C37.1258 481.725 36.1924 482.657 34.7271 482.931C33.2518 483.206 32.1077 482.441 31.8166 481.009C31.5356 479.637 31.6661 478.283 32.188 476.979C32.76 475.567 33.9343 474.959 35.3795 474.704C35.9013 474.616 36.4433 474.508 36.9852 474.41ZM37.0655 475.449C36.2626 475.645 35.5099 475.743 34.8275 476.018C34.3257 476.224 33.7737 476.567 33.5127 477.008C32.7801 478.215 32.6597 479.568 33.0009 480.931C33.2217 481.823 34.0848 482.108 34.8777 481.598C35.5501 481.166 36.0419 480.598 36.373 479.862C37.0053 478.46 36.9551 476.979 37.0655 475.449ZM36.3429 467.457C36.1522 467.457 35.9917 467.428 35.8512 467.457C33.8138 467.928 32.9909 469.879 32.9909 471.458C32.9909 471.811 33.2317 472.066 33.6031 472.037C33.9242 472.017 34.2855 471.948 34.5264 471.772C35.9616 470.693 36.634 469.281 36.3429 467.457Z" fill="#C4C4C4"/>
<path d="M6.75632 461.142C7.45885 461.014 8.15134 460.848 8.85387 460.779C10.6303 460.612 11.8246 461.279 12.4468 462.927C12.768 463.78 12.9085 464.721 13.059 465.633C13.4303 467.928 12.507 469.82 11.0819 471.576C9.81734 473.145 8.43235 474.557 6.60578 475.498C6.38498 475.616 6.09393 475.675 5.85307 475.645C5.5018 475.616 5.38137 475.351 5.37133 475.008C5.37133 473.792 5.38137 472.566 5.32115 471.35C5.24086 469.448 5.06021 467.545 5.01003 465.633C4.97992 464.447 5.07025 463.25 5.17061 462.064C5.21075 461.642 5.42151 461.23 5.57206 460.818C5.71256 460.426 6.05379 460.269 6.39502 460.397C6.57567 460.465 6.63589 460.828 6.74628 461.054C6.75632 461.113 6.75632 461.162 6.75632 461.142ZM7.12766 473.537C8.19149 472.772 8.91409 471.792 9.72701 470.889C11.3529 469.085 11.8045 466.996 11.3629 464.702C11.2425 464.074 11.0217 463.446 10.7407 462.868C10.3994 462.172 9.82738 461.691 8.98434 461.691C8.57286 461.691 8.15134 461.74 7.7499 461.828C6.72621 462.044 6.60578 462.211 6.58571 463.221C6.58571 463.299 6.58571 463.388 6.58571 463.466C6.49538 466.212 6.71617 468.938 6.96708 471.664C7.00722 472.262 7.06744 472.87 7.12766 473.537Z" fill="#C4C4C4"/>
<path d="M41.7724 448.727C41.953 447.727 42.1236 446.805 42.2942 445.874C42.5251 444.609 42.7459 443.344 43.0168 442.089C43.0871 441.745 43.3179 441.412 43.5387 441.128C43.629 441.02 43.9502 440.961 44.0706 441.029C44.2212 441.108 44.3617 441.363 44.3516 441.53C44.2412 442.746 44.1208 443.952 43.9502 445.158C43.7495 446.658 43.4986 448.149 43.2778 449.639C43.2577 449.786 43.2176 449.924 43.1975 450.071C43.1473 450.385 43.1473 450.64 43.5488 450.806C44.1108 451.042 44.1309 451.561 43.6993 452.111C43.5387 452.316 43.3681 452.552 43.3079 452.807C43.2075 453.238 42.8362 453.434 42.5451 453.366C41.9329 453.219 41.4914 453.581 40.9996 453.738C39.9558 454.091 38.9321 454.062 37.9085 453.738C37.226 453.523 36.9048 453.013 36.8647 452.287C36.8045 451.169 37.0755 450.13 37.6174 449.139C38.3099 447.874 39.9358 447.511 41.2404 448.335C41.401 448.453 41.5616 448.57 41.7724 448.727ZM41.6018 451.032C41.8025 450.179 41.2103 449.649 40.5379 449.208C39.9358 448.816 39.3838 449.002 39.0526 449.62C38.611 450.434 38.4002 451.277 38.4303 452.209C38.4404 452.63 38.621 452.856 39.0124 452.817C39.6547 452.768 40.287 452.669 40.9193 452.562C41.4211 452.473 41.8025 452.277 41.6018 451.65C41.5616 451.493 41.6018 451.297 41.6018 451.032Z" fill="#C4C4C4"/>
<path d="M45.7064 467.81C45.1946 468.349 44.6627 468.82 44.2412 469.36C43.8497 469.86 43.5587 470.438 43.2375 470.987C42.9766 471.429 42.8562 471.88 42.9365 472.429C43.0167 472.949 42.9465 473.508 42.8261 474.027C42.7658 474.282 42.4949 474.557 42.244 474.704C41.8325 474.939 41.3407 474.733 41.2805 474.272C41.2102 473.753 41.2905 473.213 41.3006 472.674C41.3106 472.292 41.3507 471.899 41.3307 471.517C41.2504 470.134 41.2002 468.752 41.5816 467.388C41.6619 467.084 41.7723 466.839 42.1737 466.859C42.5651 466.879 42.6253 467.163 42.6554 467.437C42.7257 468.016 42.7759 468.604 42.8361 469.271C42.9465 469.124 43.0268 469.016 43.1171 468.928C43.7092 468.31 44.2512 467.643 44.9136 467.104C45.6864 466.476 46.5996 466.604 47.1817 467.408C47.5029 467.849 47.7839 468.428 47.804 468.957C47.8943 470.938 47.8642 472.929 47.8843 474.92C47.8843 474.969 47.8843 475.018 47.8642 475.067C47.7036 475.39 47.7939 475.93 47.1918 475.881C46.5595 475.822 46.2885 475.449 46.2986 474.822C46.3387 473.155 46.3889 471.497 46.3789 469.83C46.3688 469.173 46.3487 468.477 45.7064 467.81Z" fill="#C4C4C4"/>
<path d="M13.6612 470.87C13.9924 469.987 14.1931 469.085 14.6447 468.33C15.0562 467.624 15.6985 467.045 16.3007 466.467C16.5315 466.241 16.9028 466.114 17.234 466.035C18.4584 465.741 19.2814 466.408 19.2312 467.634C19.181 468.83 18.7394 469.821 17.6856 470.497C17.0634 470.899 16.4111 471.272 15.7888 471.674C15.5881 471.801 15.2268 471.752 15.2669 472.154C15.3071 472.576 15.3573 473.057 15.8089 473.174C16.3007 473.312 16.9129 473.429 17.3545 473.263C18.3079 472.91 19.1911 472.37 20.1144 471.939C20.2549 471.87 20.5259 471.919 20.6363 472.027C20.7266 472.105 20.7266 472.429 20.6463 472.498C19.5323 473.429 18.3982 474.39 16.8225 474.429C16.1903 474.449 15.5178 474.341 14.9056 474.155C14.2433 473.949 13.902 473.37 13.7615 472.713C13.7013 472.419 13.6411 472.203 13.2999 472.056C12.9486 471.909 12.8282 471.546 12.9887 471.184C13.1192 470.87 13.35 470.684 13.6612 470.87ZM15.4074 470.909C16.0799 470.458 16.6419 470.095 17.1939 469.713C17.8462 469.262 18.2075 468.634 18.2276 467.859C18.2376 467.575 18.1272 467.281 18.067 466.987C17.796 467.104 17.4749 467.183 17.2441 467.359C16.13 468.212 15.5881 469.389 15.4074 470.909Z" fill="#C4C4C4"/>
<path d="M31.3951 448.433C31.2546 448.315 31.084 448.237 31.0137 448.1C30.9535 447.972 30.9234 447.737 31.0037 447.639C31.4954 447.021 32.0073 446.423 32.5292 445.835C32.9808 445.315 33.593 445.06 34.2554 444.923C35.0683 444.766 35.7307 445.148 35.831 445.952C35.9414 446.825 35.9414 447.708 35.9314 448.59C35.9113 450.394 35.4497 452.091 34.3557 453.552C33.9342 454.111 33.3923 454.601 32.8102 454.994C31.7564 455.709 30.5219 455.258 30.0904 454.072C29.8897 453.523 29.8094 452.973 29.9699 452.405C30.1606 451.728 30.2911 451.042 30.532 450.385C30.7628 449.728 31.094 449.1 31.3951 448.433ZM32.7901 447.031C32.8503 447.06 32.9206 447.09 32.9808 447.119C33.0009 447.354 33.0912 447.609 33.031 447.815C32.8403 448.433 32.6094 449.051 32.3385 449.639C31.7965 450.845 31.4754 452.11 31.375 453.405C31.3449 453.709 31.5055 454.16 31.7363 454.337C32.0575 454.582 32.4087 454.297 32.7098 454.062C34.2152 452.846 34.8676 451.228 35.0181 449.394C35.1084 448.345 35.0884 447.276 35.0583 446.217C35.0382 445.727 34.8174 445.629 34.3959 445.884C33.8238 446.227 33.322 446.648 32.7901 447.031Z" fill="#C4C4C4"/>
<path d="M26.929 467.722C26.9591 467.124 26.6379 466.859 26.0257 467.055C25.2028 467.32 24.4501 467.771 23.9583 468.516C23.7274 468.879 23.7174 469.183 24.169 469.448C24.8816 469.86 25.5942 470.291 26.2465 470.801C26.5677 471.046 26.8387 471.438 26.9792 471.811C27.1799 472.38 26.8788 472.929 26.3067 473.262C25.263 473.861 24.0988 474.086 22.9145 474.194C22.3324 474.253 21.7804 473.772 21.7303 473.213C21.7202 473.066 21.8105 472.792 21.9009 472.782C22.0815 472.743 22.2923 472.831 22.483 472.89C22.6536 472.939 22.8342 473.096 22.9647 473.066C23.7074 472.89 24.44 472.703 25.1526 472.448C25.6042 472.292 25.6343 472.066 25.273 471.772C24.8214 471.389 24.3095 471.076 23.8278 470.742C23.4966 470.517 23.1353 470.34 22.8242 470.095C22.2622 469.663 22.1116 469.085 22.3726 468.428C22.4629 468.202 22.5633 467.967 22.7238 467.781C23.5067 466.898 24.4701 466.221 25.6544 466.025C26.1662 465.937 26.7784 466.133 27.2802 466.339C27.8423 466.565 28.0028 467.741 27.5914 468.212C27.5111 468.31 27.2903 468.33 27.1498 468.31C27.0594 468.3 26.9591 468.153 26.9189 468.055C26.8989 467.928 26.929 467.79 26.929 467.722Z" fill="#C4C4C4"/>
<path d="M30.4215 467.084C30.3011 468.183 30.1706 469.31 30.0703 470.448C30 471.242 29.9298 472.027 30.2609 472.801C30.4516 473.243 30.0502 473.439 29.7491 473.635C29.448 473.831 29.1269 473.772 28.9864 473.458C28.7957 473.056 28.5347 472.605 28.5548 472.184C28.6351 470.644 28.7856 469.105 28.9763 467.575C29.0165 467.222 29.2975 466.908 29.448 466.565C29.5785 466.271 29.8194 466.143 30.0903 466.28C30.2509 466.369 30.3212 466.614 30.4115 466.8C30.4416 466.869 30.4215 466.967 30.4215 467.084Z" fill="#C4C4C4"/>
<path d="M26.7083 463.486C26.8387 462.927 27.2201 462.829 27.6115 462.848C28.5047 462.887 29.408 462.976 30.3012 463.064C30.7528 463.103 31.2044 463.142 31.626 463.26C31.8869 463.329 32.1779 463.515 32.3084 463.731C32.4188 463.907 32.3887 464.329 32.2582 464.417C32.0776 464.545 31.7263 464.525 31.4754 464.476C31.0639 464.398 30.6826 464.182 30.2711 464.123C29.2374 463.966 28.1936 463.868 27.1498 463.731C26.9993 463.701 26.8588 463.564 26.7083 463.486Z" fill="#C4C4C4"/>
<path d="M46.6902 462.015C46.7905 461.779 46.921 461.426 47.0816 461.093C47.5834 460.034 48.0852 458.975 48.6272 457.935C48.6874 457.818 48.9584 457.739 49.129 457.759C49.2394 457.769 49.42 458.014 49.3999 458.112C49.2895 458.543 49.1591 458.985 48.9684 459.387C48.587 460.161 48.1454 460.907 47.744 461.672C47.6537 461.848 47.5533 462.083 47.5934 462.26C47.6838 462.623 47.5232 462.858 47.2321 462.848C47.0615 462.848 46.8909 462.525 46.7404 462.338C46.6701 462.289 46.7002 462.211 46.6902 462.015Z" fill="#C4C4C4"/>
<path d="M55.0001 463.338C55.0102 463.839 54.7191 464.123 54.2976 464.074C53.0732 463.937 51.919 464.201 50.8151 464.682C50.4939 464.829 50.243 464.809 50.0824 464.545C49.8917 464.211 50.2129 464.084 50.4437 463.976C51.5176 463.466 52.6617 463.211 53.846 463.123C54.0467 463.103 54.2374 463.064 54.4281 463.015C54.8496 462.887 55.0102 463.054 55.0001 463.338Z" fill="#C4C4C4"/>
<path d="M52.0193 459.73C52.4408 459.72 52.6315 459.897 52.4508 460.181C52.23 460.534 51.939 460.848 51.6178 461.132C51.2365 461.466 50.7848 461.73 50.4035 462.064C50.2128 462.23 50.1124 462.485 49.9418 462.682C49.8113 462.829 49.6307 462.946 49.4801 463.074C49.3698 462.858 49.1088 462.564 49.1791 462.446C49.43 462.005 49.7511 461.573 50.1225 461.211C50.6042 460.74 51.1562 460.338 51.6781 459.916C51.7885 459.818 51.949 459.769 52.0193 459.73Z" fill="#C4C4C4"/>
<g clip-path="url(#clip1_540_11482)">
<path d="M21.0779 449.796C19.9238 449.796 18.8298 449.796 17.7258 449.796C17.6255 449.796 17.5151 449.796 17.4248 449.757C17.0936 449.62 16.7122 449.443 16.8326 449.041C16.9531 448.649 17.3244 448.737 17.7058 448.757C18.6291 448.825 19.5625 448.816 20.4858 448.757C21.5496 448.698 22.6034 448.531 23.6672 448.472C23.868 448.463 24.0888 448.708 24.3397 448.865C24.4099 448.718 24.5605 448.463 24.6608 448.198C25.1325 447.001 26.0157 446.354 27.3204 446.266C27.6014 446.246 27.8924 446.197 28.1634 446.237C29.1369 446.344 29.6187 446.903 29.6588 448.168C29.7291 450.12 29.0968 451.895 27.7821 453.346C27.0996 454.091 26.2064 454.67 25.0322 454.395C23.9382 454.15 23.2156 453.121 23.4364 452.042C23.607 451.199 23.7977 450.365 23.9784 449.512C23.597 449.531 23.1654 449.541 22.7439 449.61C22.6134 449.63 22.4328 449.826 22.4027 449.963C22.202 450.953 22.0012 451.944 21.8808 452.944C21.7604 453.954 21.6098 454.984 22.0113 455.984C22.1217 456.268 21.4191 456.651 21.0277 456.523C20.5861 456.376 20.4055 456.013 20.3654 455.621C20.3051 455.043 20.3152 454.454 20.3051 453.866C20.3051 453.679 20.3252 453.483 20.3453 453.228C19.7933 453.523 19.3015 453.778 18.7997 454.042C17.2441 454.856 15.6082 454.905 13.9322 454.513C12.5773 454.189 11.5135 452.738 11.5436 451.14C11.5737 448.865 12.3666 446.835 13.7315 445.011C14.7451 443.648 16.0599 442.755 17.6556 442.275C18.4384 442.04 19.2513 441.951 20.0743 442.157C20.9575 442.373 21.4191 442.912 21.3991 443.805C21.389 444.373 21.3288 444.942 21.2686 445.511C21.2385 445.756 21.1783 446.001 20.817 445.962C20.4657 445.933 20.4958 445.678 20.4958 445.462C20.5059 445.148 20.536 444.844 20.5661 444.53C20.6965 443.354 20.0743 442.814 18.89 443.05C17.7258 443.275 16.7122 443.805 15.8892 444.619C14.0827 446.393 13.1996 448.59 13.0791 451.071C13.049 451.757 13.3401 452.365 13.7616 452.915C14.143 453.415 14.6949 453.474 15.267 453.572C16.933 453.856 19.7531 452.679 20.5159 451.316C20.7668 450.845 20.8973 450.296 21.0779 449.796ZM28.5348 448.551C28.5348 448.384 28.5448 448.227 28.5348 448.061C28.5047 447.433 28.1935 447.168 27.5914 447.374C26.8788 447.629 26.1763 447.962 25.8752 448.757C25.7046 449.198 25.4637 449.62 25.3533 450.081C25.1626 450.885 24.992 451.699 24.9117 452.522C24.8615 453.121 25.3834 453.503 25.8752 453.268C26.3168 453.062 26.7885 452.797 27.0795 452.424C27.9928 451.306 28.5147 450.012 28.5348 448.551Z" fill="#C4C4C4"/>
<path d="M36.9853 474.41C36.9853 473.204 36.9853 472.047 36.9853 470.899C36.4032 471.497 35.8813 472.105 35.2791 472.625C34.4361 473.351 33.4224 473.302 32.4489 472.919C31.6561 472.615 31.3048 471.86 31.4453 470.831C31.6561 469.311 32.2783 467.997 33.6231 467.134C34.5164 466.565 35.5099 466.222 36.6139 466.555C37.4369 466.81 37.9487 467.33 38.1695 468.173C38.872 470.87 38.6513 473.625 38.6312 476.351C38.6211 477.764 38.4505 479.185 37.7781 480.48C37.1258 481.725 36.1924 482.657 34.7271 482.931C33.2518 483.206 32.1077 482.441 31.8166 481.009C31.5356 479.637 31.6661 478.283 32.188 476.979C32.76 475.567 33.9343 474.959 35.3795 474.704C35.9013 474.616 36.4433 474.508 36.9853 474.41ZM37.0655 475.449C36.2626 475.645 35.5099 475.743 34.8275 476.018C34.3257 476.224 33.7737 476.567 33.5127 477.008C32.7801 478.215 32.6597 479.568 33.0009 480.931C33.2217 481.823 34.0848 482.108 34.8777 481.598C35.5501 481.166 36.0419 480.598 36.373 479.862C37.0053 478.46 36.9551 476.979 37.0655 475.449ZM36.3429 467.457C36.1522 467.457 35.9917 467.428 35.8512 467.457C33.8138 467.928 32.9909 469.879 32.9909 471.458C32.9909 471.811 33.2317 472.066 33.6031 472.037C33.9242 472.017 34.2855 471.948 34.5264 471.772C35.9616 470.693 36.634 469.281 36.3429 467.457Z" fill="#C4C4C4"/>
<path d="M6.75632 461.142C7.45885 461.014 8.15134 460.848 8.85387 460.779C10.6303 460.612 11.8246 461.279 12.4468 462.927C12.768 463.78 12.9085 464.721 13.059 465.633C13.4303 467.928 12.507 469.82 11.0819 471.576C9.81734 473.145 8.43235 474.557 6.60578 475.498C6.38498 475.616 6.09393 475.675 5.85307 475.645C5.5018 475.616 5.38137 475.351 5.37133 475.008C5.37133 473.792 5.38137 472.566 5.32115 471.35C5.24086 469.448 5.06021 467.545 5.01003 465.633C4.97992 464.447 5.07025 463.25 5.17061 462.064C5.21075 461.642 5.42151 461.23 5.57206 460.818C5.71256 460.426 6.05379 460.269 6.39502 460.397C6.57567 460.465 6.63589 460.828 6.74628 461.054C6.75632 461.113 6.75632 461.162 6.75632 461.142ZM7.12766 473.537C8.19149 472.772 8.91409 471.792 9.72701 470.889C11.3529 469.085 11.8045 466.996 11.3629 464.702C11.2425 464.074 11.0217 463.446 10.7407 462.868C10.3994 462.172 9.82738 461.691 8.98434 461.691C8.57286 461.691 8.15134 461.74 7.7499 461.828C6.72621 462.044 6.60578 462.211 6.58571 463.221C6.58571 463.299 6.58571 463.388 6.58571 463.466C6.49538 466.212 6.71617 468.938 6.96708 471.664C7.00722 472.262 7.06744 472.87 7.12766 473.537Z" fill="#C4C4C4"/>
<path d="M41.7724 448.727C41.953 447.727 42.1236 446.805 42.2942 445.874C42.5251 444.609 42.7459 443.344 43.0168 442.089C43.0871 441.745 43.3179 441.412 43.5387 441.128C43.629 441.02 43.9502 440.961 44.0706 441.029C44.2212 441.108 44.3617 441.363 44.3516 441.53C44.2412 442.746 44.1208 443.952 43.9502 445.158C43.7495 446.658 43.4986 448.149 43.2778 449.639C43.2577 449.786 43.2176 449.924 43.1975 450.071C43.1473 450.385 43.1473 450.64 43.5488 450.806C44.1108 451.042 44.1309 451.561 43.6993 452.111C43.5387 452.316 43.3681 452.552 43.3079 452.807C43.2075 453.238 42.8362 453.434 42.5451 453.366C41.9329 453.219 41.4914 453.581 40.9996 453.738C39.9558 454.091 38.9321 454.062 37.9085 453.738C37.226 453.523 36.9048 453.013 36.8647 452.287C36.8045 451.169 37.0755 450.13 37.6174 449.139C38.3099 447.874 39.9358 447.511 41.2404 448.335C41.401 448.453 41.5616 448.57 41.7724 448.727ZM41.6018 451.032C41.8025 450.179 41.2103 449.649 40.5379 449.208C39.9358 448.816 39.3838 449.002 39.0526 449.62C38.611 450.434 38.4002 451.277 38.4303 452.209C38.4404 452.63 38.621 452.856 39.0124 452.817C39.6547 452.768 40.287 452.669 40.9193 452.562C41.4211 452.473 41.8025 452.277 41.6018 451.65C41.5616 451.493 41.6018 451.297 41.6018 451.032Z" fill="#C4C4C4"/>
<path d="M45.7064 467.81C45.1946 468.349 44.6627 468.82 44.2412 469.36C43.8497 469.86 43.5587 470.438 43.2375 470.987C42.9766 471.429 42.8562 471.88 42.9365 472.429C43.0167 472.949 42.9465 473.508 42.8261 474.027C42.7658 474.282 42.4949 474.557 42.244 474.704C41.8325 474.939 41.3407 474.733 41.2805 474.272C41.2102 473.753 41.2905 473.213 41.3006 472.674C41.3106 472.292 41.3507 471.899 41.3307 471.517C41.2504 470.134 41.2002 468.752 41.5816 467.388C41.6619 467.084 41.7723 466.839 42.1737 466.859C42.5651 466.879 42.6253 467.163 42.6554 467.437C42.7257 468.016 42.7759 468.604 42.8361 469.271C42.9465 469.124 43.0268 469.016 43.1171 468.928C43.7092 468.31 44.2512 467.643 44.9136 467.104C45.6864 466.476 46.5996 466.604 47.1817 467.408C47.5029 467.849 47.7839 468.428 47.804 468.957C47.8943 470.938 47.8642 472.929 47.8843 474.92C47.8843 474.969 47.8843 475.018 47.8642 475.067C47.7036 475.39 47.7939 475.93 47.1918 475.881C46.5595 475.822 46.2885 475.449 46.2986 474.822C46.3387 473.155 46.3889 471.497 46.3789 469.83C46.3688 469.173 46.3487 468.477 45.7064 467.81Z" fill="#C4C4C4"/>
<path d="M13.6612 470.87C13.9924 469.987 14.1931 469.085 14.6447 468.33C15.0562 467.624 15.6985 467.045 16.3007 466.467C16.5315 466.241 16.9028 466.114 17.234 466.035C18.4584 465.741 19.2814 466.408 19.2312 467.634C19.181 468.83 18.7394 469.821 17.6856 470.497C17.0634 470.899 16.4111 471.272 15.7888 471.674C15.5881 471.801 15.2268 471.752 15.2669 472.154C15.3071 472.576 15.3573 473.057 15.8089 473.174C16.3007 473.312 16.9129 473.429 17.3545 473.263C18.3079 472.91 19.1911 472.37 20.1144 471.939C20.2549 471.87 20.5259 471.919 20.6363 472.027C20.7266 472.105 20.7266 472.429 20.6463 472.498C19.5323 473.429 18.3982 474.39 16.8225 474.429C16.1903 474.449 15.5178 474.341 14.9056 474.155C14.2433 473.949 13.902 473.37 13.7615 472.713C13.7013 472.419 13.6411 472.203 13.2999 472.056C12.9486 471.909 12.8282 471.546 12.9887 471.184C13.1192 470.87 13.35 470.684 13.6612 470.87ZM15.4074 470.909C16.0799 470.458 16.6419 470.095 17.1939 469.713C17.8462 469.262 18.2075 468.634 18.2276 467.859C18.2376 467.575 18.1272 467.281 18.067 466.987C17.796 467.104 17.4749 467.183 17.2441 467.359C16.13 468.212 15.5881 469.389 15.4074 470.909Z" fill="#C4C4C4"/>
<path d="M31.3951 448.433C31.2546 448.315 31.084 448.237 31.0137 448.1C30.9535 447.972 30.9234 447.737 31.0037 447.639C31.4954 447.021 32.0073 446.423 32.5292 445.835C32.9808 445.315 33.593 445.06 34.2554 444.923C35.0683 444.766 35.7307 445.148 35.831 445.952C35.9414 446.825 35.9414 447.708 35.9314 448.59C35.9113 450.394 35.4497 452.091 34.3557 453.552C33.9342 454.111 33.3923 454.601 32.8102 454.994C31.7564 455.709 30.5219 455.258 30.0904 454.072C29.8897 453.523 29.8094 452.973 29.9699 452.405C30.1606 451.728 30.2911 451.042 30.532 450.385C30.7628 449.728 31.094 449.1 31.3951 448.433ZM32.7901 447.031C32.8503 447.06 32.9206 447.09 32.9808 447.119C33.0009 447.354 33.0912 447.609 33.031 447.815C32.8403 448.433 32.6094 449.051 32.3385 449.639C31.7965 450.845 31.4754 452.11 31.375 453.405C31.3449 453.709 31.5055 454.16 31.7363 454.337C32.0575 454.582 32.4087 454.297 32.7098 454.062C34.2152 452.846 34.8676 451.228 35.0181 449.394C35.1084 448.345 35.0884 447.276 35.0583 446.217C35.0382 445.727 34.8174 445.629 34.3959 445.884C33.8238 446.227 33.322 446.648 32.7901 447.031Z" fill="#C4C4C4"/>
<path d="M26.929 467.722C26.9591 467.124 26.6379 466.859 26.0257 467.055C25.2028 467.32 24.4501 467.771 23.9583 468.516C23.7274 468.879 23.7174 469.183 24.169 469.448C24.8816 469.86 25.5942 470.291 26.2465 470.801C26.5677 471.046 26.8387 471.438 26.9792 471.811C27.1799 472.38 26.8788 472.929 26.3067 473.262C25.263 473.861 24.0988 474.086 22.9145 474.194C22.3324 474.253 21.7804 473.772 21.7303 473.213C21.7202 473.066 21.8105 472.792 21.9009 472.782C22.0815 472.743 22.2923 472.831 22.483 472.89C22.6536 472.939 22.8342 473.096 22.9647 473.066C23.7074 472.89 24.44 472.703 25.1526 472.448C25.6042 472.292 25.6343 472.066 25.273 471.772C24.8214 471.389 24.3095 471.076 23.8278 470.742C23.4966 470.517 23.1353 470.34 22.8242 470.095C22.2622 469.663 22.1116 469.085 22.3726 468.428C22.4629 468.202 22.5633 467.967 22.7238 467.781C23.5067 466.898 24.4701 466.221 25.6544 466.025C26.1662 465.937 26.7784 466.133 27.2802 466.339C27.8423 466.565 28.0028 467.741 27.5914 468.212C27.5111 468.31 27.2903 468.33 27.1498 468.31C27.0594 468.3 26.9591 468.153 26.9189 468.055C26.8989 467.928 26.929 467.79 26.929 467.722Z" fill="#C4C4C4"/>
<path d="M30.4215 467.084C30.3011 468.183 30.1706 469.31 30.0703 470.448C30 471.242 29.9298 472.027 30.2609 472.801C30.4516 473.243 30.0502 473.439 29.7491 473.635C29.448 473.831 29.1269 473.772 28.9864 473.458C28.7957 473.056 28.5347 472.605 28.5548 472.184C28.6351 470.644 28.7856 469.105 28.9763 467.575C29.0165 467.222 29.2975 466.908 29.448 466.565C29.5785 466.271 29.8194 466.143 30.0903 466.28C30.2509 466.369 30.3212 466.614 30.4115 466.8C30.4416 466.869 30.4215 466.967 30.4215 467.084Z" fill="#C4C4C4"/>
<path d="M26.7083 463.486C26.8387 462.927 27.2201 462.829 27.6115 462.848C28.5047 462.887 29.408 462.976 30.3012 463.064C30.7528 463.103 31.2044 463.142 31.626 463.26C31.8869 463.329 32.1779 463.515 32.3084 463.731C32.4188 463.907 32.3887 464.329 32.2582 464.417C32.0776 464.545 31.7263 464.525 31.4754 464.476C31.0639 464.398 30.6826 464.182 30.2711 464.123C29.2374 463.966 28.1936 463.868 27.1498 463.731C26.9993 463.701 26.8588 463.564 26.7083 463.486Z" fill="#C4C4C4"/>
<path d="M46.6902 462.015C46.7905 461.779 46.921 461.426 47.0816 461.093C47.5834 460.034 48.0852 458.975 48.6272 457.935C48.6874 457.818 48.9584 457.739 49.129 457.759C49.2394 457.769 49.42 458.014 49.3999 458.112C49.2895 458.543 49.1591 458.985 48.9684 459.387C48.587 460.161 48.1454 460.907 47.744 461.672C47.6537 461.848 47.5533 462.083 47.5934 462.26C47.6838 462.623 47.5232 462.858 47.2321 462.848C47.0615 462.848 46.8909 462.525 46.7404 462.338C46.6701 462.289 46.7002 462.211 46.6902 462.015Z" fill="#C4C4C4"/>
<path d="M55.0001 463.338C55.0102 463.839 54.7191 464.123 54.2976 464.074C53.0732 463.937 51.919 464.201 50.8151 464.682C50.4939 464.829 50.243 464.809 50.0824 464.545C49.8917 464.211 50.2129 464.084 50.4437 463.976C51.5176 463.466 52.6617 463.211 53.846 463.123C54.0467 463.103 54.2374 463.064 54.4281 463.015C54.8496 462.887 55.0102 463.054 55.0001 463.338Z" fill="#C4C4C4"/>
<path d="M52.0193 459.73C52.4408 459.72 52.6315 459.897 52.4508 460.181C52.23 460.534 51.939 460.848 51.6178 461.132C51.2365 461.466 50.7848 461.73 50.4035 462.064C50.2128 462.23 50.1124 462.485 49.9418 462.682C49.8113 462.829 49.6307 462.946 49.4801 463.074C49.3698 462.858 49.1088 462.564 49.1791 462.446C49.43 462.005 49.7511 461.573 50.1225 461.211C50.6042 460.74 51.1562 460.338 51.6781 459.916C51.7885 459.818 51.949 459.769 52.0193 459.73Z" fill="#C4C4C4"/>
</g>
</g>
<g clip-path="url(#clip2_540_11482)">
<path d="M7.2548 182.106C7.39098 182.982 7.00719 183.798 6.47483 184.506C5.6082 185.645 4.66729 186.725 3.714 187.793C3.11974 188.464 2.29025 188.788 1.41124 188.98C0.81698 189.112 0.569372 188.884 0.544611 188.284C0.433187 185.609 0.321763 182.946 0.197959 180.271C0.185579 179.875 0.123677 179.479 0.0617747 179.083C-0.173453 177.56 0.22272 177.068 1.80741 176.9C4.66729 176.576 7.18051 179.107 7.2548 181.626C7.2548 181.758 7.2548 181.902 7.2548 182.106ZM1.93122 187.697C2.22835 187.469 2.42643 187.349 2.56262 187.193C3.47877 186.113 4.39492 185.045 5.28631 183.954C5.88057 183.222 6.00438 182.382 5.90533 181.47C5.73201 179.767 4.15969 178.027 2.52548 177.775C1.28744 177.583 1.20077 177.679 1.41124 178.867C1.42362 178.951 1.42362 179.023 1.436 179.107C1.55981 181.638 1.68361 184.17 1.80741 186.701C1.81979 186.977 1.8817 187.265 1.93122 187.697Z" fill="#C4C4C4"/>
<path d="M42.403 179.479C42.0068 179.575 41.722 179.659 41.4373 179.719C41.0906 179.791 40.6945 179.791 40.385 179.935C39.4193 180.367 38.4784 180.859 37.5127 181.315C36.7451 181.674 36.6832 181.998 37.2898 182.61C38.4288 183.738 39.5926 184.842 40.7068 185.981C41.5982 186.893 42.4277 187.865 43.2944 188.8C43.3934 188.908 43.5543 188.98 43.6781 189.076C43.8019 189.184 44.0372 189.364 44.0124 189.424C43.9381 189.604 43.7896 189.832 43.6039 189.904C43.0096 190.12 42.5391 189.904 42.1306 189.448C40.7935 187.985 39.444 186.533 38.107 185.069C37.7974 184.734 37.5251 184.362 37.2279 184.002C37.1413 184.062 37.067 184.122 36.9803 184.182C37.0794 185.141 37.1908 186.089 37.2527 187.049C37.2898 187.577 37.2775 188.117 37.166 188.632C37.1289 188.836 36.6956 189.148 36.5594 189.1C36.287 188.992 35.9156 188.704 35.8909 188.464C35.7547 187.157 35.7299 185.837 35.6061 184.518C35.5318 183.714 35.3709 182.922 35.2471 182.118C35.2347 181.998 35.1852 181.866 35.2223 181.758C35.7794 180.403 35.4452 178.951 35.7423 177.572C35.8042 177.26 35.8661 176.924 36.0394 176.672C36.1756 176.48 36.4727 176.396 36.6956 176.252C36.8194 176.444 37.0299 176.624 37.0299 176.816C37.0299 177.692 36.9556 178.567 36.9184 179.443C36.9061 179.719 36.9184 179.995 36.9184 180.379C37.3146 180.211 37.6613 180.079 37.9955 179.923C38.6269 179.623 39.2336 179.275 39.865 178.987C40.7811 178.603 41.7963 178.747 42.403 179.479Z" fill="#C4C4C4"/>
<path d="M32.3129 182.682C31.0377 182.898 29.9111 183.078 28.6607 183.294C28.6607 184.254 28.6483 185.202 28.673 186.149C28.6854 186.641 28.4378 186.833 27.9674 186.857C27.5464 186.869 27.2864 186.713 27.3112 186.269C27.4102 184.494 27.4969 182.718 27.6455 180.955C27.7321 179.863 27.9302 178.783 28.0912 177.704C28.1283 177.476 28.2273 177.248 28.3511 177.032C28.6235 176.564 28.9949 176.468 29.4159 176.816C29.7501 177.092 30.0968 177.248 30.5425 177.272C31.2234 177.32 31.7062 177.776 31.9662 178.316C32.4738 179.371 33.0309 180.451 33.2662 181.591C33.6004 183.138 33.6747 184.746 33.8233 186.329C33.8728 186.833 33.5881 187.061 33.0557 186.989C32.6472 186.929 32.5357 186.713 32.5234 186.329C32.4738 185.13 32.3872 183.942 32.3129 182.682ZM28.7968 182.31C29.8244 182.13 30.7406 181.987 31.6691 181.807C31.7681 181.783 31.9291 181.531 31.8919 181.435C31.5824 180.403 31.3348 179.347 30.6044 178.484C30.3073 178.136 30.1339 178.136 29.8739 178.52C29.1187 179.635 28.9578 180.907 28.7968 182.31Z" fill="#C4C4C4"/>
<path d="M13.346 184.05C13.3831 184.542 13.445 185.034 13.4698 185.537C13.5069 186.149 13.5565 186.761 13.5688 187.373C13.5812 187.877 13.1974 187.925 12.8012 187.937C12.4051 187.949 12.2441 187.733 12.2194 187.385C12.1575 186.089 12.1079 184.794 12.0213 183.51C12.0089 183.234 11.8356 182.958 11.7984 182.682C11.7489 182.358 11.7241 182.034 11.7613 181.71C11.8232 181.207 12.0089 180.727 12.0584 180.223C12.1451 179.455 12.1203 178.663 12.2565 177.908C12.306 177.632 12.6403 177.368 12.8879 177.152C12.9746 177.08 13.2593 177.092 13.3707 177.176C13.4822 177.248 13.5317 177.476 13.5193 177.62C13.4574 178.327 13.3707 179.023 13.2841 179.719C13.346 179.743 13.3955 179.779 13.4574 179.803C13.6307 179.683 13.8164 179.587 13.9774 179.455C14.6831 178.903 15.3764 178.327 16.0944 177.8C16.5401 177.476 17.0353 177.164 17.6296 177.392C17.9267 177.5 18.162 177.74 18.5086 177.98C18.261 178.123 18.1372 178.255 18.0629 178.243C17.2087 178.028 16.7382 178.627 16.2059 179.059C15.3269 179.755 14.4726 180.475 13.6555 181.231C13.1479 181.698 13.2346 182.25 13.7669 182.706C15.0669 183.81 16.3668 184.914 17.6544 186.029C17.8648 186.209 18.0505 186.449 18.162 186.701C18.2363 186.881 18.2486 187.241 18.1372 187.313C17.9391 187.445 17.6172 187.493 17.382 187.445C17.1963 187.409 17.0477 187.181 16.8744 187.037C15.7478 186.029 14.6212 185.022 13.4945 184.014C13.445 184.002 13.3955 184.026 13.346 184.05Z" fill="#C4C4C4"/>
<path d="M20.3782 177.355C21.6162 177.883 21.1086 178.963 21.4677 179.779C22.1114 179.263 22.7305 178.759 23.3742 178.267C23.758 177.967 24.1418 177.643 24.5875 177.463C24.8351 177.367 25.2065 177.559 25.5161 177.619C25.3923 177.835 25.3056 178.099 25.1199 178.255C24.0304 179.203 22.9286 180.127 21.8267 181.062C21.4058 181.422 21.3315 181.77 21.6534 182.298C22.4457 183.642 23.2752 184.889 24.7732 185.669C25.2808 185.933 25.5284 186.653 25.8627 187.193C25.9246 187.289 25.8132 187.601 25.7141 187.637C25.4913 187.733 25.1694 187.816 24.9713 187.733C24.7361 187.637 24.5875 187.349 24.4018 187.145C24.0799 186.797 23.7952 186.425 23.4361 186.125C22.78 185.573 22.0743 185.057 21.3686 184.505C21.3934 185.285 21.2448 186.125 21.8515 186.893C22.1733 187.301 21.7277 187.577 21.4305 187.792C21.0467 188.056 20.6629 187.888 20.5391 187.517C20.3163 186.881 20.0687 186.221 20.0563 185.561C20.0068 183.186 20.0315 180.81 20.0687 178.435C20.0563 178.087 20.2544 177.739 20.3782 177.355Z" fill="#C4C4C4"/>
<path d="M10.2758 182.358C10.2758 183.977 10.2634 185.597 10.2758 187.217C10.2758 187.684 10.2386 188.128 9.65677 188.224C9.24822 188.296 8.90157 187.84 8.88919 187.253C8.83966 184.121 8.80252 180.978 8.76538 177.847C8.76538 177.391 8.83966 176.936 8.88919 176.48C8.92633 176.144 9.14917 175.94 9.47106 176.024C9.66915 176.084 9.92914 176.312 9.9539 176.492C10.0406 177.199 10.0777 177.919 10.0901 178.639C10.1148 179.875 10.0901 181.122 10.0901 182.358C10.1644 182.358 10.2139 182.358 10.2758 182.358Z" fill="#C4C4C4"/>
</g>
<g clip-path="url(#clip3_540_11482)">
<path d="M1070.25 322.543C1070.39 323.481 1070.01 324.355 1069.47 325.113C1068.61 326.334 1067.67 327.491 1066.71 328.635C1066.12 329.355 1065.29 329.702 1064.41 329.908C1063.82 330.049 1063.57 329.805 1063.54 329.162C1063.43 326.296 1063.32 323.442 1063.2 320.576C1063.19 320.152 1063.12 319.728 1063.06 319.304C1062.83 317.671 1063.22 317.144 1064.81 316.964C1067.67 316.617 1070.18 319.329 1070.25 322.028C1070.25 322.17 1070.25 322.324 1070.25 322.543ZM1064.93 328.532C1065.23 328.288 1065.43 328.16 1065.56 327.992C1066.48 326.836 1067.39 325.692 1068.29 324.522C1068.88 323.738 1069 322.838 1068.91 321.861C1068.73 320.036 1067.16 318.172 1065.53 317.902C1064.29 317.697 1064.2 317.8 1064.41 319.072C1064.42 319.162 1064.42 319.239 1064.44 319.329C1064.56 322.041 1064.68 324.753 1064.81 327.465C1064.82 327.761 1064.88 328.07 1064.93 328.532Z" fill="#C4C4C4"/>
<path d="M1105.4 319.728C1105.01 319.83 1104.72 319.92 1104.44 319.985C1104.09 320.062 1103.69 320.062 1103.38 320.216C1102.42 320.679 1101.48 321.206 1100.51 321.694C1099.75 322.08 1099.68 322.427 1100.29 323.082C1101.43 324.291 1102.59 325.473 1103.71 326.694C1104.6 327.671 1105.43 328.712 1106.29 329.715C1106.39 329.83 1106.55 329.908 1106.68 330.01C1106.8 330.126 1107.04 330.319 1107.01 330.383C1106.94 330.576 1106.79 330.82 1106.6 330.897C1106.01 331.129 1105.54 330.897 1105.13 330.409C1103.79 328.841 1102.44 327.285 1101.11 325.717C1100.8 325.357 1100.53 324.959 1100.23 324.573C1100.14 324.638 1100.07 324.702 1099.98 324.766C1100.08 325.794 1100.19 326.81 1100.25 327.838C1100.29 328.404 1100.28 328.982 1100.17 329.535C1100.13 329.753 1099.7 330.088 1099.56 330.036C1099.29 329.92 1098.92 329.612 1098.89 329.355C1098.75 327.954 1098.73 326.54 1098.61 325.126C1098.53 324.265 1098.37 323.417 1098.25 322.555C1098.23 322.427 1098.19 322.285 1098.22 322.17C1098.78 320.717 1098.45 319.162 1098.74 317.684C1098.8 317.35 1098.87 316.99 1099.04 316.72C1099.18 316.514 1099.47 316.424 1099.7 316.27C1099.82 316.476 1100.03 316.668 1100.03 316.874C1100.03 317.812 1099.96 318.751 1099.92 319.689C1099.91 319.985 1099.92 320.28 1099.92 320.692C1100.31 320.512 1100.66 320.37 1101 320.203C1101.63 319.882 1102.23 319.509 1102.86 319.201C1103.78 318.789 1104.8 318.944 1105.4 319.728Z" fill="#C4C4C4"/>
<path d="M1095.31 323.159C1094.04 323.391 1092.91 323.583 1091.66 323.815C1091.66 324.843 1091.65 325.858 1091.67 326.874C1091.69 327.401 1091.44 327.607 1090.97 327.632C1090.55 327.645 1090.29 327.478 1090.31 327.002C1090.41 325.1 1090.5 323.198 1090.65 321.308C1090.73 320.139 1090.93 318.982 1091.09 317.825C1091.13 317.581 1091.23 317.337 1091.35 317.105C1091.62 316.604 1091.99 316.501 1092.42 316.874C1092.75 317.17 1093.1 317.337 1093.54 317.362C1094.22 317.414 1094.71 317.902 1094.97 318.481C1095.47 319.612 1096.03 320.768 1096.27 321.99C1096.6 323.648 1096.67 325.37 1096.82 327.067C1096.87 327.607 1096.59 327.851 1096.06 327.774C1095.65 327.709 1095.54 327.478 1095.52 327.067C1095.47 325.781 1095.39 324.509 1095.31 323.159ZM1091.8 322.761C1092.82 322.568 1093.74 322.414 1094.67 322.221C1094.77 322.195 1094.93 321.925 1094.89 321.822C1094.58 320.717 1094.33 319.586 1093.6 318.661C1093.31 318.288 1093.13 318.288 1092.87 318.699C1092.12 319.894 1091.96 321.257 1091.8 322.761Z" fill="#C4C4C4"/>
<path d="M1076.35 324.624C1076.38 325.151 1076.45 325.678 1076.47 326.218C1076.51 326.874 1076.56 327.529 1076.57 328.185C1076.58 328.725 1076.2 328.776 1075.8 328.789C1075.41 328.802 1075.24 328.571 1075.22 328.198C1075.16 326.81 1075.11 325.421 1075.02 324.046C1075.01 323.75 1074.84 323.455 1074.8 323.159C1074.75 322.812 1074.72 322.465 1074.76 322.118C1074.82 321.578 1075.01 321.064 1075.06 320.524C1075.15 319.702 1075.12 318.853 1075.26 318.044C1075.31 317.748 1075.64 317.465 1075.89 317.234C1075.97 317.157 1076.26 317.169 1076.37 317.259C1076.48 317.337 1076.53 317.581 1076.52 317.735C1076.46 318.493 1076.37 319.239 1076.28 319.984C1076.35 320.01 1076.4 320.049 1076.46 320.074C1076.63 319.946 1076.82 319.843 1076.98 319.702C1077.68 319.11 1078.38 318.493 1079.09 317.928C1079.54 317.581 1080.04 317.247 1080.63 317.491C1080.93 317.606 1081.16 317.864 1081.51 318.121C1081.26 318.275 1081.14 318.416 1081.06 318.403C1080.21 318.172 1079.74 318.815 1079.21 319.277C1078.33 320.023 1077.47 320.794 1076.66 321.604C1076.15 322.105 1076.23 322.696 1076.77 323.185C1078.07 324.367 1079.37 325.55 1080.65 326.745C1080.86 326.938 1081.05 327.195 1081.16 327.465C1081.24 327.658 1081.25 328.044 1081.14 328.121C1080.94 328.262 1080.62 328.313 1080.38 328.262C1080.2 328.223 1080.05 327.979 1079.87 327.825C1078.75 326.745 1077.62 325.666 1076.49 324.586C1076.45 324.573 1076.4 324.599 1076.35 324.624Z" fill="#C4C4C4"/>
<path d="M1083.38 317.453C1084.62 318.018 1084.11 319.175 1084.47 320.049C1085.11 319.496 1085.73 318.956 1086.37 318.43C1086.76 318.108 1087.14 317.761 1087.59 317.568C1087.84 317.465 1088.21 317.671 1088.52 317.735C1088.39 317.967 1088.31 318.25 1088.12 318.417C1087.03 319.432 1085.93 320.422 1084.83 321.424C1084.41 321.81 1084.33 322.183 1084.65 322.748C1085.45 324.188 1086.28 325.525 1087.77 326.36C1088.28 326.643 1088.53 327.414 1088.86 327.992C1088.92 328.095 1088.81 328.429 1088.71 328.468C1088.49 328.571 1088.17 328.661 1087.97 328.571C1087.74 328.468 1087.59 328.16 1087.4 327.941C1087.08 327.568 1086.8 327.17 1086.44 326.849C1085.78 326.257 1085.07 325.705 1084.37 325.113C1084.39 325.949 1084.24 326.849 1084.85 327.671C1085.17 328.108 1084.73 328.404 1084.43 328.635C1084.05 328.918 1083.66 328.738 1083.54 328.34C1083.32 327.658 1083.07 326.951 1083.06 326.244C1083.01 323.699 1083.03 321.154 1083.07 318.609C1083.06 318.237 1083.25 317.864 1083.38 317.453Z" fill="#C4C4C4"/>
<path d="M1073.28 322.812C1073.28 324.547 1073.26 326.283 1073.28 328.018C1073.28 328.519 1073.24 328.995 1072.66 329.098C1072.25 329.175 1071.9 328.686 1071.89 328.056C1071.84 324.702 1071.8 321.334 1071.77 317.979C1071.77 317.491 1071.84 317.002 1071.89 316.514C1071.93 316.154 1072.15 315.936 1072.47 316.026C1072.67 316.09 1072.93 316.334 1072.95 316.527C1073.04 317.285 1073.08 318.056 1073.09 318.828C1073.11 320.152 1073.09 321.488 1073.09 322.812C1073.16 322.812 1073.21 322.812 1073.28 322.812Z" fill="#C4C4C4"/>
</g>
<g clip-path="url(#clip4_540_11482)">
<path d="M34.7781 336.151C34.759 336.18 34.7207 336.199 34.7207 336.228C34.7207 336.44 34.8164 336.777 34.7207 336.845C34.4429 337.037 34.0981 337.22 33.7725 337.23C32.6807 337.259 31.5793 337.191 30.4874 337.201C29.8649 337.21 29.2519 337.336 28.639 337.336C27.4131 337.326 26.1871 337.22 24.9612 337.22C23.017 337.22 21.0728 337.268 19.1381 337.316C18.4102 337.336 17.6728 337.403 16.9449 337.49C15.7477 337.644 14.5601 337.971 13.3533 337.99C11.0931 338.029 8.8232 337.904 6.56291 337.817C5.9308 337.798 5.28911 337.778 4.67615 337.624C4.25474 337.519 3.83334 337.374 3.41193 337.268C3.22995 337.22 3.02883 336.758 3.02883 336.488C3.0001 333.552 3.00967 330.615 3.00967 327.678C3.00967 325.541 2.96179 323.403 3.01925 321.275C3.09587 318.666 3.23953 316.056 3.38319 313.447C3.48855 311.579 3.62263 309.711 3.75672 307.843C3.83334 306.774 3.94826 305.706 4.07277 304.646C4.11108 304.309 4.16855 303.953 4.32179 303.664C4.58038 303.173 4.91559 303.164 5.30827 303.539C5.41362 303.635 5.5477 303.761 5.67221 303.761C7.8846 303.847 10.097 303.953 12.319 303.992C14.4931 304.03 16.6671 304.088 18.8316 303.982C21.1398 303.876 23.4288 303.597 25.7274 303.395C26.5702 303.318 27.4035 303.231 28.2463 303.154C28.4283 303.135 28.6486 303.135 28.8114 303.221C29.319 303.472 29.817 303.414 30.3342 303.26C30.5928 303.183 30.861 303.173 31.1291 303.164C32.3359 303.096 33.5426 303.01 34.7494 302.99C36.1956 302.971 37.1055 303.433 36.9522 305.234C36.9043 305.812 36.8277 306.38 36.7798 306.948C36.5691 309.307 36.3967 311.666 36.1573 314.015C35.937 316.201 35.7838 318.386 35.7933 320.582C35.8029 323.499 35.7263 326.426 35.7263 329.344C35.7263 330.499 35.8604 331.645 35.8987 332.8C35.9179 333.696 35.87 334.601 35.8604 335.497C35.87 336.228 35.4486 336.469 34.7781 336.151C34.6824 336.007 34.5195 335.862 34.5195 335.718C34.4525 334.052 34.3663 332.386 34.3663 330.721C34.3567 327.091 34.3376 323.47 34.4238 319.84C34.4717 317.655 34.6824 315.469 34.8548 313.283C35.075 310.52 35.3432 307.766 35.5731 305.012C35.6401 304.223 35.4486 304.069 34.7398 304.136C33.8204 304.223 32.901 304.252 31.9815 304.319C31.3686 304.367 30.7556 304.463 30.1331 304.473C29.6159 304.483 29.0987 304.406 28.5815 304.367C28.4379 304.358 28.2942 304.3 28.1601 304.309C27.3173 304.377 26.4745 304.444 25.6412 304.521C23.5821 304.704 21.5229 304.974 19.4638 305.06C17.2035 305.157 14.9336 305.099 12.6638 305.07C11.5336 305.06 10.4035 304.945 9.27334 304.897C8.12404 304.849 6.97474 304.81 5.83503 304.8C5.7201 304.8 5.51897 304.964 5.50939 305.06C5.39446 306.235 5.28911 307.419 5.21249 308.604C5.12629 310 5.07841 311.386 4.99221 312.783C4.84855 315.228 4.58995 317.674 4.56122 320.12C4.49418 325.512 4.54207 330.904 4.54207 336.296C4.54207 336.45 4.56122 336.594 4.5708 336.748C4.98263 336.7 5.36573 336.556 5.70094 336.623C8.19108 337.095 10.7004 336.835 13.2001 336.883C14.3302 336.902 15.4604 336.536 16.5905 336.411C18.8221 336.161 21.0632 335.93 23.3139 336.016C24.5111 336.065 25.6987 336.209 26.8959 336.199C28.6294 336.19 30.3533 336.065 32.0869 336.036C32.968 336.016 33.8779 336.103 34.7781 336.151Z" fill="#C4C4C4"/>
<path d="M8.0569 319.706C8.04732 319.234 8.22929 319.09 8.67943 319.07C11.3324 318.984 13.9853 318.868 16.6479 318.781C17.2896 318.762 17.9217 318.762 18.5634 318.743C18.9465 318.733 19.1763 318.993 19.1284 319.301C19.0997 319.475 18.7549 319.687 18.5346 319.715C17.6152 319.812 16.6958 319.869 15.7668 319.908C13.6501 319.985 11.5335 320.033 9.40732 320.081C9.06253 320.091 8.71774 320.052 8.3538 320.024C8.64112 321.112 8.55493 322.18 8.48788 323.268C8.41126 324.385 8.48788 325.512 8.44957 326.638C8.43042 327.457 8.32507 328.266 8.28676 329.074C8.25802 329.758 8.27718 330.442 8.27718 331.164C9.16788 331.164 9.95324 331.202 10.7194 331.154C12.3093 331.058 13.8992 330.942 15.4794 330.798C16.6287 330.692 17.778 330.499 18.9369 330.384C19.1476 330.365 19.4349 330.461 19.5882 330.615C19.9138 330.923 19.8659 331.212 19.4445 331.337C18.889 331.501 18.2952 331.597 17.7206 331.655C16.5138 331.77 15.307 331.857 14.1003 331.925C12.2423 332.04 10.3842 332.136 8.51662 332.223C8.2676 332.233 7.99943 332.194 7.76 332.127C7.06084 331.915 7.00338 331.732 6.91718 330.991C6.73521 329.479 7.03211 327.996 7.07042 326.494C7.09915 325.473 7.08 324.443 7.09915 323.422C7.11831 322.411 7.14704 321.41 7.17577 320.409C7.19493 319.918 7.51098 319.658 8.0569 319.706Z" fill="#C4C4C4"/>
<path d="M30.5831 309.48C29.6445 309.643 28.7921 309.798 27.9302 309.942C27.8344 309.961 27.7386 309.971 27.6429 309.98C25.9572 310.086 24.2812 310.192 22.5955 310.289C22.2029 310.308 21.8006 310.298 21.3983 310.289C21.2547 310.289 21.0727 310.289 20.9865 310.202C20.8333 310.029 20.5938 309.73 20.6513 309.624C20.7567 309.422 21.0919 309.172 21.2643 309.22C22.2412 309.47 23.1893 309.316 24.1471 309.162C24.7696 309.066 25.4209 309.027 26.053 309.047C27.6141 309.095 29.1178 308.758 30.6214 308.43C30.8417 308.382 31.062 308.382 31.2823 308.344C31.8857 308.247 32.2688 308.623 32.1921 309.22C31.9623 311.011 31.6845 312.792 31.5409 314.583C31.4164 316.191 31.4451 317.809 31.4164 319.426C31.4068 319.956 31.2344 320.168 30.6693 320.196C30.2192 320.216 30.0468 320.052 29.9989 319.532C29.8074 317.472 29.8936 315.411 30.1809 313.36C30.3245 312.282 30.382 311.194 30.4874 310.115C30.5065 309.903 30.5448 309.701 30.5831 309.48Z" fill="#C4C4C4"/>
<path d="M25.4209 314.092C24.2333 314.092 23.0361 314.063 21.8485 314.102C20.4981 314.15 19.1573 314.285 17.8068 314.314C17.3088 314.323 16.8012 314.16 16.3223 313.996C16.1691 313.938 15.9871 313.611 16.0254 313.457C16.0637 313.293 16.3415 313.187 16.5235 313.072C16.5522 313.052 16.6192 313.072 16.6671 313.091C18.506 313.678 20.3257 313.014 22.155 313.052C23.4863 313.081 24.8175 313.033 26.1488 313.11C26.7714 313.149 26.9533 313.62 26.8671 314.266C26.6373 316.124 26.3691 317.973 26.2542 319.841C26.1871 320.948 26.3978 322.074 26.4745 323.191C26.5128 323.759 26.3116 323.962 25.7753 323.991C25.2964 324.01 25.0857 323.846 25.057 323.365C24.9708 322.084 24.8271 320.813 24.8463 319.532C24.8654 318.358 25.0666 317.183 25.1911 316.008C25.2485 315.363 25.3347 314.728 25.4209 314.092Z" fill="#C4C4C4"/>
<path d="M16.2074 324.539C16.15 323.586 15.7286 322.787 15.3072 321.997C15.2018 321.795 14.8858 321.718 14.7134 321.535C14.5793 321.39 14.3973 321.092 14.4548 320.996C14.5505 320.832 14.8379 320.668 15.0198 320.688C15.8148 320.755 16.4373 321.14 16.7629 321.901C17.012 322.488 17.2514 323.075 17.4429 323.682C17.8643 325.02 17.3663 326.137 16.5139 327.119C16.0829 327.62 15.5945 328.111 15.0582 328.487C14.7134 328.727 14.2345 328.805 13.7939 328.862C13.679 328.882 13.4204 328.583 13.4108 328.429C13.4012 328.246 13.5545 327.976 13.7173 327.871C14.6176 327.274 15.3742 326.542 15.8722 325.569C16.0542 325.252 16.1117 324.886 16.2074 324.539Z" fill="#C4C4C4"/>
<path d="M29.022 329.671C29.0699 329.392 29.1369 329.094 29.5296 329.074C29.9797 329.055 30.5161 329.431 30.4107 329.777C30.3341 330.057 30.0084 330.326 29.7307 330.451C29.5104 330.567 29.0316 330.018 29.022 329.671Z" fill="#C4C4C4"/>
<path d="M9.75216 314.314C9.40737 314.304 9.12005 314.034 9.12963 313.717C9.1392 313.341 9.54146 313.014 10.0203 313.062C10.3077 313.091 10.6429 313.187 10.6524 313.582C10.6716 313.89 10.1161 314.314 9.75216 314.314Z" fill="#C4C4C4"/>
<path d="M10.231 310.116C9.59893 310.125 9.13921 309.759 9.17752 309.355C9.20625 309.056 9.38823 308.835 9.74259 308.835C10.1448 308.835 10.7099 309.297 10.6333 309.653C10.595 309.856 10.3172 310.019 10.231 310.116Z" fill="#C4C4C4"/>
<path d="M24.741 329.95C24.9229 329.777 25.0858 329.488 25.2965 329.44C25.6508 329.363 26.0914 329.806 26.0818 330.124C26.0722 330.364 25.6508 330.692 25.3443 330.692C25.0666 330.701 24.8463 330.412 24.741 329.95Z" fill="#C4C4C4"/>
<path d="M11.7922 326.455C11.8401 326.917 11.4474 326.85 11.1792 326.888C10.777 326.946 10.6525 326.638 10.6046 326.32C10.5567 326.041 10.9015 325.781 11.275 325.791C11.5623 325.81 11.7922 326.08 11.7922 326.455Z" fill="#C4C4C4"/>
<path d="M11.5048 322.575C11.5048 322.864 11.4952 323.143 11.1026 323.153C10.7674 323.153 10.3843 322.845 10.48 322.585C10.5758 322.325 10.7865 322.007 11.0259 321.92C11.2845 321.805 11.524 322.18 11.5048 322.575Z" fill="#C4C4C4"/>
</g>
<g clip-path="url(#clip5_540_11482)">
<path d="M1094.71 202.099C1094.69 202.128 1094.65 202.148 1094.65 202.178C1094.65 202.396 1094.75 202.742 1094.65 202.812C1094.37 203.01 1094.01 203.198 1093.68 203.208C1092.55 203.238 1091.42 203.168 1090.3 203.178C1089.66 203.188 1089.02 203.317 1088.39 203.317C1087.13 203.307 1085.87 203.198 1084.61 203.198C1082.61 203.198 1080.6 203.248 1078.61 203.297C1077.86 203.317 1077.1 203.386 1076.36 203.475C1075.12 203.634 1073.9 203.971 1072.66 203.99C1070.33 204.03 1067.99 203.901 1065.67 203.812C1065.02 203.792 1064.36 203.772 1063.73 203.614C1063.29 203.505 1062.86 203.356 1062.42 203.248C1062.24 203.198 1062.03 202.723 1062.03 202.445C1062 199.425 1062.01 196.404 1062.01 193.383C1062.01 191.185 1061.96 188.986 1062.02 186.797C1062.1 184.114 1062.25 181.43 1062.39 178.746C1062.5 176.824 1062.64 174.903 1062.78 172.982C1062.86 171.882 1062.98 170.783 1063.1 169.694C1063.14 169.347 1063.2 168.981 1063.36 168.684C1063.63 168.179 1063.97 168.169 1064.38 168.555C1064.48 168.654 1064.62 168.783 1064.75 168.783C1067.03 168.872 1069.31 168.981 1071.59 169.02C1073.83 169.06 1076.07 169.119 1078.3 169.01C1080.67 168.901 1083.03 168.614 1085.4 168.406C1086.26 168.327 1087.12 168.238 1087.99 168.159C1088.18 168.139 1088.4 168.139 1088.57 168.228C1089.09 168.486 1089.61 168.426 1090.14 168.268C1090.4 168.188 1090.68 168.179 1090.96 168.169C1092.2 168.099 1093.44 168.01 1094.68 167.99C1096.17 167.971 1097.11 168.446 1096.95 170.298C1096.9 170.892 1096.82 171.476 1096.77 172.061C1096.56 174.487 1096.38 176.914 1096.13 179.33C1095.91 181.578 1095.75 183.826 1095.76 186.084C1095.77 189.085 1095.69 192.096 1095.69 195.097C1095.69 196.285 1095.83 197.464 1095.87 198.652C1095.89 199.573 1095.84 200.504 1095.83 201.425C1095.84 202.178 1095.4 202.426 1094.71 202.099C1094.61 201.95 1094.45 201.802 1094.45 201.653C1094.38 199.94 1094.29 198.226 1094.29 196.513C1094.28 192.779 1094.26 189.056 1094.35 185.322C1094.4 183.074 1094.61 180.826 1094.79 178.577C1095.02 175.735 1095.29 172.903 1095.53 170.07C1095.6 169.258 1095.4 169.1 1094.67 169.169C1093.73 169.258 1092.78 169.288 1091.83 169.357C1091.2 169.407 1090.57 169.506 1089.93 169.516C1089.4 169.525 1088.87 169.446 1088.33 169.407C1088.19 169.397 1088.04 169.337 1087.9 169.347C1087.03 169.416 1086.16 169.486 1085.31 169.565C1083.19 169.753 1081.07 170.03 1078.95 170.12C1076.62 170.219 1074.28 170.159 1071.95 170.13C1070.78 170.12 1069.62 170.001 1068.46 169.951C1067.27 169.902 1066.09 169.862 1064.92 169.852C1064.8 169.852 1064.59 170.021 1064.58 170.12C1064.46 171.328 1064.36 172.546 1064.28 173.764C1064.19 175.2 1064.14 176.626 1064.05 178.062C1063.9 180.578 1063.64 183.093 1063.61 185.609C1063.54 191.155 1063.59 196.701 1063.59 202.247C1063.59 202.406 1063.61 202.554 1063.62 202.713C1064.04 202.663 1064.44 202.515 1064.78 202.584C1067.34 203.069 1069.93 202.802 1072.5 202.851C1073.66 202.871 1074.83 202.495 1075.99 202.366C1078.29 202.109 1080.59 201.871 1082.91 201.96C1084.14 202.01 1085.37 202.158 1086.6 202.148C1088.38 202.138 1090.16 202.01 1091.94 201.98C1092.85 201.96 1093.79 202.049 1094.71 202.099Z" fill="#C4C4C4"/>
<path d="M1067.21 185.183C1067.2 184.698 1067.38 184.549 1067.85 184.529C1070.58 184.44 1073.31 184.321 1076.05 184.232C1076.71 184.212 1077.36 184.212 1078.02 184.193C1078.42 184.183 1078.65 184.45 1078.6 184.767C1078.57 184.945 1078.22 185.163 1077.99 185.193C1077.05 185.292 1076.1 185.351 1075.14 185.391C1072.96 185.47 1070.78 185.52 1068.6 185.569C1068.24 185.579 1067.89 185.54 1067.51 185.51C1067.81 186.629 1067.72 187.728 1067.65 188.847C1067.57 189.996 1067.65 191.155 1067.61 192.314C1067.59 193.156 1067.48 193.987 1067.44 194.819C1067.41 195.523 1067.43 196.226 1067.43 196.968C1068.35 196.968 1069.16 197.008 1069.95 196.959C1071.58 196.86 1073.22 196.741 1074.85 196.592C1076.03 196.483 1077.21 196.285 1078.41 196.166C1078.62 196.146 1078.92 196.245 1079.08 196.404C1079.41 196.721 1079.36 197.018 1078.93 197.147C1078.36 197.315 1077.75 197.414 1077.15 197.474C1075.91 197.592 1074.67 197.682 1073.43 197.751C1071.51 197.87 1069.6 197.969 1067.68 198.058C1067.42 198.068 1067.15 198.028 1066.9 197.959C1066.18 197.741 1066.12 197.553 1066.03 196.79C1065.85 195.235 1066.15 193.71 1066.19 192.165C1066.22 191.115 1066.2 190.056 1066.22 189.006C1066.24 187.966 1066.27 186.936 1066.3 185.906C1066.32 185.401 1066.64 185.134 1067.21 185.183Z" fill="#C4C4C4"/>
<path d="M1090.39 174.666C1089.43 174.834 1088.55 174.992 1087.66 175.141C1087.56 175.161 1087.47 175.171 1087.37 175.181C1085.63 175.289 1083.91 175.398 1082.17 175.497C1081.77 175.517 1081.35 175.507 1080.94 175.497C1080.79 175.497 1080.6 175.497 1080.52 175.408C1080.36 175.23 1080.11 174.923 1080.17 174.814C1080.28 174.606 1080.62 174.349 1080.8 174.398C1081.81 174.656 1082.78 174.497 1083.77 174.339C1084.41 174.24 1085.08 174.2 1085.73 174.22C1087.34 174.269 1088.89 173.923 1090.43 173.586C1090.66 173.537 1090.89 173.537 1091.11 173.497C1091.74 173.398 1092.13 173.784 1092.05 174.398C1091.81 176.24 1091.53 178.072 1091.38 179.914C1091.25 181.568 1091.28 183.232 1091.25 184.896C1091.24 185.441 1091.06 185.659 1090.48 185.688C1090.02 185.708 1089.84 185.54 1089.79 185.005C1089.6 182.886 1089.68 180.766 1089.98 178.657C1090.13 177.548 1090.19 176.428 1090.3 175.319C1090.32 175.101 1090.36 174.893 1090.39 174.666Z" fill="#C4C4C4"/>
<path d="M1085.08 179.409C1083.86 179.409 1082.63 179.379 1081.4 179.419C1080.01 179.469 1078.63 179.607 1077.24 179.637C1076.73 179.647 1076.21 179.478 1075.71 179.31C1075.56 179.251 1075.37 178.914 1075.41 178.756C1075.45 178.587 1075.73 178.478 1075.92 178.359C1075.95 178.34 1076.02 178.359 1076.07 178.379C1077.96 178.983 1079.84 178.3 1081.72 178.34C1083.09 178.369 1084.46 178.32 1085.83 178.399C1086.47 178.439 1086.66 178.924 1086.57 179.587C1086.33 181.499 1086.06 183.4 1085.94 185.322C1085.87 186.461 1086.09 187.619 1086.16 188.768C1086.2 189.352 1086 189.56 1085.45 189.59C1084.95 189.61 1084.74 189.442 1084.71 188.946C1084.62 187.629 1084.47 186.322 1084.49 185.005C1084.51 183.797 1084.72 182.588 1084.84 181.38C1084.9 180.716 1084.99 180.063 1085.08 179.409Z" fill="#C4C4C4"/>
<path d="M1075.6 190.155C1075.54 189.175 1075.1 188.352 1074.67 187.54C1074.56 187.332 1074.24 187.253 1074.06 187.065C1073.92 186.916 1073.73 186.609 1073.79 186.51C1073.89 186.342 1074.19 186.174 1074.37 186.193C1075.19 186.263 1075.83 186.659 1076.17 187.441C1076.42 188.045 1076.67 188.65 1076.87 189.274C1077.3 190.65 1076.79 191.799 1075.91 192.809C1075.47 193.324 1074.96 193.829 1074.41 194.216C1074.06 194.463 1073.56 194.542 1073.11 194.602C1072.99 194.622 1072.73 194.315 1072.72 194.156C1072.71 193.968 1072.86 193.691 1073.03 193.582C1073.96 192.968 1074.74 192.215 1075.25 191.215C1075.44 190.888 1075.5 190.512 1075.6 190.155Z" fill="#C4C4C4"/>
<path d="M1088.79 195.434C1088.84 195.146 1088.91 194.839 1089.31 194.82C1089.77 194.8 1090.33 195.186 1090.22 195.543C1090.14 195.83 1089.8 196.107 1089.52 196.236C1089.29 196.355 1088.8 195.79 1088.79 195.434Z" fill="#C4C4C4"/>
<path d="M1068.95 179.637C1068.6 179.627 1068.3 179.35 1068.31 179.023C1068.32 178.637 1068.73 178.3 1069.23 178.35C1069.52 178.379 1069.87 178.478 1069.88 178.884C1069.9 179.201 1069.33 179.637 1068.95 179.637Z" fill="#C4C4C4"/>
<path d="M1069.44 175.319C1068.79 175.329 1068.32 174.953 1068.36 174.537C1068.39 174.23 1068.58 174.002 1068.94 174.002C1069.36 174.002 1069.94 174.477 1069.86 174.844C1069.82 175.052 1069.53 175.22 1069.44 175.319Z" fill="#C4C4C4"/>
<path d="M1084.38 195.721C1084.57 195.542 1084.74 195.245 1084.95 195.196C1085.32 195.116 1085.77 195.572 1085.76 195.899C1085.75 196.146 1085.32 196.483 1085 196.483C1084.72 196.493 1084.49 196.196 1084.38 195.721Z" fill="#C4C4C4"/>
<path d="M1071.05 192.126C1071.1 192.601 1070.7 192.532 1070.42 192.571C1070.01 192.631 1069.88 192.314 1069.83 191.987C1069.78 191.7 1070.13 191.432 1070.52 191.442C1070.81 191.462 1071.05 191.739 1071.05 192.126Z" fill="#C4C4C4"/>
<path d="M1070.76 188.134C1070.76 188.431 1070.75 188.719 1070.34 188.728C1070 188.728 1069.6 188.412 1069.7 188.144C1069.8 187.877 1070.02 187.55 1070.26 187.461C1070.53 187.342 1070.77 187.728 1070.76 188.134Z" fill="#C4C4C4"/>
</g>
<g clip-path="url(#clip6_540_11482)">
<path d="M21.9925 57.9543C23.3587 57.9543 24.6737 57.9041 25.9887 57.971C26.9194 58.0128 27.8416 58.205 28.7724 58.3304C29.1054 58.3722 29.4384 58.4474 29.78 58.4641C30.1727 58.4808 30.4545 58.6563 30.668 58.9572C31.1974 59.6927 31.445 60.5035 31.2401 61.3978C31.1803 61.682 31.223 61.8909 31.3938 62.1333C32.2562 63.3118 32.1025 64.5321 31.539 65.7691C31.2999 66.2873 31.0523 66.7971 30.8046 67.332C31.5731 67.9171 31.6244 68.7529 31.6927 69.5637C31.7354 70.0735 31.6414 70.5833 31.6329 71.1016C31.6329 71.4526 31.6244 71.812 31.7012 72.1463C32.094 73.843 32.0001 75.4645 31.0181 76.9522C30.6936 77.437 30.335 77.905 29.9422 78.348C29.6092 78.7241 29.3615 78.7158 28.9431 78.44C28.8578 78.3815 28.7041 78.3564 28.6016 78.3898C27.2183 78.7826 25.7923 78.8328 24.3578 78.9665C23.094 79.0835 22.001 78.7576 20.891 78.3647C20.4982 78.231 20.131 77.9719 19.8151 77.7045C19.3967 77.3451 19.3625 76.8436 19.5333 76.3588C19.8151 75.5648 20.1737 74.8042 20.8056 74.2108C21.0874 73.9433 21.4375 73.7511 21.8046 73.4836C21.4289 73.3917 21.0703 73.3248 20.7202 73.2245C20.4213 73.1409 20.1139 73.0741 19.8321 72.9403C19.2088 72.6394 19.0551 72.1463 19.3967 71.5529C19.8492 70.7589 20.3445 69.9899 20.78 69.2711C20.3872 69.0956 19.8492 68.9201 19.3967 68.6359C18.1841 67.8753 18.1671 67.0144 18.927 65.8276C19.4991 64.9333 20.3103 64.3398 21.3264 63.9888C21.5485 63.9136 21.7619 63.7966 22.001 63.6879C21.3264 63.5876 20.6946 63.4957 20.0627 63.3954C19.909 63.3703 19.7553 63.3285 19.6101 63.2867C18.5086 62.9691 18.3037 62.6849 18.3976 61.5817C18.4574 60.8712 18.7135 60.236 19.3283 59.7763C19.7553 59.4587 20.1652 59.1077 20.5579 58.7483C20.6348 58.6814 20.6604 58.5059 20.6433 58.3889C20.5153 57.3859 20.3786 56.3829 20.5238 55.3633C20.78 53.6081 21.0447 51.8528 21.2325 50.0809C21.4118 48.4093 21.6338 46.721 21.3948 45.041C21.2752 44.1968 20.8227 43.3945 20.5921 42.5586C20.3872 41.8148 19.6443 41.8733 19.1576 41.5557C19.0978 41.5139 18.9441 41.5975 18.8416 41.6393C17.8255 42.0154 17.2961 42.8595 16.9118 43.7539C16.5447 44.6064 16.2714 45.5091 16.0836 46.4117C15.6737 48.3675 15.3492 50.34 14.982 52.3042C14.7003 53.8337 14.4697 55.3716 14.0855 56.8761C13.6756 58.5059 13.206 60.1274 12.3435 61.5984C11.5238 63.0026 10.465 64.1727 8.87673 64.7828C8.65472 64.8664 8.41563 64.9082 8.18508 64.9583C7.91183 65.0085 7.74959 64.8246 7.75813 64.6157C7.76667 64.4736 7.93745 64.2479 8.07407 64.2145C9.66231 63.8133 10.6016 62.6682 11.3957 61.4062C12.0874 60.3112 12.4887 59.091 12.7875 57.8456C12.9925 56.9847 13.334 56.1489 13.4963 55.2797C13.8037 53.6248 14.0171 51.9615 14.2989 50.3066C14.427 49.5377 14.7173 48.7938 14.8027 48.0332C14.965 46.4702 15.3578 44.9741 15.9469 43.5282C16.4849 42.1909 17.3559 41.1127 18.7989 40.6196C19.0209 40.5443 19.2942 40.4942 19.4991 40.5611C20.1225 40.7617 20.7373 41.0124 21.335 41.2882C21.5058 41.3718 21.6424 41.5807 21.7449 41.7563C22.8634 43.6703 23.1111 45.7264 22.8378 47.8828C22.8037 48.1836 22.7866 48.4929 22.7524 48.7938C22.5987 50.0976 22.4365 51.4099 22.2743 52.7137C22.1718 53.5579 22.1206 54.4021 21.9669 55.2295C21.8046 56.174 21.8217 57.1017 21.9925 57.9543ZM20.4726 72.0293C20.575 72.0962 20.6263 72.138 20.6775 72.1547C22.2316 72.5642 23.8027 72.6645 25.3995 72.3636C26.0826 72.2299 26.7657 72.1212 27.4488 72.0126C27.8331 71.9541 28.1319 72.1797 28.2173 72.606C28.2856 72.9571 27.9953 73.0156 27.7477 73.0824C26.5096 73.3833 25.28 73.726 24.0333 73.9517C22.4963 74.2275 21.3179 74.8627 20.8312 76.4173C20.6604 76.9522 20.7031 77.1612 21.2325 77.3534C21.7363 77.5456 22.2401 77.7295 22.761 77.8549C23.1282 77.9385 23.5124 77.905 23.8967 77.905C24.0931 77.905 24.2894 77.8382 24.4858 77.8549C25.9375 77.9552 27.3293 77.6376 28.7126 77.2531C28.8407 77.2197 28.9858 77.2531 29.1139 77.228C29.2505 77.203 29.4128 77.1862 29.5153 77.111C29.6348 77.0024 29.7031 76.8352 29.797 76.6931C30.779 75.289 30.9669 73.7845 30.4289 72.1714C30.3435 71.9123 30.2581 71.6114 30.3264 71.369C30.557 70.5248 30.4716 69.6807 30.3521 68.8449C30.3179 68.5941 30.1557 68.3183 29.9678 68.1428C29.5579 67.775 29.4384 67.5243 29.6604 67.0144C29.8739 66.5046 30.1044 65.9948 30.3435 65.4933C30.8644 64.3984 30.9327 63.3452 30.1215 62.3172C29.9678 62.1166 29.9849 61.7739 29.9678 61.4897C29.9593 61.3309 30.0617 61.1638 30.0703 61.005C30.1215 59.9602 29.7287 58.9572 28.3369 59.0826C28.0722 59.1077 27.7989 59.0826 27.5342 59.0492C26.1936 58.8653 24.853 58.7734 23.4953 58.8653C22.6756 58.9238 21.8815 59.0492 21.2325 59.6008C20.9507 59.8348 20.7202 60.1274 20.4128 60.328C19.8065 60.7375 19.687 61.3309 19.6784 61.9662C19.6784 62.0832 19.8236 62.2921 19.9261 62.3088C20.7373 62.4258 21.557 62.6097 22.3682 62.5763C23.965 62.5094 25.5617 62.2921 27.1585 62.1918C27.3891 62.1751 27.6367 62.5094 27.8843 62.6766C27.7562 62.8438 27.6708 63.0861 27.5001 63.1614C27.1158 63.3369 26.706 63.4539 26.2961 63.5458C25.5703 63.7046 24.8103 63.7631 24.1016 63.9888C23.2562 64.2563 22.4707 64.6825 21.6338 64.9918C20.8653 65.276 20.353 65.8109 19.9773 66.4795C19.7894 66.8055 19.5077 67.2234 19.8748 67.5912C20.1139 67.8335 20.4384 68.0592 20.7543 68.1261C21.6338 68.3267 22.5219 68.2682 23.4185 68.0843C24.6225 67.8335 25.835 67.6329 27.0475 67.3989C27.3464 67.3404 27.5171 67.4491 27.5855 67.7249C27.6538 68.0007 27.7306 68.2932 27.3634 68.427C26.9109 68.5941 26.4669 68.7864 26.0058 68.8867C25.1348 69.0705 24.2467 69.1875 23.3672 69.3296C22.5219 69.4634 21.7961 69.7893 21.3435 70.5583C21.0532 71.043 20.7714 71.5278 20.4726 72.0293Z" fill="#C4C4C4"/>
<path d="M7.70692 73.3584C8.61204 73.5088 9.6794 73.5339 10.6272 73.8766C11.5323 74.2026 12.3606 74.7709 13.1462 75.3894C13.9659 76.0413 14.8369 76.6849 15.8701 77.0443C16.0153 77.0945 16.186 77.1446 16.2885 77.2449C16.8094 77.7297 17.4413 77.7548 18.1073 77.7297C18.2781 77.7213 18.5086 77.8885 18.6282 78.0473C18.7733 78.2479 18.5769 78.5655 18.3208 78.5906C17.9365 78.6324 17.5523 78.6909 17.1766 78.6741C16.9204 78.6658 16.6471 78.5738 16.4166 78.4736C15.7676 78.1727 15.1272 77.8467 14.4868 77.5291C14.4356 77.504 14.3758 77.504 14.3246 77.4706C13.6158 76.9942 12.9327 76.4843 12.2069 76.033C11.4555 75.5649 10.7211 74.9548 9.89288 74.7626C8.96214 74.5452 7.93747 74.3948 6.94695 74.6121C6.49439 74.7124 6.27238 74.5787 6.16991 74.1023C6.08453 73.7011 6.37485 73.6008 6.68225 73.5423C6.97257 73.4838 7.27997 73.4336 7.70692 73.3584Z" fill="#C4C4C4"/>
<path d="M16.2971 64.2981C16.1519 65.4933 15.836 66.5715 15.1358 67.516C15.0504 67.6247 14.9564 67.7333 14.8796 67.8503C14.4697 68.4521 14.0001 68.987 13.317 69.2879C12.1557 69.7978 11.0029 70.3494 9.73064 70.5166C9.08168 70.6001 8.90236 70.1572 9.02191 69.6055C9.03898 69.5387 9.20976 69.4634 9.31223 69.4551C10.5162 69.3464 11.6177 68.8951 12.6766 68.3852C13.5219 67.9757 14.0086 67.165 14.3929 66.3793C14.7344 65.6689 14.854 64.8498 15.076 64.0808C15.1272 63.9053 15.1528 63.7131 15.2553 63.571C15.3492 63.4456 15.5371 63.3035 15.6737 63.3119C15.8274 63.3202 16.058 63.4456 16.1177 63.5793C16.2373 63.7966 16.2544 64.0725 16.2971 64.2981Z" fill="#C4C4C4"/>
<path d="M21.9413 38.6304C21.4802 38.622 21.2155 38.2877 21.3265 37.7946C21.3948 37.4686 21.4802 37.1427 21.6253 36.8418C21.9584 36.1397 22.2828 35.4209 22.7012 34.769C22.8976 34.4597 23.2648 34.234 23.5978 34.0334C23.7259 33.9582 24.0077 34.0167 24.1358 34.1087C24.2382 34.1839 24.2724 34.443 24.2212 34.5851C23.9479 35.3122 23.6405 36.0227 23.3502 36.7415C23.188 37.1427 23.0001 37.5271 22.8635 37.9367C22.6927 38.4967 22.539 38.6388 21.9413 38.6304Z" fill="#C4C4C4"/>
<path d="M16.9715 37.7693C16.6043 37.878 16.4165 37.6774 16.2798 37.3514C16.0664 36.8416 15.7846 36.3484 15.6138 35.8302C15.5199 35.5628 15.5711 35.2368 15.5967 34.9359C15.6138 34.6517 15.7931 34.5096 16.1005 34.4762C16.4079 34.4344 16.5445 34.5849 16.6641 34.8105C16.9629 35.3872 17.2789 35.964 17.5777 36.549C17.6034 36.5992 17.629 36.6493 17.6461 36.6995C17.9791 37.5186 17.6802 37.878 16.9715 37.7693Z" fill="#C4C4C4"/>
<path d="M20.9506 35.4627C20.925 36.0728 20.7456 36.5743 20.3102 36.8752C20.0796 37.034 19.6612 37.034 19.3794 36.9504C19.2513 36.9087 19.1147 36.4657 19.183 36.2651C19.3111 35.8806 19.5673 35.5379 19.7807 35.1785C19.8405 35.0699 19.9259 34.9612 20.0284 34.8944C20.1821 34.7857 20.3699 34.6353 20.5322 34.6353C20.6432 34.6353 20.7969 34.8526 20.8652 34.9947C20.9335 35.1618 20.9335 35.3541 20.9506 35.4627Z" fill="#C4C4C4"/>
<path d="M5.71729 65.5435C5.48674 65.3931 5.11103 65.2761 5.05126 65.0755C4.95733 64.7746 5.00856 64.3734 5.14519 64.0809C5.28181 63.7883 5.56359 64.0224 5.64044 64.1812C5.79414 64.4904 6.04177 64.4653 6.30648 64.4653C6.56264 64.4653 6.81881 64.4653 7.07498 64.4821C7.35676 64.4988 7.519 64.6994 7.45923 64.925C7.41653 65.1006 7.22014 65.3262 7.04936 65.3597C6.63949 65.4349 6.20401 65.4182 5.77707 65.4432C5.75145 65.4767 5.73437 65.5101 5.71729 65.5435Z" fill="#C4C4C4"/>
</g>
<g clip-path="url(#clip7_540_11482)">
<path d="M1069.4 47.0055C1068.22 47.0055 1067.11 47.0055 1065.98 47.0055C1065.88 47.0055 1065.77 47.0055 1065.67 46.9653C1065.34 46.8248 1064.95 46.6441 1065.07 46.2324C1065.19 45.8309 1065.57 45.9212 1065.96 45.9413C1066.9 46.0116 1067.85 46.0015 1068.8 45.9413C1069.88 45.8811 1070.96 45.7104 1072.04 45.6501C1072.25 45.6401 1072.47 45.8911 1072.73 46.0517C1072.8 45.9011 1072.95 45.6401 1073.05 45.369C1073.54 44.1442 1074.44 43.4816 1075.77 43.3912C1076.05 43.3711 1076.35 43.3209 1076.63 43.3611C1077.62 43.4715 1078.11 44.0438 1078.15 45.3389C1078.22 47.3368 1077.58 49.154 1076.24 50.6399C1075.54 51.4029 1074.63 51.9952 1073.43 51.7141C1072.32 51.4631 1071.58 50.409 1071.81 49.3046C1071.98 48.4412 1072.17 47.5878 1072.36 46.7144C1071.97 46.7344 1071.53 46.7445 1071.1 46.8148C1070.97 46.8348 1070.78 47.0356 1070.75 47.1762C1070.55 48.1902 1070.34 49.2042 1070.22 50.2282C1070.1 51.2623 1069.94 52.3165 1070.35 53.3406C1070.46 53.6317 1069.75 54.0232 1069.35 53.8927C1068.9 53.7421 1068.71 53.3707 1068.67 52.9691C1068.61 52.3767 1068.62 51.7744 1068.61 51.172C1068.61 50.9812 1068.63 50.7804 1068.65 50.5194C1068.09 50.8206 1067.59 51.0816 1067.08 51.3527C1065.49 52.186 1063.82 52.2362 1062.11 51.8346C1060.73 51.5033 1059.64 50.0174 1059.67 48.3809C1059.71 46.0517 1060.51 43.9735 1061.91 42.1061C1062.94 40.7106 1064.28 39.797 1065.91 39.3051C1066.71 39.0641 1067.54 38.9738 1068.38 39.1846C1069.28 39.4055 1069.75 39.9576 1069.73 40.8713C1069.72 41.4536 1069.66 42.0359 1069.59 42.6182C1069.56 42.8692 1069.5 43.1201 1069.13 43.08C1068.78 43.0499 1068.81 42.7888 1068.81 42.568C1068.82 42.2467 1068.85 41.9355 1068.88 41.6142C1069.01 40.4094 1068.38 39.8572 1067.17 40.0982C1065.98 40.3291 1064.95 40.8713 1064.11 41.7045C1062.26 43.5217 1061.36 45.7706 1061.24 48.3107C1061.21 49.0134 1061.51 49.6359 1061.94 50.1981C1062.33 50.7102 1062.89 50.7704 1063.47 50.8708C1065.17 51.1619 1068.05 49.9572 1068.83 48.5617C1069.08 48.0798 1069.22 47.5175 1069.4 47.0055ZM1077.01 45.7305C1077.01 45.5598 1077.02 45.3992 1077.01 45.2285C1076.97 44.5859 1076.66 44.3149 1076.04 44.5257C1075.32 44.7867 1074.6 45.1281 1074.29 45.9413C1074.12 46.3931 1073.87 46.8248 1073.76 47.2967C1073.57 48.1199 1073.39 48.9532 1073.31 49.7965C1073.26 50.409 1073.79 50.8005 1074.29 50.5596C1074.74 50.3487 1075.22 50.0777 1075.52 49.6961C1076.45 48.5516 1076.98 47.2264 1077.01 45.7305Z" fill="#C4C4C4"/>
<path d="M1085.62 72.2052C1085.62 70.9703 1085.62 69.7856 1085.62 68.611C1085.03 69.2234 1084.5 69.8458 1083.88 70.3779C1083.02 71.1209 1081.99 71.0707 1081 70.6791C1080.19 70.3679 1079.83 69.5949 1079.97 68.5407C1080.19 66.9845 1080.82 65.6392 1082.2 64.7557C1083.11 64.1734 1084.12 63.822 1085.25 64.1634C1086.09 64.4244 1086.61 64.9565 1086.83 65.8199C1087.55 68.5808 1087.32 71.402 1087.3 74.193C1087.29 75.6387 1087.12 77.0945 1086.43 78.4197C1085.77 79.6948 1084.82 80.6486 1083.32 80.9297C1081.82 81.2108 1080.65 80.4277 1080.35 78.9619C1080.07 77.5563 1080.2 76.1709 1080.73 74.8356C1081.32 73.3899 1082.51 72.7674 1083.99 72.5064C1084.52 72.416 1085.07 72.3056 1085.62 72.2052ZM1085.71 73.2694C1084.89 73.4702 1084.12 73.5706 1083.42 73.8517C1082.91 74.0625 1082.35 74.4139 1082.08 74.8657C1081.34 76.1006 1081.21 77.4861 1081.56 78.8816C1081.79 79.7952 1082.67 80.0863 1083.48 79.5643C1084.16 79.1225 1084.66 78.5402 1085 77.7872C1085.65 76.3516 1085.59 74.8356 1085.71 73.2694ZM1084.97 65.087C1084.78 65.087 1084.61 65.0569 1084.47 65.087C1082.39 65.5689 1081.55 67.5668 1081.55 69.1832C1081.55 69.5447 1081.8 69.8057 1082.18 69.7756C1082.5 69.7555 1082.87 69.6852 1083.12 69.5045C1084.58 68.4001 1085.27 66.9544 1084.97 65.087Z" fill="#C4C4C4"/>
<path d="M1054.79 58.6214C1055.51 58.4909 1056.21 58.3203 1056.93 58.25C1058.74 58.0793 1059.96 58.762 1060.6 60.4487C1060.92 61.3221 1061.07 62.2859 1061.22 63.2196C1061.6 65.5689 1060.66 67.5066 1059.2 69.3037C1057.91 70.91 1056.5 72.3557 1054.64 73.3196C1054.41 73.44 1054.12 73.5003 1053.87 73.4701C1053.51 73.44 1053.39 73.169 1053.38 72.8176C1053.38 71.5726 1053.39 70.3177 1053.33 69.0728C1053.25 67.1251 1053.06 65.1774 1053.01 63.2196C1052.98 62.0048 1053.07 60.78 1053.17 59.5652C1053.21 59.1335 1053.43 58.7118 1053.58 58.2901C1053.73 57.8885 1054.07 57.7279 1054.42 57.8584C1054.61 57.9287 1054.67 58.3002 1054.78 58.5311C1054.79 58.5913 1054.79 58.6415 1054.79 58.6214ZM1055.17 71.3116C1056.26 70.5285 1056.99 69.5245 1057.82 68.6009C1059.48 66.7536 1059.94 64.6151 1059.49 62.2659C1059.37 61.6233 1059.14 60.9808 1058.86 60.3884C1058.51 59.6756 1057.92 59.1837 1057.06 59.1837C1056.64 59.1837 1056.21 59.2339 1055.8 59.3242C1054.76 59.5451 1054.64 59.7158 1054.62 60.7499C1054.62 60.8302 1054.62 60.9205 1054.62 61.0009C1054.53 63.812 1054.75 66.603 1055.01 69.394C1055.05 70.0065 1055.11 70.6289 1055.17 71.3116Z" fill="#C4C4C4"/>
<path d="M1090.51 45.9113C1090.69 44.8873 1090.87 43.9436 1091.04 42.9898C1091.28 41.6947 1091.5 40.3996 1091.78 39.1145C1091.85 38.7631 1092.08 38.4217 1092.31 38.1306C1092.4 38.0201 1092.73 37.9599 1092.85 38.0302C1093.01 38.1105 1093.15 38.3715 1093.14 38.5422C1093.03 39.7871 1092.9 41.022 1092.73 42.2569C1092.52 43.793 1092.27 45.319 1092.04 46.845C1092.02 46.9956 1091.98 47.1362 1091.96 47.2868C1091.91 47.608 1091.91 47.8691 1092.32 48.0398C1092.89 48.2807 1092.91 48.8128 1092.47 49.375C1092.31 49.5859 1092.14 49.8268 1092.07 50.0879C1091.97 50.5296 1091.59 50.7304 1091.3 50.6601C1090.67 50.5095 1090.22 50.881 1089.72 51.0416C1088.66 51.4031 1087.61 51.3729 1086.57 51.0416C1085.87 50.8207 1085.54 50.2987 1085.5 49.5557C1085.44 48.4112 1085.72 47.347 1086.27 46.333C1086.98 45.0379 1088.63 44.6664 1089.97 45.5098C1090.13 45.6302 1090.29 45.7507 1090.51 45.9113ZM1090.33 48.2707C1090.54 47.3972 1089.93 46.8551 1089.25 46.4033C1088.63 46.0017 1088.07 46.1925 1087.73 46.825C1087.28 47.6582 1087.07 48.5217 1087.1 49.4754C1087.11 49.9071 1087.29 50.1381 1087.69 50.0979C1088.35 50.0477 1088.99 49.9473 1089.64 49.8369C1090.15 49.7465 1090.54 49.5457 1090.33 48.9032C1090.29 48.7425 1090.33 48.5417 1090.33 48.2707Z" fill="#C4C4C4"/>
<path d="M1094.52 65.4487C1094 66.0009 1093.46 66.4828 1093.03 67.035C1092.63 67.547 1092.33 68.1393 1092 68.7016C1091.74 69.1533 1091.61 69.6152 1091.7 70.1774C1091.78 70.7095 1091.71 71.2817 1091.58 71.8139C1091.52 72.0749 1091.24 72.356 1090.99 72.5066C1090.57 72.7475 1090.07 72.5367 1090.01 72.0648C1089.93 71.5327 1090.02 70.9806 1090.03 70.4284C1090.04 70.0368 1090.08 69.6352 1090.06 69.2437C1089.98 67.8281 1089.92 66.4125 1090.31 65.017C1090.4 64.7058 1090.51 64.4548 1090.92 64.4748C1091.32 64.4949 1091.38 64.7861 1091.41 65.0672C1091.48 65.6595 1091.53 66.2619 1091.59 66.9446C1091.71 66.794 1091.79 66.6836 1091.88 66.5932C1092.48 65.9607 1093.04 65.278 1093.71 64.7258C1094.5 64.0833 1095.43 64.2138 1096.03 65.0371C1096.35 65.4889 1096.64 66.0812 1096.66 66.6233C1096.75 68.6514 1096.72 70.6894 1096.74 72.7275C1096.74 72.7777 1096.74 72.8279 1096.72 72.8781C1096.56 73.2094 1096.65 73.7616 1096.04 73.7114C1095.39 73.6511 1095.11 73.2696 1095.12 72.6271C1095.17 70.9203 1095.22 69.2236 1095.21 67.5169C1095.2 66.8442 1095.18 66.1314 1094.52 65.4487Z" fill="#C4C4C4"/>
<path d="M1061.83 68.5808C1062.17 67.6772 1062.38 66.7536 1062.84 65.9805C1063.26 65.2577 1063.91 64.6653 1064.53 64.073C1064.76 63.8421 1065.14 63.7116 1065.48 63.6312C1066.73 63.3301 1067.57 64.0128 1067.52 65.2677C1067.46 66.4926 1067.01 67.5066 1065.94 68.1993C1065.3 68.6109 1064.64 68.9924 1064 69.4041C1063.8 69.5346 1063.43 69.4844 1063.47 69.896C1063.51 70.3277 1063.56 70.8197 1064.03 70.9401C1064.53 71.0807 1065.15 71.2012 1065.6 71.0305C1066.57 70.6691 1067.47 70.1169 1068.42 69.6751C1068.56 69.6049 1068.84 69.6551 1068.95 69.7655C1069.04 69.8458 1069.04 70.1771 1068.96 70.2474C1067.82 71.2012 1066.67 72.1851 1065.06 72.2252C1064.41 72.2453 1063.73 72.1349 1063.1 71.9441C1062.43 71.7333 1062.08 71.1409 1061.94 70.4683C1061.88 70.1671 1061.81 69.9462 1061.47 69.7956C1061.11 69.645 1060.98 69.2735 1061.15 68.9021C1061.28 68.5808 1061.52 68.3901 1061.83 68.5808ZM1063.62 68.621C1064.3 68.1591 1064.87 67.7877 1065.44 67.3961C1066.1 66.9343 1066.47 66.2918 1066.49 65.4986C1066.5 65.2075 1066.39 64.9063 1066.33 64.6051C1066.05 64.7256 1065.72 64.8059 1065.49 64.9866C1064.35 65.8601 1063.8 67.0648 1063.62 68.621Z" fill="#C4C4C4"/>
<path d="M1079.92 45.6101C1079.78 45.4896 1079.61 45.4093 1079.53 45.2688C1079.47 45.1382 1079.44 44.8973 1079.52 44.7969C1080.03 44.1644 1080.55 43.552 1081.08 42.9496C1081.54 42.4175 1082.16 42.1565 1082.84 42.0159C1083.67 41.8553 1084.35 42.2468 1084.45 43.0701C1084.56 43.9636 1084.56 44.8672 1084.55 45.7707C1084.53 47.618 1084.06 49.3549 1082.94 50.8508C1082.51 51.4231 1081.96 51.9251 1081.37 52.3267C1080.29 53.0596 1079.03 52.5977 1078.59 51.3829C1078.39 50.8207 1078.31 50.2585 1078.47 49.6762C1078.66 48.9834 1078.8 48.2807 1079.04 47.608C1079.28 46.9353 1079.62 46.2928 1079.92 45.6101ZM1081.35 44.1744C1081.41 44.2045 1081.48 44.2347 1081.54 44.2648C1081.56 44.5057 1081.65 44.7668 1081.59 44.9776C1081.4 45.6101 1081.16 46.2426 1080.89 46.845C1080.33 48.0799 1080 49.375 1079.9 50.7002C1079.87 51.0115 1080.04 51.4733 1080.27 51.654C1080.6 51.905 1080.96 51.6138 1081.26 51.3729C1082.8 50.128 1083.46 48.4714 1083.62 46.594C1083.71 45.5197 1083.69 44.4254 1083.66 43.3411C1083.64 42.8392 1083.41 42.7388 1082.98 42.9998C1082.4 43.3512 1081.89 43.7829 1081.35 44.1744Z" fill="#C4C4C4"/>
<path d="M1075.37 65.3582C1075.4 64.7458 1075.07 64.4747 1074.45 64.6755C1073.61 64.9466 1072.84 65.4084 1072.34 66.1714C1072.1 66.5429 1072.09 66.8541 1072.55 67.1252C1073.28 67.5469 1074.01 67.9886 1074.67 68.5107C1075 68.7617 1075.28 69.1632 1075.42 69.5448C1075.62 70.1271 1075.32 70.6893 1074.73 71.0306C1073.67 71.643 1072.48 71.874 1071.27 71.9844C1070.68 72.0446 1070.12 71.5527 1070.06 70.9804C1070.05 70.8298 1070.15 70.5487 1070.24 70.5387C1070.42 70.4985 1070.64 70.5889 1070.83 70.6491C1071.01 70.6993 1071.19 70.8599 1071.32 70.8298C1072.08 70.6491 1072.83 70.4584 1073.56 70.1973C1074.02 70.0367 1074.05 69.8058 1073.68 69.5046C1073.22 69.113 1072.7 68.7918 1072.2 68.4504C1071.87 68.2195 1071.5 68.0388 1071.18 67.7878C1070.61 67.3461 1070.45 66.7537 1070.72 66.0811C1070.81 65.8502 1070.91 65.6092 1071.08 65.4184C1071.88 64.5149 1072.86 63.8221 1074.07 63.6213C1074.59 63.531 1075.21 63.7318 1075.73 63.9426C1076.3 64.1735 1076.46 65.3783 1076.04 65.8602C1075.96 65.9606 1075.74 65.9807 1075.59 65.9606C1075.5 65.9505 1075.4 65.8 1075.36 65.6996C1075.34 65.569 1075.37 65.4285 1075.37 65.3582Z" fill="#C4C4C4"/>
<path d="M1078.93 64.7055C1078.81 65.8299 1078.67 66.9845 1078.57 68.1491C1078.5 68.9623 1078.43 69.7655 1078.77 70.5586C1078.96 71.0104 1078.55 71.2112 1078.24 71.412C1077.94 71.6128 1077.61 71.5526 1077.47 71.2313C1077.27 70.8197 1077.01 70.3578 1077.03 69.9261C1077.11 68.3499 1077.26 66.7737 1077.46 65.2075C1077.5 64.846 1077.78 64.5248 1077.94 64.1734C1078.07 63.8722 1078.32 63.7417 1078.59 63.8822C1078.76 63.9726 1078.83 64.2236 1078.92 64.4143C1078.95 64.4846 1078.93 64.585 1078.93 64.7055Z" fill="#C4C4C4"/>
<path d="M1075.14 61.0211C1075.28 60.4489 1075.66 60.3485 1076.06 60.3685C1076.97 60.4087 1077.9 60.4991 1078.81 60.5894C1079.27 60.6296 1079.73 60.6697 1080.16 60.7902C1080.42 60.8605 1080.72 61.0513 1080.85 61.2721C1080.97 61.4528 1080.94 61.8845 1080.8 61.9749C1080.62 62.1054 1080.26 62.0853 1080 62.0351C1079.59 61.9548 1079.2 61.734 1078.78 61.6737C1077.72 61.5131 1076.66 61.4127 1075.59 61.2721C1075.44 61.242 1075.3 61.1014 1075.14 61.0211Z" fill="#C4C4C4"/>
<path d="M1095.52 59.5151C1095.63 59.2741 1095.76 58.9127 1095.92 58.5714C1096.44 57.4871 1096.95 56.4028 1097.5 55.3386C1097.56 55.2181 1097.84 55.1378 1098.01 55.1579C1098.12 55.1679 1098.31 55.4189 1098.29 55.5193C1098.18 55.961 1098.04 56.4128 1097.85 56.8245C1097.46 57.6176 1097.01 58.3806 1096.6 59.1637C1096.51 59.3444 1096.4 59.5854 1096.45 59.7661C1096.54 60.1376 1096.37 60.3785 1096.08 60.3685C1095.9 60.3685 1095.73 60.0372 1095.58 59.8464C1095.5 59.7962 1095.53 59.7159 1095.52 59.5151Z" fill="#C4C4C4"/>
<path d="M1104 60.8704C1104.01 61.3824 1103.71 61.6736 1103.28 61.6234C1102.03 61.4828 1100.86 61.7539 1099.73 62.2458C1099.4 62.3964 1099.15 62.3764 1098.98 62.1053C1098.79 61.7639 1099.12 61.6334 1099.35 61.523C1100.45 61.0009 1101.61 60.7399 1102.82 60.6495C1103.03 60.6294 1103.22 60.5893 1103.42 60.5391C1103.85 60.4086 1104.01 60.5793 1104 60.8704Z" fill="#C4C4C4"/>
<path d="M1100.96 57.1757C1101.39 57.1657 1101.58 57.3464 1101.4 57.6375C1101.17 57.9989 1100.88 58.3202 1100.55 58.6114C1100.16 58.9527 1099.7 59.2238 1099.31 59.5651C1099.12 59.7358 1099.01 59.9968 1098.84 60.1976C1098.71 60.3482 1098.52 60.4687 1098.37 60.5992C1098.26 60.3784 1097.99 60.0772 1098.06 59.9567C1098.32 59.5049 1098.65 59.0632 1099.02 58.6917C1099.52 58.2098 1100.08 57.7982 1100.61 57.3664C1100.72 57.266 1100.89 57.2158 1100.96 57.1757Z" fill="#C4C4C4"/>
</g>
<g clip-path="url(#clip8_540_11482)">
<path d="M1112.47 461.138C1112.88 462.196 1113.21 463.2 1113.67 464.139C1114.74 466.294 1115.62 468.515 1115.88 470.921C1116.17 473.657 1115.97 476.367 1115.13 479.011C1114.71 480.32 1114.3 481.642 1113.82 482.938C1113.6 483.546 1113.12 483.731 1112.7 483.467C1112.21 483.162 1112.38 482.766 1112.55 482.33C1113.5 479.884 1114.22 477.385 1114.44 474.755C1114.64 472.335 1114.47 469.956 1113.64 467.669C1113.27 466.637 1112.74 465.659 1112.34 464.641C1111.88 463.465 1111.46 462.262 1111.09 461.059C1111.02 460.86 1111.23 460.517 1111.4 460.331C1112.02 459.684 1112.33 458.957 1112.23 458.058C1112.17 457.331 1111.46 456.432 1110.73 456.339C1110.44 456.299 1110.02 456.392 1109.83 456.59C1108.51 457.939 1107.66 459.525 1107.81 461.482C1107.86 462.196 1108.03 462.883 1108.89 463.094C1109 463.121 1109.13 463.319 1109.13 463.438C1109.14 463.755 1109.13 464.099 1109.04 464.403C1108.56 466.016 1107.91 467.602 1107.58 469.242C1107.04 471.952 1106.59 474.688 1106.28 477.425C1106.09 479.064 1106.2 480.743 1106.22 482.409C1106.24 482.951 1105.99 483.176 1105.54 483.295C1105.05 483.44 1104.85 483.07 1104.82 482.726C1104.73 481.365 1104.55 479.99 1104.69 478.654C1105.03 475.667 1105.55 472.705 1106.01 469.731C1106.34 467.642 1106.91 465.619 1107.84 463.703C1107.89 463.584 1107.86 463.359 1107.77 463.253C1106.83 462.156 1106.75 460.86 1107.11 459.578C1107.45 458.335 1107.98 457.159 1108.88 456.154C1109.42 455.546 1110.07 455.308 1110.79 455.295C1111.86 455.268 1113.52 456.365 1113.64 457.767C1113.78 459.433 1113.36 460.146 1112.47 461.138Z" fill="#C4C4C4"/>
<path d="M1058.76 462.711C1059.12 463.359 1059.44 463.94 1059.77 464.509C1061.16 466.915 1061.44 469.612 1061.97 472.256C1062.43 474.609 1062.18 476.949 1062.06 479.289C1062.01 480.333 1061.74 481.364 1061.57 482.409C1061.49 482.858 1061.29 483.228 1060.78 483.176C1060.27 483.123 1060.05 482.62 1060.16 482.052C1060.67 479.381 1061.03 476.671 1060.71 473.988C1060.35 470.934 1060 467.827 1058.52 465.025C1058.24 464.509 1058.12 463.914 1057.95 463.425C1057.63 463.306 1057.37 463.213 1057.09 463.121C1057.21 462.804 1057.26 462.433 1057.45 462.182C1058.54 460.702 1059.14 459.076 1059.07 457.211C1059.03 456.101 1058.04 455.189 1057.21 455.281C1056.55 455.361 1055.82 456.088 1055.39 456.709C1055 457.264 1054.92 458.071 1054.83 458.785C1054.74 459.499 1054.78 460.239 1054.83 460.966C1054.87 461.561 1054.99 462.156 1055.76 462.301C1055.87 462.328 1055.95 462.539 1056.05 462.671C1055.89 462.79 1055.68 463.042 1055.57 463.015C1055.21 462.909 1054.82 462.751 1054.55 462.499C1054.3 462.248 1054.12 461.865 1054.07 461.508C1053.76 459.67 1053.8 457.846 1054.63 456.154C1055.12 455.162 1056.03 454.541 1057.06 454.25C1058.27 453.92 1060.46 455.281 1060.53 456.974C1060.59 459.274 1060.26 460.345 1058.76 462.711Z" fill="#C4C4C4"/>
<path d="M1096.53 463.465C1096.35 463.332 1096.2 463.174 1096.01 463.081C1095.34 462.764 1094.61 462.539 1093.98 462.143C1093.55 461.878 1093.24 461.429 1092.93 461.019C1092.85 460.913 1092.95 460.556 1093.07 460.464C1093.2 460.371 1093.55 460.358 1093.66 460.464C1094.64 461.495 1095.97 461.838 1097.2 462.42C1097.99 462.79 1098.14 463.703 1097.54 464.377C1096.34 465.738 1094.91 466.849 1093.33 467.735C1093.07 467.88 1092.46 467.906 1092.33 467.748C1091.99 467.351 1092.35 466.955 1092.7 466.703C1093.47 466.135 1094.28 465.619 1095.07 465.077C1095.06 465.011 1095.03 464.958 1095.02 464.892C1094.37 464.892 1093.74 464.919 1093.09 464.892C1089.84 464.734 1086.58 464.681 1083.35 464.337C1080.14 463.993 1076.96 463.848 1073.75 464.271C1072.94 464.377 1072.14 464.509 1071.33 464.549C1071.09 464.562 1070.84 464.324 1070.59 464.205C1070.78 464.033 1070.95 463.729 1071.17 463.703C1074.65 463.147 1078.12 462.658 1081.66 463.16C1086.27 463.808 1090.91 463.98 1095.55 463.848C1095.85 463.835 1096.14 463.742 1096.43 463.689C1096.47 463.597 1096.5 463.531 1096.53 463.465Z" fill="#C4C4C4"/>
<path d="M1075.11 473.406C1075.85 473.908 1076.58 474.411 1077.32 474.9C1077.63 475.111 1078.11 475.323 1077.85 475.772C1077.59 476.222 1077.12 476.209 1076.68 475.944C1076.22 475.653 1075.72 475.402 1075.31 475.059C1074.16 474.094 1072.84 473.472 1071.46 472.943C1071.28 472.877 1071.09 472.785 1070.95 472.666C1070.45 472.229 1070.54 471.635 1071.2 471.397C1072.93 470.762 1074.66 470.141 1076.41 469.559C1076.64 469.48 1076.99 469.691 1077.28 469.757C1077.08 470.022 1076.95 470.418 1076.7 470.524C1075.59 470.987 1074.44 471.357 1073.3 471.767C1073.08 471.846 1072.86 471.939 1072.65 472.177C1072.86 472.229 1073.08 472.335 1073.29 472.335C1075.64 472.335 1077.99 472.335 1080.33 472.282C1083.04 472.229 1085.73 472.031 1088.43 472.058C1090.58 472.071 1092.72 472.335 1094.87 472.481C1095.34 472.507 1095.8 472.534 1096.26 472.56C1096.59 472.573 1097 472.52 1097 472.97C1097 473.089 1096.54 473.327 1096.29 473.314C1094.43 473.247 1092.56 473.102 1090.7 473.062C1088.11 473.009 1085.51 472.97 1082.92 473.036C1081.48 473.062 1080.04 473.353 1078.59 473.406C1077.62 473.446 1076.66 473.314 1075.69 473.247C1075.52 473.234 1075.35 473.247 1075.18 473.247C1075.15 473.314 1075.14 473.366 1075.11 473.406Z" fill="#C4C4C4"/>
<path d="M1051 476.856C1051.12 476.235 1051.33 475.006 1051.62 473.803C1052.03 472.15 1052.49 470.511 1052.98 468.872C1053.36 467.576 1053.79 466.28 1054.21 464.998C1054.36 464.562 1054.5 464.112 1054.77 463.742C1054.92 463.517 1055.28 463.451 1055.56 463.319C1055.65 463.597 1055.89 463.914 1055.82 464.165C1055.51 465.514 1055.15 466.836 1054.77 468.171C1054.38 469.493 1053.91 470.788 1053.54 472.11C1053.15 473.485 1052.7 474.86 1052.56 476.261C1052.41 477.782 1052.57 479.329 1052.62 480.862C1052.66 481.986 1052.77 483.096 1052.78 484.22C1052.78 484.484 1052.51 484.749 1052.36 485.013C1052.06 484.815 1051.67 484.669 1051.46 484.392C1051.29 484.18 1051.3 483.81 1051.29 483.506C1051.18 481.483 1051.11 479.487 1051 476.856Z" fill="#C4C4C4"/>
<path d="M1055.99 451.897C1055.16 451.791 1054.42 451.58 1053.92 450.932C1053.5 450.377 1053.09 449.795 1052.74 449.2C1052.6 448.936 1052.53 448.552 1052.59 448.262C1052.63 448.037 1052.88 447.772 1053.09 447.693C1053.21 447.653 1053.51 447.918 1053.63 448.116C1054.08 448.817 1054.49 449.544 1054.94 450.245C1055.33 450.866 1055.95 450.972 1056.56 450.668C1058.49 449.663 1059.96 448.262 1060.29 445.974C1060.31 445.803 1060.3 445.604 1060.39 445.459C1060.54 445.234 1060.74 445.062 1060.92 444.864C1061.09 445.115 1061.45 445.406 1061.41 445.618C1061.23 446.53 1061.05 447.495 1060.62 448.288C1059.86 449.623 1058.77 450.72 1057.34 451.421C1056.92 451.633 1056.44 451.738 1055.99 451.897Z" fill="#C4C4C4"/>
<path d="M1106.65 448.076C1106.65 447.944 1106.59 447.786 1106.66 447.693C1106.83 447.415 1107.02 447.032 1107.27 446.953C1107.73 446.821 1107.69 447.323 1107.8 447.614C1107.99 448.182 1108.13 448.804 1108.4 449.332C1108.83 450.139 1109.62 450.549 1110.48 450.681C1110.85 450.734 1111.38 450.549 1111.65 450.271C1112.92 448.989 1113.77 447.482 1113.86 445.631C1113.89 445.195 1114.06 444.824 1114.45 444.864C1114.64 444.877 1114.94 445.419 1114.9 445.67C1114.73 446.635 1114.56 447.627 1114.16 448.513C1113.78 449.359 1113.13 450.086 1112.55 450.826C1111.98 451.553 1111.2 451.844 1110.27 451.659C1108.52 451.315 1107.21 450.456 1106.71 448.658C1106.69 448.579 1106.66 448.486 1106.65 448.407C1106.63 448.301 1106.63 448.182 1106.65 448.076C1106.63 448.076 1106.65 448.076 1106.65 448.076Z" fill="#C4C4C4"/>
<path d="M1057.06 445.274C1056.23 445.195 1056.19 444.679 1056.18 444.256C1056.15 443.886 1056.15 443.423 1056.71 443.357C1057.1 443.317 1057.58 443.952 1057.55 444.653C1057.54 444.891 1057.2 445.115 1057.06 445.274Z" fill="#C4C4C4"/>
<path d="M1054.03 444.97C1054.21 444.415 1054.18 443.873 1054.79 443.886C1055.4 443.886 1055.54 444.454 1055.48 444.877C1055.43 445.195 1055 445.446 1054.74 445.723C1054.5 445.472 1054.26 445.221 1054.03 444.97Z" fill="#C4C4C4"/>
<path d="M1110.54 444.018C1110.16 444.335 1109.94 444.679 1109.67 444.705C1109.32 444.745 1108.85 444.6 1108.92 444.031C1108.98 443.555 1108.95 442.894 1109.65 443C1109.95 443.053 1110.17 443.582 1110.54 444.018Z" fill="#C4C4C4"/>
<path d="M1111.65 444.93C1111.05 444.864 1110.94 444.547 1110.97 444.19C1110.99 443.74 1110.91 443.132 1111.57 443.132C1112.17 443.132 1112.26 443.74 1112.25 444.163C1112.23 444.428 1111.86 444.679 1111.65 444.93Z" fill="#C4C4C4"/>
</g>
<defs>
<filter id="filter0_d_540_11482" x="853.768" y="120.913" width="129.278" height="129.278" filterUnits="userSpaceOnUse" color-interpolation-filters="sRGB">
<feFlood flood-opacity="0" result="BackgroundImageFix"/>
<feColorMatrix in="SourceAlpha" type="matrix" values="0 0 0 0 0 0 0 0 0 0 0 0 0 0 0 0 0 0 127 0" result="hardAlpha"/>
<feOffset dy="4"/>
<feGaussianBlur stdDeviation="2"/>
<feComposite in2="hardAlpha" operator="out"/>
<feColorMatrix type="matrix" values="0 0 0 0 0 0 0 0 0 0 0 0 0 0 0 0 0 0 0.25 0"/>
<feBlend mode="normal" in2="BackgroundImageFix" result="effect1_dropShadow_540_11482"/>
<feBlend mode="normal" in="SourceGraphic" in2="effect1_dropShadow_540_11482" result="shape"/>
</filter>
<filter id="filter1_d_540_11482" x="79.4641" y="169.074" width="214.409" height="214.409" filterUnits="userSpaceOnUse" color-interpolation-filters="sRGB">
<feFlood flood-opacity="0" result="BackgroundImageFix"/>
<feColorMatrix in="SourceAlpha" type="matrix" values="0 0 0 0 0 0 0 0 0 0 0 0 0 0 0 0 0 0 127 0" result="hardAlpha"/>
<feOffset dy="4"/>
<feGaussianBlur stdDeviation="2"/>
<feComposite in2="hardAlpha" operator="out"/>
<feColorMatrix type="matrix" values="0 0 0 0 0 0 0 0 0 0 0 0 0 0 0 0 0 0 0.25 0"/>
<feBlend mode="normal" in2="BackgroundImageFix" result="effect1_dropShadow_540_11482"/>
<feBlend mode="normal" in="SourceGraphic" in2="effect1_dropShadow_540_11482" result="shape"/>
</filter>
<filter id="filter2_d_540_11482" x="554.747" y="252.747" width="150.419" height="150.419" filterUnits="userSpaceOnUse" color-interpolation-filters="sRGB">
<feFlood flood-opacity="0" result="BackgroundImageFix"/>
<feColorMatrix in="SourceAlpha" type="matrix" values="0 0 0 0 0 0 0 0 0 0 0 0 0 0 0 0 0 0 127 0" result="hardAlpha"/>
<feOffset dy="4"/>
<feGaussianBlur stdDeviation="2"/>
<feComposite in2="hardAlpha" operator="out"/>
<feColorMatrix type="matrix" values="0 0 0 0 0 0 0 0 0 0 0 0 0 0 0 0 0 0 0.25 0"/>
<feBlend mode="normal" in2="BackgroundImageFix" result="effect1_dropShadow_540_11482"/>
<feBlend mode="normal" in="SourceGraphic" in2="effect1_dropShadow_540_11482" result="shape"/>
</filter>
<filter id="filter3_d_540_11482" x="326.933" y="10.7803" width="104.061" height="104.061" filterUnits="userSpaceOnUse" color-interpolation-filters="sRGB">
<feFlood flood-opacity="0" result="BackgroundImageFix"/>
<feColorMatrix in="SourceAlpha" type="matrix" values="0 0 0 0 0 0 0 0 0 0 0 0 0 0 0 0 0 0 127 0" result="hardAlpha"/>
<feOffset dy="4"/>
<feGaussianBlur stdDeviation="2"/>
<feComposite in2="hardAlpha" operator="out"/>
<feColorMatrix type="matrix" values="0 0 0 0 0 0 0 0 0 0 0 0 0 0 0 0 0 0 0.25 0"/>
<feBlend mode="normal" in2="BackgroundImageFix" result="effect1_dropShadow_540_11482"/>
<feBlend mode="normal" in="SourceGraphic" in2="effect1_dropShadow_540_11482" result="shape"/>
</filter>
<linearGradient id="paint0_linear_540_11482" x1="918.407" y1="120.923" x2="918.407" y2="242.181" gradientUnits="userSpaceOnUse">
<stop stop-color="#FF51E3"/>
<stop offset="1" stop-color="#905DFB"/>
</linearGradient>
<linearGradient id="paint1_linear_540_11482" x1="186.669" y1="169.091" x2="186.669" y2="375.466" gradientUnits="userSpaceOnUse">
<stop stop-color="#6F40D3"/>
<stop offset="1" stop-color="#905DFB"/>
</linearGradient>
<linearGradient id="paint2_linear_540_11482" x1="629.957" y1="252.758" x2="629.957" y2="395.154" gradientUnits="userSpaceOnUse">
<stop stop-color="#FF746D"/>
<stop offset="1" stop-color="#FFE100"/>
</linearGradient>
<linearGradient id="paint3_linear_540_11482" x1="428.897" y1="63.3058" x2="325.412" y2="54.5052" gradientUnits="userSpaceOnUse">
<stop stop-color="#329A29"/>
<stop offset="1" stop-color="#329A29"/>
</linearGradient>
<clipPath id="clip0_540_11482">
<rect width="50" height="42" fill="white" transform="translate(5 441)"/>
</clipPath>
<clipPath id="clip1_540_11482">
<rect width="50" height="42" fill="white" transform="translate(5 441)"/>
</clipPath>
<clipPath id="clip2_540_11482">
<rect width="44" height="14" fill="white" transform="translate(0 176)"/>
</clipPath>
<clipPath id="clip3_540_11482">
<rect width="44" height="15" fill="white" transform="translate(1063 316)"/>
</clipPath>
<clipPath id="clip4_540_11482">
<rect width="34" height="35" fill="white" transform="translate(3 303)"/>
</clipPath>
<clipPath id="clip5_540_11482">
<rect width="35" height="36" fill="white" transform="translate(1062 168)"/>
</clipPath>
<clipPath id="clip6_540_11482">
<rect width="27" height="45" fill="white" transform="translate(5 34)"/>
</clipPath>
<clipPath id="clip7_540_11482">
<rect width="51" height="43" fill="white" transform="translate(1053 38)"/>
</clipPath>
<clipPath id="clip8_540_11482">
<rect width="65" height="42" fill="white" transform="translate(1051 443)"/>
</clipPath>
</defs>
</svg>
