<svg width="400" height="500" viewBox="0 0 400 500" fill="none" xmlns="http://www.w3.org/2000/svg">
<g filter="url(#filter0_d_2103_26367)">
<ellipse rx="36.4808" ry="55.2096" transform="matrix(-0.51587 -0.856667 0.196802 -0.980443 329.178 187.167)" fill="url(#paint0_linear_2103_26367)"/>
</g>
<g filter="url(#filter1_d_2103_26367)">
<ellipse rx="62.0887" ry="93.9643" transform="matrix(0.51587 0.856667 -0.196802 0.980443 66.9062 280.699)" fill="url(#paint1_linear_2103_26367)"/>
</g>
<g filter="url(#filter2_d_2103_26367)">
<ellipse rx="42.8403" ry="64.834" transform="matrix(0.51587 0.856667 -0.196802 0.980443 225.791 333.976)" fill="url(#paint2_linear_2103_26367)"/>
</g>
<g filter="url(#filter3_d_2103_26367)">
<ellipse rx="20.9889" ry="48.0239" transform="matrix(0.792062 -0.610441 0.0927563 0.995689 135.829 60.6292)" fill="url(#paint3_linear_2103_26367)"/>
</g>
<g clip-path="url(#clip0_2103_26367)">
<path d="M7.55499 463.707C7.14132 463.707 6.74923 463.707 6.35354 463.707C6.31757 463.707 6.278 463.707 6.24562 463.667C6.12691 463.525 5.99022 463.343 6.03339 462.929C6.07655 462.525 6.20965 462.616 6.34634 462.636C6.67728 462.707 7.01182 462.696 7.34276 462.636C7.72406 462.575 8.10177 462.403 8.48307 462.343C8.55501 462.333 8.63415 462.585 8.72408 462.747C8.74926 462.595 8.80322 462.333 8.83919 462.06C9.00825 460.826 9.32481 460.159 9.79244 460.068C9.89316 460.048 9.99748 459.997 10.0946 460.038C10.4435 460.149 10.6162 460.725 10.6306 462.029C10.6558 464.041 10.4291 465.871 9.95791 467.367C9.7133 468.135 9.39315 468.732 8.97228 468.449C8.58019 468.196 8.32119 467.135 8.40033 466.023C8.46148 465.153 8.52983 464.294 8.59458 463.414C8.45789 463.434 8.30321 463.445 8.15213 463.515C8.10536 463.536 8.04061 463.738 8.02982 463.879C7.95788 464.9 7.88594 465.921 7.84277 466.953C7.7996 467.994 7.74565 469.055 7.88953 470.087C7.9291 470.38 7.6773 470.774 7.53701 470.643C7.37873 470.491 7.31398 470.117 7.2996 469.712C7.27801 469.116 7.28161 468.509 7.27801 467.903C7.27801 467.711 7.28521 467.509 7.2924 467.246C7.09456 467.549 6.91829 467.812 6.73844 468.085C6.18087 468.924 5.59453 468.974 4.9938 468.57C4.50818 468.236 4.12688 466.74 4.13767 465.092C4.14847 462.747 4.43264 460.654 4.92186 458.774C5.28517 457.369 5.75641 456.449 6.32836 455.953C6.60894 455.711 6.90031 455.62 7.19528 455.832C7.51183 456.055 7.6773 456.611 7.6701 457.531C7.66651 458.117 7.64492 458.703 7.62334 459.29C7.61255 459.542 7.59097 459.795 7.46147 459.755C7.33557 459.724 7.34636 459.461 7.34636 459.239C7.34996 458.916 7.36075 458.602 7.37154 458.279C7.4183 457.065 7.19528 456.509 6.77081 456.752C6.35354 456.985 5.99022 457.531 5.69525 458.37C5.04776 460.199 4.73121 462.464 4.68804 465.022C4.67725 465.729 4.78157 466.356 4.93265 466.922C5.06934 467.438 5.26719 467.498 5.47223 467.6C6.06936 467.893 7.08017 466.68 7.35355 465.274C7.44348 464.789 7.49025 464.223 7.55499 463.707ZM10.2277 462.424C10.2277 462.252 10.2313 462.09 10.2277 461.918C10.2169 461.271 10.1054 460.998 9.88956 461.21C9.63416 461.473 9.38236 461.817 9.27445 462.636C9.21329 463.091 9.12696 463.525 9.08739 464.001C9.01905 464.83 8.95789 465.669 8.92912 466.518C8.91113 467.135 9.09818 467.529 9.27445 467.286C9.43272 467.074 9.60179 466.801 9.70611 466.417C10.0335 465.264 10.2205 463.93 10.2277 462.424Z" fill="#C4C4C4"/>
<path d="M13.2565 489.082C13.2565 487.839 13.2565 486.646 13.2565 485.463C13.0479 486.08 12.8608 486.707 12.645 487.242C12.3428 487.991 11.9795 487.94 11.6306 487.546C11.3464 487.232 11.2205 486.454 11.2709 485.392C11.3464 483.825 11.5694 482.471 12.0514 481.581C12.3716 480.995 12.7277 480.641 13.1234 480.985C13.4184 481.247 13.6018 481.783 13.681 482.653C13.9328 485.433 13.8536 488.274 13.8464 491.084C13.8428 492.54 13.7817 494.006 13.5407 495.34C13.3069 496.624 12.9723 497.584 12.4471 497.867C11.9183 498.151 11.5083 497.362 11.404 495.886C11.3032 494.471 11.35 493.076 11.537 491.731C11.7421 490.275 12.163 489.648 12.681 489.386C12.868 489.295 13.0623 489.183 13.2565 489.082ZM13.2853 490.154C12.9975 490.356 12.7277 490.457 12.4831 490.74C12.3032 490.953 12.1054 491.306 12.0119 491.761C11.7493 493.005 11.7061 494.4 11.8284 495.805C11.9076 496.725 12.2169 497.018 12.5011 496.493C12.7421 496.048 12.9184 495.461 13.0371 494.703C13.2637 493.258 13.2457 491.731 13.2853 490.154ZM13.0263 481.915C12.9579 481.915 12.9004 481.884 12.85 481.915C12.1198 482.4 11.8248 484.412 11.8248 486.039C11.8248 486.403 11.9112 486.666 12.0442 486.636C12.1594 486.616 12.2889 486.545 12.3752 486.363C12.8896 485.251 13.1306 483.795 13.0263 481.915Z" fill="#C4C4C4"/>
<path d="M2.42172 475.404C2.67352 475.273 2.92173 475.101 3.17353 475.03C3.81023 474.858 4.23829 475.546 4.46132 477.244C4.57643 478.124 4.62679 479.094 4.68075 480.034C4.81384 482.4 4.4829 484.351 3.9721 486.161C3.51886 487.778 3.02245 489.234 2.36776 490.204C2.28862 490.326 2.1843 490.386 2.09797 490.356C1.97207 490.326 1.92891 490.053 1.92531 489.699C1.92531 488.445 1.92891 487.182 1.90732 485.928C1.87854 483.967 1.8138 482.006 1.79581 480.034C1.78502 478.811 1.81739 477.578 1.85336 476.354C1.86775 475.92 1.94329 475.495 1.99725 475.071C2.04761 474.666 2.16992 474.504 2.29222 474.636C2.35697 474.707 2.37855 475.081 2.41812 475.313C2.42172 475.374 2.42172 475.424 2.42172 475.404ZM2.55481 488.183C2.93612 487.394 3.19511 486.383 3.48648 485.453C4.06923 483.593 4.2311 481.44 4.07282 479.074C4.02966 478.427 3.95052 477.78 3.8498 477.183C3.72749 476.466 3.52246 475.97 3.22029 475.97C3.07281 475.97 2.92173 476.021 2.77784 476.112C2.41093 476.334 2.36776 476.506 2.36057 477.547C2.36057 477.628 2.36057 477.719 2.36057 477.8C2.32819 480.631 2.40733 483.441 2.49726 486.252C2.51165 486.868 2.53323 487.495 2.55481 488.183Z" fill="#C4C4C4"/>
<path d="M14.9722 462.606C15.0369 461.574 15.0981 460.624 15.1592 459.664C15.242 458.36 15.3211 457.055 15.4182 455.761C15.4434 455.408 15.5261 455.064 15.6053 454.771C15.6377 454.659 15.7528 454.599 15.7959 454.67C15.8499 454.75 15.9003 455.013 15.8967 455.185C15.8571 456.439 15.8139 457.682 15.7528 458.926C15.6808 460.472 15.5909 462.009 15.5118 463.546C15.5046 463.697 15.4902 463.839 15.483 463.991C15.465 464.314 15.465 464.577 15.6089 464.749C15.8103 464.991 15.8175 465.527 15.6628 466.093C15.6053 466.306 15.5441 466.548 15.5226 466.811C15.4866 467.256 15.3535 467.458 15.2492 467.387C15.0297 467.236 14.8715 467.61 14.6952 467.771C14.3211 468.135 13.9542 468.105 13.5873 467.771C13.3427 467.549 13.2276 467.023 13.2132 466.275C13.1916 465.123 13.2887 464.051 13.483 463.03C13.7312 461.726 14.3139 461.352 14.7815 462.201C14.8391 462.322 14.8966 462.444 14.9722 462.606ZM14.911 464.981C14.983 464.102 14.7707 463.556 14.5297 463.101C14.3139 462.696 14.1161 462.889 13.9973 463.525C13.8391 464.365 13.7635 465.234 13.7743 466.194C13.7779 466.629 13.8427 466.862 13.983 466.821C14.2132 466.771 14.4398 466.67 14.6664 466.558C14.8463 466.467 14.983 466.265 14.911 465.618C14.8966 465.456 14.911 465.254 14.911 464.981Z" fill="#C4C4C4"/>
<path d="M16.3825 482.279C16.199 482.835 16.0084 483.32 15.8573 483.876C15.717 484.391 15.6127 484.988 15.4976 485.554C15.404 486.009 15.3609 486.474 15.3897 487.04C15.4184 487.576 15.3933 488.152 15.3501 488.688C15.3285 488.951 15.2314 489.234 15.1414 489.386C14.994 489.628 14.8177 489.416 14.7961 488.941C14.7709 488.405 14.7997 487.849 14.8033 487.293C14.8069 486.899 14.8213 486.494 14.8141 486.1C14.7853 484.675 14.7673 483.249 14.904 481.844C14.9328 481.53 14.9724 481.278 15.1163 481.298C15.2566 481.318 15.2781 481.611 15.2889 481.894C15.3141 482.491 15.3321 483.097 15.3537 483.785C15.3933 483.633 15.422 483.522 15.4544 483.431C15.6666 482.794 15.8609 482.107 16.0983 481.551C16.3753 480.904 16.7026 481.035 16.9113 481.864C17.0264 482.319 17.1271 482.915 17.1343 483.461C17.1667 485.503 17.1559 487.556 17.1631 489.608C17.1631 489.658 17.1631 489.709 17.1559 489.76C17.0983 490.093 17.1307 490.649 16.9149 490.599C16.6882 490.538 16.5911 490.154 16.5947 489.507C16.6091 487.788 16.6271 486.08 16.6235 484.361C16.6199 483.684 16.6127 482.966 16.3825 482.279Z" fill="#C4C4C4"/>
<path d="M4.89649 485.433C5.01519 484.523 5.08714 483.593 5.24901 482.814C5.39649 482.086 5.62671 481.49 5.84254 480.893C5.92528 480.661 6.05837 480.53 6.17708 480.449C6.61594 480.145 6.91091 480.833 6.89292 482.096C6.87493 483.33 6.71666 484.351 6.33895 485.048C6.11593 485.463 5.88211 485.847 5.65909 486.262C5.58714 486.393 5.45765 486.342 5.47203 486.757C5.48642 487.192 5.50441 487.687 5.66628 487.808C5.84254 487.95 6.06197 488.071 6.22025 487.899C6.56198 487.535 6.87853 486.979 7.20947 486.535C7.25983 486.464 7.35696 486.514 7.39652 486.626C7.4289 486.706 7.4289 487.04 7.40012 487.111C7.00083 488.071 6.59435 489.062 6.0296 489.102C5.80297 489.123 5.56196 489.011 5.34254 488.819C5.10512 488.607 4.98282 488.011 4.93246 487.333C4.91087 487.03 4.88929 486.807 4.76699 486.656C4.64109 486.504 4.59792 486.13 4.65547 485.756C4.70224 485.433 4.78497 485.241 4.89649 485.433ZM5.52239 485.473C5.76341 485.008 5.96485 484.634 6.16269 484.24C6.39651 483.775 6.52601 483.128 6.5332 482.329C6.5368 482.036 6.49723 481.733 6.47565 481.429C6.37852 481.551 6.26341 481.631 6.18068 481.813C5.78139 482.693 5.58714 483.906 5.52239 485.473Z" fill="#C4C4C4"/>
<path d="M11.2528 462.302C11.2025 462.181 11.1413 462.1 11.1162 461.958C11.0946 461.827 11.0838 461.584 11.1126 461.483C11.2888 460.846 11.4723 460.23 11.6593 459.623C11.8212 459.087 12.0406 458.824 12.278 458.683C12.5694 458.521 12.8068 458.915 12.8428 459.744C12.8824 460.644 12.8824 461.554 12.8788 462.464C12.8716 464.324 12.7061 466.073 12.314 467.579C12.1629 468.155 11.9687 468.661 11.76 469.065C11.3823 469.803 10.9399 469.338 10.7852 468.115C10.7133 467.549 10.6845 466.983 10.742 466.396C10.8104 465.699 10.8572 464.991 10.9435 464.314C11.0262 463.637 11.1449 462.99 11.2528 462.302ZM11.7528 460.856C11.7744 460.887 11.7996 460.917 11.8212 460.947C11.8284 461.19 11.8608 461.453 11.8392 461.665C11.7708 462.302 11.6881 462.939 11.591 463.546C11.3967 464.789 11.2816 466.093 11.2456 467.428C11.2349 467.741 11.2924 468.206 11.3751 468.388C11.4903 468.641 11.6162 468.348 11.7241 468.105C12.2636 466.851 12.4975 465.183 12.5514 463.293C12.5838 462.211 12.5766 461.109 12.5658 460.017C12.5586 459.512 12.4795 459.411 12.3284 459.674C12.1234 460.027 11.9435 460.462 11.7528 460.856Z" fill="#C4C4C4"/>
<path d="M9.65219 482.188C9.66298 481.571 9.54787 481.298 9.32844 481.5C9.03347 481.773 8.76368 482.238 8.58742 483.006C8.50469 483.38 8.50109 483.694 8.66296 483.967C8.91836 484.391 9.17376 484.836 9.40758 485.362C9.52269 485.615 9.61981 486.019 9.67017 486.403C9.74212 486.99 9.6342 487.556 9.42916 487.899C9.05506 488.516 8.63778 488.749 8.21332 488.86C8.00468 488.92 7.80683 488.425 7.78885 487.849C7.78525 487.697 7.81763 487.414 7.85 487.404C7.91475 487.364 7.99029 487.455 8.05864 487.515C8.11979 487.566 8.18454 487.728 8.2313 487.697C8.49749 487.515 8.76009 487.323 9.01549 487.06C9.17736 486.899 9.18815 486.666 9.05865 486.363C8.89678 485.969 8.71332 485.645 8.54066 485.301C8.42195 485.069 8.29245 484.887 8.18094 484.634C7.9795 484.189 7.92554 483.593 8.01907 482.915C8.05144 482.683 8.08742 482.44 8.14497 482.248C8.42555 481.338 8.77088 480.641 9.19535 480.439C9.3788 480.348 9.59823 480.55 9.77809 480.762C9.97953 480.995 10.0371 482.208 9.8896 482.693C9.86082 482.794 9.78169 482.814 9.73133 482.794C9.69895 482.784 9.66298 482.632 9.64859 482.531C9.6414 482.4 9.65219 482.258 9.65219 482.188Z" fill="#C4C4C4"/>
<path d="M10.9038 481.53C10.8607 482.663 10.8139 483.825 10.7779 484.998C10.7528 485.817 10.7276 486.626 10.8463 487.424C10.9146 487.879 10.7707 488.081 10.6628 488.284C10.5549 488.486 10.4398 488.425 10.3894 488.102C10.3211 487.687 10.2276 487.222 10.2348 486.787C10.2635 485.2 10.3175 483.613 10.3858 482.036C10.4002 481.672 10.501 481.348 10.5549 480.995C10.6017 480.691 10.688 480.56 10.7851 480.701C10.8427 480.792 10.8679 481.045 10.9002 481.237C10.911 481.308 10.9038 481.409 10.9038 481.53Z" fill="#C4C4C4"/>
<path d="M9.573 477.82C9.61976 477.244 9.75645 477.143 9.89674 477.163C10.2169 477.203 10.5406 477.294 10.8608 477.385C11.0227 477.426 11.1845 477.466 11.3356 477.588C11.4291 477.658 11.5335 477.85 11.5802 478.073C11.6198 478.255 11.609 478.69 11.5622 478.781C11.4975 478.912 11.3716 478.892 11.2817 478.841C11.1342 478.76 10.9975 478.538 10.85 478.477C10.4795 478.315 10.1054 478.214 9.73127 478.073C9.67732 478.043 9.62696 477.901 9.573 477.82Z" fill="#C4C4C4"/>
<path d="M16.7349 476.304C16.7708 476.061 16.8176 475.697 16.8752 475.353C17.055 474.262 17.2349 473.17 17.4291 472.098C17.4507 471.977 17.5478 471.896 17.609 471.916C17.6485 471.926 17.7133 472.179 17.7061 472.28C17.6665 472.725 17.6198 473.18 17.5514 473.594C17.4147 474.393 17.2565 475.161 17.1126 475.95C17.0802 476.132 17.0442 476.374 17.0586 476.556C17.091 476.93 17.0334 477.173 16.9291 477.163C16.868 477.163 16.8068 476.829 16.7528 476.637C16.7277 476.587 16.7385 476.506 16.7349 476.304Z" fill="#C4C4C4"/>
<path d="M19.7133 477.669C19.7169 478.184 19.6126 478.477 19.4615 478.427C19.0227 478.285 18.609 478.558 18.2133 479.054C18.0982 479.205 18.0083 479.185 17.9507 478.912C17.8824 478.568 17.9975 478.437 18.0802 478.326C18.4651 477.8 18.8752 477.537 19.2997 477.446C19.3716 477.426 19.44 477.386 19.5083 477.335C19.6594 477.204 19.7169 477.375 19.7133 477.669Z" fill="#C4C4C4"/>
<path d="M18.645 473.948C18.7961 473.938 18.8645 474.12 18.7997 474.413C18.7206 474.777 18.6163 475.101 18.5012 475.394C18.3645 475.738 18.2026 476.011 18.0659 476.354C17.9976 476.526 17.9616 476.789 17.9004 476.991C17.8537 477.143 17.7889 477.264 17.735 477.396C17.6954 477.173 17.6019 476.87 17.627 476.749C17.717 476.294 17.8321 475.849 17.9652 475.475C18.1378 474.99 18.3357 474.575 18.5227 474.14C18.5623 474.039 18.6199 473.989 18.645 473.948Z" fill="#C4C4C4"/>
<g clip-path="url(#clip1_2103_26367)">
<path d="M7.55499 463.707C7.14132 463.707 6.74923 463.707 6.35354 463.707C6.31757 463.707 6.278 463.707 6.24562 463.667C6.12691 463.525 5.99022 463.343 6.03339 462.929C6.07655 462.525 6.20965 462.616 6.34634 462.636C6.67728 462.707 7.01182 462.696 7.34276 462.636C7.72406 462.575 8.10177 462.403 8.48307 462.343C8.55501 462.333 8.63415 462.585 8.72408 462.747C8.74926 462.595 8.80322 462.333 8.83919 462.06C9.00825 460.826 9.32481 460.159 9.79244 460.068C9.89316 460.048 9.99748 459.997 10.0946 460.038C10.4435 460.149 10.6162 460.725 10.6306 462.029C10.6558 464.041 10.4291 465.871 9.95791 467.367C9.7133 468.135 9.39315 468.732 8.97228 468.449C8.58019 468.196 8.32119 467.135 8.40033 466.023C8.46148 465.153 8.52983 464.294 8.59458 463.414C8.45789 463.434 8.30321 463.445 8.15213 463.515C8.10536 463.536 8.04061 463.738 8.02982 463.879C7.95788 464.9 7.88594 465.921 7.84277 466.953C7.7996 467.994 7.74565 469.055 7.88953 470.087C7.9291 470.38 7.6773 470.774 7.53701 470.643C7.37873 470.491 7.31398 470.117 7.2996 469.712C7.27801 469.116 7.28161 468.509 7.27801 467.903C7.27801 467.711 7.28521 467.509 7.2924 467.246C7.09456 467.549 6.91829 467.812 6.73844 468.085C6.18087 468.924 5.59453 468.974 4.9938 468.57C4.50818 468.236 4.12688 466.74 4.13767 465.092C4.14847 462.747 4.43264 460.654 4.92186 458.774C5.28517 457.369 5.75641 456.449 6.32836 455.953C6.60894 455.711 6.90031 455.62 7.19528 455.832C7.51183 456.055 7.6773 456.611 7.6701 457.531C7.66651 458.117 7.64492 458.703 7.62334 459.29C7.61255 459.542 7.59097 459.795 7.46147 459.755C7.33557 459.724 7.34636 459.461 7.34636 459.239C7.34996 458.916 7.36075 458.602 7.37154 458.279C7.4183 457.065 7.19528 456.509 6.77081 456.752C6.35354 456.985 5.99022 457.531 5.69525 458.37C5.04776 460.199 4.73121 462.464 4.68804 465.022C4.67725 465.729 4.78157 466.356 4.93265 466.922C5.06934 467.438 5.26719 467.498 5.47223 467.6C6.06936 467.893 7.08017 466.68 7.35355 465.274C7.44348 464.789 7.49025 464.223 7.55499 463.707ZM10.2277 462.424C10.2277 462.252 10.2313 462.09 10.2277 461.918C10.2169 461.271 10.1054 460.998 9.88956 461.21C9.63416 461.473 9.38236 461.817 9.27445 462.636C9.21329 463.091 9.12696 463.525 9.08739 464.001C9.01905 464.83 8.95789 465.669 8.92912 466.518C8.91113 467.135 9.09818 467.529 9.27445 467.286C9.43272 467.074 9.60179 466.801 9.70611 466.417C10.0335 465.264 10.2205 463.93 10.2277 462.424Z" fill="#C4C4C4"/>
<path d="M13.2565 489.082C13.2565 487.839 13.2565 486.646 13.2565 485.463C13.0479 486.08 12.8608 486.707 12.645 487.242C12.3428 487.991 11.9795 487.94 11.6306 487.546C11.3464 487.232 11.2205 486.454 11.2709 485.392C11.3464 483.825 11.5694 482.471 12.0514 481.581C12.3716 480.995 12.7277 480.641 13.1234 480.985C13.4184 481.247 13.6018 481.783 13.681 482.653C13.9328 485.433 13.8536 488.274 13.8464 491.084C13.8428 492.54 13.7817 494.006 13.5407 495.34C13.3069 496.624 12.9723 497.584 12.4471 497.867C11.9183 498.151 11.5083 497.362 11.404 495.886C11.3032 494.471 11.35 493.076 11.537 491.731C11.7421 490.275 12.163 489.648 12.681 489.386C12.868 489.295 13.0623 489.183 13.2565 489.082ZM13.2853 490.154C12.9975 490.356 12.7277 490.457 12.4831 490.74C12.3032 490.953 12.1054 491.306 12.0119 491.761C11.7493 493.005 11.7061 494.4 11.8284 495.805C11.9076 496.725 12.2169 497.018 12.5011 496.493C12.7421 496.048 12.9184 495.461 13.0371 494.703C13.2637 493.258 13.2457 491.731 13.2853 490.154ZM13.0263 481.915C12.9579 481.915 12.9004 481.884 12.85 481.915C12.1198 482.4 11.8248 484.412 11.8248 486.039C11.8248 486.403 11.9112 486.666 12.0442 486.636C12.1594 486.616 12.2889 486.545 12.3752 486.363C12.8896 485.251 13.1306 483.795 13.0263 481.915Z" fill="#C4C4C4"/>
<path d="M2.42172 475.404C2.67352 475.273 2.92173 475.101 3.17353 475.03C3.81023 474.858 4.23829 475.546 4.46132 477.244C4.57643 478.124 4.62679 479.094 4.68075 480.034C4.81384 482.4 4.4829 484.351 3.9721 486.161C3.51886 487.778 3.02245 489.234 2.36776 490.204C2.28862 490.326 2.1843 490.386 2.09797 490.356C1.97207 490.326 1.92891 490.053 1.92531 489.699C1.92531 488.445 1.92891 487.182 1.90732 485.928C1.87854 483.967 1.8138 482.006 1.79581 480.034C1.78502 478.811 1.81739 477.578 1.85336 476.354C1.86775 475.92 1.94329 475.495 1.99725 475.071C2.04761 474.666 2.16992 474.504 2.29222 474.636C2.35697 474.707 2.37855 475.081 2.41812 475.313C2.42172 475.374 2.42172 475.424 2.42172 475.404ZM2.55481 488.183C2.93612 487.394 3.19511 486.383 3.48648 485.453C4.06923 483.593 4.2311 481.44 4.07282 479.074C4.02966 478.427 3.95052 477.78 3.8498 477.183C3.72749 476.466 3.52246 475.97 3.22029 475.97C3.07281 475.97 2.92173 476.021 2.77784 476.112C2.41093 476.334 2.36776 476.506 2.36057 477.547C2.36057 477.628 2.36057 477.719 2.36057 477.8C2.32819 480.631 2.40733 483.441 2.49726 486.252C2.51165 486.868 2.53323 487.495 2.55481 488.183Z" fill="#C4C4C4"/>
<path d="M14.9722 462.606C15.0369 461.574 15.0981 460.624 15.1592 459.664C15.242 458.36 15.3211 457.055 15.4182 455.761C15.4434 455.408 15.5261 455.064 15.6053 454.771C15.6377 454.659 15.7528 454.599 15.7959 454.67C15.8499 454.75 15.9003 455.013 15.8967 455.185C15.8571 456.439 15.8139 457.682 15.7528 458.926C15.6808 460.472 15.5909 462.009 15.5118 463.546C15.5046 463.697 15.4902 463.839 15.483 463.991C15.465 464.314 15.465 464.577 15.6089 464.749C15.8103 464.991 15.8175 465.527 15.6628 466.093C15.6053 466.306 15.5441 466.548 15.5226 466.811C15.4866 467.256 15.3535 467.458 15.2492 467.387C15.0297 467.236 14.8715 467.61 14.6952 467.771C14.3211 468.135 13.9542 468.105 13.5873 467.771C13.3427 467.549 13.2276 467.023 13.2132 466.275C13.1916 465.123 13.2887 464.051 13.483 463.03C13.7312 461.726 14.3139 461.352 14.7815 462.201C14.8391 462.322 14.8966 462.444 14.9722 462.606ZM14.911 464.981C14.983 464.102 14.7707 463.556 14.5297 463.101C14.3139 462.696 14.1161 462.889 13.9973 463.525C13.8391 464.365 13.7635 465.234 13.7743 466.194C13.7779 466.629 13.8427 466.862 13.983 466.821C14.2132 466.771 14.4398 466.67 14.6664 466.558C14.8463 466.467 14.983 466.265 14.911 465.618C14.8966 465.456 14.911 465.254 14.911 464.981Z" fill="#C4C4C4"/>
<path d="M16.3825 482.279C16.199 482.835 16.0084 483.32 15.8573 483.876C15.717 484.391 15.6127 484.988 15.4976 485.554C15.404 486.009 15.3609 486.474 15.3897 487.04C15.4184 487.576 15.3933 488.152 15.3501 488.688C15.3285 488.951 15.2314 489.234 15.1414 489.386C14.994 489.628 14.8177 489.416 14.7961 488.941C14.7709 488.405 14.7997 487.849 14.8033 487.293C14.8069 486.899 14.8213 486.494 14.8141 486.1C14.7853 484.675 14.7673 483.249 14.904 481.844C14.9328 481.53 14.9724 481.278 15.1163 481.298C15.2566 481.318 15.2781 481.611 15.2889 481.894C15.3141 482.491 15.3321 483.097 15.3537 483.785C15.3933 483.633 15.422 483.522 15.4544 483.431C15.6666 482.794 15.8609 482.107 16.0983 481.551C16.3753 480.904 16.7026 481.035 16.9113 481.864C17.0264 482.319 17.1271 482.915 17.1343 483.461C17.1667 485.503 17.1559 487.556 17.1631 489.608C17.1631 489.658 17.1631 489.709 17.1559 489.76C17.0983 490.093 17.1307 490.649 16.9149 490.599C16.6882 490.538 16.5911 490.154 16.5947 489.507C16.6091 487.788 16.6271 486.08 16.6235 484.361C16.6199 483.684 16.6127 482.966 16.3825 482.279Z" fill="#C4C4C4"/>
<path d="M4.89649 485.433C5.01519 484.523 5.08714 483.593 5.24901 482.814C5.39649 482.086 5.62671 481.49 5.84254 480.893C5.92528 480.661 6.05837 480.53 6.17708 480.449C6.61594 480.145 6.91091 480.833 6.89292 482.096C6.87493 483.33 6.71666 484.351 6.33895 485.048C6.11593 485.463 5.88211 485.847 5.65909 486.262C5.58714 486.393 5.45765 486.342 5.47203 486.757C5.48642 487.192 5.50441 487.687 5.66628 487.808C5.84254 487.95 6.06197 488.071 6.22025 487.899C6.56198 487.535 6.87853 486.979 7.20947 486.535C7.25983 486.464 7.35696 486.514 7.39652 486.626C7.4289 486.706 7.4289 487.04 7.40012 487.111C7.00083 488.071 6.59435 489.062 6.0296 489.102C5.80297 489.123 5.56196 489.011 5.34254 488.819C5.10512 488.607 4.98282 488.011 4.93246 487.333C4.91087 487.03 4.88929 486.807 4.76699 486.656C4.64109 486.504 4.59792 486.13 4.65547 485.756C4.70224 485.433 4.78497 485.241 4.89649 485.433ZM5.52239 485.473C5.76341 485.008 5.96485 484.634 6.16269 484.24C6.39651 483.775 6.52601 483.128 6.5332 482.329C6.5368 482.036 6.49723 481.733 6.47565 481.429C6.37852 481.551 6.26341 481.631 6.18068 481.813C5.78139 482.693 5.58714 483.906 5.52239 485.473Z" fill="#C4C4C4"/>
<path d="M11.2528 462.302C11.2025 462.181 11.1413 462.1 11.1162 461.958C11.0946 461.827 11.0838 461.584 11.1126 461.483C11.2888 460.846 11.4723 460.23 11.6593 459.623C11.8212 459.087 12.0406 458.824 12.278 458.683C12.5694 458.521 12.8068 458.915 12.8428 459.744C12.8824 460.644 12.8824 461.554 12.8788 462.464C12.8716 464.324 12.7061 466.073 12.314 467.579C12.1629 468.155 11.9687 468.661 11.76 469.065C11.3823 469.803 10.9399 469.338 10.7852 468.115C10.7133 467.549 10.6845 466.983 10.742 466.396C10.8104 465.699 10.8572 464.991 10.9435 464.314C11.0262 463.637 11.1449 462.99 11.2528 462.302ZM11.7528 460.856C11.7744 460.887 11.7996 460.917 11.8212 460.947C11.8284 461.19 11.8608 461.453 11.8392 461.665C11.7708 462.302 11.6881 462.939 11.591 463.546C11.3967 464.789 11.2816 466.093 11.2456 467.428C11.2349 467.741 11.2924 468.206 11.3751 468.388C11.4903 468.641 11.6162 468.348 11.7241 468.105C12.2636 466.851 12.4975 465.183 12.5514 463.293C12.5838 462.211 12.5766 461.109 12.5658 460.017C12.5586 459.512 12.4795 459.411 12.3284 459.674C12.1234 460.027 11.9435 460.462 11.7528 460.856Z" fill="#C4C4C4"/>
<path d="M9.65219 482.188C9.66298 481.571 9.54787 481.298 9.32844 481.5C9.03347 481.773 8.76368 482.238 8.58742 483.006C8.50469 483.38 8.50109 483.694 8.66296 483.967C8.91836 484.391 9.17376 484.836 9.40758 485.362C9.52269 485.615 9.61981 486.019 9.67017 486.403C9.74212 486.99 9.6342 487.556 9.42916 487.899C9.05506 488.516 8.63778 488.749 8.21332 488.86C8.00468 488.92 7.80683 488.425 7.78885 487.849C7.78525 487.697 7.81763 487.414 7.85 487.404C7.91475 487.364 7.99029 487.455 8.05864 487.515C8.11979 487.566 8.18454 487.728 8.2313 487.697C8.49749 487.515 8.76009 487.323 9.01549 487.06C9.17736 486.899 9.18815 486.666 9.05865 486.363C8.89678 485.969 8.71332 485.645 8.54066 485.301C8.42195 485.069 8.29245 484.887 8.18094 484.634C7.9795 484.189 7.92554 483.593 8.01907 482.915C8.05144 482.683 8.08742 482.44 8.14497 482.248C8.42555 481.338 8.77088 480.641 9.19535 480.439C9.3788 480.348 9.59823 480.55 9.77809 480.762C9.97953 480.995 10.0371 482.208 9.8896 482.693C9.86082 482.794 9.78169 482.814 9.73133 482.794C9.69895 482.784 9.66298 482.632 9.64859 482.531C9.6414 482.4 9.65219 482.258 9.65219 482.188Z" fill="#C4C4C4"/>
<path d="M10.9038 481.53C10.8607 482.663 10.8139 483.825 10.7779 484.998C10.7528 485.817 10.7276 486.626 10.8463 487.424C10.9146 487.879 10.7707 488.081 10.6628 488.284C10.5549 488.486 10.4398 488.425 10.3894 488.102C10.3211 487.687 10.2276 487.222 10.2348 486.787C10.2635 485.2 10.3175 483.613 10.3858 482.036C10.4002 481.672 10.501 481.348 10.5549 480.995C10.6017 480.691 10.688 480.56 10.7851 480.701C10.8427 480.792 10.8679 481.045 10.9002 481.237C10.911 481.308 10.9038 481.409 10.9038 481.53Z" fill="#C4C4C4"/>
<path d="M9.573 477.82C9.61976 477.244 9.75645 477.143 9.89674 477.163C10.2169 477.203 10.5406 477.294 10.8608 477.385C11.0227 477.426 11.1845 477.466 11.3356 477.588C11.4291 477.658 11.5335 477.85 11.5802 478.073C11.6198 478.255 11.609 478.69 11.5622 478.781C11.4975 478.912 11.3716 478.892 11.2817 478.841C11.1342 478.76 10.9975 478.538 10.85 478.477C10.4795 478.315 10.1054 478.214 9.73127 478.073C9.67732 478.043 9.62696 477.901 9.573 477.82Z" fill="#C4C4C4"/>
<path d="M16.7349 476.304C16.7708 476.061 16.8176 475.697 16.8752 475.353C17.055 474.262 17.2349 473.17 17.4291 472.098C17.4507 471.977 17.5478 471.896 17.609 471.916C17.6485 471.926 17.7133 472.179 17.7061 472.28C17.6665 472.725 17.6198 473.18 17.5514 473.594C17.4147 474.393 17.2565 475.161 17.1126 475.95C17.0802 476.132 17.0442 476.374 17.0586 476.556C17.091 476.93 17.0334 477.173 16.9291 477.163C16.868 477.163 16.8068 476.829 16.7528 476.637C16.7277 476.587 16.7385 476.506 16.7349 476.304Z" fill="#C4C4C4"/>
<path d="M19.7133 477.669C19.7169 478.184 19.6126 478.477 19.4615 478.427C19.0227 478.285 18.609 478.558 18.2133 479.054C18.0982 479.205 18.0083 479.185 17.9507 478.912C17.8824 478.568 17.9975 478.437 18.0802 478.326C18.4651 477.8 18.8752 477.537 19.2997 477.446C19.3716 477.426 19.44 477.386 19.5083 477.335C19.6594 477.204 19.7169 477.375 19.7133 477.669Z" fill="#C4C4C4"/>
<path d="M18.645 473.948C18.7961 473.938 18.8645 474.12 18.7997 474.413C18.7206 474.777 18.6163 475.101 18.5012 475.394C18.3645 475.738 18.2026 476.011 18.0659 476.354C17.9976 476.526 17.9616 476.789 17.9004 476.991C17.8537 477.143 17.7889 477.264 17.735 477.396C17.6954 477.173 17.6019 476.87 17.627 476.749C17.717 476.294 17.8321 475.849 17.9652 475.475C18.1378 474.99 18.3357 474.575 18.5227 474.14C18.5623 474.039 18.6199 473.989 18.645 473.948Z" fill="#C4C4C4"/>
</g>
</g>
<g clip-path="url(#clip2_2103_26367)">
<path d="M2.6003 187.738C2.64912 188.641 2.51156 189.482 2.32075 190.212C2.01013 191.387 1.67288 192.5 1.3312 193.601C1.1182 194.293 0.820897 194.627 0.505839 194.825C0.292843 194.961 0.204094 194.726 0.195219 194.108C0.155283 191.35 0.115346 188.604 0.0709715 185.846C0.0665341 185.438 0.044347 185.03 0.0221598 184.622C-0.0621513 183.051 0.0798464 182.544 0.647837 182.371C1.67288 182.037 2.57368 184.646 2.6003 187.244C2.6003 187.38 2.6003 187.528 2.6003 187.738ZM0.692211 193.502C0.798709 193.267 0.869708 193.143 0.91852 192.982C1.24689 191.869 1.57526 190.768 1.89475 189.643C2.10775 188.888 2.15212 188.023 2.11662 187.083C2.0545 185.327 1.49095 183.533 0.905208 183.274C0.461465 183.076 0.430403 183.175 0.505839 184.399C0.510277 184.486 0.510277 184.56 0.514714 184.646C0.559088 187.256 0.603463 189.866 0.647837 192.475C0.652274 192.76 0.674461 193.056 0.692211 193.502Z" fill="#C4C4C4"/>
<path d="M15.1982 185.03C15.0562 185.129 14.9541 185.215 14.8521 185.277C14.7278 185.351 14.5858 185.351 14.4749 185.5C14.1288 185.945 13.7915 186.452 13.4454 186.922C13.1703 187.293 13.1481 187.627 13.3655 188.258C13.7738 189.42 14.1909 190.558 14.5903 191.733C14.9098 192.673 15.2071 193.675 15.5177 194.639C15.5532 194.751 15.6109 194.825 15.6553 194.924C15.6996 195.035 15.7839 195.221 15.7751 195.283C15.7484 195.468 15.6952 195.703 15.6286 195.777C15.4156 196 15.247 195.777 15.1006 195.307C14.6213 193.798 14.1377 192.302 13.6584 190.793C13.5475 190.447 13.4499 190.063 13.3434 189.692C13.3123 189.754 13.2857 189.816 13.2546 189.878C13.2901 190.867 13.33 191.844 13.3522 192.834C13.3655 193.378 13.3611 193.934 13.3212 194.466C13.3079 194.676 13.1525 194.998 13.1037 194.949C13.0061 194.837 12.873 194.54 12.8641 194.293C12.8153 192.945 12.8064 191.585 12.7621 190.224C12.7354 189.396 12.6777 188.579 12.6334 187.751C12.6289 187.627 12.6112 187.491 12.6245 187.38C12.8242 185.982 12.7044 184.486 12.8109 183.063C12.8331 182.742 12.8552 182.395 12.9174 182.136C12.9662 181.938 13.0727 181.851 13.1525 181.703C13.1969 181.901 13.2724 182.086 13.2724 182.284C13.2724 183.187 13.2457 184.09 13.2324 184.993C13.228 185.277 13.2324 185.562 13.2324 185.957C13.3744 185.784 13.4987 185.648 13.6185 185.487C13.8448 185.178 14.0622 184.82 14.2885 184.523C14.6169 184.127 14.9808 184.275 15.1982 185.03Z" fill="#C4C4C4"/>
<path d="M11.5816 188.332C11.1246 188.555 10.7208 188.74 10.2726 188.963C10.2726 189.952 10.2682 190.929 10.277 191.906C10.2815 192.413 10.1927 192.611 10.0241 192.636C9.87322 192.648 9.78004 192.487 9.78891 192.03C9.82441 190.199 9.85547 188.369 9.90872 186.551C9.93978 185.426 10.0108 184.312 10.0685 183.199C10.0818 182.964 10.1173 182.729 10.1617 182.507C10.2593 182.024 10.3924 181.925 10.5433 182.284C10.6631 182.569 10.7873 182.729 10.9471 182.754C11.1911 182.804 11.3642 183.274 11.4574 183.83C11.6393 184.918 11.839 186.032 11.9233 187.206C12.0431 188.802 12.0697 190.459 12.123 192.092C12.1407 192.611 12.0387 192.846 11.8479 192.772C11.7014 192.71 11.6615 192.487 11.6571 192.092C11.6393 190.855 11.6083 189.63 11.5816 188.332ZM10.3214 187.948C10.6897 187.763 11.0181 187.615 11.3509 187.429C11.3864 187.404 11.4441 187.145 11.4308 187.046C11.3198 185.982 11.2311 184.894 10.9693 184.003C10.8628 183.645 10.8006 183.645 10.7075 184.04C10.4368 185.191 10.3791 186.501 10.3214 187.948Z" fill="#C4C4C4"/>
<path d="M4.78363 189.742C4.79694 190.249 4.81913 190.756 4.828 191.275C4.84132 191.906 4.85906 192.537 4.8635 193.168C4.86794 193.687 4.73038 193.737 4.58838 193.749C4.44638 193.761 4.3887 193.539 4.37982 193.18C4.35764 191.844 4.33989 190.509 4.30882 189.185C4.30439 188.901 4.24226 188.616 4.22895 188.332C4.2112 187.998 4.20233 187.664 4.21564 187.33C4.23783 186.811 4.30439 186.316 4.32214 185.797C4.3532 185.005 4.34432 184.189 4.39314 183.41C4.41088 183.125 4.5307 182.853 4.61944 182.631C4.65051 182.556 4.75257 182.569 4.7925 182.655C4.83244 182.729 4.85019 182.964 4.84575 183.113C4.82357 183.843 4.7925 184.56 4.76144 185.277C4.78363 185.302 4.80138 185.339 4.82357 185.364C4.88569 185.24 4.95225 185.141 5.00994 185.005C5.26287 184.436 5.51137 183.843 5.76874 183.298C5.92848 182.964 6.10598 182.643 6.31898 182.878C6.42548 182.989 6.50979 183.237 6.63404 183.484C6.54529 183.632 6.50091 183.768 6.47429 183.756C6.16811 183.533 5.99948 184.152 5.80867 184.597C5.49362 185.314 5.18743 186.056 4.89456 186.835C4.71263 187.318 4.74369 187.887 4.9345 188.357C5.40043 189.495 5.86636 190.632 6.32785 191.783C6.40329 191.968 6.46985 192.215 6.50979 192.475C6.53641 192.661 6.54085 193.032 6.50091 193.106C6.42991 193.242 6.31454 193.291 6.23023 193.242C6.16367 193.205 6.11042 192.97 6.0483 192.821C5.64449 191.783 5.24068 190.744 4.83688 189.705C4.81913 189.692 4.80138 189.717 4.78363 189.742Z" fill="#C4C4C4"/>
<path d="M7.30402 182.841C7.74777 183.385 7.56583 184.498 7.69452 185.339C7.92526 184.807 8.14713 184.288 8.37788 183.781C8.51544 183.471 8.653 183.137 8.81275 182.952C8.9015 182.853 9.03462 183.051 9.14555 183.113C9.10118 183.335 9.07012 183.607 9.00356 183.768C8.61306 184.745 8.21813 185.697 7.8232 186.662C7.67233 187.033 7.64571 187.392 7.76108 187.936C8.04507 189.321 8.34238 190.607 8.87931 191.411C9.06124 191.683 9.14999 192.425 9.2698 192.982C9.29199 193.081 9.25205 193.403 9.21655 193.44C9.13668 193.539 9.02131 193.625 8.95031 193.539C8.866 193.44 8.81275 193.143 8.74619 192.933C8.63081 192.574 8.52875 192.19 8.40007 191.881C8.16488 191.312 7.91195 190.781 7.65902 190.212C7.66789 191.016 7.61464 191.881 7.83208 192.673C7.94745 193.093 7.7877 193.378 7.68121 193.6C7.54364 193.872 7.40608 193.699 7.36171 193.316C7.28184 192.66 7.19309 191.98 7.18865 191.3C7.1709 188.851 7.17978 186.402 7.19309 183.954C7.18865 183.595 7.25965 183.236 7.30402 182.841Z" fill="#C4C4C4"/>
<path d="M3.68297 187.998C3.68297 189.667 3.67853 191.337 3.68297 193.007C3.68297 193.489 3.66965 193.947 3.4611 194.046C3.31466 194.12 3.19041 193.65 3.18598 193.044C3.16823 189.816 3.15491 186.576 3.1416 183.348C3.1416 182.878 3.16823 182.408 3.18598 181.938C3.19929 181.591 3.27916 181.381 3.39453 181.468C3.46553 181.53 3.55872 181.765 3.56759 181.95C3.59866 182.68 3.61197 183.422 3.61641 184.164C3.62528 185.438 3.61641 186.724 3.61641 187.998C3.64303 187.998 3.66078 187.998 3.68297 187.998Z" fill="#C4C4C4"/>
</g>
<g clip-path="url(#clip3_2103_26367)">
<path d="M383.604 332.518C383.653 333.485 383.515 334.386 383.324 335.168C383.014 336.427 382.676 337.62 382.335 338.799C382.122 339.541 381.824 339.899 381.509 340.111C381.296 340.257 381.208 340.005 381.199 339.342C381.159 336.387 381.119 333.446 381.074 330.491C381.07 330.053 381.048 329.616 381.026 329.179C380.941 327.496 381.083 326.953 381.651 326.767C382.676 326.409 383.577 329.205 383.604 331.988C383.604 332.134 383.604 332.293 383.604 332.518ZM381.696 338.693C381.802 338.441 381.873 338.309 381.922 338.136C382.25 336.944 382.579 335.765 382.898 334.559C383.111 333.75 383.156 332.823 383.12 331.816C383.058 329.934 382.494 328.013 381.909 327.734C381.465 327.522 381.434 327.628 381.509 328.94C381.514 329.033 381.514 329.113 381.518 329.205C381.563 332.001 381.607 334.797 381.651 337.593C381.656 337.898 381.678 338.216 381.696 338.693Z" fill="#C4C4C4"/>
<path d="M396.202 329.616C396.06 329.722 395.958 329.815 395.856 329.881C395.731 329.961 395.589 329.961 395.478 330.12C395.132 330.597 394.795 331.14 394.449 331.643C394.174 332.041 394.152 332.399 394.369 333.075C394.777 334.32 395.194 335.539 395.594 336.798C395.913 337.805 396.21 338.878 396.521 339.912C396.557 340.031 396.614 340.111 396.659 340.217C396.703 340.336 396.787 340.535 396.778 340.601C396.752 340.8 396.699 341.052 396.632 341.131C396.419 341.37 396.25 341.131 396.104 340.628C395.625 339.011 395.141 337.408 394.662 335.791C394.551 335.42 394.453 335.009 394.347 334.612C394.316 334.678 394.289 334.744 394.258 334.81C394.294 335.871 394.333 336.917 394.356 337.977C394.369 338.56 394.365 339.157 394.325 339.727C394.311 339.952 394.156 340.296 394.107 340.243C394.01 340.124 393.876 339.806 393.868 339.541C393.819 338.097 393.81 336.639 393.765 335.181C393.739 334.294 393.681 333.419 393.637 332.531C393.632 332.399 393.615 332.253 393.628 332.134C393.828 330.636 393.708 329.033 393.814 327.509C393.836 327.165 393.859 326.794 393.921 326.515C393.97 326.303 394.076 326.211 394.156 326.052C394.2 326.264 394.276 326.462 394.276 326.674C394.276 327.642 394.249 328.609 394.236 329.576C394.231 329.881 394.236 330.186 394.236 330.61C394.378 330.424 394.502 330.279 394.622 330.106C394.848 329.775 395.066 329.391 395.292 329.073C395.62 328.649 395.984 328.808 396.202 329.616Z" fill="#C4C4C4"/>
<path d="M392.585 333.154C392.128 333.393 391.724 333.591 391.276 333.83C391.276 334.89 391.272 335.937 391.28 336.984C391.285 337.527 391.196 337.739 391.028 337.765C390.877 337.779 390.783 337.606 390.792 337.116C390.828 335.155 390.859 333.194 390.912 331.246C390.943 330.04 391.014 328.847 391.072 327.655C391.085 327.403 391.121 327.151 391.165 326.913C391.263 326.396 391.396 326.29 391.547 326.674C391.667 326.979 391.791 327.151 391.95 327.178C392.195 327.231 392.368 327.734 392.461 328.331C392.643 329.497 392.842 330.689 392.927 331.948C393.047 333.658 393.073 335.433 393.126 337.182C393.144 337.739 393.042 337.991 392.851 337.911C392.705 337.845 392.665 337.606 392.66 337.182C392.643 335.857 392.612 334.545 392.585 333.154ZM391.325 332.743C391.693 332.544 392.021 332.385 392.354 332.187C392.39 332.16 392.447 331.882 392.434 331.776C392.323 330.636 392.234 329.47 391.973 328.516C391.866 328.132 391.804 328.132 391.711 328.556C391.44 329.788 391.383 331.193 391.325 332.743Z" fill="#C4C4C4"/>
<path d="M385.787 334.665C385.8 335.208 385.823 335.751 385.831 336.308C385.845 336.984 385.862 337.659 385.867 338.335C385.871 338.892 385.734 338.945 385.592 338.958C385.45 338.971 385.392 338.733 385.383 338.348C385.361 336.917 385.343 335.486 385.312 334.068C385.308 333.764 385.246 333.459 385.232 333.154C385.215 332.796 385.206 332.439 385.219 332.081C385.241 331.524 385.308 330.994 385.326 330.438C385.357 329.59 385.348 328.715 385.397 327.88C385.414 327.575 385.534 327.284 385.623 327.045C385.654 326.966 385.756 326.979 385.796 327.072C385.836 327.151 385.854 327.403 385.849 327.562C385.827 328.344 385.796 329.113 385.765 329.881C385.787 329.908 385.805 329.947 385.827 329.974C385.889 329.841 385.956 329.735 386.013 329.59C386.266 328.98 386.515 328.344 386.772 327.761C386.932 327.403 387.109 327.059 387.322 327.31C387.429 327.43 387.513 327.695 387.637 327.96C387.549 328.119 387.504 328.264 387.478 328.251C387.172 328.013 387.003 328.675 386.812 329.152C386.497 329.921 386.191 330.716 385.898 331.551C385.716 332.067 385.747 332.677 385.938 333.181C386.404 334.4 386.87 335.619 387.331 336.851C387.407 337.05 387.473 337.315 387.513 337.593C387.54 337.792 387.544 338.189 387.504 338.269C387.433 338.415 387.318 338.468 387.234 338.415C387.167 338.375 387.114 338.123 387.052 337.964C386.648 336.851 386.244 335.738 385.84 334.625C385.823 334.612 385.805 334.638 385.787 334.665Z" fill="#C4C4C4"/>
<path d="M388.307 327.271C388.751 327.854 388.569 329.046 388.698 329.947C388.929 329.377 389.151 328.821 389.381 328.278C389.519 327.946 389.656 327.589 389.816 327.39C389.905 327.284 390.038 327.496 390.149 327.562C390.105 327.801 390.074 328.092 390.007 328.264C389.616 329.311 389.222 330.331 388.827 331.365C388.676 331.763 388.649 332.147 388.764 332.73C389.048 334.214 389.346 335.592 389.883 336.453C390.065 336.745 390.153 337.54 390.273 338.136C390.295 338.242 390.255 338.587 390.22 338.627C390.14 338.733 390.025 338.825 389.954 338.733C389.869 338.627 389.816 338.309 389.75 338.083C389.634 337.699 389.532 337.288 389.403 336.957C389.168 336.347 388.915 335.778 388.662 335.168C388.671 336.029 388.618 336.957 388.835 337.805C388.951 338.256 388.791 338.56 388.685 338.799C388.547 339.09 388.41 338.905 388.365 338.494C388.285 337.792 388.197 337.063 388.192 336.334C388.174 333.71 388.183 331.087 388.197 328.463C388.192 328.079 388.263 327.695 388.307 327.271Z" fill="#C4C4C4"/>
<path d="M384.686 332.796C384.686 334.585 384.682 336.374 384.686 338.163C384.686 338.679 384.673 339.17 384.465 339.276C384.318 339.355 384.194 338.852 384.189 338.202C384.172 334.744 384.158 331.272 384.145 327.814C384.145 327.31 384.172 326.806 384.189 326.303C384.203 325.932 384.283 325.707 384.398 325.799C384.469 325.866 384.562 326.117 384.571 326.316C384.602 327.098 384.615 327.893 384.62 328.688C384.629 330.053 384.62 331.431 384.62 332.796C384.646 332.796 384.664 332.796 384.686 332.796Z" fill="#C4C4C4"/>
</g>
<g clip-path="url(#clip4_2103_26367)">
<path d="M12.4653 346.548C12.4584 346.578 12.4447 346.598 12.4447 346.627C12.4447 346.846 12.479 347.193 12.4447 347.263C12.3451 347.461 12.2215 347.65 12.1048 347.66C11.7135 347.69 11.3187 347.62 10.9274 347.63C10.7043 347.64 10.4846 347.769 10.2649 347.769C9.82546 347.759 9.38606 347.65 8.94667 347.65C8.24981 347.65 7.55296 347.699 6.85954 347.749C6.59864 347.769 6.33432 347.838 6.07343 347.928C5.64433 348.087 5.21866 348.424 4.78613 348.444C3.976 348.484 3.16243 348.355 2.35229 348.265C2.12573 348.245 1.89573 348.226 1.67603 348.067C1.52499 347.958 1.37395 347.809 1.2229 347.699C1.15768 347.65 1.08559 347.173 1.08559 346.895C1.07529 343.868 1.07873 340.84 1.07873 337.813C1.07873 335.609 1.06156 333.405 1.08216 331.212C1.10962 328.522 1.16111 325.832 1.2126 323.142C1.25037 321.216 1.29842 319.29 1.34648 317.364C1.37395 316.263 1.41514 315.161 1.45977 314.069C1.4735 313.721 1.49409 313.354 1.54902 313.056C1.6417 312.55 1.76185 312.54 1.90259 312.927C1.94036 313.026 1.98841 313.156 2.03304 313.156C2.82601 313.245 3.61899 313.354 4.41539 313.394C5.19464 313.433 5.97388 313.493 6.74969 313.384C7.57699 313.275 8.39742 312.987 9.22129 312.778C9.52338 312.699 9.82203 312.61 10.1241 312.53C10.1893 312.51 10.2683 312.51 10.3266 312.6C10.5086 312.858 10.6871 312.798 10.8725 312.639C10.9651 312.56 11.0613 312.55 11.1574 312.54C11.5899 312.471 12.0224 312.381 12.455 312.361C12.9733 312.342 13.2994 312.818 13.2445 314.674C13.2274 315.27 13.1999 315.856 13.1827 316.441C13.1072 318.873 13.0454 321.305 12.9596 323.727C12.8806 325.98 12.8257 328.234 12.8291 330.497C12.8326 333.505 12.8051 336.522 12.8051 339.53C12.8051 340.721 12.8532 341.902 12.8669 343.094C12.8738 344.017 12.8566 344.95 12.8532 345.873C12.8566 346.627 12.7056 346.876 12.4653 346.548C12.4309 346.399 12.3726 346.25 12.3726 346.101C12.3486 344.384 12.3177 342.667 12.3177 340.949C12.3142 337.207 12.3074 333.475 12.3383 329.733C12.3554 327.479 12.4309 325.226 12.4927 322.973C12.5717 320.124 12.6678 317.285 12.7502 314.446C12.7742 313.632 12.7056 313.473 12.4515 313.543C12.122 313.632 11.7924 313.662 11.4629 313.731C11.2432 313.781 11.0235 313.88 10.8004 313.89C10.615 313.9 10.4296 313.821 10.2443 313.781C10.1928 313.771 10.1413 313.711 10.0932 313.721C9.79113 313.791 9.48905 313.86 9.1904 313.94C8.45235 314.128 7.7143 314.406 6.97625 314.496C6.16611 314.595 5.35254 314.535 4.53897 314.506C4.1339 314.496 3.72884 314.376 3.32377 314.327C2.91183 314.277 2.4999 314.238 2.0914 314.228C2.0502 314.228 1.97812 314.396 1.97468 314.496C1.93349 315.707 1.89573 316.928 1.86827 318.149C1.83737 319.588 1.82021 321.017 1.78931 322.457C1.73782 324.978 1.64514 327.499 1.63484 330.021C1.61081 335.579 1.62797 341.138 1.62797 346.697C1.62797 346.856 1.63484 347.005 1.63827 347.163C1.78588 347.114 1.92319 346.965 2.04334 347.034C2.93586 347.521 3.83525 347.253 4.73121 347.302C5.13628 347.322 5.54135 346.945 5.94641 346.816C6.74625 346.558 7.54953 346.32 8.35623 346.409C8.78533 346.459 9.21099 346.608 9.64009 346.598C10.2614 346.588 10.8793 346.459 11.5007 346.429C11.8165 346.409 12.1426 346.498 12.4653 346.548Z" fill="#C4C4C4"/>
<path d="M2.88773 329.593C2.8843 329.107 2.94952 328.958 3.11087 328.938C4.06175 328.849 5.01263 328.73 5.96694 328.64C6.19694 328.62 6.4235 328.62 6.6535 328.601C6.79081 328.591 6.8732 328.859 6.85603 329.176C6.84573 329.355 6.72215 329.573 6.6432 329.603C6.31365 329.702 5.9841 329.762 5.65112 329.802C4.89248 329.881 4.13383 329.931 3.37176 329.98C3.24818 329.99 3.1246 329.951 2.99415 329.921C3.09713 331.043 3.06624 332.144 3.04221 333.266C3.01475 334.417 3.04221 335.579 3.02848 336.74C3.02161 337.584 2.98385 338.418 2.97012 339.252C2.95982 339.956 2.96669 340.661 2.96669 341.406C3.28594 341.406 3.56743 341.445 3.84205 341.396C4.41189 341.296 4.98173 341.177 5.54814 341.028C5.96008 340.919 6.37201 340.721 6.78738 340.602C6.8629 340.582 6.96588 340.681 7.0208 340.84C7.13752 341.158 7.12036 341.455 6.96931 341.584C6.77021 341.753 6.55738 341.852 6.35141 341.912C5.91888 342.031 5.48635 342.12 5.05382 342.19C4.38786 342.309 3.7219 342.408 3.05251 342.498C2.96326 342.508 2.86714 342.468 2.78132 342.398C2.53072 342.18 2.51013 341.991 2.47923 341.227C2.41401 339.669 2.52043 338.14 2.53416 336.591C2.54446 335.539 2.53759 334.477 2.54446 333.425C2.55132 332.383 2.56162 331.35 2.57192 330.318C2.57878 329.812 2.69207 329.544 2.88773 329.593Z" fill="#C4C4C4"/>
<path d="M10.9616 319.052C10.6252 319.22 10.3197 319.379 10.0107 319.528C9.9764 319.548 9.94207 319.558 9.90774 319.568C9.30357 319.677 8.70283 319.786 8.09866 319.885C7.95792 319.905 7.81374 319.895 7.66957 319.885C7.61807 319.885 7.55285 319.885 7.52196 319.796C7.46703 319.617 7.38121 319.31 7.40181 319.2C7.43957 318.992 7.55972 318.734 7.62151 318.784C7.97165 319.042 8.3115 318.883 8.65478 318.724C8.87791 318.625 9.11134 318.585 9.3379 318.605C9.89744 318.654 10.4364 318.307 10.9753 317.97C11.0543 317.92 11.1332 317.92 11.2122 317.88C11.4285 317.781 11.5658 318.168 11.5383 318.784C11.4559 320.63 11.3564 322.466 11.3049 324.313C11.2603 325.97 11.2706 327.638 11.2603 329.306C11.2568 329.851 11.195 330.07 10.9925 330.1C10.8312 330.119 10.7694 329.951 10.7522 329.415C10.6835 327.29 10.7144 325.166 10.8174 323.052C10.8689 321.94 10.8895 320.818 10.9273 319.707C10.9341 319.488 10.9479 319.28 10.9616 319.052Z" fill="#C4C4C4"/>
<path d="M9.11136 323.806C8.68569 323.806 8.25659 323.776 7.83093 323.816C7.34691 323.866 6.86632 324.005 6.3823 324.034C6.20379 324.044 6.02185 323.876 5.85021 323.707C5.79529 323.647 5.73007 323.31 5.7438 323.151C5.75753 322.982 5.85708 322.873 5.9223 322.754C5.9326 322.734 5.95663 322.754 5.97379 322.774C6.63289 323.379 7.28512 322.694 7.94078 322.734C8.41794 322.764 8.89509 322.714 9.37225 322.794C9.59538 322.833 9.6606 323.32 9.62971 323.985C9.54732 325.901 9.4512 327.806 9.41001 329.732C9.38598 330.874 9.4615 332.035 9.48896 333.187C9.5027 333.772 9.43061 333.981 9.23837 334.01C9.06673 334.03 8.99121 333.862 8.98091 333.365C8.95002 332.045 8.89853 330.735 8.90539 329.415C8.91226 328.204 8.98434 326.993 9.02897 325.782C9.04957 325.116 9.08046 324.461 9.11136 323.806Z" fill="#C4C4C4"/>
<path d="M5.80917 334.576C5.78857 333.594 5.63753 332.77 5.48648 331.956C5.44872 331.747 5.33544 331.668 5.27365 331.479C5.22559 331.33 5.16037 331.023 5.18097 330.923C5.21529 330.755 5.31828 330.586 5.3835 330.606C5.66842 330.675 5.89155 331.072 6.00827 331.857C6.09752 332.462 6.18334 333.068 6.252 333.693C6.40304 335.073 6.22453 336.224 5.91902 337.237C5.76454 337.753 5.58947 338.259 5.39723 338.646C5.27365 338.894 5.10201 338.974 4.9441 339.033C4.90291 339.053 4.81023 338.745 4.80679 338.587C4.80336 338.398 4.85829 338.12 4.91664 338.011C5.23932 337.396 5.51051 336.641 5.68902 335.639C5.75424 335.311 5.77484 334.934 5.80917 334.576Z" fill="#C4C4C4"/>
<path d="M10.4021 339.867C10.4193 339.579 10.4433 339.272 10.584 339.252C10.7454 339.232 10.9376 339.619 10.8999 339.976C10.8724 340.264 10.7557 340.542 10.6561 340.671C10.5772 340.79 10.4055 340.225 10.4021 339.867Z" fill="#C4C4C4"/>
<path d="M3.49543 324.035C3.37185 324.025 3.26887 323.747 3.2723 323.419C3.27573 323.032 3.41991 322.694 3.59155 322.744C3.69453 322.774 3.81468 322.873 3.81811 323.28C3.82498 323.598 3.62588 324.035 3.49543 324.035Z" fill="#C4C4C4"/>
<path d="M3.66698 319.707C3.44042 319.717 3.27564 319.339 3.28937 318.923C3.29967 318.615 3.36489 318.386 3.49191 318.386C3.63608 318.386 3.83862 318.863 3.81116 319.23C3.79743 319.439 3.69787 319.607 3.66698 319.707Z" fill="#C4C4C4"/>
<path d="M8.86768 340.155C8.9329 339.976 8.99126 339.679 9.06678 339.629C9.19379 339.55 9.3517 340.006 9.34827 340.334C9.34483 340.582 9.19379 340.919 9.08394 340.919C8.98439 340.929 8.90544 340.632 8.86768 340.155Z" fill="#C4C4C4"/>
<path d="M4.22658 336.552C4.24375 337.028 4.103 336.959 4.00688 336.998C3.86271 337.058 3.81808 336.74 3.80092 336.413C3.78375 336.125 3.90733 335.857 4.04121 335.867C4.1442 335.887 4.22658 336.165 4.22658 336.552Z" fill="#C4C4C4"/>
<path d="M4.12364 332.551C4.12364 332.849 4.12021 333.137 3.97946 333.147C3.85932 333.147 3.722 332.829 3.75633 332.561C3.79066 332.293 3.86618 331.966 3.952 331.876C4.04469 331.757 4.13051 332.144 4.12364 332.551Z" fill="#C4C4C4"/>
</g>
<g clip-path="url(#clip5_2103_26367)">
<path d="M392.37 208.349C392.363 208.38 392.349 208.4 392.349 208.431C392.349 208.656 392.384 209.013 392.349 209.084C392.246 209.289 392.119 209.483 391.999 209.493C391.596 209.523 391.19 209.452 390.787 209.462C390.557 209.472 390.331 209.605 390.105 209.605C389.652 209.595 389.2 209.483 388.748 209.483C388.031 209.483 387.313 209.534 386.599 209.585C386.331 209.605 386.059 209.677 385.79 209.768C385.348 209.932 384.91 210.279 384.465 210.299C383.631 210.34 382.793 210.207 381.96 210.116C381.726 210.095 381.49 210.075 381.263 209.911C381.108 209.799 380.952 209.646 380.797 209.534C380.73 209.483 380.656 208.992 380.656 208.707C380.645 205.592 380.649 202.478 380.649 199.364C380.649 197.098 380.631 194.831 380.652 192.575C380.68 189.808 380.733 187.041 380.786 184.274C380.825 182.293 380.875 180.312 380.924 178.332C380.952 177.198 380.995 176.065 381.041 174.942C381.055 174.585 381.076 174.207 381.133 173.901C381.228 173.38 381.352 173.37 381.497 173.768C381.535 173.87 381.585 174.003 381.631 174.003C382.447 174.095 383.263 174.207 384.083 174.248C384.885 174.289 385.688 174.35 386.486 174.238C387.338 174.125 388.182 173.829 389.031 173.615C389.342 173.533 389.649 173.441 389.96 173.359C390.027 173.339 390.108 173.339 390.168 173.431C390.356 173.696 390.539 173.635 390.73 173.472C390.826 173.39 390.925 173.38 391.024 173.37C391.469 173.298 391.914 173.206 392.359 173.186C392.893 173.165 393.229 173.656 393.172 175.565C393.154 176.177 393.126 176.78 393.108 177.382C393.031 179.884 392.967 182.385 392.879 184.876C392.798 187.194 392.741 189.512 392.745 191.84C392.748 194.933 392.72 198.037 392.72 201.131C392.72 202.356 392.769 203.571 392.783 204.796C392.79 205.746 392.773 206.705 392.769 207.655C392.773 208.431 392.617 208.686 392.37 208.349C392.335 208.196 392.275 208.043 392.275 207.89C392.25 206.123 392.218 204.357 392.218 202.591C392.214 198.742 392.207 194.903 392.239 191.053C392.257 188.736 392.335 186.418 392.398 184.1C392.479 181.17 392.578 178.25 392.663 175.33C392.688 174.493 392.617 174.329 392.356 174.401C392.017 174.493 391.677 174.523 391.338 174.595C391.112 174.646 390.886 174.748 390.656 174.758C390.465 174.768 390.274 174.687 390.084 174.646C390.031 174.636 389.978 174.574 389.928 174.585C389.617 174.656 389.306 174.728 388.999 174.809C388.239 175.003 387.479 175.289 386.719 175.381C385.886 175.483 385.048 175.422 384.211 175.391C383.794 175.381 383.377 175.259 382.96 175.207C382.536 175.156 382.111 175.116 381.691 175.105C381.649 175.105 381.574 175.279 381.571 175.381C381.528 176.627 381.49 177.883 381.461 179.138C381.429 180.619 381.412 182.089 381.38 183.569C381.327 186.163 381.232 188.756 381.221 191.35C381.196 197.067 381.214 202.785 381.214 208.502C381.214 208.666 381.221 208.819 381.225 208.982C381.376 208.931 381.518 208.778 381.641 208.849C382.56 209.35 383.486 209.074 384.408 209.125C384.825 209.146 385.242 208.758 385.659 208.625C386.483 208.359 387.31 208.114 388.14 208.206C388.582 208.257 389.02 208.41 389.462 208.4C390.101 208.39 390.737 208.257 391.377 208.227C391.702 208.206 392.038 208.298 392.37 208.349Z" fill="#C4C4C4"/>
<path d="M382.511 190.91C382.507 190.41 382.574 190.257 382.74 190.236C383.719 190.144 384.698 190.022 385.68 189.93C385.917 189.91 386.15 189.91 386.387 189.889C386.529 189.879 386.613 190.155 386.596 190.481C386.585 190.665 386.458 190.89 386.377 190.92C386.037 191.023 385.698 191.084 385.355 191.125C384.574 191.206 383.793 191.257 383.009 191.308C382.882 191.319 382.755 191.278 382.62 191.247C382.726 192.401 382.694 193.534 382.67 194.688C382.641 195.872 382.67 197.067 382.656 198.261C382.649 199.129 382.61 199.987 382.596 200.845C382.585 201.569 382.592 202.294 382.592 203.06C382.921 203.06 383.21 203.101 383.493 203.05C384.08 202.948 384.666 202.825 385.249 202.672C385.673 202.56 386.097 202.356 386.525 202.233C386.603 202.213 386.709 202.315 386.765 202.478C386.885 202.805 386.868 203.111 386.712 203.244C386.507 203.417 386.288 203.52 386.076 203.581C385.631 203.703 385.186 203.795 384.741 203.867C384.055 203.989 383.369 204.091 382.68 204.183C382.588 204.193 382.49 204.153 382.401 204.081C382.143 203.856 382.122 203.663 382.09 202.876C382.023 201.273 382.133 199.701 382.147 198.108C382.157 197.026 382.15 195.934 382.157 194.851C382.164 193.779 382.175 192.717 382.186 191.656C382.193 191.135 382.309 190.859 382.511 190.91Z" fill="#C4C4C4"/>
<path d="M390.822 180.067C390.476 180.241 390.161 180.404 389.843 180.557C389.808 180.578 389.773 180.588 389.737 180.598C389.115 180.71 388.497 180.823 387.875 180.925C387.73 180.945 387.582 180.935 387.433 180.925C387.38 180.925 387.313 180.925 387.281 180.833C387.225 180.649 387.137 180.333 387.158 180.22C387.197 180.006 387.32 179.74 387.384 179.791C387.744 180.057 388.094 179.894 388.448 179.73C388.677 179.628 388.918 179.587 389.151 179.608C389.727 179.659 390.282 179.301 390.836 178.954C390.918 178.903 390.999 178.903 391.08 178.862C391.303 178.76 391.444 179.158 391.416 179.791C391.331 181.691 391.229 183.579 391.176 185.478C391.13 187.184 391.14 188.899 391.13 190.614C391.126 191.176 391.063 191.4 390.854 191.431C390.688 191.451 390.624 191.278 390.607 190.726C390.536 188.541 390.568 186.357 390.674 184.182C390.727 183.038 390.748 181.885 390.787 180.741C390.794 180.516 390.808 180.302 390.822 180.067Z" fill="#C4C4C4"/>
<path d="M388.917 184.958C388.479 184.958 388.038 184.927 387.599 184.968C387.101 185.019 386.606 185.162 386.108 185.193C385.924 185.203 385.737 185.029 385.56 184.856C385.504 184.794 385.437 184.447 385.451 184.284C385.465 184.11 385.567 183.998 385.635 183.875C385.645 183.855 385.67 183.875 385.688 183.896C386.366 184.519 387.038 183.814 387.712 183.855C388.204 183.886 388.695 183.835 389.186 183.916C389.416 183.957 389.483 184.457 389.451 185.141C389.366 187.112 389.267 189.072 389.225 191.053C389.2 192.227 389.278 193.422 389.306 194.606C389.32 195.209 389.246 195.423 389.048 195.454C388.872 195.474 388.794 195.3 388.783 194.79C388.751 193.432 388.698 192.084 388.705 190.726C388.713 189.481 388.787 188.235 388.833 186.989C388.854 186.305 388.886 185.632 388.917 184.958Z" fill="#C4C4C4"/>
<path d="M385.518 196.036C385.497 195.025 385.341 194.177 385.186 193.34C385.147 193.126 385.03 193.044 384.967 192.85C384.917 192.697 384.85 192.38 384.871 192.278C384.907 192.105 385.013 191.931 385.08 191.952C385.373 192.023 385.603 192.431 385.723 193.238C385.815 193.861 385.903 194.484 385.974 195.127C386.129 196.546 385.946 197.73 385.631 198.772C385.472 199.303 385.292 199.824 385.094 200.222C384.967 200.477 384.79 200.559 384.628 200.62C384.585 200.64 384.49 200.324 384.486 200.16C384.483 199.966 384.539 199.681 384.599 199.568C384.931 198.935 385.211 198.159 385.394 197.128C385.462 196.791 385.483 196.403 385.518 196.036Z" fill="#C4C4C4"/>
<path d="M390.246 201.478C390.264 201.181 390.288 200.865 390.433 200.845C390.599 200.824 390.797 201.222 390.758 201.59C390.73 201.886 390.61 202.172 390.508 202.305C390.426 202.427 390.25 201.845 390.246 201.478Z" fill="#C4C4C4"/>
<path d="M383.136 185.193C383.009 185.182 382.903 184.897 382.907 184.56C382.91 184.161 383.059 183.814 383.235 183.865C383.341 183.896 383.465 183.998 383.468 184.417C383.476 184.743 383.271 185.193 383.136 185.193Z" fill="#C4C4C4"/>
<path d="M383.313 180.741C383.08 180.751 382.91 180.363 382.924 179.934C382.935 179.618 383.002 179.383 383.133 179.383C383.281 179.383 383.49 179.873 383.461 180.251C383.447 180.465 383.345 180.639 383.313 180.741Z" fill="#C4C4C4"/>
<path d="M388.667 201.774C388.734 201.59 388.794 201.284 388.871 201.233C389.002 201.151 389.165 201.621 389.161 201.957C389.158 202.213 389.002 202.56 388.889 202.56C388.787 202.57 388.705 202.264 388.667 201.774Z" fill="#C4C4C4"/>
<path d="M383.889 198.067C383.907 198.557 383.762 198.486 383.663 198.527C383.514 198.588 383.469 198.261 383.451 197.924C383.433 197.628 383.56 197.353 383.698 197.363C383.804 197.383 383.889 197.669 383.889 198.067Z" fill="#C4C4C4"/>
<path d="M383.783 193.953C383.783 194.259 383.78 194.555 383.635 194.565C383.511 194.565 383.37 194.239 383.405 193.963C383.44 193.687 383.518 193.35 383.606 193.259C383.702 193.136 383.79 193.534 383.783 193.953Z" fill="#C4C4C4"/>
</g>
<g clip-path="url(#clip6_2103_26367)">
<path d="M7.88279 59.7466C8.37248 59.7466 8.8438 59.6949 9.31512 59.7638C9.64872 59.8069 9.97926 60.0051 10.3129 60.1343C10.4322 60.1774 10.5516 60.255 10.674 60.2722C10.8148 60.2894 10.9158 60.4704 10.9923 60.7806C11.1821 61.5388 11.2708 62.3746 11.1974 63.2966C11.1759 63.5896 11.1912 63.805 11.2524 64.0549C11.5616 65.2698 11.5065 66.5278 11.3045 67.8031C11.2188 68.3373 11.13 68.8629 11.0413 69.4144C11.3167 70.0176 11.3351 70.8792 11.3596 71.715C11.3749 72.2406 11.3412 72.7663 11.3381 73.3005C11.3381 73.6624 11.3351 74.0329 11.3626 74.3776C11.5034 76.1267 11.4697 77.7984 11.1178 79.3321C11.0015 79.8319 10.8729 80.3144 10.7322 80.7711C10.6128 81.1588 10.524 81.1502 10.3741 80.8659C10.3435 80.8055 10.2884 80.7797 10.2516 80.8142C9.75584 81.2191 9.24473 81.2708 8.73056 81.4087C8.2776 81.5293 7.88585 81.1933 7.48798 80.7883C7.3472 80.6504 7.2156 80.3833 7.10236 80.1076C6.95239 79.7371 6.94015 79.2201 7.00136 78.7203C7.10236 77.9017 7.2309 77.1176 7.45738 76.5059C7.55838 76.2301 7.68386 76.0319 7.81546 75.7562C7.6808 75.6614 7.55225 75.5925 7.42677 75.4891C7.31965 75.4029 7.20947 75.334 7.10848 75.1961C6.88506 74.8859 6.82997 74.3776 6.95239 73.7658C7.1146 72.9472 7.29211 72.1545 7.4482 71.4135C7.30741 71.2325 7.1146 71.0516 6.95239 70.7586C6.51779 69.9745 6.51167 69.087 6.78406 67.8634C6.98912 66.9414 7.27987 66.3297 7.64407 65.9678C7.72364 65.8902 7.80016 65.7696 7.88585 65.6576C7.64407 65.5542 7.41759 65.4594 7.19111 65.356C7.13602 65.3301 7.08093 65.2871 7.0289 65.244C6.63409 64.9165 6.56064 64.6236 6.59431 63.4862C6.61573 62.7538 6.70755 62.0989 6.92791 61.625C7.08093 61.2976 7.22784 60.9357 7.36862 60.5652C7.39617 60.4962 7.40535 60.3153 7.39923 60.1946C7.35332 59.1606 7.30435 58.1267 7.35638 57.0754C7.4482 55.2659 7.54307 53.4565 7.61041 51.6297C7.67468 49.9064 7.75425 48.1659 7.66856 46.4339C7.62571 45.5637 7.4635 44.7365 7.38086 43.8748C7.30741 43.1079 7.04115 43.1682 6.86669 42.8408C6.84527 42.7977 6.79018 42.8839 6.75345 42.927C6.38925 43.3147 6.1995 44.185 6.06177 45.107C5.93017 45.9859 5.83223 46.9165 5.7649 47.8471C5.61799 49.8633 5.50169 51.8969 5.37009 53.9218C5.26909 55.4986 5.18646 57.0841 5.04873 58.635C4.90183 60.3153 4.7335 61.9869 4.42439 63.5034C4.13057 64.951 3.75107 66.1573 3.18181 66.7863C3.10223 66.8725 3.01654 66.9156 2.9339 66.9673C2.83597 67.019 2.77782 66.8294 2.78088 66.614C2.78394 66.4675 2.84515 66.2349 2.89412 66.2004C3.46338 65.7868 3.80004 64.6063 4.08467 63.3052C4.33257 62.1765 4.47641 60.9184 4.58353 59.6346C4.65699 58.7471 4.77941 57.8854 4.83756 56.9893C4.94774 55.2832 5.02425 53.5685 5.12525 51.8624C5.17116 51.0697 5.27521 50.3028 5.30582 49.5187C5.36397 47.9074 5.50475 46.365 5.71593 44.8743C5.90875 43.4957 6.22092 42.3841 6.73815 41.8758C6.81773 41.7982 6.91566 41.7465 6.98912 41.8154C7.21254 42.0222 7.43289 42.2807 7.64713 42.5651C7.70834 42.6513 7.75731 42.8667 7.79404 43.0476C8.19497 45.0208 8.28372 47.1405 8.18579 49.3636C8.17354 49.6738 8.16742 49.9926 8.15518 50.3028C8.10009 51.647 8.04194 52.9998 7.98379 54.344C7.94706 55.2142 7.9287 56.0845 7.87361 56.9376C7.81546 57.9112 7.82158 58.8677 7.88279 59.7466ZM7.33802 74.2569C7.37474 74.3259 7.39311 74.3689 7.41147 74.3862C7.96849 74.8084 8.53163 74.9118 9.10395 74.6016C9.34879 74.4637 9.59363 74.3517 9.83848 74.2397C9.9762 74.1794 10.0833 74.412 10.1139 74.8515C10.1384 75.2134 10.0344 75.2737 9.94559 75.3426C9.50182 75.6528 9.0611 76.0061 8.61426 76.2387C8.06336 76.5231 7.64101 77.178 7.46656 78.7806C7.40535 79.3321 7.42065 79.5475 7.61041 79.7457C7.79098 79.9439 7.97155 80.1334 8.15824 80.2627C8.28984 80.3489 8.42757 80.3144 8.56529 80.3144C8.63569 80.3144 8.70608 80.2455 8.77647 80.2627C9.29676 80.3661 9.79563 80.0387 10.2914 79.6423C10.3373 79.6078 10.3894 79.6423 10.4353 79.6165C10.4842 79.5906 10.5424 79.5734 10.5791 79.4958C10.622 79.3838 10.6465 79.2115 10.6801 79.065C11.0321 77.6174 11.0994 76.0664 10.9066 74.4034C10.876 74.1363 10.8454 73.8261 10.8699 73.5762C10.9525 72.7059 10.9219 71.8357 10.8791 70.974C10.8668 70.7155 10.8087 70.4312 10.7413 70.2502C10.5944 69.8711 10.5516 69.6126 10.6312 69.087C10.7077 68.5614 10.7903 68.0357 10.876 67.5187C11.0627 66.39 11.0872 65.3043 10.7964 64.2444C10.7413 64.0376 10.7475 63.6844 10.7413 63.3914C10.7383 63.2277 10.775 63.0554 10.7781 62.8916C10.7964 61.8146 10.6556 60.7806 10.1568 60.9098C10.0619 60.9357 9.96396 60.9098 9.86908 60.8754C9.38858 60.6858 8.90807 60.591 8.42145 60.6858C8.12764 60.7461 7.84301 60.8754 7.61041 61.444C7.50941 61.6853 7.42677 61.9869 7.31659 62.1937C7.0993 62.6159 7.05645 63.2277 7.05339 63.8825C7.05339 64.0032 7.10542 64.2186 7.14214 64.2358C7.43289 64.3565 7.72671 64.546 8.01746 64.5116C8.58978 64.4426 9.1621 64.2186 9.73442 64.1152C9.81705 64.098 9.90581 64.4426 9.99456 64.615C9.94866 64.7873 9.91805 65.0372 9.85684 65.1147C9.71912 65.2957 9.57221 65.4163 9.4253 65.5111C9.16516 65.6748 8.89277 65.7351 8.63875 65.9678C8.33575 66.2435 8.05418 66.6829 7.75425 67.0018C7.4788 67.2947 7.29517 67.8462 7.16051 68.5355C7.09317 68.8716 6.99218 69.3024 7.12378 69.6815C7.20947 69.9314 7.32577 70.164 7.43901 70.233C7.75425 70.4398 8.07255 70.3795 8.3939 70.1899C8.82544 69.9314 9.26004 69.7246 9.69463 69.4833C9.80175 69.423 9.86296 69.535 9.88744 69.8194C9.91193 70.1037 9.93947 70.4053 9.80787 70.5432C9.64566 70.7155 9.48651 70.9137 9.32125 71.0171C9.00907 71.2067 8.69077 71.3273 8.37554 71.4738C8.07255 71.6116 7.8124 71.9477 7.65019 72.7404C7.54613 73.2402 7.44514 73.7399 7.33802 74.2569Z" fill="#C4C4C4"/>
<path d="M2.76237 75.627C3.08679 75.7821 3.46936 75.8079 3.80908 76.1612C4.1335 76.4972 4.43037 77.0832 4.71194 77.7208C5.00575 78.3929 5.31792 79.0564 5.68825 79.4269C5.74028 79.4786 5.80149 79.5303 5.83821 79.6337C6.02491 80.1334 6.25139 80.1593 6.49011 80.1334C6.55132 80.1248 6.63396 80.2971 6.6768 80.4609C6.72883 80.6677 6.65844 80.9951 6.56662 81.0209C6.4289 81.064 6.29117 81.1243 6.15651 81.1071C6.0647 81.0985 5.96676 81.0037 5.88412 80.9003C5.65152 80.5901 5.42198 80.2541 5.19244 79.9266C5.17408 79.9008 5.15265 79.9008 5.13429 79.8663C4.88027 79.3752 4.63542 78.8496 4.37528 78.3843C4.10595 77.9017 3.84274 77.2727 3.54587 77.0745C3.21227 76.8505 2.84501 76.6954 2.48999 76.9194C2.32778 77.0228 2.2482 76.885 2.21148 76.3938C2.18087 75.9802 2.28493 75.8768 2.39511 75.8165C2.49917 75.7562 2.60935 75.7045 2.76237 75.627Z" fill="#C4C4C4"/>
<path d="M5.84142 66.2867C5.78939 67.5188 5.67615 68.6304 5.42518 69.604C5.39458 69.7161 5.36091 69.8281 5.33337 69.9487C5.18646 70.5691 5.01813 71.1206 4.77329 71.4308C4.35706 71.9564 3.94388 72.5251 3.48786 72.6974C3.25526 72.7836 3.19099 72.3269 3.23384 71.7582C3.23996 71.6893 3.30117 71.6117 3.3379 71.6031C3.76943 71.4911 4.16424 71.0258 4.54375 70.5002C4.84674 70.078 5.02119 69.2421 5.15892 68.4322C5.28134 67.6998 5.32419 66.8553 5.40376 66.0626C5.42212 65.8817 5.4313 65.6835 5.46803 65.537C5.5017 65.4078 5.56903 65.2613 5.618 65.2699C5.67309 65.2785 5.75572 65.4078 5.77714 65.5456C5.81999 65.7697 5.82611 66.054 5.84142 66.2867Z" fill="#C4C4C4"/>
<path d="M7.8644 39.8251C7.69913 39.8165 7.60426 39.4719 7.64405 38.9635C7.66853 38.6274 7.69913 38.2914 7.75116 37.9812C7.87052 37.2574 7.98683 36.5164 8.13679 35.8443C8.20718 35.5255 8.33879 35.2928 8.45815 35.086C8.50406 35.0085 8.60505 35.0688 8.65096 35.1636C8.68769 35.2411 8.69993 35.5082 8.68157 35.6547C8.58363 36.4044 8.47345 37.1368 8.36939 37.8778C8.31124 38.2914 8.24391 38.6878 8.19494 39.11C8.13373 39.6873 8.07864 39.8338 7.8644 39.8251Z" fill="#C4C4C4"/>
<path d="M6.08321 38.9375C5.95161 39.0495 5.88428 38.8427 5.83531 38.5067C5.75879 37.9811 5.6578 37.4727 5.59659 36.9385C5.56292 36.6627 5.58128 36.3267 5.59046 36.0165C5.59659 35.7235 5.66086 35.5771 5.77104 35.5426C5.88121 35.4995 5.93018 35.6546 5.97303 35.8873C6.08015 36.4818 6.19339 37.0763 6.30051 37.6795C6.30969 37.7312 6.31887 37.7829 6.32499 37.8346C6.44435 38.679 6.33723 39.0495 6.08321 38.9375Z" fill="#C4C4C4"/>
<path d="M7.50921 36.5593C7.50002 37.1884 7.43575 37.7053 7.27966 38.0155C7.19703 38.1793 7.04706 38.1793 6.94606 38.0931C6.90016 38.05 6.85119 37.5933 6.87567 37.3865C6.92158 36.9902 7.0134 36.6369 7.08991 36.2664C7.11133 36.1544 7.14194 36.0423 7.17867 35.9734C7.23376 35.8614 7.30109 35.7063 7.35924 35.7063C7.39903 35.7063 7.45412 35.9303 7.4786 36.0768C7.50308 36.2491 7.50308 36.4473 7.50921 36.5593Z" fill="#C4C4C4"/>
<path d="M2.04933 67.5706C1.96669 67.4155 1.83203 67.2949 1.8106 67.0881C1.77694 66.7779 1.7953 66.3643 1.84427 66.0627C1.89324 65.7611 1.99424 66.0024 2.02178 66.1661C2.07687 66.4849 2.16563 66.4591 2.2605 66.4591C2.35232 66.4591 2.44414 66.4591 2.53595 66.4763C2.63695 66.4936 2.6951 66.7003 2.67368 66.933C2.65837 67.1139 2.58798 67.3466 2.52677 67.3811C2.37986 67.4586 2.22378 67.4414 2.07075 67.4672C2.06157 67.5017 2.05545 67.5362 2.04933 67.5706Z" fill="#C4C4C4"/>
</g>
<g clip-path="url(#clip7_2103_26367)">
<path d="M383.297 48.4595C382.875 48.4595 382.476 48.4595 382.072 48.4595C382.035 48.4595 381.995 48.4595 381.962 48.4181C381.841 48.2732 381.701 48.0869 381.745 47.6626C381.789 47.2486 381.925 47.3417 382.065 47.3624C382.402 47.4349 382.743 47.4245 383.081 47.3624C383.47 47.3003 383.855 47.1244 384.244 47.0623C384.317 47.0519 384.398 47.3107 384.49 47.4763C384.516 47.321 384.571 47.0519 384.607 46.7725C384.78 45.5097 385.103 44.8266 385.58 44.7335C385.682 44.7128 385.789 44.661 385.888 44.7024C386.244 44.8163 386.42 45.4062 386.435 46.7414C386.46 48.8011 386.229 50.6745 385.748 52.2063C385.499 52.9929 385.172 53.6036 384.743 53.3138C384.343 53.055 384.079 51.9683 384.16 50.8297C384.222 49.9396 384.292 49.0599 384.358 48.1594C384.218 48.1801 384.061 48.1904 383.906 48.2629C383.859 48.2836 383.793 48.4906 383.782 48.6355C383.708 49.6809 383.635 50.7262 383.591 51.782C383.547 52.848 383.492 53.9348 383.639 54.9905C383.679 55.2907 383.422 55.6943 383.279 55.5598C383.118 55.4045 383.052 55.0216 383.037 54.6076C383.015 53.9969 383.019 53.3759 383.015 52.7549C383.015 52.5582 383.022 52.3512 383.03 52.0821C382.828 52.3926 382.648 52.6617 382.465 52.9412C381.896 53.8002 381.298 53.852 380.685 53.438C380.19 53.0964 379.801 51.5646 379.812 49.8775C379.823 47.4763 380.113 45.3338 380.612 43.4086C380.982 41.97 381.463 41.0281 382.046 40.5209C382.332 40.2725 382.63 40.1794 382.931 40.3967C383.253 40.6244 383.422 41.1937 383.415 42.1356C383.411 42.7359 383.389 43.3362 383.367 43.9365C383.356 44.1953 383.334 44.454 383.202 44.4126C383.074 44.3816 383.085 44.1125 383.085 43.8848C383.088 43.5535 383.099 43.2327 383.11 42.9015C383.158 41.6595 382.931 41.0902 382.498 41.3386C382.072 41.5767 381.701 42.1356 381.4 42.9946C380.74 44.868 380.417 47.1865 380.373 49.8051C380.362 50.5296 380.469 51.1713 380.623 51.7509C380.762 52.2788 380.964 52.3409 381.173 52.4444C381.782 52.7445 382.813 51.5025 383.092 50.0638C383.184 49.567 383.231 48.9874 383.297 48.4595ZM386.024 47.1451C386.024 46.9691 386.027 46.8035 386.024 46.6276C386.013 45.9651 385.899 45.6857 385.679 45.903C385.418 46.1721 385.161 46.5241 385.051 47.3624C384.989 47.8282 384.901 48.2732 384.86 48.7597C384.791 49.6084 384.728 50.4675 384.699 51.3369C384.681 51.9683 384.871 52.3719 385.051 52.1235C385.213 51.9062 385.385 51.6267 385.492 51.2334C385.825 50.0535 386.016 48.6872 386.024 47.1451Z" fill="#C4C4C4"/>
<path d="M389.113 74.4385C389.113 73.1654 389.113 71.9441 389.113 70.7331C388.9 71.3645 388.709 72.0062 388.489 72.5548C388.181 73.3207 387.81 73.2689 387.454 72.8653C387.165 72.5444 387.036 71.7475 387.087 70.6607C387.165 69.0564 387.392 67.6695 387.884 66.7587C388.21 66.1583 388.573 65.7961 388.977 66.148C389.278 66.4171 389.465 66.9657 389.546 67.8558C389.803 70.7021 389.722 73.6105 389.715 76.4878C389.711 77.9783 389.649 79.4791 389.403 80.8453C389.164 82.1598 388.823 83.143 388.287 83.4328C387.748 83.7226 387.33 82.9153 387.223 81.4042C387.121 79.9552 387.168 78.5268 387.359 77.1503C387.568 75.6598 387.997 75.0181 388.526 74.749C388.717 74.6559 388.915 74.542 389.113 74.4385ZM389.142 75.5356C388.849 75.7426 388.573 75.8461 388.324 76.1359C388.141 76.3533 387.939 76.7155 387.843 77.1813C387.575 78.4544 387.531 79.8827 387.656 81.3214C387.737 82.2633 388.052 82.5634 388.342 82.0252C388.588 81.5698 388.768 80.9695 388.889 80.1932C389.12 78.7131 389.102 77.1503 389.142 75.5356ZM388.878 67.1002C388.808 67.1002 388.75 67.0692 388.698 67.1002C387.953 67.597 387.653 69.6567 387.653 71.3231C387.653 71.6957 387.741 71.9648 387.876 71.9338C387.994 71.9131 388.126 71.8406 388.214 71.6543C388.739 70.5158 388.984 69.0253 388.878 67.1002Z" fill="#C4C4C4"/>
<path d="M378.061 60.4345C378.318 60.3 378.571 60.124 378.828 60.0515C379.478 59.8756 379.914 60.5794 380.142 62.3182C380.259 63.2187 380.311 64.2123 380.366 65.1749C380.501 67.5968 380.164 69.5944 379.643 71.4471C379.181 73.1031 378.674 74.5936 378.006 75.5872C377.926 75.7114 377.819 75.7735 377.731 75.7424C377.603 75.7114 377.559 75.4319 377.555 75.0697C377.555 73.7863 377.559 72.4925 377.537 71.2091C377.507 69.2011 377.441 67.1932 377.423 65.1749C377.412 63.9225 377.445 62.6598 377.482 61.4074C377.496 60.9624 377.573 60.5277 377.629 60.0929C377.68 59.6789 377.805 59.5133 377.929 59.6479C377.995 59.7203 378.017 60.1033 378.058 60.3414C378.061 60.4035 378.061 60.4552 378.061 60.4345ZM378.197 73.5172C378.586 72.7098 378.85 71.6748 379.148 70.7226C379.742 68.8182 379.907 66.6136 379.746 64.1916C379.702 63.5292 379.621 62.8668 379.518 62.2561C379.393 61.5213 379.184 61.0141 378.876 61.0141C378.726 61.0141 378.571 61.0659 378.425 61.159C378.05 61.3867 378.006 61.5627 377.999 62.6287C377.999 62.7115 377.999 62.8047 377.999 62.8875C377.966 65.7856 378.047 68.6629 378.139 71.5403C378.153 72.1716 378.175 72.8133 378.197 73.5172Z" fill="#C4C4C4"/>
<path d="M390.863 47.3313C390.929 46.2756 390.992 45.3027 391.054 44.3194C391.138 42.9842 391.219 41.6491 391.318 40.3242C391.344 39.962 391.428 39.6101 391.509 39.3099C391.542 39.1961 391.659 39.134 391.703 39.2064C391.758 39.2892 391.81 39.5583 391.806 39.7343C391.766 41.0177 391.722 42.2908 391.659 43.5638C391.586 45.1474 391.494 46.7207 391.414 48.2939C391.406 48.4491 391.391 48.594 391.384 48.7493C391.366 49.0805 391.366 49.3496 391.513 49.5256C391.718 49.774 391.725 50.3225 391.568 50.9021C391.509 51.1195 391.447 51.3679 391.425 51.637C391.388 52.0924 391.252 52.2994 391.146 52.227C390.922 52.0717 390.76 52.4547 390.581 52.6203C390.199 52.9929 389.825 52.9618 389.451 52.6203C389.201 52.3926 389.084 51.8544 389.069 51.0884C389.047 49.9085 389.146 48.8114 389.344 47.766C389.597 46.4308 390.192 46.0479 390.669 46.9173C390.727 47.0415 390.786 47.1657 390.863 47.3313ZM390.801 49.7636C390.874 48.8631 390.658 48.3042 390.412 47.8385C390.192 47.4245 389.99 47.6211 389.869 48.2732C389.707 49.1322 389.63 50.0224 389.641 51.0056C389.645 51.4507 389.711 51.6887 389.854 51.6473C390.089 51.5956 390.32 51.4921 390.551 51.3782C390.735 51.2851 390.874 51.0781 390.801 50.4157C390.786 50.2501 390.801 50.0431 390.801 49.7636Z" fill="#C4C4C4"/>
<path d="M392.301 67.4726C392.114 68.0419 391.92 68.5387 391.766 69.108C391.623 69.6358 391.516 70.2465 391.399 70.8261C391.303 71.2919 391.259 71.768 391.289 72.3476C391.318 72.8961 391.292 73.4861 391.248 74.0347C391.226 74.3038 391.127 74.5936 391.036 74.7488C390.885 74.9972 390.705 74.7799 390.683 74.2934C390.658 73.7448 390.687 73.1756 390.691 72.6063C390.694 72.2027 390.709 71.7887 390.702 71.385C390.672 69.9256 390.654 68.4663 390.793 67.0276C390.823 66.7067 390.863 66.448 391.01 66.4687C391.153 66.4894 391.175 66.7895 391.186 67.0793C391.212 67.69 391.23 68.311 391.252 69.0148C391.292 68.8596 391.322 68.7457 391.355 68.6526C391.571 68.0005 391.769 67.2967 392.012 66.7274C392.294 66.065 392.628 66.1996 392.841 67.0483C392.958 67.514 393.061 68.1247 393.068 68.6836C393.101 70.7743 393.09 72.8754 393.098 74.9765C393.098 75.0283 393.098 75.08 393.09 75.1318C393.032 75.4733 393.065 76.0426 392.844 75.9908C392.613 75.9287 392.514 75.5354 392.518 74.873C392.533 73.1135 392.551 71.3643 392.547 69.6048C392.544 68.9113 392.536 68.1765 392.301 67.4726Z" fill="#C4C4C4"/>
<path d="M380.586 70.7019C380.707 69.7704 380.78 68.8182 380.945 68.0212C381.096 67.276 381.331 66.6653 381.551 66.0547C381.635 65.8166 381.771 65.6821 381.892 65.5993C382.34 65.2888 382.641 65.9926 382.622 67.2863C382.604 68.5491 382.442 69.5944 382.057 70.3086C381.83 70.7329 381.591 71.1263 381.364 71.5506C381.29 71.6852 381.158 71.6334 381.173 72.0578C381.188 72.5028 381.206 73.01 381.371 73.1342C381.551 73.2791 381.775 73.4033 381.936 73.2273C382.285 72.8547 382.608 72.2855 382.945 71.8301C382.997 71.7576 383.096 71.8094 383.136 71.9232C383.169 72.006 383.169 72.3476 383.14 72.42C382.732 73.4033 382.318 74.4176 381.742 74.459C381.511 74.4797 381.265 74.3659 381.041 74.1692C380.799 73.9519 380.674 73.3412 380.623 72.6477C380.601 72.3372 380.579 72.1095 380.454 71.9543C380.325 71.799 380.281 71.4161 380.34 71.0331C380.388 70.7019 380.472 70.5052 380.586 70.7019ZM381.224 70.7433C381.47 70.2672 381.676 69.8842 381.877 69.4806C382.116 69.0045 382.248 68.3421 382.255 67.5244C382.259 67.2242 382.219 66.9137 382.197 66.6032C382.098 66.7274 381.98 66.8102 381.896 66.9965C381.488 67.897 381.29 69.139 381.224 70.7433Z" fill="#C4C4C4"/>
<path d="M387.069 47.0207C387.018 46.8965 386.956 46.8137 386.93 46.6688C386.908 46.5342 386.897 46.2858 386.926 46.1823C387.106 45.5303 387.293 44.8989 387.484 44.2779C387.649 43.7293 387.873 43.4602 388.115 43.3153C388.412 43.1497 388.654 43.5534 388.691 44.4021C388.731 45.3233 388.731 46.2548 388.728 47.1863C388.72 49.0907 388.552 50.8813 388.152 52.4235C387.998 53.0135 387.799 53.531 387.587 53.945C387.201 54.7005 386.75 54.2244 386.592 52.9721C386.519 52.3925 386.49 51.8128 386.548 51.2125C386.618 50.4984 386.666 49.7739 386.754 49.0804C386.838 48.3869 386.959 47.7245 387.069 47.0207ZM387.579 45.5406C387.601 45.5717 387.627 45.6027 387.649 45.6338C387.656 45.8822 387.689 46.1513 387.667 46.3686C387.598 47.0207 387.513 47.6728 387.414 48.2938C387.216 49.5668 387.099 50.902 387.062 52.2683C387.051 52.5891 387.11 53.0652 387.194 53.2515C387.311 53.5103 387.44 53.2101 387.55 52.9617C388.1 51.6783 388.339 49.9705 388.394 48.035C388.427 46.9275 388.42 45.7994 388.409 44.6816C388.401 44.164 388.321 44.0605 388.166 44.3297C387.957 44.6919 387.774 45.137 387.579 45.5406Z" fill="#C4C4C4"/>
<path d="M385.437 67.3797C385.448 66.7483 385.33 66.4688 385.106 66.6758C384.805 66.9553 384.53 67.4314 384.35 68.218C384.266 68.601 384.262 68.9218 384.428 69.2013C384.688 69.636 384.949 70.0914 385.187 70.6296C385.304 70.8884 385.404 71.3024 385.455 71.6957C385.528 72.296 385.418 72.8756 385.209 73.2275C384.827 73.8589 384.402 74.0969 383.969 74.2108C383.756 74.2729 383.554 73.7657 383.536 73.1758C383.532 73.0205 383.565 72.7307 383.598 72.7203C383.664 72.6789 383.741 72.7721 383.811 72.8342C383.873 72.8859 383.94 73.0516 383.987 73.0205C384.259 72.8342 384.527 72.6375 384.787 72.3684C384.952 72.2028 384.963 71.9648 384.831 71.6543C384.666 71.2506 384.479 70.9194 384.303 70.5675C384.182 70.3295 384.05 70.1432 383.936 69.8844C383.73 69.429 383.675 68.8183 383.771 68.1249C383.804 67.8868 383.84 67.6384 383.899 67.4418C384.185 66.5102 384.538 65.7961 384.971 65.5891C385.158 65.4959 385.381 65.7029 385.565 65.9203C385.77 66.1583 385.829 67.4004 385.679 67.8972C385.649 68.0007 385.569 68.0214 385.517 68.0007C385.484 67.9903 385.448 67.8351 385.433 67.7316C385.426 67.597 385.437 67.4521 385.437 67.3797Z" fill="#C4C4C4"/>
<path d="M386.713 66.7068C386.669 67.866 386.622 69.0563 386.585 70.2569C386.559 71.0953 386.534 71.9233 386.655 72.741C386.724 73.2067 386.578 73.4137 386.468 73.6208C386.357 73.8278 386.24 73.7657 386.189 73.4345C386.119 73.0101 386.024 72.534 386.031 72.0889C386.06 70.4639 386.115 68.839 386.185 67.2243C386.2 66.8517 386.302 66.5205 386.357 66.1583C386.405 65.8478 386.493 65.7132 386.592 65.8581C386.651 65.9513 386.677 66.21 386.71 66.4067C386.721 66.4791 386.713 66.5826 386.713 66.7068Z" fill="#C4C4C4"/>
<path d="M385.356 62.9083C385.403 62.3184 385.543 62.2149 385.686 62.2356C386.012 62.277 386.343 62.3701 386.669 62.4633C386.834 62.5047 386.999 62.5461 387.154 62.6703C387.249 62.7427 387.355 62.9394 387.403 63.1671C387.443 63.3534 387.432 63.7985 387.385 63.8916C387.319 64.0262 387.19 64.0055 387.099 63.9537C386.948 63.8709 386.809 63.6432 386.658 63.5811C386.28 63.4155 385.899 63.312 385.517 63.1671C385.462 63.136 385.411 62.9911 385.356 62.9083Z" fill="#C4C4C4"/>
<path d="M392.661 61.3558C392.698 61.1074 392.745 60.7347 392.804 60.3828C392.987 59.265 393.171 58.1472 393.369 57.0501C393.391 56.9259 393.49 56.8431 393.552 56.8638C393.593 56.8741 393.659 57.1329 393.652 57.2364C393.611 57.6918 393.563 58.1575 393.494 58.5819C393.354 59.3996 393.193 60.1862 393.046 60.9935C393.013 61.1798 392.976 61.4282 392.991 61.6145C393.024 61.9975 392.965 62.2459 392.859 62.2355C392.797 62.2355 392.734 61.894 392.679 61.6973C392.654 61.6456 392.665 61.5628 392.661 61.3558Z" fill="#C4C4C4"/>
<path d="M395.699 62.7531C395.703 63.281 395.596 63.5811 395.442 63.5294C394.994 63.3845 394.573 63.6639 394.169 64.1711C394.052 64.3264 393.96 64.3057 393.901 64.0262C393.831 63.6743 393.949 63.5397 394.033 63.4259C394.426 62.8877 394.844 62.6186 395.277 62.5254C395.35 62.5047 395.42 62.4633 395.49 62.4116C395.644 62.277 395.703 62.453 395.699 62.7531Z" fill="#C4C4C4"/>
<path d="M394.609 58.9443C394.763 58.9339 394.833 59.1202 394.767 59.4204C394.686 59.793 394.58 60.1242 394.463 60.4243C394.323 60.7762 394.158 61.0557 394.019 61.4076C393.949 61.5836 393.912 61.8527 393.85 62.0597C393.802 62.2149 393.736 62.3391 393.681 62.4737C393.641 62.246 393.545 61.9355 393.571 61.8113C393.663 61.3455 393.78 60.8901 393.916 60.5071C394.092 60.0103 394.294 59.586 394.485 59.1409C394.525 59.0374 394.584 58.9857 394.609 58.9443Z" fill="#C4C4C4"/>
</g>
<g clip-path="url(#clip8_2103_26367)">
<path d="M398.736 475.4C398.883 476.49 399.001 477.526 399.167 478.494C399.55 480.715 399.863 483.005 399.958 485.485C400.062 488.306 399.991 491.1 399.688 493.826C399.536 495.175 399.389 496.538 399.219 497.874C399.138 498.501 398.968 498.692 398.816 498.419C398.641 498.106 398.703 497.697 398.764 497.247C399.105 494.726 399.361 492.15 399.441 489.438C399.512 486.944 399.451 484.49 399.153 482.133C399.02 481.07 398.831 480.061 398.688 479.012C398.523 477.799 398.371 476.558 398.239 475.318C398.215 475.114 398.291 474.759 398.352 474.569C398.575 473.901 398.684 473.151 398.651 472.224C398.627 471.475 398.371 470.548 398.111 470.453C398.007 470.412 397.855 470.507 397.789 470.712C397.315 472.102 397.012 473.737 397.064 475.754C397.083 476.49 397.145 477.199 397.453 477.417C397.49 477.444 397.538 477.649 397.538 477.771C397.543 478.098 397.538 478.453 397.505 478.766C397.334 480.429 397.102 482.064 396.984 483.754C396.79 486.548 396.629 489.37 396.515 492.191C396.449 493.881 396.487 495.612 396.496 497.329C396.501 497.888 396.411 498.119 396.25 498.242C396.075 498.392 396.004 498.01 395.994 497.656C395.961 496.252 395.895 494.835 395.947 493.458C396.07 490.378 396.255 487.325 396.42 484.259C396.539 482.105 396.742 480.02 397.074 478.044C397.093 477.921 397.083 477.69 397.05 477.581C396.714 476.449 396.685 475.114 396.813 473.792C396.936 472.511 397.126 471.298 397.448 470.262C397.642 469.635 397.874 469.39 398.134 469.376C398.518 469.349 399.11 470.48 399.153 471.925C399.205 473.642 399.053 474.378 398.736 475.4Z" fill="#C4C4C4"/>
<path d="M379.482 477.022C379.615 477.69 379.729 478.289 379.847 478.875C380.344 481.356 380.444 484.136 380.633 486.862C380.799 489.288 380.709 491.7 380.666 494.112C380.647 495.189 380.552 496.252 380.491 497.329C380.462 497.792 380.391 498.174 380.207 498.119C380.027 498.065 379.946 497.547 379.984 496.961C380.169 494.208 380.297 491.414 380.183 488.647C380.055 485.499 379.927 482.296 379.397 479.407C379.298 478.875 379.255 478.262 379.193 477.758C379.08 477.635 378.985 477.54 378.886 477.444C378.928 477.117 378.947 476.736 379.013 476.477C379.407 474.95 379.62 473.274 379.596 471.352C379.582 470.207 379.227 469.267 378.928 469.362C378.691 469.444 378.431 470.194 378.275 470.834C378.137 471.407 378.109 472.238 378.076 472.974C378.043 473.71 378.057 474.473 378.076 475.223C378.09 475.836 378.133 476.449 378.407 476.599C378.45 476.627 378.478 476.845 378.512 476.981C378.455 477.104 378.379 477.363 378.341 477.335C378.213 477.226 378.071 477.063 377.976 476.804C377.886 476.545 377.82 476.15 377.801 475.782C377.692 473.887 377.707 472.006 378.005 470.262C378.18 469.24 378.507 468.599 378.876 468.299C379.307 467.959 380.093 469.362 380.117 471.107C380.14 473.478 380.022 474.582 379.482 477.022Z" fill="#C4C4C4"/>
<path d="M393.02 477.799C392.959 477.662 392.902 477.499 392.836 477.403C392.594 477.076 392.334 476.845 392.107 476.436C391.955 476.163 391.841 475.7 391.732 475.277C391.704 475.168 391.737 474.8 391.78 474.705C391.827 474.61 391.955 474.596 391.993 474.705C392.343 475.768 392.822 476.122 393.262 476.722C393.546 477.104 393.598 478.044 393.385 478.739C392.954 480.143 392.443 481.288 391.874 482.201C391.78 482.351 391.562 482.378 391.515 482.214C391.396 481.806 391.524 481.397 391.647 481.138C391.927 480.552 392.215 480.02 392.5 479.461C392.495 479.393 392.485 479.339 392.481 479.271C392.249 479.271 392.021 479.298 391.789 479.271C390.624 479.107 389.455 479.053 388.299 478.698C387.149 478.344 386.007 478.194 384.857 478.63C384.568 478.739 384.279 478.875 383.99 478.916C383.905 478.93 383.815 478.685 383.725 478.562C383.791 478.385 383.853 478.071 383.933 478.044C385.179 477.472 386.424 476.967 387.693 477.485C389.346 478.153 391.008 478.33 392.67 478.194C392.779 478.18 392.883 478.085 392.987 478.03C393.001 477.935 393.011 477.867 393.02 477.799Z" fill="#C4C4C4"/>
<path d="M385.345 488.048C385.61 488.565 385.87 489.083 386.135 489.588C386.249 489.806 386.419 490.024 386.325 490.487C386.235 490.951 386.064 490.937 385.908 490.664C385.742 490.364 385.562 490.106 385.416 489.751C385.004 488.756 384.53 488.116 384.038 487.571C383.971 487.502 383.905 487.407 383.853 487.284C383.673 486.835 383.706 486.221 383.943 485.976C384.563 485.322 385.184 484.681 385.809 484.082C385.894 484 386.017 484.218 386.121 484.286C386.05 484.559 386.003 484.967 385.913 485.076C385.515 485.553 385.103 485.935 384.696 486.358C384.615 486.439 384.54 486.535 384.464 486.78C384.54 486.835 384.615 486.944 384.691 486.944C385.534 486.944 386.377 486.944 387.215 486.889C388.186 486.835 389.152 486.63 390.118 486.657C390.89 486.671 391.657 486.944 392.429 487.094C392.594 487.121 392.76 487.148 392.926 487.175C393.044 487.189 393.191 487.134 393.191 487.598C393.191 487.72 393.025 487.966 392.935 487.952C392.268 487.884 391.6 487.734 390.932 487.693C390.004 487.639 389.071 487.598 388.143 487.666C387.627 487.693 387.111 487.993 386.59 488.048C386.244 488.088 385.899 487.952 385.553 487.884C385.491 487.87 385.43 487.884 385.368 487.884C385.359 487.952 385.354 488.007 385.345 488.048Z" fill="#C4C4C4"/>
<path d="M376.703 491.605C376.745 490.964 376.821 489.697 376.925 488.456C377.072 486.753 377.238 485.063 377.413 483.373C377.55 482.037 377.702 480.702 377.853 479.38C377.905 478.93 377.957 478.466 378.052 478.085C378.109 477.853 378.237 477.785 378.336 477.649C378.369 477.935 378.455 478.262 378.431 478.521C378.317 479.911 378.19 481.274 378.052 482.65C377.915 484.013 377.744 485.349 377.612 486.712C377.474 488.129 377.313 489.547 377.261 490.991C377.209 492.559 377.266 494.153 377.285 495.734C377.299 496.893 377.337 498.037 377.342 499.196C377.342 499.469 377.242 499.741 377.19 500.014C377.081 499.809 376.944 499.659 376.868 499.373C376.807 499.155 376.812 498.773 376.807 498.46C376.769 496.375 376.741 494.317 376.703 491.605Z" fill="#C4C4C4"/>
<path d="M378.493 465.873C378.194 465.764 377.929 465.546 377.749 464.878C377.598 464.306 377.451 463.706 377.328 463.093C377.276 462.821 377.252 462.425 377.271 462.125C377.285 461.894 377.375 461.621 377.451 461.539C377.493 461.498 377.602 461.771 377.645 461.976C377.806 462.698 377.953 463.447 378.114 464.17C378.256 464.81 378.478 464.919 378.696 464.606C379.388 463.57 379.913 462.125 380.032 459.768C380.041 459.59 380.036 459.386 380.069 459.236C380.122 459.004 380.193 458.827 380.259 458.623C380.32 458.882 380.448 459.182 380.434 459.4C380.368 460.34 380.306 461.335 380.15 462.153C379.88 463.529 379.487 464.66 378.976 465.383C378.824 465.601 378.654 465.71 378.493 465.873Z" fill="#C4C4C4"/>
<path d="M396.648 461.935C396.648 461.798 396.629 461.635 396.652 461.539C396.714 461.253 396.78 460.858 396.87 460.776C397.036 460.64 397.022 461.158 397.06 461.458C397.131 462.044 397.178 462.684 397.277 463.229C397.429 464.061 397.713 464.483 398.021 464.62C398.153 464.674 398.343 464.483 398.442 464.197C398.897 462.875 399.2 461.321 399.233 459.413C399.242 458.964 399.304 458.582 399.446 458.623C399.512 458.637 399.621 459.195 399.607 459.454C399.546 460.449 399.484 461.471 399.342 462.384C399.205 463.257 398.973 464.006 398.764 464.77C398.561 465.519 398.281 465.819 397.945 465.628C397.32 465.274 396.851 464.388 396.671 462.534C396.662 462.453 396.652 462.357 396.648 462.275C396.643 462.166 396.643 462.044 396.648 461.935C396.648 461.935 396.643 461.935 396.648 461.935Z" fill="#C4C4C4"/>
<path d="M378.876 459.045C378.578 458.964 378.563 458.432 378.559 457.996C378.549 457.614 378.549 457.137 378.748 457.069C378.89 457.028 379.061 457.683 379.051 458.405C379.046 458.65 378.923 458.882 378.876 459.045Z" fill="#C4C4C4"/>
<path d="M377.787 458.732C377.853 458.159 377.844 457.601 378.062 457.614C378.28 457.614 378.332 458.2 378.308 458.636C378.289 458.964 378.138 459.222 378.043 459.509C377.958 459.25 377.872 458.991 377.787 458.732Z" fill="#C4C4C4"/>
<path d="M398.044 457.751C397.907 458.078 397.827 458.432 397.732 458.459C397.604 458.5 397.438 458.35 397.462 457.764C397.486 457.273 397.471 456.592 397.722 456.701C397.831 456.756 397.912 457.301 398.044 457.751Z" fill="#C4C4C4"/>
<path d="M398.442 458.691C398.224 458.623 398.186 458.296 398.196 457.928C398.205 457.464 398.177 456.837 398.414 456.837C398.627 456.837 398.66 457.464 398.655 457.9C398.65 458.173 398.518 458.432 398.442 458.691Z" fill="#C4C4C4"/>
</g>
<defs>
<filter id="filter0_d_2103_26367" x="303.444" y="124.653" width="51.4688" height="133.029" filterUnits="userSpaceOnUse" color-interpolation-filters="sRGB">
<feFlood flood-opacity="0" result="BackgroundImageFix"/>
<feColorMatrix in="SourceAlpha" type="matrix" values="0 0 0 0 0 0 0 0 0 0 0 0 0 0 0 0 0 0 127 0" result="hardAlpha"/>
<feOffset dy="4"/>
<feGaussianBlur stdDeviation="2"/>
<feComposite in2="hardAlpha" operator="out"/>
<feColorMatrix type="matrix" values="0 0 0 0 0 0 0 0 0 0 0 0 0 0 0 0 0 0 0.25 0"/>
<feBlend mode="normal" in2="BackgroundImageFix" result="effect1_dropShadow_2103_26367"/>
<feBlend mode="normal" in="SourceGraphic" in2="effect1_dropShadow_2103_26367" result="shape"/>
</filter>
<filter id="filter1_d_2103_26367" x="25.9153" y="174.303" width="81.9819" height="220.793" filterUnits="userSpaceOnUse" color-interpolation-filters="sRGB">
<feFlood flood-opacity="0" result="BackgroundImageFix"/>
<feColorMatrix in="SourceAlpha" type="matrix" values="0 0 0 0 0 0 0 0 0 0 0 0 0 0 0 0 0 0 127 0" result="hardAlpha"/>
<feOffset dy="4"/>
<feGaussianBlur stdDeviation="2"/>
<feComposite in2="hardAlpha" operator="out"/>
<feColorMatrix type="matrix" values="0 0 0 0 0 0 0 0 0 0 0 0 0 0 0 0 0 0 0.25 0"/>
<feBlend mode="normal" in2="BackgroundImageFix" result="effect1_dropShadow_2103_26367"/>
<feBlend mode="normal" in="SourceGraphic" in2="effect1_dropShadow_2103_26367" result="shape"/>
</filter>
<filter id="filter2_d_2103_26367" x="196.268" y="260.564" width="59.0464" height="154.824" filterUnits="userSpaceOnUse" color-interpolation-filters="sRGB">
<feFlood flood-opacity="0" result="BackgroundImageFix"/>
<feColorMatrix in="SourceAlpha" type="matrix" values="0 0 0 0 0 0 0 0 0 0 0 0 0 0 0 0 0 0 127 0" result="hardAlpha"/>
<feOffset dy="4"/>
<feGaussianBlur stdDeviation="2"/>
<feComposite in2="hardAlpha" operator="out"/>
<feColorMatrix type="matrix" values="0 0 0 0 0 0 0 0 0 0 0 0 0 0 0 0 0 0 0.25 0"/>
<feBlend mode="normal" in2="BackgroundImageFix" result="effect1_dropShadow_2103_26367"/>
<feBlend mode="normal" in="SourceGraphic" in2="effect1_dropShadow_2103_26367" result="shape"/>
</filter>
<filter id="filter3_d_2103_26367" x="114.614" y="11.1133" width="42.4304" height="107.032" filterUnits="userSpaceOnUse" color-interpolation-filters="sRGB">
<feFlood flood-opacity="0" result="BackgroundImageFix"/>
<feColorMatrix in="SourceAlpha" type="matrix" values="0 0 0 0 0 0 0 0 0 0 0 0 0 0 0 0 0 0 127 0" result="hardAlpha"/>
<feOffset dy="4"/>
<feGaussianBlur stdDeviation="2"/>
<feComposite in2="hardAlpha" operator="out"/>
<feColorMatrix type="matrix" values="0 0 0 0 0 0 0 0 0 0 0 0 0 0 0 0 0 0 0.25 0"/>
<feBlend mode="normal" in2="BackgroundImageFix" result="effect1_dropShadow_2103_26367"/>
<feBlend mode="normal" in="SourceGraphic" in2="effect1_dropShadow_2103_26367" result="shape"/>
</filter>
<linearGradient id="paint0_linear_2103_26367" x1="36.4808" y1="0" x2="36.4808" y2="110.419" gradientUnits="userSpaceOnUse">
<stop stop-color="#FF51E3"/>
<stop offset="1" stop-color="#905DFB"/>
</linearGradient>
<linearGradient id="paint1_linear_2103_26367" x1="62.0887" y1="0" x2="62.0887" y2="187.929" gradientUnits="userSpaceOnUse">
<stop stop-color="#6F40D3"/>
<stop offset="1" stop-color="#905DFB"/>
</linearGradient>
<linearGradient id="paint2_linear_2103_26367" x1="42.8403" y1="0" x2="42.8403" y2="129.668" gradientUnits="userSpaceOnUse">
<stop stop-color="#FF746D"/>
<stop offset="1" stop-color="#FFE100"/>
</linearGradient>
<linearGradient id="paint3_linear_2103_26367" x1="42.8148" y1="52.5195" x2="-2.68245" y2="50.8285" gradientUnits="userSpaceOnUse">
<stop stop-color="#329A29"/>
<stop offset="1" stop-color="#329A29"/>
</linearGradient>
<clipPath id="clip0_2103_26367">
<rect width="17.9211" height="43.299" fill="white" transform="translate(1.79224 454.639)"/>
</clipPath>
<clipPath id="clip1_2103_26367">
<rect width="17.9211" height="43.299" fill="white" transform="translate(1.79224 454.639)"/>
</clipPath>
<clipPath id="clip2_2103_26367">
<rect width="15.7706" height="14.433" fill="white" transform="translate(0 181.443)"/>
</clipPath>
<clipPath id="clip3_2103_26367">
<rect width="15.7706" height="15.4639" fill="white" transform="translate(381.003 325.773)"/>
</clipPath>
<clipPath id="clip4_2103_26367">
<rect width="12.1864" height="36.0825" fill="white" transform="translate(1.0752 312.371)"/>
</clipPath>
<clipPath id="clip5_2103_26367">
<rect width="12.5448" height="37.1134" fill="white" transform="translate(380.645 173.196)"/>
</clipPath>
<clipPath id="clip6_2103_26367">
<rect width="9.67742" height="46.3918" fill="white" transform="translate(1.79224 35.0515)"/>
</clipPath>
<clipPath id="clip7_2103_26367">
<rect width="18.2796" height="44.3299" fill="white" transform="translate(377.419 39.1753)"/>
</clipPath>
<clipPath id="clip8_2103_26367">
<rect width="23.2975" height="43.299" fill="white" transform="translate(376.703 456.701)"/>
</clipPath>
</defs>
</svg>
