<svg width="182" height="119" viewBox="0 0 182 119" fill="none" xmlns="http://www.w3.org/2000/svg">
<g clip-path="url(#clip0_536_4189)">
<path d="M70.0774 101.095C69.3888 101.281 68.7267 101.547 68.0381 101.654C66.6609 101.84 65.2573 101.92 63.8801 102.053C59.3248 102.558 54.796 103.117 50.2407 103.569C47.6982 103.835 45.1557 104.048 42.5867 104.101C40.1767 104.155 37.7666 103.968 35.3565 103.862C32.3638 103.729 29.3711 103.623 26.3783 103.41C22.8559 103.17 19.36 102.585 15.8376 102.612C11.5736 102.638 7.30966 103.17 3.04569 103.436C2.30413 103.49 1.53609 103.463 0.821013 103.357C0.529686 103.33 0.291327 102.931 0 102.691C0.291327 102.479 0.582654 102.106 0.900466 102.08C5.50873 101.76 10.117 101.414 14.7517 101.255C16.791 101.202 18.8568 101.654 20.9226 101.76C23.7299 101.92 26.5637 101.893 29.3711 102.053C32.2314 102.213 35.0652 102.612 37.9255 102.718C40.6004 102.798 43.3018 102.718 45.9767 102.558C50.3731 102.292 54.7695 101.947 59.1659 101.521C61.2581 101.308 63.3239 100.803 65.681 100.404C62.8737 98.4614 62.7413 95.6414 62.6088 92.9012C62.5824 92.2095 63.0591 91.2251 63.6417 90.7994C66.8728 88.2987 70.3158 86.0639 73.4939 83.4833C77.2811 80.3972 80.8565 77.0717 84.5378 73.8527C86.6301 72.017 88.6959 70.1813 90.7881 68.3456C90.3114 66.6962 91.4502 64.5678 93.2512 63.5037C94.0457 63.0248 94.8932 62.4129 95.3964 61.6414C98.3626 56.9059 102.309 53.0749 106.334 49.2705C111.923 44.0029 117.272 38.4692 122.702 33.0154C125.615 30.0623 128.369 26.9763 131.998 24.7681C133.905 23.6242 135.573 22.0279 137.136 20.4317C140.42 17.0264 143.889 13.8605 147.65 10.9872C150.351 8.8589 152.814 6.43793 155.463 4.2564C156.443 3.45827 157.581 2.84638 158.72 2.23449C161.713 0.638243 164.918 -0.266295 168.334 0.0529536C169.208 0.132766 170.082 0.558431 170.93 0.824472C172.598 1.38316 174.32 1.80882 175.882 2.55374C178.689 3.88394 180.941 5.90585 181.921 9.01853C182.106 9.63042 182 10.4551 181.709 11.0404C179.431 15.6961 176.385 19.7932 172.678 23.3581C170.691 25.2736 168.546 27.0827 166.321 28.7321C161.951 31.9778 157.476 35.1437 153 38.2564C150.298 40.1453 147.491 41.8479 144.79 43.7634C140.42 46.8761 136.076 50.042 131.786 53.2877C129.773 54.8041 127.946 56.5334 125.986 58.103C123.099 60.4176 120.133 62.6523 117.219 64.9403C115.63 66.1907 114.147 67.6007 112.452 68.6915C110.89 69.729 109.195 70.6336 107.447 71.2454C106.043 71.7243 104.957 72.416 103.977 73.4536C103.342 74.1453 102.627 74.7306 101.964 75.3691C101.276 76.0076 100.534 76.3268 99.5544 76.0076C99.1836 75.9012 98.601 76.0608 98.3097 76.3268C93.4365 80.5303 88.4045 84.5741 83.7698 89.0702C79.6117 93.0874 74.6062 95.7744 69.9715 99.0999C69.0445 99.765 69.3888 100.164 70.1039 100.696C70.1039 100.829 70.1039 100.962 70.0774 101.095ZM96.7736 62.7588C97.5151 63.7697 98.0713 64.621 98.7334 65.366C99.2631 65.9512 99.8722 66.4567 100.534 66.8558C101.488 67.4145 102.574 67.7337 103.474 68.319C105.169 69.4098 106.758 69.1969 108.268 68.0796C110.281 66.5897 112.214 64.9935 114.2 63.4505C119.894 59.0342 125.615 54.5913 131.336 50.2016C135.388 47.089 139.413 43.9497 143.571 41.0232C146.723 38.7885 150.113 36.8996 153.37 34.7979C154.668 33.9731 155.86 32.9888 157.131 32.1109C158.482 31.1531 159.939 30.2752 161.236 29.211C163.938 27.0295 166.639 24.8479 169.261 22.56C172.121 20.0592 174.452 17.0796 176.544 13.8871C177.259 12.7697 177.868 11.5991 178.451 10.4019C178.636 10.0561 178.584 9.524 178.504 9.12494C178.054 7.20945 176.597 5.98566 175.008 5.18754C172.704 4.07017 170.294 3.08582 167.804 2.47392C164.997 1.80882 162.375 3.03261 159.833 4.17658C158.72 4.68206 157.661 5.34716 156.707 6.11868C153.741 8.53965 150.775 10.9872 147.888 13.488C145.054 15.9622 142.327 18.463 139.572 20.9371C137.957 22.3738 136.394 23.8636 134.726 25.247C132.633 26.9763 130.25 28.4395 128.316 30.3284C122.146 36.3941 116.134 42.6195 109.989 48.7384C106.996 51.7181 103.792 54.5115 100.826 57.5444C99.2896 59.1406 98.0713 61.0561 96.7736 62.7588ZM95.7142 73.1343C92.589 75.7415 89.4109 78.1359 86.5241 80.8229C82.2867 84.7869 77.493 88.006 72.7523 91.3049C72.408 91.5444 72.0108 91.8902 71.9313 92.2361C71.6665 93.4066 71.5605 94.6304 71.3486 96.067C80.9095 89.9481 88.9607 82.3393 97.2768 74.9168C96.6941 74.2517 96.2174 73.693 95.7142 73.1343ZM66.6874 98.0358C66.8993 98.089 67.1376 98.1688 67.3495 98.222C67.9852 97.4239 68.8326 96.7321 69.2034 95.8542C69.7066 94.657 69.7861 93.3002 70.1039 92.0232C70.2098 91.5444 70.3158 90.9325 70.6601 90.693C73.335 88.7775 76.1688 87.0749 78.7907 85.0796C82.1013 82.5256 85.2529 79.7588 88.4575 77.0451C90.5233 75.2893 92.5626 73.5068 94.6548 71.6977C93.8073 71.0326 93.1187 70.5005 92.5891 70.0749C91.2383 71.2987 89.9671 72.4692 88.6694 73.6132C84.0876 77.6836 79.5853 81.8339 74.924 85.7713C72.0372 88.1922 68.8856 90.3206 65.8664 92.5819C65.6545 92.7415 65.4691 93.114 65.5221 93.3268C65.8664 94.8965 66.2902 96.4661 66.6874 98.0358ZM103.342 71.0326C100.111 69.4098 96.8795 68.4254 95.3699 64.8871C94.6813 65.765 94.2046 66.3503 93.8073 66.8824C95.7142 68.9575 97.5151 70.9528 99.369 72.8949C99.9252 73.4802 100.64 73.5866 101.302 72.8151C101.832 72.2298 102.494 71.7775 103.342 71.0326Z" fill="black"/>
<path d="M11.2558 80.2646C12.1827 80.9564 13.3745 81.4618 13.9836 82.3664C15.97 85.2928 17.3471 88.4853 16.4467 92.1833C16.2878 92.8218 16.1024 93.3538 15.2549 93.274C14.3544 93.1942 14.4074 92.6089 14.4074 91.9438C14.4074 91.5714 14.275 91.1989 14.1161 90.8531C13.0567 88.6183 11.8649 86.4368 10.9909 84.1488C10.5672 83.0847 10.7525 81.7811 10.6731 80.5839C10.8585 80.4775 11.0704 80.3711 11.2558 80.2646Z" fill="black"/>
<path d="M48.7839 110.806C50.2406 109.689 53.4452 109.928 54.7429 111.445C56.3584 113.334 57.7091 115.462 59.1128 117.537C59.2717 117.776 59.2452 118.468 59.0333 118.628C58.689 118.894 58.1329 119.053 57.7091 118.974C55.9347 118.654 54.6105 117.617 53.5511 116.18C52.4652 114.744 51.2999 113.36 50.1346 111.977C49.7374 111.551 49.2607 111.232 48.7839 110.806ZM56.226 116.712C56.3849 116.579 56.5173 116.473 56.6762 116.34C55.5904 115.01 54.531 113.653 53.4452 112.323C53.3127 112.429 53.2068 112.509 53.0744 112.615C54.1338 113.972 55.1666 115.329 56.226 116.712Z" fill="black"/>
<path d="M39.1702 107.826C38.2963 109.236 37.5547 110.646 36.6013 111.87C36.0451 112.588 35.1182 112.961 34.4296 113.573C33.8469 114.078 33.4496 114.77 32.867 115.275C32.4697 115.621 31.9135 115.781 31.4368 116.02C31.2779 115.488 30.8542 114.85 31.0131 114.477C32.2049 111.577 33.4232 108.651 35.9921 106.629C36.4688 106.257 37.3163 106.017 37.846 106.177C38.3492 106.31 38.6406 107.081 39.1702 107.826ZM34.6679 111.045C34.8003 111.152 34.9592 111.258 35.0917 111.365C35.7538 110.433 36.4159 109.529 37.0515 108.598C36.9191 108.491 36.7867 108.411 36.6542 108.305C35.9921 109.21 35.33 110.114 34.6679 111.045Z" fill="black"/>
<path d="M67.6938 105.964C67.9587 104.634 68.5943 104.315 69.7861 103.942C73.1231 102.905 76.3542 103.942 79.6118 103.995C79.8766 103.995 80.3798 104.421 80.3798 104.66C80.3798 105.006 80.0885 105.538 79.7972 105.618C77.3606 106.496 74.9241 107.347 72.4345 108.039C71.7724 108.225 70.8984 107.906 70.2363 107.587C69.7861 107.347 69.5742 106.629 69.124 106.31C68.7797 106.07 68.25 106.097 67.6938 105.964ZM70.6601 104.926C70.5806 105.059 70.5012 105.192 70.4217 105.326C70.9249 105.725 71.4811 106.496 71.9048 106.443C73.282 106.23 74.6062 105.698 75.9569 105.299C75.9569 105.166 75.9305 105.059 75.9305 104.926C74.1825 104.926 72.4345 104.926 70.6601 104.926Z" fill="black"/>
<path d="M77.5194 112.509C78.5523 112.668 79.2674 112.828 79.9824 112.855C81.9952 112.908 84.0081 112.881 86.0473 112.988C86.3916 113.014 86.7095 113.52 87.0273 113.812C86.683 114.185 86.3652 114.823 85.9414 114.93C83.5578 115.435 81.1742 115.222 78.8171 114.77C77.9696 114.611 77.387 114.132 77.3605 113.227C77.334 112.881 77.5194 112.535 77.5194 112.509Z" fill="black"/>
<path d="M66.2637 112.429C66.1842 112.11 66.0518 111.657 66.0253 111.178C65.9988 110.912 66.1048 110.513 66.2902 110.434C66.4755 110.354 66.9258 110.487 67.0582 110.646C68.0116 112.269 68.9915 113.892 69.8126 115.568C69.9715 115.914 69.5742 116.579 69.3094 117.005C69.2564 117.085 68.5413 116.872 68.2235 116.632C67.2701 115.914 66.3431 115.169 65.5221 114.344C65.2043 114.025 65.1248 113.413 64.9395 112.961C65.3102 112.775 65.734 112.615 66.2637 112.429Z" fill="black"/>
<path d="M96.7737 62.7592C98.0979 61.0565 99.3162 59.1144 100.852 57.5448C103.818 54.5119 107.023 51.7185 110.016 48.7389C116.134 42.6199 122.146 36.3946 128.343 30.3288C130.276 28.4399 132.633 26.9767 134.752 25.2475C136.394 23.864 137.983 22.3742 139.572 20.9376C142.327 18.4634 145.055 15.9626 147.835 13.5417C150.722 11.0409 153.688 8.56671 156.655 6.17234C157.608 5.40082 158.667 4.73572 159.78 4.23024C162.296 3.05966 164.944 1.83588 167.752 2.52758C170.241 3.11287 172.651 4.09722 174.955 5.2412C176.544 6.01272 178.001 7.2365 178.451 9.1786C178.557 9.57766 178.584 10.1097 178.398 10.4556C177.816 11.6528 177.206 12.8234 176.491 13.9407C174.426 17.1332 172.095 20.1129 169.208 22.6137C166.586 24.9016 163.911 27.1097 161.183 29.2647C159.886 30.3022 158.456 31.1802 157.078 32.1645C155.834 33.0425 154.615 34.0268 153.318 34.8515C150.06 36.9533 146.67 38.8421 143.518 41.0769C139.36 44.0033 135.335 47.1426 131.283 50.2553C125.562 54.645 119.868 59.0878 114.147 63.5041C112.161 65.0471 110.228 66.6434 108.215 68.1332C106.705 69.2506 105.116 69.4634 103.421 68.3727C102.494 67.7874 101.408 67.4681 100.481 66.9094C99.8194 66.5104 99.1838 66.0049 98.6806 65.4196C98.0714 64.6481 97.5152 63.7702 96.7737 62.7592ZM123.258 48.6856C123.179 46.3977 122.49 45.0675 120.98 44.5088C119.63 44.0033 117.829 44.695 116.557 46.1583C116.399 46.3445 116.213 46.5573 116.001 46.6637C114.757 47.1426 115.127 47.8875 115.683 48.6058C116.663 49.8562 117.723 51.0268 118.703 52.2772C119.338 53.1019 120.053 53.3414 121.113 53.0753C122.066 52.8359 122.543 52.2772 122.728 51.3727C122.914 50.5213 123.073 49.5902 123.258 48.6856ZM146.855 21.8687C146.008 21.6293 145.425 21.4697 144.816 21.3101C144.684 21.7889 144.313 22.4008 144.498 22.7201C145.505 24.5025 146.617 26.2584 147.809 27.9611C147.968 28.2005 148.868 28.2005 149.133 27.9877C149.371 27.7748 149.371 27.0565 149.239 26.6575C149.054 26.0988 148.656 25.6199 148.153 24.7686C149.875 24.9814 151.252 25.1144 152.629 25.3273C153.291 25.4337 153.874 25.6199 154.059 24.7154C154.245 23.8108 153.662 23.6778 152.973 23.598C151.57 23.465 150.166 23.3054 148.603 23.1457C149.213 22.2412 149.822 21.4697 150.245 20.6184C150.484 20.1395 150.669 19.2083 150.431 18.9689C149.769 18.2772 149.186 18.9157 148.736 19.501C147.994 20.2991 147.359 21.2036 146.855 21.8687ZM142.644 29.5839C143.254 30.1692 143.783 30.7811 144.419 31.2334C144.71 31.4196 145.187 31.3132 145.611 31.3398C145.637 30.8875 145.849 30.3022 145.637 29.983C144.737 28.6262 143.757 27.296 142.75 26.0456C142.141 25.2741 141.214 25.1144 140.367 25.6465C139.466 26.2318 138.407 26.8171 138.778 28.2271C139.096 29.4243 139.334 30.6215 139.731 31.7921C140.023 32.6434 139.89 34.1864 141.373 33.8672C143.042 33.4947 142.115 32.1911 141.823 31.2866C141.532 30.382 141.665 29.8234 142.644 29.5839ZM128.661 39.6669C129.455 38.3367 130.038 37.3789 130.594 36.3946C130.912 35.8093 131.521 35.091 130.647 34.5589C129.826 34.08 129.27 34.6919 128.846 35.3836C128.316 36.2615 127.787 37.1129 127.39 37.7514C126.542 37.8046 125.88 37.8312 125.244 37.8578C125.403 38.5229 125.43 39.2146 125.721 39.7999C126.145 40.6778 126.674 41.5025 127.284 42.2475C128.052 43.152 128.793 44.2694 130.276 43.9501C130.832 42.6199 129.773 42.008 129.111 41.2365C130.568 40.8907 131.945 40.5448 133.322 40.2256C133.084 38.9752 132.66 38.5495 131.548 39.0284C130.78 39.3742 129.853 39.4274 128.661 39.6669ZM134.858 34.213C135.414 33.1489 135.864 32.3773 136.156 31.5792C136.288 31.26 136.182 30.6215 135.97 30.4619C135.732 30.2756 135.096 30.3554 134.832 30.5683C134.355 30.9407 133.984 31.4728 133.666 31.9783C133.348 32.4838 133.216 32.9094 132.395 32.67C131.706 32.4838 131.071 33.0957 131.415 33.7874C132.21 35.4102 133.163 36.9533 134.169 38.4431C134.355 38.7091 135.07 38.6027 135.547 38.6559C135.6 38.177 135.759 37.6716 135.653 37.2459C135.547 36.767 135.176 36.368 134.858 35.7827C136.129 35.7827 137.189 35.8625 138.222 35.7295C138.619 35.6763 138.937 35.1176 139.281 34.7983C138.937 34.5855 138.619 34.2396 138.248 34.213C137.242 34.1598 136.182 34.213 134.858 34.213ZM127.999 45.839C127.813 45.5996 127.522 45.2271 127.204 44.9079C126.092 43.7905 124.926 42.7263 123.841 41.5824C123.311 41.0237 122.755 40.4384 122.119 41.0503C121.854 41.2897 122.013 42.3805 122.331 42.7529C123.549 44.1896 124.9 45.5198 126.251 46.8234C126.727 47.3288 127.919 46.7435 127.999 45.839Z" fill="white"/>
<path d="M95.7142 73.1348C96.2174 73.6935 96.6941 74.2521 97.2768 74.9438C88.9872 82.3664 80.9095 89.9751 71.3486 96.0941C71.5605 94.6575 71.6664 93.4337 71.9313 92.2631C72.0107 91.9172 72.408 91.5714 72.7523 91.332C77.4665 88.0064 82.2602 84.814 86.5241 80.8499C89.4374 78.1363 92.5891 75.742 95.7142 73.1348Z" fill="white"/>
<path d="M66.6875 98.0358C66.2902 96.4662 65.8665 94.9232 65.5222 93.3535C65.4692 93.1407 65.6811 92.7416 65.8665 92.6086C68.8857 90.3207 72.0373 88.2189 74.9241 85.798C79.6118 81.8606 84.1141 77.7103 88.6694 73.6399C89.9672 72.4693 91.2649 71.2987 92.5891 70.1016C93.1188 70.5006 93.8074 71.0593 94.6549 71.7244C92.5361 73.5335 90.5233 75.3426 88.4576 77.0718C85.253 79.7854 82.1013 82.5523 78.7908 85.1063C76.1953 87.1282 73.3615 88.8308 70.6601 90.7197C70.3158 90.9592 70.2099 91.5977 70.104 92.0499C69.7862 93.3269 69.7067 94.6837 69.2035 95.8809C68.8327 96.7854 67.9852 97.4772 67.3496 98.2487C67.1377 98.1423 66.8994 98.0891 66.6875 98.0358Z" fill="white"/>
<path d="M103.342 71.0327C102.494 71.7777 101.832 72.2299 101.302 72.8152C100.64 73.5867 99.9252 73.4537 99.3691 72.895C97.4887 70.9529 95.7142 68.9576 93.8074 66.8825C94.2046 66.377 94.6814 65.7651 95.3699 64.8872C96.8795 68.4255 100.111 69.4099 103.342 71.0327Z" fill="white"/>
<path d="M56.2262 116.712C55.1933 115.355 54.134 113.972 53.1011 112.615C53.2335 112.508 53.3394 112.429 53.4719 112.322C54.5577 113.652 55.6171 115.009 56.7029 116.339C56.5176 116.472 56.3586 116.579 56.2262 116.712Z" fill="white"/>
<path d="M34.668 111.045C35.3301 110.141 35.9922 109.21 36.6543 108.305C36.7867 108.412 36.9191 108.491 37.0516 108.598C36.3894 109.529 35.7273 110.433 35.0917 111.365C34.9593 111.232 34.8004 111.152 34.668 111.045Z" fill="white"/>
<path d="M70.6601 104.926C72.4081 104.926 74.156 104.926 75.904 104.926C75.904 105.059 75.9305 105.166 75.9305 105.299C74.5798 105.698 73.2556 106.23 71.8784 106.443C71.4546 106.523 70.8985 105.724 70.3953 105.325C70.5277 105.219 70.6071 105.086 70.6601 104.926Z" fill="white"/>
<path d="M123.258 48.6856C123.099 49.5902 122.94 50.4947 122.728 51.3993C122.543 52.2772 122.066 52.8359 121.113 53.1019C120.053 53.368 119.365 53.1285 118.703 52.3038C117.723 51.0534 116.663 49.8828 115.683 48.6324C115.127 47.9141 114.756 47.1692 116.001 46.6903C116.213 46.6105 116.398 46.3711 116.557 46.1849C117.829 44.7216 119.629 44.0299 120.98 44.5354C122.463 45.0675 123.152 46.3977 123.258 48.6856ZM117.272 47.249C118.385 48.526 119.418 49.6966 120.715 51.1864C120.795 49.936 120.874 49.0315 120.874 48.1004C120.901 47.1426 120.768 46.1317 119.709 45.839C118.597 45.5198 117.829 46.2115 117.272 47.249Z" fill="black"/>
<path d="M146.855 21.8683C147.359 21.2032 147.994 20.3253 148.683 19.4473C149.133 18.8621 149.716 18.2236 150.378 18.9153C150.643 19.1813 150.431 20.0858 150.192 20.5647C149.769 21.416 149.16 22.1876 148.55 23.0921C150.113 23.2517 151.517 23.4113 152.92 23.5444C153.609 23.6242 154.165 23.7572 154.006 24.6617C153.821 25.5663 153.238 25.3801 152.576 25.2736C151.199 25.0608 149.822 24.9278 148.1 24.7149C148.603 25.5663 149.027 26.0452 149.186 26.6038C149.318 27.0295 149.345 27.7212 149.08 27.934C148.815 28.1735 147.915 28.1469 147.756 27.9074C146.564 26.2314 145.478 24.4755 144.445 22.6664C144.26 22.3472 144.657 21.7353 144.763 21.2564C145.399 21.4693 146.008 21.6289 146.855 21.8683Z" fill="black"/>
<path d="M142.644 29.5837C141.665 29.8231 141.532 30.3552 141.797 31.2598C142.088 32.1643 143.015 33.4679 141.347 33.8403C139.864 34.1862 139.996 32.6432 139.705 31.7652C139.307 30.5946 139.043 29.3975 138.751 28.2003C138.381 26.7903 139.44 26.205 140.34 25.6197C141.188 25.0876 142.088 25.2738 142.724 26.0187C143.757 27.2957 144.737 28.5993 145.611 29.9562C145.823 30.2754 145.611 30.8607 145.584 31.313C145.187 31.2864 144.684 31.3928 144.392 31.2065C143.783 30.7809 143.254 30.169 142.644 29.5837Z" fill="black"/>
<path d="M128.661 39.6668C129.879 39.4008 130.779 39.3476 131.6 39.0017C132.713 38.5229 133.136 38.9485 133.375 40.1989C131.998 40.5448 130.62 40.864 129.164 41.2099C129.826 41.9814 130.859 42.6199 130.329 43.9235C128.82 44.2428 128.078 43.1254 127.336 42.2208C126.701 41.5025 126.198 40.6512 125.774 39.7733C125.483 39.188 125.43 38.4697 125.297 37.8312C125.933 37.8046 126.595 37.7514 127.442 37.7247C127.84 37.0863 128.396 36.2349 128.899 35.357C129.323 34.6653 129.852 34.0534 130.7 34.5323C131.6 35.0643 130.991 35.7826 130.647 36.3679C130.038 37.4055 129.455 38.3632 128.661 39.6668Z" fill="black"/>
<path d="M134.858 34.2127C136.182 34.2127 137.242 34.1595 138.274 34.2393C138.619 34.266 138.963 34.6118 139.307 34.8246C138.963 35.1439 138.645 35.7026 138.248 35.7558C137.215 35.8888 136.156 35.809 134.884 35.809C135.229 36.3943 135.573 36.7933 135.679 37.2722C135.785 37.6979 135.6 38.2034 135.573 38.6822C135.096 38.629 134.381 38.7354 134.196 38.4694C133.189 36.9796 132.262 35.4365 131.441 33.8137C131.097 33.122 131.733 32.5101 132.421 32.6963C133.242 32.9358 133.375 32.4835 133.693 32.0046C134.01 31.4991 134.381 30.9671 134.858 30.5946C135.123 30.3818 135.758 30.3019 135.997 30.4882C136.235 30.6478 136.315 31.2863 136.182 31.6055C135.864 32.3771 135.388 33.122 134.858 34.2127Z" fill="black"/>
<path d="M127.998 45.8388C127.945 46.7433 126.754 47.302 126.224 46.8232C124.873 45.5196 123.523 44.1893 122.304 42.7527C121.987 42.3803 121.828 41.2895 122.092 41.0501C122.728 40.4382 123.284 41.0235 123.814 41.5822C124.9 42.7261 126.065 43.7903 127.177 44.9077C127.522 45.2269 127.787 45.5994 127.998 45.8388Z" fill="black"/>
<path d="M117.272 47.2487C117.829 46.2112 118.597 45.5195 119.735 45.8387C120.795 46.1314 120.927 47.1423 120.901 48.1001C120.874 49.0046 120.795 49.9091 120.742 51.1861C119.418 49.7229 118.358 48.5257 117.272 47.2487Z" fill="white"/>
</g>
<defs>
<clipPath id="clip0_536_4189">
<rect width="182" height="119" fill="white"/>
</clipPath>
</defs>
</svg>
