<svg width="119" height="37" viewBox="0 0 119 37" fill="none" xmlns="http://www.w3.org/2000/svg">
<path d="M0 5.38868C0 2.62726 2.23858 0.388672 5 0.388672H113.549C116.311 0.388672 118.549 2.62725 118.549 5.38867V31.24C118.549 34.0015 116.311 36.2401 113.549 36.2401H5C2.23858 36.2401 0 34.0015 0 31.2401V5.38868Z" fill="#905DFB"/>
<path d="M66.6415 24H72.6715V22.86H70.4515V13.005H69.4015C68.8165 13.365 68.1115 13.62 67.1215 13.785V14.67H69.0865V22.86H66.6415V24ZM78.7268 24H80.0168V13.005H78.5018L73.9268 20.07V20.97H81.4868V19.89H75.3668L77.8718 16.14C78.1718 15.6 78.4718 15.045 78.7418 14.505H78.8168C78.7718 15.075 78.7268 15.96 78.7268 16.515V24ZM84.0322 18.15C84.5872 18.15 85.0372 17.73 85.0372 17.115C85.0372 16.485 84.5872 16.065 84.0322 16.065C83.4922 16.065 83.0572 16.485 83.0572 17.115C83.0572 17.73 83.4922 18.15 84.0322 18.15ZM84.0322 24.21C84.5872 24.21 85.0372 23.775 85.0372 23.16C85.0372 22.53 84.5872 22.11 84.0322 22.11C83.4922 22.11 83.0572 22.53 83.0572 23.16C83.0572 23.775 83.4922 24.21 84.0322 24.21ZM90.307 24.21C92.377 24.21 93.712 22.305 93.712 18.465C93.712 14.655 92.377 12.81 90.307 12.81C88.207 12.81 86.872 14.655 86.872 18.465C86.872 22.305 88.207 24.21 90.307 24.21ZM90.307 23.1C89.047 23.1 88.192 21.705 88.192 18.465C88.192 15.27 89.047 13.905 90.307 13.905C91.552 13.905 92.392 15.27 92.392 18.465C92.392 21.705 91.552 23.1 90.307 23.1ZM98.6273 24.21C100.697 24.21 102.032 22.305 102.032 18.465C102.032 14.655 100.697 12.81 98.6273 12.81C96.5273 12.81 95.1923 14.655 95.1923 18.465C95.1923 22.305 96.5273 24.21 98.6273 24.21ZM98.6273 23.1C97.3673 23.1 96.5123 21.705 96.5123 18.465C96.5123 15.27 97.3673 13.905 98.6273 13.905C99.8723 13.905 100.712 15.27 100.712 18.465C100.712 21.705 99.8723 23.1 98.6273 23.1Z" fill="white"/>
<path d="M14.9831 21H16.4531V17.15C16.8331 16.73 17.2031 16.53 17.5131 16.53C18.0531 16.53 18.3031 16.82 18.3031 17.7V21H19.7731V17.15C20.1731 16.73 20.5231 16.53 20.8431 16.53C21.3831 16.53 21.6231 16.82 21.6231 17.7V21H23.0931V17.51C23.0931 16.11 22.5531 15.27 21.3631 15.27C20.6331 15.27 20.0931 15.71 19.5731 16.24C19.3131 15.62 18.8431 15.27 18.0331 15.27C17.3131 15.27 16.7931 15.67 16.3231 16.15H16.2931L16.1731 15.41H14.9831V21ZM27.0618 21.14C27.7518 21.14 28.4518 20.91 29.0018 20.53L28.5118 19.62C28.1018 19.87 27.7018 20.01 27.2518 20.01C26.4218 20.01 25.8218 19.54 25.6918 18.62H29.1518C29.1818 18.48 29.2118 18.22 29.2118 17.94C29.2118 16.39 28.4218 15.27 26.8718 15.27C25.5518 15.27 24.2718 16.39 24.2718 18.21C24.2718 20.06 25.4918 21.14 27.0618 21.14ZM25.6718 17.64C25.7918 16.82 26.3118 16.4 26.9018 16.4C27.6218 16.4 27.9618 16.88 27.9618 17.64H25.6718ZM32.8723 21.14C33.5623 21.14 34.2623 20.91 34.8123 20.53L34.3223 19.62C33.9123 19.87 33.5123 20.01 33.0623 20.01C32.2323 20.01 31.6323 19.54 31.5023 18.62H34.9623C34.9923 18.48 35.0223 18.22 35.0223 17.94C35.0223 16.39 34.2323 15.27 32.6823 15.27C31.3623 15.27 30.0823 16.39 30.0823 18.21C30.0823 20.06 31.3023 21.14 32.8723 21.14ZM31.4823 17.64C31.6023 16.82 32.1223 16.4 32.7123 16.4C33.4323 16.4 33.7723 16.88 33.7723 17.64H31.4823ZM38.1169 21.14C38.6169 21.14 39.0069 21.03 39.3069 20.93L39.0669 19.86C38.9069 19.92 38.6969 19.99 38.5069 19.99C38.0169 19.99 37.7469 19.69 37.7469 19.05V16.56H39.1369V15.41H37.7469V13.89H36.5269L36.3669 15.41L35.4969 15.47V16.56H36.2769V19.05C36.2769 20.3 36.7869 21.14 38.1169 21.14ZM40.2858 21H41.7558V15.41H40.2858V21ZM41.0158 14.5C41.5258 14.5 41.8758 14.18 41.8758 13.69C41.8758 13.21 41.5258 12.9 41.0158 12.9C40.5058 12.9 40.1658 13.21 40.1658 13.69C40.1658 14.18 40.5058 14.5 41.0158 14.5ZM43.323 21H44.793V17.15C45.203 16.75 45.493 16.53 45.953 16.53C46.493 16.53 46.743 16.82 46.743 17.7V21H48.213V17.51C48.213 16.11 47.683 15.27 46.483 15.27C45.723 15.27 45.143 15.67 44.663 16.15H44.633L44.513 15.41H43.323V21ZM51.6892 23.43C53.5592 23.43 54.7492 22.58 54.7492 21.45C54.7492 20.46 54.0092 20.05 52.6592 20.05H51.6992C51.0492 20.05 50.8192 19.88 50.8192 19.59C50.8192 19.36 50.9092 19.24 51.0592 19.1C51.3092 19.19 51.5592 19.23 51.7792 19.23C52.9892 19.23 53.9492 18.6 53.9492 17.33C53.9492 16.99 53.8392 16.68 53.6892 16.49H54.6492V15.41H52.6292C52.3992 15.32 52.0992 15.27 51.7792 15.27C50.5992 15.27 49.5192 15.97 49.5192 17.29C49.5192 17.95 49.8892 18.48 50.2792 18.76V18.8C49.9292 19.04 49.6492 19.42 49.6492 19.84C49.6492 20.3 49.8692 20.6 50.1592 20.79V20.84C49.6392 21.12 49.3592 21.53 49.3592 22C49.3592 22.98 50.3792 23.43 51.6892 23.43ZM51.7792 18.33C51.2892 18.33 50.8992 17.95 50.8992 17.29C50.8992 16.63 51.2892 16.27 51.7792 16.27C52.2792 16.27 52.6592 16.63 52.6592 17.29C52.6592 17.95 52.2692 18.33 51.7792 18.33ZM51.9192 22.5C51.0992 22.5 50.5792 22.24 50.5792 21.77C50.5792 21.54 50.6892 21.32 50.9492 21.11C51.1492 21.17 51.3792 21.19 51.7192 21.19H52.3992C52.9992 21.19 53.3292 21.3 53.3292 21.7C53.3292 22.13 52.7592 22.5 51.9192 22.5Z" fill="white"/>
</svg>
