<svg width="555" height="352" viewBox="0 0 555 352" fill="none" xmlns="http://www.w3.org/2000/svg">
<path fill-rule="evenodd" clip-rule="evenodd" d="M24.6257 144.688C22.9689 144.688 21.6257 146.031 21.6257 147.688V152.098L16.5371 155.036L21.6257 157.974V162.384C21.6257 164.041 22.9689 165.384 24.6257 165.384H87.0603C88.7171 165.384 90.0603 164.041 90.0603 162.384V147.688C90.0603 146.031 88.7171 144.688 87.0603 144.688H24.6257Z" fill="#D9D9D9"/>
<mask id="path-2-inside-1_2444_32074" fill="white">
<path d="M171.06 147.688C171.06 146.031 172.403 144.688 174.06 144.688H236.494C238.151 144.688 239.494 146.031 239.494 147.688V162.384C239.494 164.041 238.151 165.384 236.494 165.384H174.06C172.403 165.384 171.06 164.041 171.06 162.384V147.688Z"/>
</mask>
<path d="M171.06 147.688C171.06 146.031 172.403 144.688 174.06 144.688H236.494C238.151 144.688 239.494 146.031 239.494 147.688V162.384C239.494 164.041 238.151 165.384 236.494 165.384H174.06C172.403 165.384 171.06 164.041 171.06 162.384V147.688Z" fill="#905DFB" fill-opacity="0.2"/>
<path d="M174.06 145.688H236.494V143.688H174.06V145.688ZM238.494 147.688V162.384H240.494V147.688H238.494ZM236.494 164.384H174.06V166.384H236.494V164.384ZM172.06 162.384V147.688H170.06V162.384H172.06ZM174.06 164.384C172.955 164.384 172.06 163.488 172.06 162.384H170.06C170.06 164.593 171.851 166.384 174.06 166.384V164.384ZM238.494 162.384C238.494 163.488 237.599 164.384 236.494 164.384V166.384C238.704 166.384 240.494 164.593 240.494 162.384H238.494ZM236.494 145.688C237.599 145.688 238.494 146.583 238.494 147.688H240.494C240.494 145.479 238.704 143.688 236.494 143.688V145.688ZM174.06 143.688C171.851 143.688 170.06 145.479 170.06 147.688H172.06C172.06 146.583 172.955 145.688 174.06 145.688V143.688Z" fill="#905DFB" mask="url(#path-2-inside-1_2444_32074)"/>
<mask id="path-4-inside-2_2444_32074" fill="white">
<path d="M316.85 147.688C316.85 146.031 318.193 144.688 319.85 144.688H382.284C383.941 144.688 385.284 146.031 385.284 147.688V162.384C385.284 164.041 383.941 165.384 382.284 165.384H319.85C318.193 165.384 316.85 164.041 316.85 162.384V147.688Z"/>
</mask>
<path d="M319.85 147.688H382.284V141.688H319.85V147.688ZM382.284 147.688V162.384H388.284V147.688H382.284ZM382.284 162.384H319.85V168.384H382.284V162.384ZM319.85 162.384V147.688H313.85V162.384H319.85ZM319.85 162.384H319.85H313.85C313.85 165.697 316.536 168.384 319.85 168.384V162.384ZM382.284 162.384V168.384C385.598 168.384 388.284 165.697 388.284 162.384H382.284ZM382.284 147.688V147.688H388.284C388.284 144.374 385.598 141.688 382.284 141.688V147.688ZM319.85 141.688C316.536 141.688 313.85 144.374 313.85 147.688H319.85V147.688V141.688Z" fill="#D9D9D9" mask="url(#path-4-inside-2_2444_32074)"/>
<path d="M462.639 147.688C462.639 146.031 463.982 144.688 465.639 144.688H528.074C529.731 144.688 531.074 146.031 531.074 147.688V162.384C531.074 164.041 529.731 165.384 528.074 165.384H465.639C463.982 165.384 462.639 164.041 462.639 162.384V147.688Z" fill="#D9D9D9"/>
<mask id="path-7-inside-3_2444_32074" fill="white">
<path fill-rule="evenodd" clip-rule="evenodd" d="M24.626 175.178C22.9691 175.178 21.626 176.521 21.626 178.178V192.874C21.626 194.531 22.9691 195.874 24.626 195.874H87.0605C88.7174 195.874 90.0605 194.531 90.0605 192.874V188.374L94.9932 185.526L90.0605 182.678V178.178C90.0605 176.521 88.7174 175.178 87.0605 175.178H24.626Z"/>
</mask>
<path d="M90.0605 188.374L88.5605 185.776L87.0605 186.642V188.374H90.0605ZM94.9932 185.526L96.4932 188.124L100.993 185.526L96.4932 182.928L94.9932 185.526ZM90.0605 182.678H87.0605V184.41L88.5605 185.276L90.0605 182.678ZM24.626 178.178V178.178V172.178C21.3123 172.178 18.626 174.864 18.626 178.178H24.626ZM24.626 192.874V178.178H18.626V192.874H24.626ZM24.626 192.874H24.626H18.626C18.626 196.187 21.3123 198.874 24.626 198.874V192.874ZM87.0605 192.874H24.626V198.874H87.0605V192.874ZM87.0605 192.874V198.874C90.3742 198.874 93.0605 196.187 93.0605 192.874H87.0605ZM87.0605 188.374V192.874H93.0605V188.374H87.0605ZM93.4932 182.928L88.5605 185.776L91.5605 190.972L96.4932 188.124L93.4932 182.928ZM88.5605 185.276L93.4932 188.124L96.4932 182.928L91.5605 180.08L88.5605 185.276ZM87.0605 178.178V182.678H93.0605V178.178H87.0605ZM87.0605 178.178V178.178H93.0605C93.0605 174.864 90.3742 172.178 87.0605 172.178V178.178ZM24.626 178.178H87.0605V172.178H24.626V178.178Z" fill="#D9D9D9" mask="url(#path-7-inside-3_2444_32074)"/>
<mask id="path-9-inside-4_2444_32074" fill="white">
<path d="M171.06 178.178C171.06 176.521 172.403 175.178 174.06 175.178H236.494C238.151 175.178 239.494 176.521 239.494 178.178V192.874C239.494 194.531 238.151 195.874 236.494 195.874H174.06C172.403 195.874 171.06 194.531 171.06 192.874V178.178Z"/>
</mask>
<path d="M171.06 178.178C171.06 176.521 172.403 175.178 174.06 175.178H236.494C238.151 175.178 239.494 176.521 239.494 178.178V192.874C239.494 194.531 238.151 195.874 236.494 195.874H174.06C172.403 195.874 171.06 194.531 171.06 192.874V178.178Z" fill="#905DFB" fill-opacity="0.2"/>
<path d="M174.06 176.178H236.494V174.178H174.06V176.178ZM238.494 178.178V192.874H240.494V178.178H238.494ZM236.494 194.874H174.06V196.874H236.494V194.874ZM172.06 192.874V178.178H170.06V192.874H172.06ZM174.06 194.874C172.955 194.874 172.06 193.978 172.06 192.874H170.06C170.06 195.083 171.851 196.874 174.06 196.874V194.874ZM238.494 192.874C238.494 193.978 237.599 194.874 236.494 194.874V196.874C238.704 196.874 240.494 195.083 240.494 192.874H238.494ZM236.494 176.178C237.599 176.178 238.494 177.073 238.494 178.178H240.494C240.494 175.969 238.704 174.178 236.494 174.178V176.178ZM174.06 174.178C171.851 174.178 170.06 175.969 170.06 178.178H172.06C172.06 177.073 172.955 176.178 174.06 176.178V174.178Z" fill="#905DFB" mask="url(#path-9-inside-4_2444_32074)"/>
<mask id="path-11-inside-5_2444_32074" fill="white">
<path d="M316.85 178.178C316.85 176.521 318.193 175.178 319.85 175.178H382.284C383.941 175.178 385.284 176.521 385.284 178.178V192.874C385.284 194.531 383.941 195.874 382.284 195.874H319.85C318.193 195.874 316.85 194.531 316.85 192.874V178.178Z"/>
</mask>
<path d="M319.85 178.178H382.284V172.178H319.85V178.178ZM382.284 178.178V192.874H388.284V178.178H382.284ZM382.284 192.874H319.85V198.874H382.284V192.874ZM319.85 192.874V178.178H313.85V192.874H319.85ZM319.85 192.874H319.85H313.85C313.85 196.187 316.536 198.874 319.85 198.874V192.874ZM382.284 192.874V198.874C385.598 198.874 388.284 196.187 388.284 192.874H382.284ZM382.284 178.178V178.178H388.284C388.284 174.864 385.598 172.178 382.284 172.178V178.178ZM319.85 172.178C316.536 172.178 313.85 174.864 313.85 178.178H319.85V178.178V172.178Z" fill="#D9D9D9" mask="url(#path-11-inside-5_2444_32074)"/>
<mask id="path-13-inside-6_2444_32074" fill="white">
<path d="M462.639 178.178C462.639 176.521 463.982 175.178 465.639 175.178H528.074C529.731 175.178 531.074 176.521 531.074 178.178V192.874C531.074 194.531 529.731 195.874 528.074 195.874H465.639C463.982 195.874 462.639 194.531 462.639 192.874V178.178Z"/>
</mask>
<path d="M462.639 178.178C462.639 176.521 463.982 175.178 465.639 175.178H528.074C529.731 175.178 531.074 176.521 531.074 178.178V192.874C531.074 194.531 529.731 195.874 528.074 195.874H465.639C463.982 195.874 462.639 194.531 462.639 192.874V178.178Z" fill="#D9D9D9"/>
<path d="M465.639 176.178H528.074V174.178H465.639V176.178ZM530.074 178.178V192.874H532.074V178.178H530.074ZM528.074 194.874H465.639V196.874H528.074V194.874ZM463.639 192.874V178.178H461.639V192.874H463.639ZM465.639 194.874C464.535 194.874 463.639 193.978 463.639 192.874H461.639C461.639 195.083 463.43 196.874 465.639 196.874V194.874ZM530.074 192.874C530.074 193.978 529.178 194.874 528.074 194.874V196.874C530.283 196.874 532.074 195.083 532.074 192.874H530.074ZM528.074 176.178C529.178 176.178 530.074 177.073 530.074 178.178H532.074C532.074 175.969 530.283 174.178 528.074 174.178V176.178ZM465.639 174.178C463.43 174.178 461.639 175.969 461.639 178.178H463.639C463.639 177.073 464.535 176.178 465.639 176.178V174.178Z" fill="#D9D9D9" mask="url(#path-13-inside-6_2444_32074)"/>
<mask id="path-15-inside-7_2444_32074" fill="white">
<path fill-rule="evenodd" clip-rule="evenodd" d="M24.626 266.648C22.9691 266.648 21.626 267.991 21.626 269.648V284.344C21.626 286.001 22.9691 287.344 24.626 287.344H87.0605C88.7174 287.344 90.0605 286.001 90.0605 284.344V279.844L94.9932 276.996L90.0605 274.148V269.648C90.0605 267.991 88.7174 266.648 87.0605 266.648H24.626Z"/>
</mask>
<path d="M90.0605 279.844L88.5605 277.246L87.0605 278.112V279.844H90.0605ZM94.9932 276.996L96.4932 279.594L100.993 276.996L96.4932 274.398L94.9932 276.996ZM90.0605 274.148H87.0605V275.88L88.5605 276.746L90.0605 274.148ZM24.626 269.648V269.648V263.648C21.3123 263.648 18.626 266.334 18.626 269.648H24.626ZM24.626 284.344V269.648H18.626V284.344H24.626ZM24.626 284.344H24.626H18.626C18.626 287.658 21.3123 290.344 24.626 290.344V284.344ZM87.0605 284.344H24.626V290.344H87.0605V284.344ZM87.0605 284.344V290.344C90.3742 290.344 93.0605 287.658 93.0605 284.344H87.0605ZM87.0605 279.844V284.344H93.0605V279.844H87.0605ZM93.4932 274.398L88.5605 277.246L91.5605 282.442L96.4932 279.594L93.4932 274.398ZM88.5605 276.746L93.4932 279.594L96.4932 274.398L91.5605 271.55L88.5605 276.746ZM87.0605 269.648V274.148H93.0605V269.648H87.0605ZM87.0605 269.648V269.648H93.0605C93.0605 266.334 90.3742 263.648 87.0605 263.648V269.648ZM24.626 269.648H87.0605V263.648H24.626V269.648Z" fill="#D9D9D9" mask="url(#path-15-inside-7_2444_32074)"/>
<mask id="path-17-inside-8_2444_32074" fill="white">
<path d="M171.06 299.624C171.06 297.967 172.403 296.624 174.06 296.624H236.494C238.151 296.624 239.494 297.967 239.494 299.624V314.319C239.494 315.976 238.151 317.319 236.494 317.319H174.06C172.403 317.319 171.06 315.976 171.06 314.319V299.624Z"/>
</mask>
<path d="M171.06 299.624C171.06 297.967 172.403 296.624 174.06 296.624H236.494C238.151 296.624 239.494 297.967 239.494 299.624V314.319C239.494 315.976 238.151 317.319 236.494 317.319H174.06C172.403 317.319 171.06 315.976 171.06 314.319V299.624Z" fill="#329A29" fill-opacity="0.2"/>
<path d="M174.06 297.624H236.494V295.624H174.06V297.624ZM238.494 299.624V314.319H240.494V299.624H238.494ZM236.494 316.319H174.06V318.319H236.494V316.319ZM172.06 314.319V299.624H170.06V314.319H172.06ZM174.06 316.319C172.955 316.319 172.06 315.424 172.06 314.319H170.06C170.06 316.528 171.851 318.319 174.06 318.319V316.319ZM238.494 314.319C238.494 315.424 237.599 316.319 236.494 316.319V318.319C238.704 318.319 240.494 316.528 240.494 314.319H238.494ZM236.494 297.624C237.599 297.624 238.494 298.519 238.494 299.624H240.494C240.494 297.414 238.704 295.624 236.494 295.624V297.624ZM174.06 295.624C171.851 295.624 170.06 297.414 170.06 299.624H172.06C172.06 298.519 172.955 297.624 174.06 297.624V295.624Z" fill="#329A29" mask="url(#path-17-inside-8_2444_32074)"/>
<mask id="path-19-inside-9_2444_32074" fill="white">
<path d="M316.85 269.648C316.85 267.991 318.193 266.648 319.85 266.648H382.284C383.941 266.648 385.284 267.991 385.284 269.648V284.344C385.284 286.001 383.941 287.344 382.284 287.344H319.85C318.193 287.344 316.85 286.001 316.85 284.344V269.648Z"/>
</mask>
<path d="M319.85 269.648H382.284V263.648H319.85V269.648ZM382.284 269.648V284.344H388.284V269.648H382.284ZM382.284 284.344H319.85V290.344H382.284V284.344ZM319.85 284.344V269.648H313.85V284.344H319.85ZM319.85 284.344H319.85H313.85C313.85 287.658 316.536 290.344 319.85 290.344V284.344ZM382.284 284.344V290.344C385.598 290.344 388.284 287.658 388.284 284.344H382.284ZM382.284 269.648V269.648H388.284C388.284 266.334 385.598 263.648 382.284 263.648V269.648ZM319.85 263.648C316.536 263.648 313.85 266.334 313.85 269.648H319.85V269.648V263.648Z" fill="#D9D9D9" mask="url(#path-19-inside-9_2444_32074)"/>
<mask id="path-21-inside-10_2444_32074" fill="white">
<path d="M462.639 269.648C462.639 267.991 463.982 266.648 465.639 266.648H528.074C529.731 266.648 531.074 267.991 531.074 269.648V284.344C531.074 286.001 529.731 287.344 528.074 287.344H465.639C463.982 287.344 462.639 286.001 462.639 284.344V269.648Z"/>
</mask>
<path d="M462.639 269.648C462.639 267.991 463.982 266.648 465.639 266.648H528.074C529.731 266.648 531.074 267.991 531.074 269.648V284.344C531.074 286.001 529.731 287.344 528.074 287.344H465.639C463.982 287.344 462.639 286.001 462.639 284.344V269.648Z" fill="#D9D9D9"/>
<path d="M465.639 267.648H528.074V265.648H465.639V267.648ZM530.074 269.648V284.344H532.074V269.648H530.074ZM528.074 286.344H465.639V288.344H528.074V286.344ZM463.639 284.344V269.648H461.639V284.344H463.639ZM465.639 286.344C464.535 286.344 463.639 285.449 463.639 284.344H461.639C461.639 286.553 463.43 288.344 465.639 288.344V286.344ZM530.074 284.344C530.074 285.449 529.178 286.344 528.074 286.344V288.344C530.283 288.344 532.074 286.553 532.074 284.344H530.074ZM528.074 267.648C529.178 267.648 530.074 268.544 530.074 269.648H532.074C532.074 267.439 530.283 265.648 528.074 265.648V267.648ZM465.639 265.648C463.43 265.648 461.639 267.439 461.639 269.648H463.639C463.639 268.544 464.535 267.648 465.639 267.648V265.648Z" fill="#D9D9D9" mask="url(#path-21-inside-10_2444_32074)"/>
<path fill-rule="evenodd" clip-rule="evenodd" d="M24.6257 205.668C22.9689 205.668 21.6257 207.011 21.6257 208.668V213.078L16.5371 216.016L21.6257 218.953V223.364C21.6257 225.021 22.9689 226.364 24.6257 226.364H87.0603C88.7171 226.364 90.0603 225.021 90.0603 223.364V208.668C90.0603 207.011 88.7171 205.668 87.0603 205.668H24.6257Z" fill="#D9D9D9"/>
<mask id="path-24-inside-11_2444_32074" fill="white">
<path d="M316.85 208.668C316.85 207.011 318.193 205.668 319.85 205.668H382.284C383.941 205.668 385.284 207.011 385.284 208.668V223.364C385.284 225.021 383.941 226.364 382.284 226.364H319.85C318.193 226.364 316.85 225.021 316.85 223.364V208.668Z"/>
</mask>
<path d="M319.85 208.668H382.284V202.668H319.85V208.668ZM382.284 208.668V223.364H388.284V208.668H382.284ZM382.284 223.364H319.85V229.364H382.284V223.364ZM319.85 223.364V208.668H313.85V223.364H319.85ZM319.85 223.364H319.85H313.85C313.85 226.677 316.536 229.364 319.85 229.364V223.364ZM382.284 223.364V229.364C385.598 229.364 388.284 226.677 388.284 223.364H382.284ZM382.284 208.668V208.668H388.284C388.284 205.354 385.598 202.668 382.284 202.668V208.668ZM319.85 202.668C316.536 202.668 313.85 205.354 313.85 208.668H319.85V208.668V202.668Z" fill="#D9D9D9" mask="url(#path-24-inside-11_2444_32074)"/>
<path d="M462.639 208.668C462.639 207.011 463.982 205.668 465.639 205.668H528.074C529.731 205.668 531.074 207.011 531.074 208.668V223.364C531.074 225.021 529.731 226.364 528.074 226.364H465.639C463.982 226.364 462.639 225.021 462.639 223.364V208.668Z" fill="#D9D9D9"/>
<path fill-rule="evenodd" clip-rule="evenodd" d="M24.6257 236.158C22.9689 236.158 21.6257 237.501 21.6257 239.158V243.568L16.5371 246.506L21.6257 249.444V253.854C21.6257 255.511 22.9689 256.854 24.6257 256.854H87.0603C88.7171 256.854 90.0603 255.511 90.0603 253.854V239.158C90.0603 237.501 88.7171 236.158 87.0603 236.158H24.6257Z" fill="#D9D9D9"/>
<mask id="path-28-inside-12_2444_32074" fill="white">
<path d="M171.06 269.134C171.06 267.477 172.403 266.134 174.06 266.134H236.494C238.151 266.134 239.494 267.477 239.494 269.134V283.829C239.494 285.486 238.151 286.829 236.494 286.829H174.06C172.403 286.829 171.06 285.486 171.06 283.829V269.134Z"/>
</mask>
<path d="M171.06 269.134C171.06 267.477 172.403 266.134 174.06 266.134H236.494C238.151 266.134 239.494 267.477 239.494 269.134V283.829C239.494 285.486 238.151 286.829 236.494 286.829H174.06C172.403 286.829 171.06 285.486 171.06 283.829V269.134Z" fill="#329A29" fill-opacity="0.2"/>
<path d="M174.06 267.134H236.494V265.134H174.06V267.134ZM238.494 269.134V283.829H240.494V269.134H238.494ZM236.494 285.829H174.06V287.829H236.494V285.829ZM172.06 283.829V269.134H170.06V283.829H172.06ZM174.06 285.829C172.955 285.829 172.06 284.934 172.06 283.829H170.06C170.06 286.038 171.851 287.829 174.06 287.829V285.829ZM238.494 283.829C238.494 284.934 237.599 285.829 236.494 285.829V287.829C238.704 287.829 240.494 286.038 240.494 283.829H238.494ZM236.494 267.134C237.599 267.134 238.494 268.029 238.494 269.134H240.494C240.494 266.924 238.704 265.134 236.494 265.134V267.134ZM174.06 265.134C171.851 265.134 170.06 266.924 170.06 269.134H172.06C172.06 268.029 172.955 267.134 174.06 267.134V265.134Z" fill="#329A29" mask="url(#path-28-inside-12_2444_32074)"/>
<mask id="path-30-inside-13_2444_32074" fill="white">
<path d="M316.85 239.158C316.85 237.501 318.193 236.158 319.85 236.158H382.284C383.941 236.158 385.284 237.501 385.284 239.158V253.854C385.284 255.511 383.941 256.854 382.284 256.854H319.85C318.193 256.854 316.85 255.511 316.85 253.854V239.158Z"/>
</mask>
<path d="M319.85 239.158H382.284V233.158H319.85V239.158ZM382.284 239.158V253.854H388.284V239.158H382.284ZM382.284 253.854H319.85V259.854H382.284V253.854ZM319.85 253.854V239.158H313.85V253.854H319.85ZM319.85 253.854H319.85H313.85C313.85 257.167 316.536 259.854 319.85 259.854V253.854ZM382.284 253.854V259.854C385.598 259.854 388.284 257.167 388.284 253.854H382.284ZM382.284 239.158V239.158H388.284C388.284 235.844 385.598 233.158 382.284 233.158V239.158ZM319.85 233.158C316.536 233.158 313.85 235.844 313.85 239.158H319.85V239.158V233.158Z" fill="#D9D9D9" mask="url(#path-30-inside-13_2444_32074)"/>
<path d="M462.639 239.158C462.639 237.501 463.982 236.158 465.639 236.158H528.074C529.731 236.158 531.074 237.501 531.074 239.158V253.854C531.074 255.511 529.731 256.854 528.074 256.854H465.639C463.982 256.854 462.639 255.511 462.639 253.854V239.158Z" fill="#D9D9D9"/>
<path fill-rule="evenodd" clip-rule="evenodd" d="M24.6257 297.138C22.9689 297.138 21.6257 298.481 21.6257 300.138V304.548L16.5371 307.486L21.6257 310.424V314.834C21.6257 316.491 22.9689 317.834 24.6257 317.834H87.0603C88.7171 317.834 90.0603 316.491 90.0603 314.834V300.138C90.0603 298.481 88.7171 297.138 87.0603 297.138H24.6257Z" fill="#D9D9D9"/>
<mask id="path-34-inside-14_2444_32074" fill="white">
<path d="M171.06 330.114C171.06 328.457 172.403 327.114 174.06 327.114H236.494C238.151 327.114 239.494 328.457 239.494 330.114V344.809C239.494 346.466 238.151 347.809 236.494 347.809H174.06C172.403 347.809 171.06 346.466 171.06 344.809V330.114Z"/>
</mask>
<path d="M171.06 330.114C171.06 328.457 172.403 327.114 174.06 327.114H236.494C238.151 327.114 239.494 328.457 239.494 330.114V344.809C239.494 346.466 238.151 347.809 236.494 347.809H174.06C172.403 347.809 171.06 346.466 171.06 344.809V330.114Z" fill="#329A29" fill-opacity="0.2"/>
<path d="M174.06 328.114H236.494V326.114H174.06V328.114ZM238.494 330.114V344.809H240.494V330.114H238.494ZM236.494 346.809H174.06V348.809H236.494V346.809ZM172.06 344.809V330.114H170.06V344.809H172.06ZM174.06 346.809C172.955 346.809 172.06 345.914 172.06 344.809H170.06C170.06 347.018 171.851 348.809 174.06 348.809V346.809ZM238.494 344.809C238.494 345.914 237.599 346.809 236.494 346.809V348.809C238.704 348.809 240.494 347.018 240.494 344.809H238.494ZM236.494 328.114C237.599 328.114 238.494 329.009 238.494 330.114H240.494C240.494 327.904 238.704 326.114 236.494 326.114V328.114ZM174.06 326.114C171.851 326.114 170.06 327.904 170.06 330.114H172.06C172.06 329.009 172.955 328.114 174.06 328.114V326.114Z" fill="#329A29" mask="url(#path-34-inside-14_2444_32074)"/>
<path d="M462.639 300.138C462.639 298.481 463.982 297.138 465.639 297.138H528.074C529.731 297.138 531.074 298.481 531.074 300.138V314.834C531.074 316.491 529.731 317.834 528.074 317.834H465.639C463.982 317.834 462.639 316.491 462.639 314.834V300.138Z" fill="#D9D9D9"/>
<path fill-rule="evenodd" clip-rule="evenodd" d="M376.763 154.001C375.911 155.314 374.017 155.337 373.134 154.044L365.811 143.314C365.353 142.643 365.519 141.724 366.182 141.26C366.845 140.797 367.753 140.965 368.211 141.636L374.919 151.464L383.874 137.666C384.317 136.984 385.221 136.795 385.894 137.243C386.568 137.69 386.755 138.606 386.313 139.288L376.763 154.001Z" fill="#E84A42" fill-opacity="0.5"/>
<path fill-rule="evenodd" clip-rule="evenodd" d="M376.763 216.001C375.911 217.314 374.017 217.337 373.134 216.044L365.811 205.314C365.353 204.643 365.519 203.724 366.182 203.26C366.845 202.797 367.753 202.965 368.211 203.636L374.919 213.464L383.874 199.666C384.317 198.984 385.221 198.795 385.894 199.243C386.568 199.69 386.755 200.606 386.313 201.288L376.763 216.001Z" fill="#E84A42" fill-opacity="0.5"/>
<path fill-rule="evenodd" clip-rule="evenodd" d="M376.763 185.001C375.911 186.314 374.017 186.337 373.134 185.044L365.811 174.314C365.353 173.643 365.519 172.724 366.182 172.26C366.845 171.797 367.753 171.965 368.211 172.636L374.919 182.464L383.874 168.666C384.317 167.984 385.221 167.795 385.894 168.243C386.568 168.69 386.755 169.606 386.313 170.288L376.763 185.001Z" fill="#E84A42" fill-opacity="0.5"/>
<path fill-rule="evenodd" clip-rule="evenodd" d="M376.763 246.001C375.911 247.314 374.017 247.337 373.134 246.044L365.811 235.314C365.353 234.643 365.519 233.724 366.182 233.26C366.845 232.797 367.753 232.965 368.211 233.636L374.919 243.464L383.874 229.666C384.317 228.984 385.221 228.795 385.894 229.243C386.568 229.69 386.755 230.606 386.313 231.288L376.763 246.001Z" fill="#E84A42" fill-opacity="0.5"/>
<path d="M488.212 160.916C489.496 160.916 490 160.076 490 158.756V151.484H488.896V158.744C488.896 159.536 488.74 160.04 488.092 160.04C487.864 160.04 487.636 159.968 487.48 159.92L487.264 160.748C487.48 160.832 487.816 160.916 488.212 160.916ZM489.436 150.14C489.856 150.14 490.168 149.864 490.168 149.408C490.168 148.988 489.856 148.712 489.436 148.712C489.016 148.712 488.716 148.988 488.716 149.408C488.716 149.864 489.016 150.14 489.436 150.14ZM492.201 160.748H493.293V158.552L493.269 157.412C493.857 157.892 494.469 158.168 495.057 158.168C496.557 158.168 497.889 156.872 497.889 154.652C497.889 152.636 496.989 151.328 495.297 151.328C494.541 151.328 493.821 151.748 493.233 152.24H493.197L493.089 151.484H492.201V160.748ZM494.889 157.244C494.457 157.244 493.881 157.064 493.293 156.572V153.14C493.929 152.552 494.481 152.24 495.033 152.24C496.269 152.24 496.761 153.212 496.761 154.664C496.761 156.272 495.957 157.244 494.889 157.244ZM501.839 161C503.843 161 505.127 159.968 505.127 158.756C505.127 157.676 504.371 157.208 502.859 157.208H501.587C500.711 157.208 500.435 156.908 500.435 156.488C500.435 156.14 500.627 155.912 500.855 155.72C501.155 155.864 501.515 155.936 501.827 155.936C503.159 155.936 504.215 155.072 504.215 153.68C504.215 153.116 503.999 152.636 503.687 152.336H505.019V151.484H502.751C502.523 151.4 502.199 151.328 501.827 151.328C500.507 151.328 499.379 152.216 499.379 153.656C499.379 154.436 499.811 155.06 500.243 155.408V155.456C499.895 155.696 499.511 156.116 499.511 156.656C499.511 157.172 499.763 157.52 500.099 157.736V157.784C499.499 158.168 499.139 158.708 499.139 159.26C499.139 160.376 500.243 161 501.839 161ZM501.827 155.204C501.071 155.204 500.435 154.592 500.435 153.656C500.435 152.684 501.059 152.12 501.827 152.12C502.595 152.12 503.219 152.696 503.219 153.656C503.219 154.592 502.583 155.204 501.827 155.204ZM501.983 160.256C500.807 160.256 500.099 159.812 500.099 159.104C500.099 158.732 500.291 158.336 500.759 158C501.059 158.084 501.359 158.108 501.611 158.108H502.739C503.591 158.108 504.059 158.312 504.059 158.924C504.059 159.596 503.243 160.256 501.983 160.256Z" fill="#717171"/>
<path d="M190.126 159H194.95V158.088H193.174V150.204H192.334C191.866 150.492 191.302 150.696 190.51 150.828V151.536H192.082V158.088H190.126V159ZM196.254 159H201.774V158.064H199.338C198.894 158.064 198.366 158.1 197.898 158.148C199.974 156.192 201.354 154.404 201.354 152.64C201.354 151.068 200.37 150.048 198.798 150.048C197.682 150.048 196.914 150.564 196.194 151.344L196.83 151.956C197.322 151.38 197.946 150.936 198.666 150.936C199.758 150.936 200.274 151.68 200.274 152.688C200.274 154.188 199.014 155.952 196.254 158.364V159ZM204.038 154.32C204.482 154.32 204.842 153.984 204.842 153.492C204.842 152.988 204.482 152.652 204.038 152.652C203.606 152.652 203.258 152.988 203.258 153.492C203.258 153.984 203.606 154.32 204.038 154.32ZM204.038 159.168C204.482 159.168 204.842 158.82 204.842 158.328C204.842 157.824 204.482 157.488 204.038 157.488C203.606 157.488 203.258 157.824 203.258 158.328C203.258 158.82 203.606 159.168 204.038 159.168ZM209.058 159.168C210.714 159.168 211.782 157.644 211.782 154.572C211.782 151.524 210.714 150.048 209.058 150.048C207.378 150.048 206.31 151.524 206.31 154.572C206.31 157.644 207.378 159.168 209.058 159.168ZM209.058 158.28C208.05 158.28 207.366 157.164 207.366 154.572C207.366 152.016 208.05 150.924 209.058 150.924C210.054 150.924 210.726 152.016 210.726 154.572C210.726 157.164 210.054 158.28 209.058 158.28ZM215.714 159.168C217.37 159.168 218.438 157.644 218.438 154.572C218.438 151.524 217.37 150.048 215.714 150.048C214.034 150.048 212.966 151.524 212.966 154.572C212.966 157.644 214.034 159.168 215.714 159.168ZM215.714 158.28C214.706 158.28 214.022 157.164 214.022 154.572C214.022 152.016 214.706 150.924 215.714 150.924C216.71 150.924 217.382 152.016 217.382 154.572C217.382 157.164 216.71 158.28 215.714 158.28Z" fill="#717171"/>
<path d="M190.126 281H194.95V280.088H193.174V272.204H192.334C191.866 272.492 191.302 272.696 190.51 272.828V273.536H192.082V280.088H190.126V281ZM198.858 281.168C200.334 281.168 201.738 280.064 201.738 278.144C201.738 276.2 200.55 275.336 199.086 275.336C198.558 275.336 198.162 275.468 197.766 275.684L197.994 273.14H201.318V272.204H197.034L196.758 276.32L197.346 276.692C197.85 276.356 198.222 276.164 198.81 276.164C199.902 276.164 200.622 276.92 200.622 278.18C200.622 279.452 199.794 280.256 198.75 280.256C197.742 280.256 197.094 279.788 196.602 279.272L196.05 279.992C196.65 280.592 197.49 281.168 198.858 281.168ZM204.038 276.32C204.482 276.32 204.842 275.984 204.842 275.492C204.842 274.988 204.482 274.652 204.038 274.652C203.606 274.652 203.258 274.988 203.258 275.492C203.258 275.984 203.606 276.32 204.038 276.32ZM204.038 281.168C204.482 281.168 204.842 280.82 204.842 280.328C204.842 279.824 204.482 279.488 204.038 279.488C203.606 279.488 203.258 279.824 203.258 280.328C203.258 280.82 203.606 281.168 204.038 281.168ZM209.058 281.168C210.714 281.168 211.782 279.644 211.782 276.572C211.782 273.524 210.714 272.048 209.058 272.048C207.378 272.048 206.31 273.524 206.31 276.572C206.31 279.644 207.378 281.168 209.058 281.168ZM209.058 280.28C208.05 280.28 207.366 279.164 207.366 276.572C207.366 274.016 208.05 272.924 209.058 272.924C210.054 272.924 210.726 274.016 210.726 276.572C210.726 279.164 210.054 280.28 209.058 280.28ZM215.714 281.168C217.37 281.168 218.438 279.644 218.438 276.572C218.438 273.524 217.37 272.048 215.714 272.048C214.034 272.048 212.966 273.524 212.966 276.572C212.966 279.644 214.034 281.168 215.714 281.168ZM215.714 280.28C214.706 280.28 214.022 279.164 214.022 276.572C214.022 274.016 214.706 272.924 215.714 272.924C216.71 272.924 217.382 274.016 217.382 276.572C217.382 279.164 216.71 280.28 215.714 280.28Z" fill="#717171"/>
<path d="M190.126 190H194.95V189.088H193.174V181.204H192.334C191.866 181.492 191.302 181.696 190.51 181.828V182.536H192.082V189.088H190.126V190ZM198.882 190.168C200.454 190.168 201.714 189.22 201.714 187.66C201.714 186.448 200.874 185.668 199.842 185.416V185.368C200.778 185.032 201.402 184.324 201.402 183.256C201.402 181.852 200.322 181.048 198.846 181.048C197.838 181.048 197.058 181.492 196.398 182.092L196.986 182.8C197.478 182.296 198.102 181.936 198.81 181.936C199.722 181.936 200.286 182.488 200.286 183.328C200.286 184.288 199.674 185.008 197.862 185.008V185.86C199.89 185.86 200.598 186.556 200.598 187.612C200.598 188.62 199.854 189.256 198.81 189.256C197.802 189.256 197.142 188.776 196.626 188.236L196.074 188.956C196.65 189.592 197.502 190.168 198.882 190.168ZM204.038 185.32C204.482 185.32 204.842 184.984 204.842 184.492C204.842 183.988 204.482 183.652 204.038 183.652C203.606 183.652 203.258 183.988 203.258 184.492C203.258 184.984 203.606 185.32 204.038 185.32ZM204.038 190.168C204.482 190.168 204.842 189.82 204.842 189.328C204.842 188.824 204.482 188.488 204.038 188.488C203.606 188.488 203.258 188.824 203.258 189.328C203.258 189.82 203.606 190.168 204.038 190.168ZM209.058 190.168C210.714 190.168 211.782 188.644 211.782 185.572C211.782 182.524 210.714 181.048 209.058 181.048C207.378 181.048 206.31 182.524 206.31 185.572C206.31 188.644 207.378 190.168 209.058 190.168ZM209.058 189.28C208.05 189.28 207.366 188.164 207.366 185.572C207.366 183.016 208.05 181.924 209.058 181.924C210.054 181.924 210.726 183.016 210.726 185.572C210.726 188.164 210.054 189.28 209.058 189.28ZM215.714 190.168C217.37 190.168 218.438 188.644 218.438 185.572C218.438 182.524 217.37 181.048 215.714 181.048C214.034 181.048 212.966 182.524 212.966 185.572C212.966 188.644 214.034 190.168 215.714 190.168ZM215.714 189.28C214.706 189.28 214.022 188.164 214.022 185.572C214.022 183.016 214.706 181.924 215.714 181.924C216.71 181.924 217.382 183.016 217.382 185.572C217.382 188.164 216.71 189.28 215.714 189.28Z" fill="#717171"/>
<path d="M190.126 312H194.95V311.088H193.174V303.204H192.334C191.866 303.492 191.302 303.696 190.51 303.828V304.536H192.082V311.088H190.126V312ZM199.338 312.168C200.694 312.168 201.858 311.016 201.858 309.312C201.858 307.464 200.898 306.552 199.41 306.552C198.702 306.552 197.886 306.984 197.346 307.692L197.382 308.568C197.97 307.692 198.678 307.356 199.242 307.356C200.298 307.356 200.826 308.112 200.826 309.312C200.826 310.5 200.178 311.304 199.338 311.304C198.102 311.304 197.418 310.068 197.418 307.812C197.418 304.932 198.45 303.96 199.686 303.96C200.214 303.96 200.754 304.212 201.09 304.62L201.702 303.948C201.222 303.432 200.55 303.048 199.638 303.048C197.934 303.048 196.386 304.368 196.386 307.812C196.386 310.716 197.646 312.168 199.338 312.168ZM204.038 307.32C204.482 307.32 204.842 306.984 204.842 306.492C204.842 305.988 204.482 305.652 204.038 305.652C203.606 305.652 203.258 305.988 203.258 306.492C203.258 306.984 203.606 307.32 204.038 307.32ZM204.038 312.168C204.482 312.168 204.842 311.82 204.842 311.328C204.842 310.824 204.482 310.488 204.038 310.488C203.606 310.488 203.258 310.824 203.258 311.328C203.258 311.82 203.606 312.168 204.038 312.168ZM209.058 312.168C210.714 312.168 211.782 310.644 211.782 307.572C211.782 304.524 210.714 303.048 209.058 303.048C207.378 303.048 206.31 304.524 206.31 307.572C206.31 310.644 207.378 312.168 209.058 312.168ZM209.058 311.28C208.05 311.28 207.366 310.164 207.366 307.572C207.366 305.016 208.05 303.924 209.058 303.924C210.054 303.924 210.726 305.016 210.726 307.572C210.726 310.164 210.054 311.28 209.058 311.28ZM215.714 312.168C217.37 312.168 218.438 310.644 218.438 307.572C218.438 304.524 217.37 303.048 215.714 303.048C214.034 303.048 212.966 304.524 212.966 307.572C212.966 310.644 214.034 312.168 215.714 312.168ZM215.714 311.28C214.706 311.28 214.022 310.164 214.022 307.572C214.022 305.016 214.706 303.924 215.714 303.924C216.71 303.924 217.382 305.016 217.382 307.572C217.382 310.164 216.71 311.28 215.714 311.28Z" fill="#717171"/>
<path d="M190.126 342H194.95V341.088H193.174V333.204H192.334C191.866 333.492 191.302 333.696 190.51 333.828V334.536H192.082V341.088H190.126V342ZM198.09 342H199.23C199.374 338.568 199.746 336.516 201.81 333.864V333.204H196.314V334.14H200.574C198.846 336.54 198.246 338.676 198.09 342ZM204.038 337.32C204.482 337.32 204.842 336.984 204.842 336.492C204.842 335.988 204.482 335.652 204.038 335.652C203.606 335.652 203.258 335.988 203.258 336.492C203.258 336.984 203.606 337.32 204.038 337.32ZM204.038 342.168C204.482 342.168 204.842 341.82 204.842 341.328C204.842 340.824 204.482 340.488 204.038 340.488C203.606 340.488 203.258 340.824 203.258 341.328C203.258 341.82 203.606 342.168 204.038 342.168ZM209.058 342.168C210.714 342.168 211.782 340.644 211.782 337.572C211.782 334.524 210.714 333.048 209.058 333.048C207.378 333.048 206.31 334.524 206.31 337.572C206.31 340.644 207.378 342.168 209.058 342.168ZM209.058 341.28C208.05 341.28 207.366 340.164 207.366 337.572C207.366 335.016 208.05 333.924 209.058 333.924C210.054 333.924 210.726 335.016 210.726 337.572C210.726 340.164 210.054 341.28 209.058 341.28ZM215.714 342.168C217.37 342.168 218.438 340.644 218.438 337.572C218.438 334.524 217.37 333.048 215.714 333.048C214.034 333.048 212.966 334.524 212.966 337.572C212.966 340.644 214.034 342.168 215.714 342.168ZM215.714 341.28C214.706 341.28 214.022 340.164 214.022 337.572C214.022 335.016 214.706 333.924 215.714 333.924C216.71 333.924 217.382 335.016 217.382 337.572C217.382 340.164 216.71 341.28 215.714 341.28Z" fill="#717171"/>
<path d="M486.887 221.748H487.979V219.552L487.955 218.412C488.543 218.892 489.155 219.168 489.743 219.168C491.243 219.168 492.575 217.872 492.575 215.652C492.575 213.636 491.675 212.328 489.983 212.328C489.227 212.328 488.507 212.748 487.919 213.24H487.883L487.775 212.484H486.887V221.748ZM489.575 218.244C489.143 218.244 488.567 218.064 487.979 217.572V214.14C488.615 213.552 489.167 213.24 489.719 213.24C490.955 213.24 491.447 214.212 491.447 215.664C491.447 217.272 490.643 218.244 489.575 218.244ZM494.328 219H495.42V214.272C496.068 213.624 496.536 213.276 497.196 213.276C498.06 213.276 498.432 213.792 498.432 215.016V219H499.536V214.872C499.536 213.216 498.912 212.328 497.544 212.328C496.644 212.328 495.972 212.82 495.36 213.432H495.324L495.216 212.484H494.328V219ZM503.848 222C505.852 222 507.136 220.968 507.136 219.756C507.136 218.676 506.38 218.208 504.868 218.208H503.596C502.72 218.208 502.444 217.908 502.444 217.488C502.444 217.14 502.636 216.912 502.864 216.72C503.164 216.864 503.524 216.936 503.836 216.936C505.168 216.936 506.224 216.072 506.224 214.68C506.224 214.116 506.008 213.636 505.696 213.336H507.028V212.484H504.76C504.532 212.4 504.208 212.328 503.836 212.328C502.516 212.328 501.388 213.216 501.388 214.656C501.388 215.436 501.82 216.06 502.252 216.408V216.456C501.904 216.696 501.52 217.116 501.52 217.656C501.52 218.172 501.772 218.52 502.108 218.736V218.784C501.508 219.168 501.148 219.708 501.148 220.26C501.148 221.376 502.252 222 503.848 222ZM503.836 216.204C503.08 216.204 502.444 215.592 502.444 214.656C502.444 213.684 503.068 213.12 503.836 213.12C504.604 213.12 505.228 213.696 505.228 214.656C505.228 215.592 504.592 216.204 503.836 216.204ZM503.992 221.256C502.816 221.256 502.108 220.812 502.108 220.104C502.108 219.732 502.3 219.336 502.768 219C503.068 219.084 503.368 219.108 503.62 219.108H504.748C505.6 219.108 506.068 219.312 506.068 219.924C506.068 220.596 505.252 221.256 503.992 221.256Z" fill="#717171"/>
<path d="M485.972 251.916C487.256 251.916 487.76 251.076 487.76 249.756V242.484H486.656V249.744C486.656 250.536 486.5 251.04 485.852 251.04C485.624 251.04 485.396 250.968 485.24 250.92L485.024 251.748C485.24 251.832 485.576 251.916 485.972 251.916ZM487.196 241.14C487.616 241.14 487.928 240.864 487.928 240.408C487.928 239.988 487.616 239.712 487.196 239.712C486.776 239.712 486.476 239.988 486.476 240.408C486.476 240.864 486.776 241.14 487.196 241.14ZM489.961 251.748H491.053V249.552L491.029 248.412C491.617 248.892 492.229 249.168 492.817 249.168C494.317 249.168 495.649 247.872 495.649 245.652C495.649 243.636 494.749 242.328 493.057 242.328C492.301 242.328 491.581 242.748 490.993 243.24H490.957L490.849 242.484H489.961V251.748ZM492.649 248.244C492.217 248.244 491.641 248.064 491.053 247.572V244.14C491.689 243.552 492.241 243.24 492.793 243.24C494.029 243.24 494.521 244.212 494.521 245.664C494.521 247.272 493.717 248.244 492.649 248.244ZM500.03 249.168C500.918 249.168 501.602 248.868 502.178 248.496L501.782 247.764C501.302 248.088 500.786 248.292 500.162 248.292C498.914 248.292 498.074 247.392 497.99 246.012H502.382C502.418 245.844 502.43 245.616 502.43 245.388C502.43 243.516 501.494 242.328 499.838 242.328C498.338 242.328 496.91 243.636 496.91 245.76C496.91 247.896 498.29 249.168 500.03 249.168ZM497.978 245.22C498.122 243.936 498.938 243.204 499.85 243.204C500.882 243.204 501.47 243.912 501.47 245.22H497.978ZM506.079 252C508.083 252 509.367 250.968 509.367 249.756C509.367 248.676 508.611 248.208 507.099 248.208H505.827C504.951 248.208 504.675 247.908 504.675 247.488C504.675 247.14 504.867 246.912 505.095 246.72C505.395 246.864 505.755 246.936 506.067 246.936C507.399 246.936 508.455 246.072 508.455 244.68C508.455 244.116 508.239 243.636 507.927 243.336H509.259V242.484H506.991C506.763 242.4 506.439 242.328 506.067 242.328C504.747 242.328 503.619 243.216 503.619 244.656C503.619 245.436 504.051 246.06 504.483 246.408V246.456C504.135 246.696 503.751 247.116 503.751 247.656C503.751 248.172 504.003 248.52 504.339 248.736V248.784C503.739 249.168 503.379 249.708 503.379 250.26C503.379 251.376 504.483 252 506.079 252ZM506.067 246.204C505.311 246.204 504.675 245.592 504.675 244.656C504.675 243.684 505.299 243.12 506.067 243.12C506.835 243.12 507.459 243.696 507.459 244.656C507.459 245.592 506.823 246.204 506.067 246.204ZM506.223 251.256C505.047 251.256 504.339 250.812 504.339 250.104C504.339 249.732 504.531 249.336 504.999 249C505.299 249.084 505.599 249.108 505.851 249.108H506.979C507.831 249.108 508.299 249.312 508.299 249.924C508.299 250.596 507.483 251.256 506.223 251.256Z" fill="#717171"/>
<path d="M488.764 191.748H489.856V189.552L489.832 188.412C490.42 188.892 491.032 189.168 491.62 189.168C493.12 189.168 494.452 187.872 494.452 185.652C494.452 183.636 493.552 182.328 491.86 182.328C491.104 182.328 490.384 182.748 489.796 183.24H489.76L489.652 182.484H488.764V191.748ZM491.452 188.244C491.02 188.244 490.444 188.064 489.856 187.572V184.14C490.492 183.552 491.044 183.24 491.596 183.24C492.832 183.24 493.324 184.212 493.324 185.664C493.324 187.272 492.52 188.244 491.452 188.244ZM498.413 189.168C499.205 189.168 499.889 188.748 500.405 188.232H500.429L500.525 189H501.425V179.46H500.333V181.956L500.381 183.084C499.817 182.604 499.313 182.328 498.557 182.328C497.069 182.328 495.725 183.636 495.725 185.76C495.725 187.932 496.781 189.168 498.413 189.168ZM498.653 188.244C497.513 188.244 496.865 187.308 496.865 185.748C496.865 184.26 497.693 183.24 498.737 183.24C499.277 183.24 499.781 183.432 500.333 183.936V187.356C499.793 187.944 499.265 188.244 498.653 188.244ZM503.814 189H504.906V181.464C504.906 180.612 505.206 180.18 505.83 180.18C506.07 180.18 506.322 180.24 506.574 180.348L506.802 179.508C506.502 179.388 506.118 179.292 505.722 179.292C504.426 179.292 503.814 180.132 503.814 181.44V189ZM502.926 183.372H506.298V182.484H503.874L502.926 182.556V183.372Z" fill="#717171"/>
<path d="M495.123 281.168C495.927 281.168 496.659 280.748 497.271 280.232H497.319L497.415 281H498.315V277.004C498.315 275.384 497.643 274.328 496.047 274.328C495.003 274.328 494.091 274.784 493.491 275.168L493.923 275.936C494.427 275.588 495.111 275.228 495.879 275.228C496.947 275.228 497.211 276.032 497.211 276.872C494.439 277.184 493.215 277.892 493.215 279.308C493.215 280.484 494.031 281.168 495.123 281.168ZM495.423 280.28C494.787 280.28 494.283 279.98 494.283 279.236C494.283 278.396 495.015 277.856 497.211 277.604V279.416C496.587 279.98 496.059 280.28 495.423 280.28ZM500.385 281H501.477V274.484H500.385V281ZM500.937 273.14C501.357 273.14 501.669 272.864 501.669 272.408C501.669 271.988 501.357 271.712 500.937 271.712C500.505 271.712 500.205 271.988 500.205 272.408C500.205 272.864 500.505 273.14 500.937 273.14Z" fill="#717171"/>
<path d="M487.937 312.748H489.029V310.552L489.005 309.412C489.593 309.892 490.205 310.168 490.793 310.168C492.293 310.168 493.625 308.872 493.625 306.652C493.625 304.636 492.725 303.328 491.033 303.328C490.277 303.328 489.557 303.748 488.969 304.24H488.933L488.825 303.484H487.937V312.748ZM490.625 309.244C490.193 309.244 489.617 309.064 489.029 308.572V305.14C489.665 304.552 490.217 304.24 490.769 304.24C492.005 304.24 492.497 305.212 492.497 306.664C492.497 308.272 491.693 309.244 490.625 309.244ZM497.024 310.168C498.56 310.168 499.388 309.292 499.388 308.224C499.388 306.988 498.356 306.604 497.408 306.244C496.664 305.98 496.004 305.74 496.004 305.116C496.004 304.612 496.376 304.18 497.204 304.18C497.78 304.18 498.248 304.432 498.692 304.756L499.22 304.06C498.716 303.652 497.996 303.328 497.192 303.328C495.776 303.328 494.948 304.132 494.948 305.164C494.948 306.28 495.944 306.712 496.844 307.06C497.564 307.324 498.344 307.624 498.344 308.284C498.344 308.86 497.912 309.316 497.048 309.316C496.268 309.316 495.692 308.992 495.128 308.536L494.588 309.268C495.2 309.772 496.1 310.168 497.024 310.168ZM503.142 310.168C503.934 310.168 504.618 309.748 505.134 309.232H505.158L505.254 310H506.154V300.46H505.062V302.956L505.11 304.084C504.546 303.604 504.042 303.328 503.286 303.328C501.798 303.328 500.454 304.636 500.454 306.76C500.454 308.932 501.51 310.168 503.142 310.168ZM503.382 309.244C502.242 309.244 501.594 308.308 501.594 306.748C501.594 305.26 502.422 304.24 503.466 304.24C504.006 304.24 504.51 304.432 505.062 304.936V308.356C504.522 308.944 503.994 309.244 503.382 309.244Z" fill="#717171"/>
<g filter="url(#filter0_b_2444_32074)">
<circle cx="169.021" cy="154.522" r="12.7592" fill="white" fill-opacity="0.2" stroke="#905DFB"/>
<path d="M163.113 160.861C163.113 160.086 163.266 159.317 163.563 158.601C163.86 157.884 164.295 157.233 164.844 156.684C165.392 156.136 166.043 155.7 166.76 155.404C167.477 155.107 168.245 154.954 169.021 154.954C169.797 154.954 170.565 155.107 171.281 155.404C171.998 155.7 172.649 156.136 173.198 156.684C173.747 157.233 174.182 157.884 174.479 158.601C174.775 159.317 174.928 160.086 174.928 160.861L169.021 160.861L163.113 160.861Z" fill="#905DFB"/>
<circle cx="169.021" cy="151.319" r="3.6343" fill="#905DFB"/>
</g>
<g filter="url(#filter1_b_2444_32074)">
<circle cx="169.021" cy="276.482" r="12.7592" fill="white" fill-opacity="0.2" stroke="#329A29"/>
<path d="M163.113 282.821C163.113 282.045 163.266 281.277 163.563 280.56C163.86 279.843 164.295 279.192 164.844 278.643C165.392 278.095 166.043 277.66 166.76 277.363C167.477 277.066 168.245 276.913 169.021 276.913C169.797 276.913 170.565 277.066 171.281 277.363C171.998 277.66 172.649 278.095 173.198 278.643C173.747 279.192 174.182 279.843 174.479 280.56C174.775 281.277 174.928 282.045 174.928 282.821L169.021 282.821L163.113 282.821Z" fill="#329A29"/>
<circle cx="169.021" cy="273.279" r="3.6343" fill="#329A29"/>
</g>
<g filter="url(#filter2_b_2444_32074)">
<circle cx="279.779" cy="230.746" r="12.7592" fill="white" fill-opacity="0.2" stroke="#329A29"/>
<path d="M273.871 237.085C273.871 236.31 274.024 235.542 274.321 234.825C274.618 234.108 275.053 233.457 275.601 232.908C276.15 232.36 276.801 231.925 277.518 231.628C278.235 231.331 279.003 231.178 279.779 231.178C280.554 231.178 281.323 231.331 282.039 231.628C282.756 231.925 283.407 232.36 283.956 232.908C284.504 233.457 284.939 234.108 285.236 234.825C285.533 235.542 285.686 236.31 285.686 237.085L279.779 237.085L273.871 237.085Z" fill="#329A29"/>
<circle cx="279.779" cy="227.544" r="3.6343" fill="#329A29"/>
</g>
<g filter="url(#filter3_b_2444_32074)">
<circle cx="169.021" cy="307.486" r="12.7592" fill="white" fill-opacity="0.2" stroke="#329A29"/>
<path d="M163.113 313.825C163.113 313.05 163.266 312.282 163.563 311.565C163.86 310.848 164.295 310.197 164.844 309.648C165.392 309.1 166.043 308.665 166.76 308.368C167.477 308.071 168.245 307.918 169.021 307.918C169.797 307.918 170.565 308.071 171.281 308.368C171.998 308.665 172.649 309.1 173.198 309.648C173.747 310.197 174.182 310.848 174.479 311.565C174.775 312.282 174.928 313.05 174.928 313.825L169.021 313.825L163.113 313.825Z" fill="#329A29"/>
<circle cx="169.021" cy="304.283" r="3.6343" fill="#329A29"/>
</g>
<g filter="url(#filter4_b_2444_32074)">
<circle cx="169.021" cy="338.49" r="12.7592" fill="white" fill-opacity="0.2" stroke="#329A29"/>
<path d="M163.113 344.829C163.113 344.053 163.266 343.285 163.563 342.568C163.86 341.852 164.295 341.201 164.844 340.652C165.392 340.103 166.043 339.668 166.76 339.371C167.477 339.074 168.245 338.922 169.021 338.922C169.797 338.922 170.565 339.074 171.281 339.371C171.998 339.668 172.649 340.103 173.198 340.652C173.747 341.201 174.182 341.852 174.479 342.568C174.775 343.285 174.928 344.053 174.928 344.829L169.021 344.829L163.113 344.829Z" fill="#329A29"/>
<circle cx="169.021" cy="335.287" r="3.6343" fill="#329A29"/>
</g>
<g filter="url(#filter5_b_2444_32074)">
<circle cx="169.021" cy="185.526" r="12.7592" fill="white" fill-opacity="0.2" stroke="#905DFB"/>
<path d="M163.113 191.865C163.113 191.089 163.266 190.321 163.563 189.605C163.86 188.888 164.295 188.237 164.844 187.688C165.392 187.14 166.043 186.704 166.76 186.408C167.477 186.111 168.245 185.958 169.021 185.958C169.797 185.958 170.565 186.111 171.281 186.408C171.998 186.704 172.649 187.14 173.198 187.688C173.747 188.237 174.182 188.888 174.479 189.605C174.775 190.321 174.928 191.089 174.928 191.865L169.021 191.865L163.113 191.865Z" fill="#905DFB"/>
<circle cx="169.021" cy="182.324" r="3.6343" fill="#905DFB"/>
</g>
<g filter="url(#filter6_b_2444_32074)">
<circle cx="129.877" cy="230.746" r="12.7592" fill="white" fill-opacity="0.2" stroke="#905DFB"/>
<path d="M123.97 237.085C123.97 236.31 124.123 235.542 124.42 234.825C124.717 234.108 125.152 233.457 125.7 232.908C126.249 232.36 126.9 231.925 127.617 231.628C128.334 231.331 129.102 231.178 129.877 231.178C130.653 231.178 131.421 231.331 132.138 231.628C132.855 231.925 133.506 232.36 134.055 232.908C134.603 233.457 135.038 234.108 135.335 234.825C135.632 235.542 135.785 236.31 135.785 237.085L129.877 237.085L123.97 237.085Z" fill="#905DFB"/>
<circle cx="129.877" cy="227.543" r="3.6343" fill="#905DFB"/>
</g>
<ellipse cx="496.236" cy="58.0907" rx="58.3158" ry="58.0907" fill="white"/>
<ellipse cx="350.447" cy="58.0907" rx="58.3158" ry="58.0907" fill="white"/>
<ellipse cx="204.658" cy="58.0907" rx="58.3158" ry="58.0907" fill="#905DFB"/>
<ellipse cx="58.868" cy="58.0907" rx="58.3158" ry="58.0907" fill="white"/>
<mask id="path-77-inside-15_2444_32074" fill="white">
<rect x="324.934" y="32.676" width="51.0263" height="50.8293" rx="1"/>
</mask>
<rect x="324.934" y="32.676" width="51.0263" height="50.8293" rx="1" stroke="#C4C4C4" stroke-width="8" mask="url(#path-77-inside-15_2444_32074)"/>
<path d="M336.71 52.3622L347.929 68.5996C348.332 69.1832 349.198 69.1731 349.587 68.5803L364.186 46.3609" stroke="#E84A42" stroke-opacity="0.5" stroke-width="4" stroke-linecap="round"/>
<path d="M481.988 83.5054C481.07 83.3186 480.135 83.1806 479.234 82.9371C476.996 82.3282 475.142 81.1429 473.673 79.4705C471.409 76.897 470.499 73.9094 470.77 70.6052C471.041 67.3254 472.405 64.419 474.661 61.9429C476.427 60.0107 478.386 58.2246 480.31 56.4224C484.743 52.2657 489.211 48.1335 493.661 43.9931C496.923 40.9649 500.166 37.9205 503.454 34.9167C504.783 33.6989 506.427 33.0089 508.28 32.7572C508.403 32.741 508.534 32.7004 508.656 32.676C509.207 32.676 509.767 32.676 510.318 32.676C511.113 32.8627 511.927 33.017 512.705 33.2362C514.209 33.6584 515.485 34.4458 516.631 35.4282C517.986 36.5972 519.018 37.9936 519.542 39.6416C520.504 42.6373 519.901 45.3651 517.654 47.7032C516.377 49.0346 514.978 50.2605 513.623 51.527C512.11 52.9477 510.58 54.3522 509.059 55.7648C507.546 57.1693 506.042 58.5819 504.529 59.9863C503.174 61.2528 501.819 62.5112 500.464 63.7695C498.514 65.588 496.555 67.3984 494.597 69.217C493.032 70.6702 491.501 72.1558 489.884 73.5603C488.179 75.046 486.159 75.9634 483.755 75.6792C481.42 75.4032 479.698 73.95 479.269 71.7418C478.884 69.7447 479.575 67.983 480.913 66.4729C481.936 65.3201 483.108 64.2729 484.235 63.2093C486.019 61.5288 487.829 59.8646 489.63 58.1922C491.904 56.0814 494.177 53.9706 496.45 51.8598C497.333 51.0399 498.217 50.2118 499.091 49.3837C500.009 48.515 501.338 48.4663 502.239 49.2863C503.096 50.0656 503.026 51.3321 502.107 52.1846C499.607 54.5064 497.115 56.8364 494.614 59.1583C492.629 61.0011 490.636 62.844 488.651 64.6869C487.27 65.9777 485.871 67.2604 484.524 68.5837C483.938 69.1601 483.457 69.834 483.431 70.6864C483.405 71.4495 483.868 71.8392 484.681 71.758C485.565 71.6768 486.273 71.2466 486.902 70.7189C487.584 70.1506 488.214 69.5336 488.861 68.9328C491.405 66.5704 493.941 64.2079 496.485 61.8455C500.114 58.4682 503.743 55.0909 507.38 51.7137C509.636 49.6191 511.892 47.5327 514.13 45.4219C515.197 44.4234 515.87 43.23 515.695 41.7849C515.52 40.3966 514.795 39.2276 513.684 38.294C512.381 37.198 510.895 36.4917 509.067 36.6297C507.913 36.719 506.951 37.198 506.147 37.9368C503.183 40.6727 500.236 43.4248 497.29 46.1688C494.623 48.6449 491.956 51.1129 489.298 53.589C487.313 55.4319 485.346 57.291 483.361 59.1339C482.085 60.3192 480.782 61.472 479.531 62.6816C477.512 64.6301 475.85 66.7896 475.212 69.493C474.609 72.0422 474.967 74.4614 476.664 76.5885C478.115 78.407 480.108 79.3893 482.574 79.503C484.9 79.6166 486.964 78.9103 488.922 77.8062C490.977 76.6534 492.629 75.0866 494.308 73.5278C498.217 69.8908 502.125 66.2619 506.033 62.6248C508.761 60.0919 511.472 57.5508 514.2 55.0179C515.494 53.8164 516.779 52.6067 518.091 51.4214C519.394 50.2443 521.16 50.9262 521.658 52.3388C521.912 53.0613 521.615 53.6783 521.09 54.1817C519.63 55.578 518.143 56.9419 516.666 58.3221C513.553 61.269 510.423 64.1836 507.284 67.0981C504.87 69.3469 502.448 71.5875 500.027 73.8282C498.523 75.2246 497.036 76.6372 495.524 78.0173C493.74 79.6491 491.755 81.0211 489.49 82.0278C487.777 82.7909 485.984 83.3105 484.069 83.4323C483.956 83.4404 483.842 83.4729 483.737 83.4972C483.16 83.5054 482.574 83.5054 481.988 83.5054Z" fill="#C4C4C4"/>
<path d="M231.816 56.2758C231.816 71.2052 219.664 83.3211 204.658 83.3211C189.651 83.3211 177.5 71.2052 177.5 56.2758C177.5 41.3464 189.651 29.2305 204.658 29.2305C219.664 29.2305 231.816 41.3464 231.816 56.2758Z" stroke="white" stroke-width="4"/>
<path d="M204.657 36.3071V56.2758H222.881" stroke="white" stroke-width="4" stroke-linecap="round"/>
<mask id="path-82-inside-16_2444_32074" fill="white">
<path fill-rule="evenodd" clip-rule="evenodd" d="M57.9889 81.8849C58.3673 82.5826 59.3687 82.5826 59.747 81.8849L64.7755 72.6132L85.8481 72.6132C88.0573 72.6132 89.8481 70.8223 89.8481 68.6132L89.8481 38.4912C89.8481 36.2821 88.0573 34.4912 85.8481 34.4912L31.8876 34.4912C29.6784 34.4912 27.8876 36.2821 27.8876 38.4912L27.8876 68.6132C27.8876 70.8223 29.6784 72.6132 31.8876 72.6132L52.9605 72.6132L57.9889 81.8849Z"/>
</mask>
<path d="M59.747 81.8849L56.2309 79.978L56.2309 79.978L59.747 81.8849ZM57.9889 81.8849L54.4728 83.7919L54.4728 83.7919L57.9889 81.8849ZM64.7755 72.6132L64.7755 68.6132L62.3944 68.6132L61.2593 70.7062L64.7755 72.6132ZM85.8481 72.6132L85.8481 76.6132L85.8481 72.6132ZM27.8876 38.4912L31.8876 38.4912L27.8876 38.4912ZM27.8876 68.6132L23.8876 68.6132L27.8876 68.6132ZM31.8876 72.6132L31.8876 76.6132L31.8876 72.6132ZM52.9605 72.6132L56.4767 70.7062L55.3415 68.6132L52.9605 68.6132L52.9605 72.6132ZM56.2309 79.978C57.366 77.8849 60.37 77.885 61.5051 79.978L54.4728 83.7919C56.3647 87.2803 61.3713 87.2803 63.2632 83.7919L56.2309 79.978ZM61.2593 70.7062L56.2309 79.978L63.2632 83.7919L68.2917 74.5202L61.2593 70.7062ZM85.8481 68.6132L64.7755 68.6132L64.7755 76.6132L85.8481 76.6132L85.8481 68.6132ZM85.8481 68.6132L85.8481 68.6132L85.8481 76.6132C90.2664 76.6132 93.8481 73.0315 93.8481 68.6132L85.8481 68.6132ZM85.8481 38.4912L85.8481 68.6132L93.8481 68.6132L93.8481 38.4912L85.8481 38.4912ZM85.8481 38.4912L85.8481 38.4912L93.8481 38.4912C93.8481 34.0729 90.2664 30.4912 85.8481 30.4912L85.8481 38.4912ZM31.8876 38.4912L85.8481 38.4912L85.8481 30.4912L31.8876 30.4912L31.8876 38.4912ZM31.8876 38.4912L31.8876 30.4912C27.4693 30.4912 23.8876 34.0729 23.8876 38.4912L31.8876 38.4912ZM31.8876 68.6132L31.8876 38.4912L23.8876 38.4912L23.8876 68.6132L31.8876 68.6132ZM31.8876 68.6132L23.8876 68.6132C23.8876 73.0315 27.4693 76.6132 31.8876 76.6132L31.8876 68.6132ZM52.9605 68.6132L31.8876 68.6132L31.8876 76.6132L52.9605 76.6132L52.9605 68.6132ZM61.5051 79.978L56.4767 70.7062L49.4443 74.5202L54.4728 83.7919L61.5051 79.978Z" fill="#C4C4C4" mask="url(#path-82-inside-16_2444_32074)"/>
<ellipse cx="73.4471" cy="54.4599" rx="3.64473" ry="3.63066" transform="rotate(-180 73.4471 54.4599)" fill="#C4C4C4"/>
<ellipse cx="58.868" cy="54.4599" rx="3.64473" ry="3.63066" transform="rotate(-180 58.868 54.4599)" fill="#C4C4C4"/>
<ellipse cx="44.2889" cy="54.4599" rx="3.64473" ry="3.63066" transform="rotate(-180 44.2889 54.4599)" fill="#C4C4C4"/>
<ellipse cx="496.236" cy="58.0907" rx="58.3158" ry="58.0907" fill="url(#paint0_radial_2444_32074)"/>
<ellipse cx="350.447" cy="58.0907" rx="58.3158" ry="58.0907" fill="url(#paint1_radial_2444_32074)"/>
<g filter="url(#filter7_i_2444_32074)">
<ellipse cx="204.658" cy="58.0907" rx="58.3158" ry="58.0907" fill="url(#paint2_radial_2444_32074)"/>
</g>
<ellipse cx="58.868" cy="58.0907" rx="58.3158" ry="58.0907" fill="url(#paint3_radial_2444_32074)"/>
<defs>
<filter id="filter0_b_2444_32074" x="151.762" y="137.263" width="34.5183" height="34.5183" filterUnits="userSpaceOnUse" color-interpolation-filters="sRGB">
<feFlood flood-opacity="0" result="BackgroundImageFix"/>
<feGaussianBlur in="BackgroundImageFix" stdDeviation="2"/>
<feComposite in2="SourceAlpha" operator="in" result="effect1_backgroundBlur_2444_32074"/>
<feBlend mode="normal" in="SourceGraphic" in2="effect1_backgroundBlur_2444_32074" result="shape"/>
</filter>
<filter id="filter1_b_2444_32074" x="151.762" y="259.222" width="34.5183" height="34.5183" filterUnits="userSpaceOnUse" color-interpolation-filters="sRGB">
<feFlood flood-opacity="0" result="BackgroundImageFix"/>
<feGaussianBlur in="BackgroundImageFix" stdDeviation="2"/>
<feComposite in2="SourceAlpha" operator="in" result="effect1_backgroundBlur_2444_32074"/>
<feBlend mode="normal" in="SourceGraphic" in2="effect1_backgroundBlur_2444_32074" result="shape"/>
</filter>
<filter id="filter2_b_2444_32074" x="262.52" y="213.487" width="34.5183" height="34.5183" filterUnits="userSpaceOnUse" color-interpolation-filters="sRGB">
<feFlood flood-opacity="0" result="BackgroundImageFix"/>
<feGaussianBlur in="BackgroundImageFix" stdDeviation="2"/>
<feComposite in2="SourceAlpha" operator="in" result="effect1_backgroundBlur_2444_32074"/>
<feBlend mode="normal" in="SourceGraphic" in2="effect1_backgroundBlur_2444_32074" result="shape"/>
</filter>
<filter id="filter3_b_2444_32074" x="151.762" y="290.227" width="34.5183" height="34.5183" filterUnits="userSpaceOnUse" color-interpolation-filters="sRGB">
<feFlood flood-opacity="0" result="BackgroundImageFix"/>
<feGaussianBlur in="BackgroundImageFix" stdDeviation="2"/>
<feComposite in2="SourceAlpha" operator="in" result="effect1_backgroundBlur_2444_32074"/>
<feBlend mode="normal" in="SourceGraphic" in2="effect1_backgroundBlur_2444_32074" result="shape"/>
</filter>
<filter id="filter4_b_2444_32074" x="151.762" y="321.231" width="34.5183" height="34.5183" filterUnits="userSpaceOnUse" color-interpolation-filters="sRGB">
<feFlood flood-opacity="0" result="BackgroundImageFix"/>
<feGaussianBlur in="BackgroundImageFix" stdDeviation="2"/>
<feComposite in2="SourceAlpha" operator="in" result="effect1_backgroundBlur_2444_32074"/>
<feBlend mode="normal" in="SourceGraphic" in2="effect1_backgroundBlur_2444_32074" result="shape"/>
</filter>
<filter id="filter5_b_2444_32074" x="151.762" y="168.267" width="34.5183" height="34.5183" filterUnits="userSpaceOnUse" color-interpolation-filters="sRGB">
<feFlood flood-opacity="0" result="BackgroundImageFix"/>
<feGaussianBlur in="BackgroundImageFix" stdDeviation="2"/>
<feComposite in2="SourceAlpha" operator="in" result="effect1_backgroundBlur_2444_32074"/>
<feBlend mode="normal" in="SourceGraphic" in2="effect1_backgroundBlur_2444_32074" result="shape"/>
</filter>
<filter id="filter6_b_2444_32074" x="112.618" y="213.487" width="34.5183" height="34.5183" filterUnits="userSpaceOnUse" color-interpolation-filters="sRGB">
<feFlood flood-opacity="0" result="BackgroundImageFix"/>
<feGaussianBlur in="BackgroundImageFix" stdDeviation="2"/>
<feComposite in2="SourceAlpha" operator="in" result="effect1_backgroundBlur_2444_32074"/>
<feBlend mode="normal" in="SourceGraphic" in2="effect1_backgroundBlur_2444_32074" result="shape"/>
</filter>
<filter id="filter7_i_2444_32074" x="146.342" y="0" width="120.632" height="120.181" filterUnits="userSpaceOnUse" color-interpolation-filters="sRGB">
<feFlood flood-opacity="0" result="BackgroundImageFix"/>
<feBlend mode="normal" in="SourceGraphic" in2="BackgroundImageFix" result="shape"/>
<feColorMatrix in="SourceAlpha" type="matrix" values="0 0 0 0 0 0 0 0 0 0 0 0 0 0 0 0 0 0 127 0" result="hardAlpha"/>
<feOffset dx="4" dy="4"/>
<feGaussianBlur stdDeviation="3.5"/>
<feComposite in2="hardAlpha" operator="arithmetic" k2="-1" k3="1"/>
<feColorMatrix type="matrix" values="0 0 0 0 0 0 0 0 0 0 0 0 0 0 0 0 0 0 0.25 0"/>
<feBlend mode="normal" in2="shape" result="effect1_innerShadow_2444_32074"/>
</filter>
<radialGradient id="paint0_radial_2444_32074" cx="0" cy="0" r="1" gradientUnits="userSpaceOnUse" gradientTransform="translate(496.236 58.0907) rotate(90) scale(58.0907 58.3158)">
<stop stop-color="white" stop-opacity="0"/>
<stop offset="1" stop-opacity="0.12"/>
</radialGradient>
<radialGradient id="paint1_radial_2444_32074" cx="0" cy="0" r="1" gradientUnits="userSpaceOnUse" gradientTransform="translate(350.447 58.0907) rotate(90) scale(58.0907 58.3158)">
<stop stop-color="white" stop-opacity="0"/>
<stop offset="1" stop-opacity="0.12"/>
</radialGradient>
<radialGradient id="paint2_radial_2444_32074" cx="0" cy="0" r="1" gradientUnits="userSpaceOnUse" gradientTransform="translate(204.658 58.0907) rotate(90) scale(58.0907 58.3158)">
<stop stop-color="white" stop-opacity="0"/>
<stop offset="1" stop-opacity="0.12"/>
</radialGradient>
<radialGradient id="paint3_radial_2444_32074" cx="0" cy="0" r="1" gradientUnits="userSpaceOnUse" gradientTransform="translate(58.868 58.0907) rotate(90) scale(58.0907 58.3158)">
<stop stop-color="white" stop-opacity="0"/>
<stop offset="1" stop-opacity="0.12"/>
</radialGradient>
</defs>
</svg>
